%TF.GenerationSoftware,KiCad,Pcbnew,9.0.4*%
%TF.CreationDate,2026-03-05T12:42:53+01:00*%
%TF.ProjectId,flightcontrolerPCB,666c6967-6874-4636-9f6e-74726f6c6572,rev?*%
%TF.SameCoordinates,Original*%
%TF.FileFunction,Copper,L1,Top*%
%TF.FilePolarity,Positive*%
%FSLAX46Y46*%
G04 Gerber Fmt 4.6, Leading zero omitted, Abs format (unit mm)*
G04 Created by KiCad (PCBNEW 9.0.4) date 2026-03-05 12:42:53*
%MOMM*%
%LPD*%
G01*
G04 APERTURE LIST*
G04 Aperture macros list*
%AMRoundRect*
0 Rectangle with rounded corners*
0 $1 Rounding radius*
0 $2 $3 $4 $5 $6 $7 $8 $9 X,Y pos of 4 corners*
0 Add a 4 corners polygon primitive as box body*
4,1,4,$2,$3,$4,$5,$6,$7,$8,$9,$2,$3,0*
0 Add four circle primitives for the rounded corners*
1,1,$1+$1,$2,$3*
1,1,$1+$1,$4,$5*
1,1,$1+$1,$6,$7*
1,1,$1+$1,$8,$9*
0 Add four rect primitives between the rounded corners*
20,1,$1+$1,$2,$3,$4,$5,0*
20,1,$1+$1,$4,$5,$6,$7,0*
20,1,$1+$1,$6,$7,$8,$9,0*
20,1,$1+$1,$8,$9,$2,$3,0*%
G04 Aperture macros list end*
%TA.AperFunction,SMDPad,CuDef*%
%ADD10R,1.550000X0.600000*%
%TD*%
%TA.AperFunction,ComponentPad*%
%ADD11C,0.600000*%
%TD*%
%TA.AperFunction,SMDPad,CuDef*%
%ADD12R,2.600000X3.100000*%
%TD*%
%TA.AperFunction,SMDPad,CuDef*%
%ADD13R,2.950000X4.500000*%
%TD*%
%TA.AperFunction,SMDPad,CuDef*%
%ADD14RoundRect,0.162500X0.650000X0.162500X-0.650000X0.162500X-0.650000X-0.162500X0.650000X-0.162500X0*%
%TD*%
%TA.AperFunction,ComponentPad*%
%ADD15RoundRect,0.250000X0.750000X0.750000X-0.750000X0.750000X-0.750000X-0.750000X0.750000X-0.750000X0*%
%TD*%
%TA.AperFunction,ComponentPad*%
%ADD16C,2.000000*%
%TD*%
%TA.AperFunction,SMDPad,CuDef*%
%ADD17RoundRect,0.135000X-0.135000X-0.185000X0.135000X-0.185000X0.135000X0.185000X-0.135000X0.185000X0*%
%TD*%
%TA.AperFunction,SMDPad,CuDef*%
%ADD18RoundRect,0.112500X0.112500X-0.187500X0.112500X0.187500X-0.112500X0.187500X-0.112500X-0.187500X0*%
%TD*%
%TA.AperFunction,SMDPad,CuDef*%
%ADD19RoundRect,0.200000X0.275000X-0.200000X0.275000X0.200000X-0.275000X0.200000X-0.275000X-0.200000X0*%
%TD*%
%TA.AperFunction,SMDPad,CuDef*%
%ADD20RoundRect,0.140000X0.140000X0.170000X-0.140000X0.170000X-0.140000X-0.170000X0.140000X-0.170000X0*%
%TD*%
%TA.AperFunction,ComponentPad*%
%ADD21RoundRect,0.200100X0.949900X0.949900X-0.949900X0.949900X-0.949900X-0.949900X0.949900X-0.949900X0*%
%TD*%
%TA.AperFunction,ComponentPad*%
%ADD22C,2.500000*%
%TD*%
%TA.AperFunction,SMDPad,CuDef*%
%ADD23RoundRect,0.140000X-0.140000X-0.170000X0.140000X-0.170000X0.140000X0.170000X-0.140000X0.170000X0*%
%TD*%
%TA.AperFunction,ComponentPad*%
%ADD24C,0.800000*%
%TD*%
%TA.AperFunction,ComponentPad*%
%ADD25C,6.000000*%
%TD*%
%TA.AperFunction,SMDPad,CuDef*%
%ADD26RoundRect,0.140000X-0.170000X0.140000X-0.170000X-0.140000X0.170000X-0.140000X0.170000X0.140000X0*%
%TD*%
%TA.AperFunction,SMDPad,CuDef*%
%ADD27R,2.700000X2.200000*%
%TD*%
%TA.AperFunction,SMDPad,CuDef*%
%ADD28RoundRect,0.135000X0.135000X0.185000X-0.135000X0.185000X-0.135000X-0.185000X0.135000X-0.185000X0*%
%TD*%
%TA.AperFunction,ComponentPad*%
%ADD29R,0.850000X0.850000*%
%TD*%
%TA.AperFunction,ComponentPad*%
%ADD30C,0.850000*%
%TD*%
%TA.AperFunction,SMDPad,CuDef*%
%ADD31O,0.254000X1.016000*%
%TD*%
%TA.AperFunction,SMDPad,CuDef*%
%ADD32O,1.016000X0.254000*%
%TD*%
%TA.AperFunction,SMDPad,CuDef*%
%ADD33R,2.616200X2.616200*%
%TD*%
%TA.AperFunction,SMDPad,CuDef*%
%ADD34RoundRect,0.135000X-0.185000X0.135000X-0.185000X-0.135000X0.185000X-0.135000X0.185000X0.135000X0*%
%TD*%
%TA.AperFunction,SMDPad,CuDef*%
%ADD35RoundRect,0.147500X0.147500X0.172500X-0.147500X0.172500X-0.147500X-0.172500X0.147500X-0.172500X0*%
%TD*%
%TA.AperFunction,SMDPad,CuDef*%
%ADD36RoundRect,0.147500X0.172500X-0.147500X0.172500X0.147500X-0.172500X0.147500X-0.172500X-0.147500X0*%
%TD*%
%TA.AperFunction,SMDPad,CuDef*%
%ADD37RoundRect,0.225000X0.250000X-0.225000X0.250000X0.225000X-0.250000X0.225000X-0.250000X-0.225000X0*%
%TD*%
%TA.AperFunction,SMDPad,CuDef*%
%ADD38RoundRect,0.140000X0.170000X-0.140000X0.170000X0.140000X-0.170000X0.140000X-0.170000X-0.140000X0*%
%TD*%
%TA.AperFunction,SMDPad,CuDef*%
%ADD39RoundRect,0.075000X0.075000X-0.700000X0.075000X0.700000X-0.075000X0.700000X-0.075000X-0.700000X0*%
%TD*%
%TA.AperFunction,SMDPad,CuDef*%
%ADD40RoundRect,0.075000X0.700000X-0.075000X0.700000X0.075000X-0.700000X0.075000X-0.700000X-0.075000X0*%
%TD*%
%TA.AperFunction,SMDPad,CuDef*%
%ADD41RoundRect,0.200000X0.200000X0.275000X-0.200000X0.275000X-0.200000X-0.275000X0.200000X-0.275000X0*%
%TD*%
%TA.AperFunction,SMDPad,CuDef*%
%ADD42R,2.200000X2.700000*%
%TD*%
%TA.AperFunction,SMDPad,CuDef*%
%ADD43R,0.950000X0.550000*%
%TD*%
%TA.AperFunction,SMDPad,CuDef*%
%ADD44RoundRect,0.250000X-0.350000X0.450000X-0.350000X-0.450000X0.350000X-0.450000X0.350000X0.450000X0*%
%TD*%
%TA.AperFunction,SMDPad,CuDef*%
%ADD45RoundRect,0.250000X0.475000X-0.250000X0.475000X0.250000X-0.475000X0.250000X-0.475000X-0.250000X0*%
%TD*%
%TA.AperFunction,SMDPad,CuDef*%
%ADD46R,0.900000X1.000000*%
%TD*%
%TA.AperFunction,SMDPad,CuDef*%
%ADD47R,1.700000X0.550000*%
%TD*%
%TA.AperFunction,ComponentPad*%
%ADD48RoundRect,0.250000X1.050000X1.050000X-1.050000X1.050000X-1.050000X-1.050000X1.050000X-1.050000X0*%
%TD*%
%TA.AperFunction,ComponentPad*%
%ADD49C,2.600000*%
%TD*%
%TA.AperFunction,SMDPad,CuDef*%
%ADD50RoundRect,0.025500X0.199500X0.124500X-0.199500X0.124500X-0.199500X-0.124500X0.199500X-0.124500X0*%
%TD*%
%TA.AperFunction,SMDPad,CuDef*%
%ADD51RoundRect,0.025500X0.124500X0.199500X-0.124500X0.199500X-0.124500X-0.199500X0.124500X-0.199500X0*%
%TD*%
%TA.AperFunction,SMDPad,CuDef*%
%ADD52RoundRect,0.037500X-0.112500X0.172500X-0.112500X-0.172500X0.112500X-0.172500X0.112500X0.172500X0*%
%TD*%
%TA.AperFunction,SMDPad,CuDef*%
%ADD53RoundRect,0.037500X-0.112500X0.167500X-0.112500X-0.167500X0.112500X-0.167500X0.112500X0.167500X0*%
%TD*%
%TA.AperFunction,SMDPad,CuDef*%
%ADD54RoundRect,0.100000X-0.575000X0.100000X-0.575000X-0.100000X0.575000X-0.100000X0.575000X0.100000X0*%
%TD*%
%TA.AperFunction,HeatsinkPad*%
%ADD55O,1.550000X0.890000*%
%TD*%
%TA.AperFunction,SMDPad,CuDef*%
%ADD56RoundRect,0.250000X-0.525000X0.475000X-0.525000X-0.475000X0.525000X-0.475000X0.525000X0.475000X0*%
%TD*%
%TA.AperFunction,HeatsinkPad*%
%ADD57O,0.950000X1.250000*%
%TD*%
%TA.AperFunction,SMDPad,CuDef*%
%ADD58RoundRect,0.250000X-0.525000X0.500000X-0.525000X-0.500000X0.525000X-0.500000X0.525000X0.500000X0*%
%TD*%
%TA.AperFunction,SMDPad,CuDef*%
%ADD59RoundRect,0.175000X-0.725000X-0.175000X0.725000X-0.175000X0.725000X0.175000X-0.725000X0.175000X0*%
%TD*%
%TA.AperFunction,SMDPad,CuDef*%
%ADD60RoundRect,0.200000X-0.700000X-0.200000X0.700000X-0.200000X0.700000X0.200000X-0.700000X0.200000X0*%
%TD*%
%TA.AperFunction,ComponentPad*%
%ADD61RoundRect,0.250000X-0.750000X-0.750000X0.750000X-0.750000X0.750000X0.750000X-0.750000X0.750000X0*%
%TD*%
%TA.AperFunction,SMDPad,CuDef*%
%ADD62RoundRect,0.135000X0.185000X-0.135000X0.185000X0.135000X-0.185000X0.135000X-0.185000X-0.135000X0*%
%TD*%
%TA.AperFunction,ViaPad*%
%ADD63C,0.600000*%
%TD*%
%TA.AperFunction,ViaPad*%
%ADD64C,0.500000*%
%TD*%
%TA.AperFunction,ViaPad*%
%ADD65C,0.300000*%
%TD*%
%TA.AperFunction,Conductor*%
%ADD66C,0.300000*%
%TD*%
%TA.AperFunction,Conductor*%
%ADD67C,0.200000*%
%TD*%
%TA.AperFunction,Conductor*%
%ADD68C,0.500000*%
%TD*%
%TA.AperFunction,Conductor*%
%ADD69C,0.700000*%
%TD*%
%TA.AperFunction,Conductor*%
%ADD70C,1.000000*%
%TD*%
G04 APERTURE END LIST*
D10*
%TO.P,U7,1,BOOT*%
%TO.N,Net-(U7-BOOT)*%
X134523089Y-74454265D03*
%TO.P,U7,2,NC*%
%TO.N,unconnected-(U7-NC-Pad2)*%
X134523089Y-73184265D03*
%TO.P,U7,3,NC*%
%TO.N,unconnected-(U7-NC-Pad3)*%
X134523089Y-71914265D03*
%TO.P,U7,4,VSENSE*%
%TO.N,Net-(U7-VSENSE)*%
X134523089Y-70644265D03*
%TO.P,U7,5,EN*%
%TO.N,VIN*%
X129123089Y-70644265D03*
%TO.P,U7,6,GND*%
%TO.N,GND*%
X129123089Y-71914265D03*
%TO.P,U7,7,VIN*%
%TO.N,VIN*%
X129123089Y-73184265D03*
%TO.P,U7,8,PH*%
%TO.N,Net-(D2-K)*%
X129123089Y-74454265D03*
D11*
%TO.P,U7,9,GNDPAD*%
%TO.N,GND*%
X132423089Y-74349265D03*
X132423089Y-73149265D03*
X132423089Y-71849265D03*
X132423089Y-70749265D03*
D12*
X131823089Y-72549265D03*
D13*
X131823089Y-72549265D03*
D11*
X131223089Y-74349265D03*
X131223089Y-73149265D03*
X131223089Y-71849265D03*
X131223089Y-70749265D03*
%TD*%
D14*
%TO.P,U10,1,~{CS}*%
%TO.N,CS_FLASH*%
X158862589Y-92926265D03*
%TO.P,U10,2,DO/IO_{1}*%
%TO.N,SPI2_MISO*%
X158862589Y-91656265D03*
%TO.P,U10,3,~{WP}/IO_{2}*%
%TO.N,VOUT_3.3V*%
X158862589Y-90386265D03*
%TO.P,U10,4,GND*%
%TO.N,GND*%
X158862589Y-89116265D03*
%TO.P,U10,5,DI/IO_{0}*%
%TO.N,SPI2_MOSI*%
X151687589Y-89116265D03*
%TO.P,U10,6,CLK*%
%TO.N,SPI2_SCK*%
X151687589Y-90386265D03*
%TO.P,U10,7,~{HOLD}/~{RESET}/IO_{3}*%
%TO.N,VOUT_3.3V*%
X151687589Y-91656265D03*
%TO.P,U10,8,VCC*%
X151687589Y-92926265D03*
%TD*%
D15*
%TO.P,C10,1*%
%TO.N,VOUT_3.3V*%
X122523089Y-78299265D03*
D16*
%TO.P,C10,2*%
%TO.N,GND*%
X117523089Y-78299265D03*
%TD*%
D17*
%TO.P,R4,1*%
%TO.N,VOUT_3.3V*%
X134513089Y-100799265D03*
%TO.P,R4,2*%
%TO.N,I2C1_SDA*%
X135533089Y-100799265D03*
%TD*%
D18*
%TO.P,D1,1,K*%
%TO.N,Net-(D1-K)*%
X157973089Y-74949265D03*
%TO.P,D1,2,A*%
%TO.N,GND*%
X157973089Y-72849265D03*
%TD*%
D19*
%TO.P,R16,1*%
%TO.N,Net-(R16-Pad1)*%
X124273089Y-72974265D03*
%TO.P,R16,2*%
%TO.N,Niveaux_Battrie*%
X124273089Y-71324265D03*
%TD*%
D20*
%TO.P,C9,1*%
%TO.N,VOUT_3.3V*%
X139103089Y-105899265D03*
%TO.P,C9,2*%
%TO.N,GND*%
X138143089Y-105899265D03*
%TD*%
D21*
%TO.P,ANTENNE,1,In*%
%TO.N,Net-(J1-In)*%
X121093089Y-114609265D03*
D22*
%TO.P,ANTENNE,2,Ext*%
%TO.N,GND*%
X123633089Y-117149265D03*
X123633089Y-112069265D03*
X118553089Y-117149265D03*
X118553089Y-112069265D03*
%TD*%
D23*
%TO.P,C7,1*%
%TO.N,VOUT_3.3V*%
X137043089Y-103899265D03*
%TO.P,C7,2*%
%TO.N,GND*%
X138003089Y-103899265D03*
%TD*%
D24*
%TO.P,H3,1,1*%
%TO.N,GND*%
X162923089Y-73049265D03*
X163582099Y-71458275D03*
X163582099Y-74640255D03*
X165173089Y-70799265D03*
D25*
X165173089Y-73049265D03*
D24*
X165173089Y-75299265D03*
X166764079Y-71458275D03*
X166764079Y-74640255D03*
X167423089Y-73049265D03*
%TD*%
D23*
%TO.P,C5,1*%
%TO.N,VOUT_3.3V*%
X150913089Y-101699265D03*
%TO.P,C5,2*%
%TO.N,GND*%
X151873089Y-101699265D03*
%TD*%
%TO.P,C1,1*%
%TO.N,Net-(U1-VCAP_2)*%
X140693089Y-91999265D03*
%TO.P,C1,2*%
%TO.N,GND*%
X141653089Y-91999265D03*
%TD*%
D26*
%TO.P,C3,1*%
%TO.N,GND*%
X159073089Y-100589265D03*
%TO.P,C3,2*%
%TO.N,NRST*%
X159073089Y-101549265D03*
%TD*%
D27*
%TO.P,L4,1,1*%
%TO.N,Net-(D1-K)*%
X150773089Y-81149265D03*
%TO.P,L4,2,2*%
%TO.N,VOUT_5V*%
X155873089Y-81149265D03*
%TD*%
D28*
%TO.P,R14,1*%
%TO.N,VBUS_SEN*%
X118133089Y-89369265D03*
%TO.P,R14,2*%
%TO.N,GND*%
X117113089Y-89369265D03*
%TD*%
D24*
%TO.P,H1,1,1*%
%TO.N,GND*%
X110523089Y-115449265D03*
X111182099Y-113858275D03*
X111182099Y-117040255D03*
X112773089Y-113199265D03*
D25*
X112773089Y-115449265D03*
D24*
X112773089Y-117699265D03*
X114364079Y-113858275D03*
X114364079Y-117040255D03*
X115023089Y-115449265D03*
%TD*%
D29*
%TO.P,J10,1,Pin_1*%
%TO.N,VOUT_3.3V*%
X134073089Y-107839265D03*
D30*
%TO.P,J10,2,Pin_2*%
%TO.N,Net-(J10-Pin_2)*%
X135073089Y-107839265D03*
%TO.P,J10,3,Pin_3*%
%TO.N,GND*%
X136073089Y-107839265D03*
%TD*%
D17*
%TO.P,R12,1*%
%TO.N,Net-(J2-D+)*%
X117113089Y-92619265D03*
%TO.P,R12,2*%
%TO.N,D+*%
X118133089Y-92619265D03*
%TD*%
D26*
%TO.P,C13,1*%
%TO.N,Net-(C13-Pad1)*%
X143673089Y-108469265D03*
%TO.P,C13,2*%
%TO.N,GND*%
X143673089Y-109429265D03*
%TD*%
%TO.P,C12,1*%
%TO.N,HSE_IN*%
X139173089Y-106869265D03*
%TO.P,C12,2*%
%TO.N,GND*%
X139173089Y-107829265D03*
%TD*%
D29*
%TO.P,ESC4,1,Pin_1*%
%TO.N,GND*%
X167843089Y-107069265D03*
D30*
%TO.P,ESC4,2,Pin_2*%
%TO.N,VOUT_5V*%
X167843089Y-108069265D03*
%TO.P,ESC4,3,Pin_3*%
%TO.N,Signal ESC4*%
X167843089Y-109069265D03*
%TD*%
D31*
%TO.P,U2,1,CLKIN*%
%TO.N,GND*%
X130716389Y-95065465D03*
%TO.P,U2,2*%
%TO.N,N/C*%
X131223489Y-95065465D03*
%TO.P,U2,3*%
X131725589Y-95065465D03*
%TO.P,U2,4*%
X132260589Y-95065465D03*
%TO.P,U2,5*%
X132765189Y-95065465D03*
%TO.P,U2,6,AUX_DA*%
%TO.N,unconnected-(U2-AUX_DA-Pad6)*%
X133269789Y-95065465D03*
D32*
%TO.P,U2,7,AUX_CL*%
%TO.N,unconnected-(U2-AUX_CL-Pad7)*%
X134094689Y-94265965D03*
%TO.P,U2,8,~{CS}*%
%TO.N,GYRO_1_CS*%
X134094689Y-93761365D03*
%TO.P,U2,9,AD0/MISO*%
%TO.N,SPI3_MISO*%
X134094689Y-93256765D03*
%TO.P,U2,10,REGOUT*%
%TO.N,Net-(U2-REGOUT)*%
X134094689Y-92721765D03*
%TO.P,U2,11,FSYNC*%
%TO.N,GND*%
X134094689Y-92219665D03*
%TO.P,U2,12,INT*%
%TO.N,GYRO_1_EXTI*%
X134094689Y-91712565D03*
D31*
%TO.P,U2,13,VDD*%
%TO.N,VOUT_3.3V*%
X133269789Y-90913065D03*
%TO.P,U2,14*%
%TO.N,N/C*%
X132765189Y-90913065D03*
%TO.P,U2,15*%
X132260589Y-90913065D03*
%TO.P,U2,16*%
X131725589Y-90913065D03*
%TO.P,U2,17*%
X131223489Y-90913065D03*
%TO.P,U2,18,GND*%
%TO.N,GND*%
X130716389Y-90913065D03*
D32*
%TO.P,U2,19*%
%TO.N,N/C*%
X129891489Y-91712565D03*
%TO.P,U2,20,CPOUT*%
%TO.N,Net-(U2-CPOUT)*%
X129891489Y-92219665D03*
%TO.P,U2,21*%
%TO.N,N/C*%
X129891489Y-92721765D03*
%TO.P,U2,22*%
X129891489Y-93256765D03*
%TO.P,U2,23,SCL/SCLK*%
%TO.N,SPI3_SCK*%
X129891489Y-93761365D03*
%TO.P,U2,24,SDA/MOSI*%
%TO.N,SPI3_MOSI*%
X129891489Y-94265965D03*
D33*
%TO.P,U2,P$1*%
%TO.N,N/C*%
X131983089Y-92979265D03*
%TD*%
D29*
%TO.P,ESC2,1,Pin_1*%
%TO.N,GND*%
X167843089Y-99069265D03*
D30*
%TO.P,ESC2,2,Pin_2*%
%TO.N,VOUT_5V*%
X167843089Y-100069265D03*
%TO.P,ESC2,3,Pin_3*%
%TO.N,Signal ESC2*%
X167843089Y-101069265D03*
%TD*%
D34*
%TO.P,R7,1*%
%TO.N,Net-(U7-VSENSE)*%
X136123089Y-71539265D03*
%TO.P,R7,2*%
%TO.N,VOUT_3.3V*%
X136123089Y-72559265D03*
%TD*%
D35*
%TO.P,D4,1,K*%
%TO.N,GND*%
X144758089Y-91999265D03*
%TO.P,D4,2,A*%
%TO.N,Net-(D4-A)*%
X143788089Y-91999265D03*
%TD*%
D20*
%TO.P,C6,1*%
%TO.N,VOUT_3.3V*%
X138603089Y-104949265D03*
%TO.P,C6,2*%
%TO.N,GND*%
X137643089Y-104949265D03*
%TD*%
D28*
%TO.P,R5,1*%
%TO.N,VOUT_5V*%
X158783089Y-71749265D03*
%TO.P,R5,2*%
%TO.N,Net-(U5-VSENSE)*%
X157763089Y-71749265D03*
%TD*%
D26*
%TO.P,C20,1*%
%TO.N,VOUT_3.3V*%
X126320589Y-106105265D03*
%TO.P,C20,2*%
%TO.N,GND*%
X126320589Y-107065265D03*
%TD*%
D36*
%TO.P,L6,1,1*%
%TO.N,VOUT_3.3V*%
X144723089Y-107684265D03*
%TO.P,L6,2,2*%
%TO.N,Net-(U1-VDDA)*%
X144723089Y-106714265D03*
%TD*%
D23*
%TO.P,C2,1*%
%TO.N,Net-(U1-VCAP_1)*%
X150943089Y-96149265D03*
%TO.P,C2,2*%
%TO.N,GND*%
X151903089Y-96149265D03*
%TD*%
D10*
%TO.P,U5,1,BOOT*%
%TO.N,Net-(U5-BOOT)*%
X155823089Y-76454265D03*
%TO.P,U5,2,NC*%
%TO.N,unconnected-(U5-NC-Pad2)*%
X155823089Y-75184265D03*
%TO.P,U5,3,NC*%
%TO.N,unconnected-(U5-NC-Pad3)*%
X155823089Y-73914265D03*
%TO.P,U5,4,VSENSE*%
%TO.N,Net-(U5-VSENSE)*%
X155823089Y-72644265D03*
%TO.P,U5,5,EN*%
%TO.N,VIN*%
X150423089Y-72644265D03*
%TO.P,U5,6,GND*%
%TO.N,GND*%
X150423089Y-73914265D03*
%TO.P,U5,7,VIN*%
%TO.N,VIN*%
X150423089Y-75184265D03*
%TO.P,U5,8,PH*%
%TO.N,Net-(D1-K)*%
X150423089Y-76454265D03*
D11*
%TO.P,U5,9,GNDPAD*%
%TO.N,GND*%
X153723089Y-76349265D03*
X153723089Y-75149265D03*
X153723089Y-73849265D03*
X153723089Y-72749265D03*
D12*
X153123089Y-74549265D03*
D13*
X153123089Y-74549265D03*
D11*
X152523089Y-76349265D03*
X152523089Y-75149265D03*
X152523089Y-73849265D03*
X152523089Y-72749265D03*
%TD*%
D37*
%TO.P,C15,1*%
%TO.N,Net-(U2-CPOUT)*%
X128433089Y-91704265D03*
%TO.P,C15,2*%
%TO.N,GND*%
X128433089Y-90154265D03*
%TD*%
D38*
%TO.P,C19,1*%
%TO.N,Net-(U3-C1)*%
X126458089Y-102496765D03*
%TO.P,C19,2*%
%TO.N,GND*%
X126458089Y-101536765D03*
%TD*%
D20*
%TO.P,C18,1*%
%TO.N,Net-(U3-SETP)*%
X128353089Y-100596765D03*
%TO.P,C18,2*%
%TO.N,Net-(U3-SETC)*%
X127393089Y-100596765D03*
%TD*%
D23*
%TO.P,C21,1*%
%TO.N,VIN*%
X147693089Y-80349265D03*
%TO.P,C21,2*%
%TO.N,GND*%
X148653089Y-80349265D03*
%TD*%
D28*
%TO.P,R9,1*%
%TO.N,VIN*%
X126483089Y-74549265D03*
%TO.P,R9,2*%
%TO.N,Net-(R16-Pad1)*%
X125463089Y-74549265D03*
%TD*%
D39*
%TO.P,U1,1,VBAT*%
%TO.N,VOUT_3.3V*%
X140023089Y-104874265D03*
%TO.P,U1,2,PC13*%
%TO.N,unconnected-(U1-PC13-Pad2)*%
X140523089Y-104874265D03*
%TO.P,U1,3,PC14*%
%TO.N,unconnected-(U1-PC14-Pad3)*%
X141023089Y-104874265D03*
%TO.P,U1,4,PC15*%
%TO.N,unconnected-(U1-PC15-Pad4)*%
X141523089Y-104874265D03*
%TO.P,U1,5,PH0*%
%TO.N,HSE_IN*%
X142023089Y-104874265D03*
%TO.P,U1,6,PH1*%
%TO.N,HSE_OUT*%
X142523089Y-104874265D03*
%TO.P,U1,7,NRST*%
%TO.N,NRST*%
X143023089Y-104874265D03*
%TO.P,U1,8,PC0*%
%TO.N,Niveaux_Battrie*%
X143523089Y-104874265D03*
%TO.P,U1,9,PC1*%
%TO.N,unconnected-(U1-PC1-Pad9)*%
X144023089Y-104874265D03*
%TO.P,U1,10,PC2*%
%TO.N,unconnected-(U1-PC2-Pad10)*%
X144523089Y-104874265D03*
%TO.P,U1,11,PC3*%
%TO.N,unconnected-(U1-PC3-Pad11)*%
X145023089Y-104874265D03*
%TO.P,U1,12,VSSA*%
%TO.N,GND*%
X145523089Y-104874265D03*
%TO.P,U1,13,VDDA*%
%TO.N,Net-(U1-VDDA)*%
X146023089Y-104874265D03*
%TO.P,U1,14,PA0*%
%TO.N,GPS_TX*%
X146523089Y-104874265D03*
%TO.P,U1,15,PA1*%
%TO.N,GPS_RX*%
X147023089Y-104874265D03*
%TO.P,U1,16,PA2*%
%TO.N,Signal ESC4*%
X147523089Y-104874265D03*
D40*
%TO.P,U1,17,PA3*%
%TO.N,Signal ESC3*%
X149448089Y-102949265D03*
%TO.P,U1,18,VSS*%
%TO.N,GND*%
X149448089Y-102449265D03*
%TO.P,U1,19,VDD*%
%TO.N,VOUT_3.3V*%
X149448089Y-101949265D03*
%TO.P,U1,20,PA4*%
%TO.N,unconnected-(U1-PA4-Pad20)*%
X149448089Y-101449265D03*
%TO.P,U1,21,PA5*%
%TO.N,unconnected-(U1-PA5-Pad21)*%
X149448089Y-100949265D03*
%TO.P,U1,22,PA6*%
%TO.N,unconnected-(U1-PA6-Pad22)*%
X149448089Y-100449265D03*
%TO.P,U1,23,PA7*%
%TO.N,unconnected-(U1-PA7-Pad23)*%
X149448089Y-99949265D03*
%TO.P,U1,24,PC4*%
%TO.N,unconnected-(U1-PC4-Pad24)*%
X149448089Y-99449265D03*
%TO.P,U1,25,PC5*%
%TO.N,VBUS_SEN*%
X149448089Y-98949265D03*
%TO.P,U1,26,PB0*%
%TO.N,Signal ESC2*%
X149448089Y-98449265D03*
%TO.P,U1,27,PB1*%
%TO.N,Signal ESC1*%
X149448089Y-97949265D03*
%TO.P,U1,28,PB2*%
%TO.N,unconnected-(U1-PB2-Pad28)*%
X149448089Y-97449265D03*
%TO.P,U1,29,PB10*%
%TO.N,unconnected-(U1-PB10-Pad29)*%
X149448089Y-96949265D03*
%TO.P,U1,30,PB11*%
%TO.N,IBUS_RX_MCU*%
X149448089Y-96449265D03*
%TO.P,U1,31,VCAP_1*%
%TO.N,Net-(U1-VCAP_1)*%
X149448089Y-95949265D03*
%TO.P,U1,32,VDD*%
%TO.N,VOUT_3.3V*%
X149448089Y-95449265D03*
D39*
%TO.P,U1,33,PB12*%
%TO.N,CS_FLASH*%
X147523089Y-93524265D03*
%TO.P,U1,34,PB13*%
%TO.N,SPI2_SCK*%
X147023089Y-93524265D03*
%TO.P,U1,35,PB14*%
%TO.N,SPI2_MISO*%
X146523089Y-93524265D03*
%TO.P,U1,36,PB15*%
%TO.N,SPI2_MOSI*%
X146023089Y-93524265D03*
%TO.P,U1,37,PC6*%
%TO.N,MSP_TX_MCU*%
X145523089Y-93524265D03*
%TO.P,U1,38,PC7*%
%TO.N,unconnected-(U1-PC7-Pad38)*%
X145023089Y-93524265D03*
%TO.P,U1,39,PC8*%
%TO.N,unconnected-(U1-PC8-Pad39)*%
X144523089Y-93524265D03*
%TO.P,U1,40,PC9*%
%TO.N,unconnected-(U1-PC9-Pad40)*%
X144023089Y-93524265D03*
%TO.P,U1,41,PA8*%
%TO.N,Net-(D4-A)*%
X143523089Y-93524265D03*
%TO.P,U1,42,PA9*%
%TO.N,unconnected-(U1-PA9-Pad42)*%
X143023089Y-93524265D03*
%TO.P,U1,43,PA10*%
%TO.N,ID*%
X142523089Y-93524265D03*
%TO.P,U1,44,PA11*%
%TO.N,D-*%
X142023089Y-93524265D03*
%TO.P,U1,45,PA12*%
%TO.N,D+*%
X141523089Y-93524265D03*
%TO.P,U1,46,PA13*%
%TO.N,SWDIO*%
X141023089Y-93524265D03*
%TO.P,U1,47,VCAP_2*%
%TO.N,Net-(U1-VCAP_2)*%
X140523089Y-93524265D03*
%TO.P,U1,48,VDD*%
%TO.N,VOUT_3.3V*%
X140023089Y-93524265D03*
D40*
%TO.P,U1,49,PA14*%
%TO.N,SWDCLK*%
X138098089Y-95449265D03*
%TO.P,U1,50,PA15*%
%TO.N,unconnected-(U1-PA15-Pad50)*%
X138098089Y-95949265D03*
%TO.P,U1,51,PC10*%
%TO.N,SPI3_SCK*%
X138098089Y-96449265D03*
%TO.P,U1,52,PC11*%
%TO.N,SPI3_MISO*%
X138098089Y-96949265D03*
%TO.P,U1,53,PC12*%
%TO.N,SPI3_MOSI*%
X138098089Y-97449265D03*
%TO.P,U1,54,PD2*%
%TO.N,unconnected-(U1-PD2-Pad54)*%
X138098089Y-97949265D03*
%TO.P,U1,55,PB3*%
%TO.N,GYRO_1_CS*%
X138098089Y-98449265D03*
%TO.P,U1,56,PB4*%
%TO.N,unconnected-(U1-PB4-Pad56)*%
X138098089Y-98949265D03*
%TO.P,U1,57,PB5*%
%TO.N,unconnected-(U1-PB5-Pad57)*%
X138098089Y-99449265D03*
%TO.P,U1,58,PB6*%
%TO.N,I2C1_SCL*%
X138098089Y-99949265D03*
%TO.P,U1,59,PB7*%
%TO.N,I2C1_SDA*%
X138098089Y-100449265D03*
%TO.P,U1,60,BOOT0*%
%TO.N,BOOT0*%
X138098089Y-100949265D03*
%TO.P,U1,61,PB8*%
%TO.N,GYRO_1_EXTI*%
X138098089Y-101449265D03*
%TO.P,U1,62,PB9*%
%TO.N,unconnected-(U1-PB9-Pad62)*%
X138098089Y-101949265D03*
%TO.P,U1,63,VSS*%
%TO.N,GND*%
X138098089Y-102449265D03*
%TO.P,U1,64,VDD*%
%TO.N,VOUT_3.3V*%
X138098089Y-102949265D03*
%TD*%
D34*
%TO.P,R8,1*%
%TO.N,Net-(U7-VSENSE)*%
X137123089Y-71539265D03*
%TO.P,R8,2*%
%TO.N,GND*%
X137123089Y-72559265D03*
%TD*%
D41*
%TO.P,R6,1*%
%TO.N,Net-(U5-VSENSE)*%
X157898089Y-70449265D03*
%TO.P,R6,2*%
%TO.N,Net-(R18-Pad2)*%
X156248089Y-70449265D03*
%TD*%
D29*
%TO.P,POWER,1,Pin_1*%
%TO.N,GND*%
X167843089Y-87919265D03*
D30*
%TO.P,POWER,2,Pin_2*%
%TO.N,VOUT_3.3V*%
X167843089Y-88919265D03*
%TO.P,POWER,3,Pin_3*%
%TO.N,VOUT_5V*%
X167843089Y-89919265D03*
%TD*%
D29*
%TO.P,J7,1,Pin_1*%
%TO.N,SWDCLK*%
X110273089Y-85599265D03*
D30*
%TO.P,J7,2,Pin_2*%
%TO.N,SWDIO*%
X110273089Y-84599265D03*
%TO.P,J7,3,Pin_3*%
%TO.N,NRST*%
X110273089Y-83599265D03*
%TO.P,J7,4,Pin_4*%
%TO.N,GND*%
X110273089Y-82599265D03*
%TO.P,J7,5,Pin_5*%
%TO.N,VOUT_3.3V*%
X110273089Y-81599265D03*
%TD*%
D42*
%TO.P,L5,1,1*%
%TO.N,Net-(D2-K)*%
X129573089Y-77099265D03*
%TO.P,L5,2,2*%
%TO.N,VOUT_3.3V*%
X129573089Y-82199265D03*
%TD*%
D43*
%TO.P,U4,1,VDD*%
%TO.N,VOUT_3.3V*%
X127520589Y-105996765D03*
%TO.P,U4,2,PS*%
X127520589Y-107246765D03*
%TO.P,U4,3,GND*%
%TO.N,GND*%
X127520589Y-108496765D03*
%TO.P,U4,4,CSB*%
X127520589Y-109746765D03*
%TO.P,U4,5,CSB*%
X129670589Y-109746765D03*
%TO.P,U4,6,SDO*%
%TO.N,VOUT_3.3V*%
X129670589Y-108496765D03*
%TO.P,U4,7,SDI/SDA*%
%TO.N,I2C1_SDA*%
X129670589Y-107246765D03*
%TO.P,U4,8,SCLK*%
%TO.N,I2C1_SCL*%
X129670589Y-105996765D03*
%TD*%
D20*
%TO.P,C16,1*%
%TO.N,VOUT_3.3V*%
X132713089Y-89779265D03*
%TO.P,C16,2*%
%TO.N,GND*%
X131753089Y-89779265D03*
%TD*%
D23*
%TO.P,C4,1*%
%TO.N,VOUT_3.3V*%
X150913089Y-95199265D03*
%TO.P,C4,2*%
%TO.N,GND*%
X151873089Y-95199265D03*
%TD*%
D41*
%TO.P,R19,1*%
%TO.N,Net-(R18-Pad1)*%
X152898089Y-70999265D03*
%TO.P,R19,2*%
%TO.N,GND*%
X151248089Y-70999265D03*
%TD*%
D29*
%TO.P,ESC1,1,Pin_1*%
%TO.N,GND*%
X167843089Y-95019265D03*
D30*
%TO.P,ESC1,2,Pin_2*%
%TO.N,VOUT_5V*%
X167843089Y-96019265D03*
%TO.P,ESC1,3,Pin_3*%
%TO.N,Signal ESC1*%
X167843089Y-97019265D03*
%TD*%
D23*
%TO.P,C14,1*%
%TO.N,Net-(U2-REGOUT)*%
X135593089Y-92649265D03*
%TO.P,C14,2*%
%TO.N,GND*%
X136553089Y-92649265D03*
%TD*%
D44*
%TO.P,Y1,1,1*%
%TO.N,HSE_IN*%
X140573089Y-107149265D03*
%TO.P,Y1,2,2*%
%TO.N,GND*%
X140573089Y-109349265D03*
%TO.P,Y1,3,3*%
X142273089Y-109349265D03*
%TO.P,Y1,4,4*%
%TO.N,Net-(C13-Pad1)*%
X142273089Y-107149265D03*
%TD*%
D29*
%TO.P,FC,1,Pin_1*%
%TO.N,IBUS_RX_MCU*%
X167803089Y-92979265D03*
D30*
%TO.P,FC,2,Pin_2*%
%TO.N,MSP_TX_MCU*%
X167803089Y-91979265D03*
%TD*%
D17*
%TO.P,R18,1*%
%TO.N,Net-(R18-Pad1)*%
X154063089Y-71149265D03*
%TO.P,R18,2*%
%TO.N,Net-(R18-Pad2)*%
X155083089Y-71149265D03*
%TD*%
%TO.P,R13,1*%
%TO.N,Net-(J2-D-)*%
X117113089Y-91669265D03*
%TO.P,R13,2*%
%TO.N,D-*%
X118133089Y-91669265D03*
%TD*%
D45*
%TO.P,D3,1,K*%
%TO.N,VIN*%
X136923089Y-79049265D03*
%TO.P,D3,2,A*%
%TO.N,Net-(D3-A)*%
X136923089Y-77149265D03*
%TD*%
D29*
%TO.P,ESC3,1,Pin_1*%
%TO.N,GND*%
X167843089Y-103069265D03*
D30*
%TO.P,ESC3,2,Pin_2*%
%TO.N,VOUT_5V*%
X167843089Y-104069265D03*
%TO.P,ESC3,3,Pin_3*%
%TO.N,Signal ESC3*%
X167843089Y-105069265D03*
%TD*%
D46*
%TO.P,SW1,1,1*%
%TO.N,GND*%
X153623089Y-100049265D03*
X157723089Y-100049265D03*
%TO.P,SW1,2,2*%
%TO.N,NRST*%
X153623089Y-101649265D03*
X157723089Y-101649265D03*
D47*
%TO.P,SW1,SH*%
%TO.N,N/C*%
X155673089Y-99424265D03*
%TD*%
D34*
%TO.P,R2,1*%
%TO.N,HSE_OUT*%
X143673089Y-106589265D03*
%TO.P,R2,2*%
%TO.N,Net-(C13-Pad1)*%
X143673089Y-107609265D03*
%TD*%
D26*
%TO.P,C30,1*%
%TO.N,Net-(U1-VDDA)*%
X145673089Y-106719265D03*
%TO.P,C30,2*%
%TO.N,GND*%
X145673089Y-107679265D03*
%TD*%
D48*
%TO.P,J13,1,Pin_1*%
%TO.N,GND*%
X146073089Y-74126765D03*
D49*
%TO.P,J13,2,Pin_2*%
%TO.N,Net-(D3-A)*%
X141073089Y-74126765D03*
%TD*%
D50*
%TO.P,U3,1,SCL*%
%TO.N,I2C1_SCL*%
X129948089Y-103596765D03*
%TO.P,U3,2,VDD*%
%TO.N,VOUT_3.3V*%
X129948089Y-103096765D03*
%TO.P,U3,3*%
%TO.N,N/C*%
X129948089Y-102596765D03*
%TO.P,U3,4,S1*%
%TO.N,VOUT_3.3V*%
X129948089Y-102096765D03*
D51*
%TO.P,U3,5*%
%TO.N,N/C*%
X129423089Y-101571765D03*
%TO.P,U3,6*%
X128923089Y-101571765D03*
%TO.P,U3,7*%
X128423089Y-101571765D03*
%TO.P,U3,8,SETP*%
%TO.N,Net-(U3-SETP)*%
X127923089Y-101571765D03*
D50*
%TO.P,U3,9,GND*%
%TO.N,GND*%
X127398089Y-102096765D03*
%TO.P,U3,10,C1*%
%TO.N,Net-(U3-C1)*%
X127398089Y-102596765D03*
%TO.P,U3,11,GND*%
%TO.N,GND*%
X127398089Y-103096765D03*
%TO.P,U3,12,SETC*%
%TO.N,Net-(U3-SETC)*%
X127398089Y-103596765D03*
D51*
%TO.P,U3,13,VDDIO*%
%TO.N,VOUT_3.3V*%
X127923089Y-104121765D03*
%TO.P,U3,14*%
%TO.N,N/C*%
X128423089Y-104121765D03*
%TO.P,U3,15,DRDY*%
%TO.N,unconnected-(U3-DRDY-Pad15)*%
X128923089Y-104121765D03*
%TO.P,U3,16,SDA*%
%TO.N,I2C1_SDA*%
X129423089Y-104121765D03*
%TD*%
D17*
%TO.P,R11,1*%
%TO.N,VOUT_5V*%
X117113089Y-90319265D03*
%TO.P,R11,2*%
%TO.N,VBUS_SEN*%
X118133089Y-90319265D03*
%TD*%
D18*
%TO.P,D2,1,K*%
%TO.N,Net-(D2-K)*%
X136523089Y-75799265D03*
%TO.P,D2,2,A*%
%TO.N,GND*%
X136523089Y-73699265D03*
%TD*%
D20*
%TO.P,C8,1*%
%TO.N,VOUT_3.3V*%
X139803089Y-91999265D03*
%TO.P,C8,2*%
%TO.N,GND*%
X138843089Y-91999265D03*
%TD*%
D52*
%TO.P,U6,1,D+*%
%TO.N,Net-(J2-D+)*%
X118273089Y-94229265D03*
D53*
%TO.P,U6,2,D-*%
%TO.N,Net-(J2-D-)*%
X117773089Y-94224265D03*
%TO.P,U6,3,ID*%
%TO.N,ID*%
X117273089Y-94224265D03*
%TO.P,U6,4,GND*%
%TO.N,GND*%
X117273089Y-94814265D03*
%TO.P,U6,5*%
%TO.N,N/C*%
X117773089Y-94814265D03*
%TO.P,U6,6,VBUS*%
%TO.N,VOUT_5V*%
X118273089Y-94814265D03*
%TD*%
D17*
%TO.P,R10,1*%
%TO.N,Niveaux_Battrie*%
X125463089Y-70999265D03*
%TO.P,R10,2*%
%TO.N,GND*%
X126483089Y-70999265D03*
%TD*%
D24*
%TO.P,H2,1,1*%
%TO.N,GND*%
X163173089Y-115534165D03*
X163832099Y-113943175D03*
X163832099Y-117125155D03*
X165423089Y-113284165D03*
D25*
X165423089Y-115534165D03*
D24*
X165423089Y-117784165D03*
X167014079Y-113943175D03*
X167014079Y-117125155D03*
X167673089Y-115534165D03*
%TD*%
%TO.P,H4,1,1*%
%TO.N,GND*%
X110573089Y-72949265D03*
X111232099Y-71358275D03*
X111232099Y-74540255D03*
X112823089Y-70699265D03*
D25*
X112823089Y-72949265D03*
D24*
X112823089Y-75199265D03*
X114414079Y-71358275D03*
X114414079Y-74540255D03*
X115073089Y-72949265D03*
%TD*%
D20*
%TO.P,C25,1*%
%TO.N,Net-(D2-K)*%
X135103089Y-75949265D03*
%TO.P,C25,2*%
%TO.N,Net-(U7-BOOT)*%
X134143089Y-75949265D03*
%TD*%
D17*
%TO.P,R3,1*%
%TO.N,VOUT_3.3V*%
X134513089Y-99799265D03*
%TO.P,R3,2*%
%TO.N,I2C1_SCL*%
X135533089Y-99799265D03*
%TD*%
D26*
%TO.P,C31,1*%
%TO.N,Net-(U1-VDDA)*%
X147673089Y-107169265D03*
%TO.P,C31,2*%
%TO.N,GND*%
X147673089Y-108129265D03*
%TD*%
D54*
%TO.P,J2,1,VBUS*%
%TO.N,VOUT_5V*%
X114523089Y-91219265D03*
%TO.P,J2,2,D-*%
%TO.N,Net-(J2-D-)*%
X114523089Y-91869265D03*
%TO.P,J2,3,D+*%
%TO.N,Net-(J2-D+)*%
X114523089Y-92519265D03*
%TO.P,J2,4,ID*%
%TO.N,ID*%
X114523089Y-93169265D03*
%TO.P,J2,5,GND*%
%TO.N,GND*%
X114523089Y-93819265D03*
D55*
%TO.P,J2,6,Shield*%
X111823089Y-89019265D03*
D56*
X111823089Y-89494265D03*
D57*
X114523089Y-90019265D03*
D58*
X111823089Y-91519265D03*
X111823089Y-93519265D03*
D57*
X114523089Y-95019265D03*
D56*
X111823089Y-95544265D03*
D55*
X111823089Y-96019265D03*
%TD*%
D20*
%TO.P,C22,1*%
%TO.N,Net-(D1-K)*%
X158553089Y-76299265D03*
%TO.P,C22,2*%
%TO.N,Net-(U5-BOOT)*%
X157593089Y-76299265D03*
%TD*%
D59*
%TO.P,U9,1,GND*%
%TO.N,GND*%
X112373089Y-99376765D03*
D60*
%TO.P,U9,2,TXD*%
%TO.N,GPS_TX*%
X112373089Y-100476765D03*
%TO.P,U9,3,RXD*%
%TO.N,GPS_RX*%
X112373089Y-101576765D03*
%TO.P,U9,4,TIMEPULSE*%
%TO.N,unconnected-(U9-TIMEPULSE-Pad4)*%
X112373089Y-102676765D03*
%TO.P,U9,5,EXTINT*%
%TO.N,unconnected-(U9-EXTINT-Pad5)*%
X112373089Y-103776765D03*
%TO.P,U9,6,V_BCKP*%
%TO.N,VOUT_3.3V*%
X112373089Y-104876765D03*
%TO.P,U9,7,VCC_IO*%
X112373089Y-105976765D03*
%TO.P,U9,8,VCC*%
X112373089Y-107076765D03*
D59*
%TO.P,U9,9,~{RESET}*%
%TO.N,unconnected-(U9-~{RESET}-Pad9)*%
X112373089Y-108176765D03*
%TO.P,U9,10,GND*%
%TO.N,GND*%
X121873089Y-108176765D03*
D60*
%TO.P,U9,11,RF_IN*%
%TO.N,Net-(J1-In)*%
X121873089Y-107076765D03*
%TO.P,U9,12,GND*%
%TO.N,GND*%
X121873089Y-105976765D03*
%TO.P,U9,13,LNA_EN*%
%TO.N,unconnected-(U9-LNA_EN-Pad13)*%
X121873089Y-104876765D03*
%TO.P,U9,14,VCC_RF*%
%TO.N,unconnected-(U9-VCC_RF-Pad14)*%
X121873089Y-103776765D03*
%TO.P,U9,15,VIO_SEL*%
%TO.N,unconnected-(U9-VIO_SEL-Pad15)*%
X121873089Y-102676765D03*
%TO.P,U9,16,SDA*%
%TO.N,unconnected-(U9-SDA-Pad16)*%
X121873089Y-101576765D03*
%TO.P,U9,17,SCL*%
%TO.N,unconnected-(U9-SCL-Pad17)*%
X121873089Y-100476765D03*
D59*
%TO.P,U9,18,~{SAFEBOOT}*%
%TO.N,unconnected-(U9-~{SAFEBOOT}-Pad18)*%
X121873089Y-99376765D03*
%TD*%
D61*
%TO.P,C23,1*%
%TO.N,VOUT_5V*%
X160675412Y-82559265D03*
D16*
%TO.P,C23,2*%
%TO.N,GND*%
X165675412Y-82559265D03*
%TD*%
D62*
%TO.P,R17,1*%
%TO.N,Net-(U1-VDDA)*%
X146673089Y-108159265D03*
%TO.P,R17,2*%
X146673089Y-107139265D03*
%TD*%
D28*
%TO.P,R15,1*%
%TO.N,VOUT_3.3V*%
X161423089Y-92979265D03*
%TO.P,R15,2*%
%TO.N,CS_FLASH*%
X160403089Y-92979265D03*
%TD*%
D34*
%TO.P,R1,1*%
%TO.N,BOOT0*%
X135023089Y-105179265D03*
%TO.P,R1,2*%
%TO.N,Net-(J10-Pin_2)*%
X135023089Y-106199265D03*
%TD*%
D20*
%TO.P,C17,1*%
%TO.N,VOUT_3.3V*%
X130238089Y-100616765D03*
%TO.P,C17,2*%
%TO.N,GND*%
X129278089Y-100616765D03*
%TD*%
%TO.P,C24,1*%
%TO.N,VIN*%
X127603089Y-73149265D03*
%TO.P,C24,2*%
%TO.N,GND*%
X126643089Y-73149265D03*
%TD*%
D63*
%TO.N,GND*%
X126320589Y-107149265D03*
X138143089Y-105899265D03*
X153623089Y-100049265D03*
X134882486Y-92121766D03*
X137123089Y-72559265D03*
X114523089Y-93819265D03*
X128016627Y-102246764D03*
X130646489Y-94749265D03*
X144758089Y-91999265D03*
D64*
X121873089Y-108176765D03*
D63*
X140573089Y-109349265D03*
X138843089Y-91999265D03*
X151248089Y-70999265D03*
X151873089Y-95199265D03*
X158862589Y-89116265D03*
X139173089Y-107829265D03*
X136523089Y-73699265D03*
X147673089Y-108129265D03*
X145604981Y-103775289D03*
X127520589Y-109746765D03*
X111823089Y-91519265D03*
X142273089Y-109349265D03*
X153123089Y-74549265D03*
X157723089Y-100049265D03*
X117307805Y-95319266D03*
X126483089Y-70999265D03*
X138003089Y-103899265D03*
X111823089Y-95544265D03*
X136413089Y-92529265D03*
X143673089Y-109429265D03*
D64*
X112373089Y-99376765D03*
D63*
X159073089Y-100589265D03*
X131823089Y-72549265D03*
X130573089Y-90099265D03*
X131753089Y-89779265D03*
X139723089Y-101999265D03*
X129278089Y-100616765D03*
X129123089Y-71914265D03*
X151873089Y-101699265D03*
X137643089Y-104949265D03*
X150423089Y-73914265D03*
X126643089Y-73149265D03*
X127520589Y-108496765D03*
X111823089Y-89494265D03*
X148223089Y-101998938D03*
X151903089Y-96099265D03*
X145673089Y-107679265D03*
X129670589Y-109746765D03*
X126458089Y-101536765D03*
X157973089Y-72849265D03*
X141653089Y-91999265D03*
X111823089Y-93519265D03*
X148653089Y-80349265D03*
X128433089Y-90154265D03*
X127931033Y-103060958D03*
X117113089Y-89369265D03*
D64*
X121873089Y-105976765D03*
D63*
%TO.N,NRST*%
X153673089Y-101649265D03*
X143383089Y-101499265D03*
X121793064Y-90819240D03*
%TO.N,VOUT_5V*%
X159873089Y-72149265D03*
X155873089Y-81149265D03*
X119023089Y-93569265D03*
X121923089Y-89699265D03*
X117113089Y-90319265D03*
X126873089Y-86349265D03*
%TO.N,VOUT_3.3V*%
X132728089Y-89794265D03*
X127520589Y-105996765D03*
X137043089Y-103899265D03*
X151687589Y-91656265D03*
X127823089Y-104140302D03*
X127520589Y-107246765D03*
X144723089Y-107684265D03*
X139813089Y-92009265D03*
X130238089Y-100649265D03*
X129670589Y-108496765D03*
D64*
X162353089Y-91079265D03*
D63*
X151687589Y-92926265D03*
X150913089Y-95199265D03*
X134513089Y-100799265D03*
D64*
X112373089Y-107076765D03*
D63*
X150913089Y-101699265D03*
X139103089Y-105899265D03*
X158862589Y-90386265D03*
X136123089Y-72559265D03*
D64*
X161423089Y-92979265D03*
D63*
X134073089Y-99850265D03*
D64*
X112373089Y-104876765D03*
X112373089Y-105976765D03*
D63*
X129323089Y-103049265D03*
X129573089Y-82199265D03*
D65*
%TO.N,ID*%
X132273089Y-98799265D03*
D63*
X141673089Y-98049265D03*
%TO.N,Net-(J2-D-)*%
X117113089Y-91669265D03*
X117118824Y-93473530D03*
%TO.N,SWDCLK*%
X111823089Y-85999265D03*
X136823089Y-94499265D03*
%TO.N,SWDIO*%
X112173089Y-85149265D03*
X140661197Y-94938844D03*
%TO.N,Niveaux_Battrie*%
X145573089Y-99549265D03*
X138173089Y-90499265D03*
%TO.N,VBUS_SEN*%
X124923089Y-94549265D03*
X141373089Y-99199265D03*
%TO.N,D+*%
X134673089Y-97799265D03*
X141223089Y-97199265D03*
%TO.N,D-*%
X141823089Y-95573530D03*
X134373089Y-96549265D03*
D64*
%TO.N,GPS_RX*%
X146793089Y-106299265D03*
D65*
X114163089Y-102289265D03*
D63*
%TO.N,SPI3_SCK*%
X136723089Y-96199265D03*
X128923089Y-93349265D03*
D64*
%TO.N,GPS_TX*%
X115936589Y-100935765D03*
D65*
X145833089Y-102879265D03*
D63*
%TO.N,SPI3_MOSI*%
X136247354Y-97425000D03*
X129023089Y-94249265D03*
%TD*%
D66*
%TO.N,GND*%
X127895226Y-103096765D02*
X127931033Y-103060958D01*
X134784587Y-92219665D02*
X134882486Y-92121766D01*
X145523089Y-104874265D02*
X145523089Y-103857181D01*
X130716389Y-90913065D02*
X130716389Y-90242565D01*
X148223089Y-102033089D02*
X148223089Y-101998938D01*
X117273089Y-95284550D02*
X117307805Y-95319266D01*
X145523089Y-103857181D02*
X145604981Y-103775289D01*
X127398089Y-103096765D02*
X127895226Y-103096765D01*
X148639265Y-102449265D02*
X148223089Y-102033089D01*
D67*
X130716389Y-94819165D02*
X130646489Y-94749265D01*
D66*
X138098089Y-102449265D02*
X139273089Y-102449265D01*
X117273089Y-94814265D02*
X117273089Y-95284550D01*
X149448089Y-102449265D02*
X148639265Y-102449265D01*
X126320589Y-107149265D02*
X126320589Y-107065265D01*
X127520589Y-108496765D02*
X126320589Y-107296765D01*
X139273089Y-102449265D02*
X139723089Y-101999265D01*
D67*
X130716389Y-95065465D02*
X130716389Y-94819165D01*
D66*
X126320589Y-107296765D02*
X126320589Y-107149265D01*
X130716389Y-90242565D02*
X130573089Y-90099265D01*
X127398089Y-102096765D02*
X127866628Y-102096765D01*
X134094689Y-92219665D02*
X134784587Y-92219665D01*
X127866628Y-102096765D02*
X128016627Y-102246764D01*
%TO.N,Net-(U1-VCAP_2)*%
X140523089Y-92169265D02*
X140693089Y-91999265D01*
X140523089Y-93524265D02*
X140523089Y-92169265D01*
%TO.N,Net-(U1-VCAP_1)*%
X150573089Y-96099265D02*
X150893089Y-96099265D01*
X150423089Y-95949265D02*
X150573089Y-96099265D01*
X149448089Y-95949265D02*
X150423089Y-95949265D01*
X150893089Y-96099265D02*
X150943089Y-96149265D01*
%TO.N,NRST*%
X143023089Y-103449265D02*
X143023089Y-104874265D01*
D68*
X157723089Y-101649265D02*
X153673089Y-101649265D01*
X153673089Y-101649265D02*
X153623089Y-101649265D01*
D66*
X114573089Y-83599265D02*
X110273089Y-83599265D01*
X143383089Y-103089265D02*
X143023089Y-103449265D01*
X121793064Y-90819240D02*
X114573089Y-83599265D01*
X159073089Y-101549265D02*
X157823089Y-101549265D01*
X157823089Y-101549265D02*
X157723089Y-101649265D01*
X143383089Y-101499265D02*
X143383089Y-103089265D01*
%TO.N,SPI2_MISO*%
X147460899Y-91249265D02*
X148978079Y-91249265D01*
X148978079Y-91249265D02*
X150485079Y-89742265D01*
X146523089Y-92187075D02*
X147460899Y-91249265D01*
X154960089Y-91656265D02*
X158862589Y-91656265D01*
X146523089Y-93524265D02*
X146523089Y-92187075D01*
X153046089Y-89742265D02*
X154960089Y-91656265D01*
X150485079Y-89742265D02*
X153046089Y-89742265D01*
%TO.N,HSE_IN*%
X142023089Y-104874265D02*
X142023089Y-105699265D01*
X140573089Y-106949265D02*
X140573089Y-107149265D01*
X142023089Y-105699265D02*
X140573089Y-107149265D01*
X140293089Y-106869265D02*
X140573089Y-107149265D01*
X139173089Y-106869265D02*
X140293089Y-106869265D01*
%TO.N,Net-(C13-Pad1)*%
X142733089Y-107609265D02*
X142273089Y-107149265D01*
X143593089Y-108469265D02*
X142273089Y-107149265D01*
X143673089Y-108469265D02*
X143593089Y-108469265D01*
X143673089Y-107609265D02*
X142733089Y-107609265D01*
%TO.N,Net-(U2-REGOUT)*%
X134094689Y-92721765D02*
X135520589Y-92721765D01*
X135520589Y-92721765D02*
X135593089Y-92649265D01*
%TO.N,Net-(U2-CPOUT)*%
X129891489Y-92219665D02*
X128948489Y-92219665D01*
X128948489Y-92219665D02*
X128433089Y-91704265D01*
%TO.N,Net-(U3-SETP)*%
X127923089Y-101026765D02*
X127923089Y-101571765D01*
X128353089Y-100596765D02*
X127923089Y-101026765D01*
%TO.N,Net-(U3-SETC)*%
X126460539Y-100596765D02*
X125847089Y-101210215D01*
X126620539Y-103596765D02*
X127398089Y-103596765D01*
X125847089Y-102823315D02*
X126620539Y-103596765D01*
X127393089Y-100596765D02*
X126460539Y-100596765D01*
X125847089Y-101210215D02*
X125847089Y-102823315D01*
%TO.N,Net-(U3-C1)*%
X126458089Y-102496765D02*
X126558089Y-102596765D01*
X126558089Y-102596765D02*
X127398089Y-102596765D01*
D69*
%TO.N,VIN*%
X150423089Y-72644265D02*
X149616089Y-72644265D01*
X129123089Y-73184265D02*
X127638089Y-73184265D01*
X127847089Y-72715265D02*
X127847089Y-71113265D01*
X128123089Y-79899265D02*
X132873089Y-79899265D01*
X127423089Y-79199265D02*
X128123089Y-79899265D01*
X136923089Y-79049265D02*
X146823089Y-79049265D01*
X132873089Y-79899265D02*
X133723089Y-79049265D01*
X128316089Y-73184265D02*
X127847089Y-72715265D01*
X149616089Y-75184265D02*
X150423089Y-75184265D01*
X127638089Y-73184265D02*
X127603089Y-73149265D01*
X126483089Y-74549265D02*
X127423089Y-75489265D01*
D66*
X150423089Y-72644265D02*
X149948089Y-72644265D01*
D69*
X133723089Y-79049265D02*
X136923089Y-79049265D01*
X149616089Y-72644265D02*
X149147089Y-73113265D01*
X150423089Y-75184265D02*
X149316089Y-75184265D01*
X147388089Y-77112265D02*
X147388089Y-79614265D01*
X127423089Y-75489265D02*
X127423089Y-79199265D01*
X149316089Y-75184265D02*
X147388089Y-77112265D01*
X147693089Y-79919265D02*
X147693089Y-80349265D01*
X149147089Y-74715265D02*
X149616089Y-75184265D01*
X147388089Y-79614265D02*
X147693089Y-79919265D01*
X127848089Y-73184265D02*
X129123089Y-73184265D01*
X127847089Y-71113265D02*
X128316089Y-70644265D01*
X149147089Y-73113265D02*
X149147089Y-74715265D01*
X146823089Y-79049265D02*
X147388089Y-79614265D01*
X126483089Y-74549265D02*
X127848089Y-73184265D01*
X128316089Y-73184265D02*
X129123089Y-73184265D01*
X128316089Y-70644265D02*
X129123089Y-70644265D01*
%TO.N,Net-(D1-K)*%
X150773089Y-81149265D02*
X150773089Y-77749265D01*
X157973089Y-74949265D02*
X158444089Y-75420265D01*
X157973089Y-74949265D02*
X158553089Y-75529265D01*
X157363481Y-77749265D02*
X150773089Y-77749265D01*
X158444089Y-76668657D02*
X157363481Y-77749265D01*
X158553089Y-75529265D02*
X158553089Y-76299265D01*
X150773089Y-77749265D02*
X150773089Y-76804265D01*
D68*
X150773089Y-76454265D02*
X150423089Y-76454265D01*
D69*
X158444089Y-75420265D02*
X158444089Y-76668657D01*
X150773089Y-76804265D02*
X150423089Y-76454265D01*
%TO.N,Net-(U5-BOOT)*%
X155978089Y-76299265D02*
X155823089Y-76454265D01*
X157593089Y-76299265D02*
X155978089Y-76299265D01*
D66*
%TO.N,VOUT_5V*%
X159473089Y-71749265D02*
X159873089Y-72149265D01*
D68*
X126873089Y-86349265D02*
X123523089Y-89699265D01*
D66*
X114523089Y-91219265D02*
X116563089Y-91219265D01*
X119023089Y-94244017D02*
X119023089Y-93569265D01*
X116563089Y-91219265D02*
X117113089Y-90669265D01*
D70*
X160675412Y-82559265D02*
X157283089Y-82559265D01*
D66*
X118273089Y-94814265D02*
X118452841Y-94814265D01*
X118452841Y-94814265D02*
X119023089Y-94244017D01*
X158783089Y-71749265D02*
X159473089Y-71749265D01*
D68*
X123523089Y-89699265D02*
X121923089Y-89699265D01*
D70*
X157283089Y-82559265D02*
X155873089Y-81149265D01*
D66*
X117113089Y-90669265D02*
X117113089Y-90319265D01*
D68*
%TO.N,Net-(D2-K)*%
X136523089Y-75799265D02*
X135253089Y-75799265D01*
X135253089Y-75799265D02*
X135103089Y-75949265D01*
D69*
X129573089Y-77099265D02*
X129573089Y-74904265D01*
D68*
X134072059Y-77099265D02*
X129573089Y-77099265D01*
X135103089Y-75949265D02*
X135103089Y-76068235D01*
D69*
X129573089Y-74904265D02*
X129123089Y-74454265D01*
D68*
X135103089Y-76068235D02*
X134072059Y-77099265D01*
D69*
%TO.N,Net-(U7-BOOT)*%
X134143089Y-74834265D02*
X134143089Y-75949265D01*
X134523089Y-74454265D02*
X134143089Y-74834265D01*
D66*
%TO.N,VOUT_3.3V*%
X127841626Y-104121765D02*
X127823089Y-104140302D01*
X140023089Y-104874265D02*
X139948089Y-104949265D01*
X137043089Y-103329265D02*
X137423089Y-102949265D01*
X140023089Y-105649265D02*
X140023089Y-104874265D01*
X132728089Y-89794265D02*
X132713089Y-89779265D01*
X137043089Y-103899265D02*
X137043089Y-103329265D01*
X139773089Y-105899265D02*
X140023089Y-105649265D01*
X130238089Y-100616765D02*
X130238089Y-100649265D01*
X127923089Y-104121765D02*
X127841626Y-104121765D01*
D70*
X129373089Y-81999265D02*
X129573089Y-82199265D01*
D66*
X150913089Y-101699265D02*
X150663089Y-101949265D01*
X139813089Y-92009265D02*
X139803089Y-91999265D01*
D70*
X127273089Y-82199265D02*
X123373089Y-78299265D01*
D66*
X139948089Y-104949265D02*
X138603089Y-104949265D01*
X129370589Y-103096765D02*
X129323089Y-103049265D01*
D70*
X129573089Y-82199265D02*
X127273089Y-82199265D01*
D66*
X150663089Y-101949265D02*
X149448089Y-101949265D01*
X150663089Y-95449265D02*
X150913089Y-95199265D01*
D70*
X123373089Y-78299265D02*
X122523089Y-78299265D01*
D66*
X140023089Y-92219265D02*
X139813089Y-92009265D01*
X140023089Y-93524265D02*
X140023089Y-92219265D01*
X133269789Y-90913065D02*
X133269789Y-90335965D01*
X130238089Y-100649265D02*
X130238089Y-101806765D01*
X134513089Y-99799265D02*
X134124089Y-99799265D01*
X149448089Y-95449265D02*
X150663089Y-95449265D01*
X137423089Y-102949265D02*
X138098089Y-102949265D01*
X130238089Y-101806765D02*
X129948089Y-102096765D01*
X127412089Y-106105265D02*
X127520589Y-105996765D01*
X129948089Y-103096765D02*
X129370589Y-103096765D01*
X126320589Y-106105265D02*
X127412089Y-106105265D01*
X139103089Y-105899265D02*
X139773089Y-105899265D01*
X134124089Y-99799265D02*
X134073089Y-99850265D01*
X133269789Y-90335965D02*
X132728089Y-89794265D01*
D68*
%TO.N,Net-(U7-VSENSE)*%
X134523089Y-70644265D02*
X135228089Y-70644265D01*
X137123089Y-71539265D02*
X136123089Y-71539265D01*
X135228089Y-70644265D02*
X136123089Y-71539265D01*
D66*
%TO.N,Net-(U1-VDDA)*%
X146673089Y-108159265D02*
X146673089Y-107139265D01*
X146023089Y-104874265D02*
X146023089Y-106369265D01*
X147673089Y-107169265D02*
X146823089Y-107169265D01*
X146673089Y-107019265D02*
X146023089Y-106369265D01*
X145678089Y-106714265D02*
X146023089Y-106369265D01*
X146023089Y-106369265D02*
X146023089Y-105683089D01*
X146823089Y-107169265D02*
X146023089Y-106369265D01*
X146023089Y-106089265D02*
X146023089Y-104874265D01*
X144723089Y-106714265D02*
X145678089Y-106714265D01*
X146023089Y-106369265D02*
X145673089Y-106719265D01*
X146673089Y-107139265D02*
X146673089Y-107019265D01*
X146023089Y-105683089D02*
X146023089Y-104874265D01*
X146023089Y-106089265D02*
X146023089Y-105683089D01*
D70*
%TO.N,Net-(D3-A)*%
X141073089Y-74399265D02*
X138323089Y-77149265D01*
X141073089Y-74126765D02*
X141073089Y-74399265D01*
X138323089Y-77149265D02*
X136923089Y-77149265D01*
D66*
%TO.N,Net-(D4-A)*%
X143523089Y-93524265D02*
X143523089Y-92264265D01*
X143523089Y-92264265D02*
X143788089Y-91999265D01*
D69*
%TO.N,Net-(J1-In)*%
X121873089Y-107076765D02*
X121112231Y-107076765D01*
X120472089Y-107716907D02*
X120472089Y-113988265D01*
X121112231Y-107076765D02*
X120472089Y-107716907D01*
X120472089Y-113988265D02*
X121093089Y-114609265D01*
D66*
%TO.N,ID*%
X132273089Y-98799265D02*
X130973089Y-98799265D01*
X116793853Y-93998501D02*
X115964616Y-93169265D01*
X117373089Y-96269265D02*
X116473089Y-95369265D01*
X141673089Y-98049265D02*
X142523089Y-97199265D01*
X130973089Y-98799265D02*
X128443089Y-96269265D01*
X116473089Y-95369265D02*
X116473089Y-94319265D01*
X128443089Y-96269265D02*
X117373089Y-96269265D01*
X117273089Y-94224265D02*
X117019616Y-94224265D01*
X116473089Y-94319265D02*
X116793853Y-93998501D01*
X115964616Y-93169265D02*
X114523089Y-93169265D01*
X142523089Y-97199265D02*
X142523089Y-93524265D01*
X117019616Y-94224265D02*
X116793853Y-93998501D01*
%TO.N,Net-(J2-D-)*%
X116913089Y-91869265D02*
X117113089Y-91669265D01*
D67*
X117773089Y-94224265D02*
X117773089Y-94019265D01*
X117227354Y-93473530D02*
X117118824Y-93473530D01*
X117773089Y-94019265D02*
X117227354Y-93473530D01*
D66*
X114523089Y-91869265D02*
X116913089Y-91869265D01*
%TO.N,Net-(J2-D+)*%
X114523089Y-92519265D02*
X117013089Y-92519265D01*
X117013089Y-92519265D02*
X117113089Y-92619265D01*
X117113089Y-92619265D02*
X118273089Y-93779265D01*
X118273089Y-93779265D02*
X118273089Y-94229265D01*
%TO.N,Signal ESC1*%
X167843089Y-97019265D02*
X164063089Y-97019265D01*
X149448089Y-97949265D02*
X163133089Y-97949265D01*
X164063089Y-97019265D02*
X163133089Y-97949265D01*
%TO.N,Signal ESC2*%
X156573089Y-98449265D02*
X149448089Y-98449265D01*
X157113089Y-98989265D02*
X156573089Y-98449265D01*
X161873089Y-101069265D02*
X159793089Y-98989265D01*
X159793089Y-98989265D02*
X157113089Y-98989265D01*
X167843089Y-101069265D02*
X161873089Y-101069265D01*
%TO.N,Signal ESC4*%
X167366369Y-108619265D02*
X163643089Y-108619265D01*
X167569089Y-108795265D02*
X167542369Y-108795265D01*
X163643089Y-108619265D02*
X162953089Y-107929265D01*
X167542369Y-108795265D02*
X167366369Y-108619265D01*
X149733089Y-107929265D02*
X147523089Y-105719265D01*
X167843089Y-109069265D02*
X167569089Y-108795265D01*
X147523089Y-105719265D02*
X147523089Y-104874265D01*
X162953089Y-107929265D02*
X149733089Y-107929265D01*
%TO.N,Signal ESC3*%
X167843089Y-105069265D02*
X153493089Y-105069265D01*
X167843089Y-105069265D02*
X167643089Y-104869265D01*
X153493089Y-105069265D02*
X151373089Y-102949265D01*
X151373089Y-102949265D02*
X149448089Y-102949265D01*
%TO.N,SWDCLK*%
X111423089Y-85599265D02*
X110273089Y-85599265D01*
X138098089Y-95449265D02*
X137773089Y-95449265D01*
X137773089Y-95449265D02*
X136823089Y-94499265D01*
X111823089Y-85999265D02*
X111423089Y-85599265D01*
%TO.N,SWDIO*%
X141023089Y-94576952D02*
X141023089Y-93524265D01*
X140661197Y-94938844D02*
X141023089Y-94576952D01*
X110273089Y-84599265D02*
X111623089Y-84599265D01*
X111623089Y-84599265D02*
X112173089Y-85149265D01*
%TO.N,IBUS_RX_MCU*%
X165950899Y-92979265D02*
X167803089Y-92979265D01*
X164119899Y-94810265D02*
X165950899Y-92979265D01*
X149448089Y-96449265D02*
X150256913Y-96449265D01*
X150567913Y-96760265D02*
X153312089Y-96760265D01*
X150256913Y-96449265D02*
X150567913Y-96760265D01*
X153312089Y-96760265D02*
X153323089Y-96749265D01*
X153323089Y-96749265D02*
X154273089Y-96749265D01*
X154273089Y-96749265D02*
X156212089Y-94810265D01*
X156212089Y-94810265D02*
X164119899Y-94810265D01*
%TO.N,MSP_TX_MCU*%
X167803089Y-91979265D02*
X167529089Y-92253265D01*
X145523089Y-94333089D02*
X145523089Y-93524265D01*
X167529089Y-92253265D02*
X166039089Y-92253265D01*
X166039089Y-92253265D02*
X163933089Y-94359265D01*
X150574539Y-94600265D02*
X145790265Y-94600265D01*
X145790265Y-94600265D02*
X145523089Y-94333089D01*
X163933089Y-94359265D02*
X150815539Y-94359265D01*
X150815539Y-94359265D02*
X150574539Y-94600265D01*
%TO.N,I2C1_SDA*%
X135533089Y-101939265D02*
X135533089Y-100799265D01*
X130225589Y-107246765D02*
X135533089Y-101939265D01*
X135883089Y-100449265D02*
X138098089Y-100449265D01*
X129423089Y-104121765D02*
X129423089Y-104449265D01*
X128573089Y-105299265D02*
X128573089Y-106649265D01*
X128573089Y-106649265D02*
X129170589Y-107246765D01*
X129170589Y-107246765D02*
X129670589Y-107246765D01*
X129423089Y-104449265D02*
X128573089Y-105299265D01*
X135533089Y-100799265D02*
X135883089Y-100449265D01*
X129670589Y-107246765D02*
X130225589Y-107246765D01*
%TO.N,I2C1_SCL*%
X134823089Y-98649265D02*
X135533089Y-99359265D01*
X135683089Y-99949265D02*
X138098089Y-99949265D01*
X133573089Y-98649265D02*
X134823089Y-98649265D01*
X135533089Y-99359265D02*
X135533089Y-99799265D01*
X131173089Y-101049265D02*
X133573089Y-98649265D01*
X135533089Y-99799265D02*
X135683089Y-99949265D01*
X131173089Y-103099265D02*
X131173089Y-101049265D01*
X129948089Y-105219265D02*
X129948089Y-103596765D01*
X129948089Y-103596765D02*
X130675589Y-103596765D01*
X130675589Y-103596765D02*
X131173089Y-103099265D01*
X129670589Y-105996765D02*
X129670589Y-105496765D01*
X129670589Y-105496765D02*
X129948089Y-105219265D01*
%TO.N,BOOT0*%
X135023089Y-103215441D02*
X137289265Y-100949265D01*
X135023089Y-105179265D02*
X135023089Y-103215441D01*
X137289265Y-100949265D02*
X138098089Y-100949265D01*
%TO.N,HSE_OUT*%
X143353090Y-106589265D02*
X142523089Y-105759264D01*
X142523089Y-105759264D02*
X142523089Y-104874265D01*
X143673089Y-106589265D02*
X143353090Y-106589265D01*
D69*
%TO.N,Net-(U5-VSENSE)*%
X156868089Y-72644265D02*
X157763089Y-71749265D01*
X155823089Y-72644265D02*
X156868089Y-72644265D01*
D68*
X155828089Y-72649265D02*
X156573089Y-72649265D01*
D69*
X157898089Y-71614265D02*
X156868089Y-72644265D01*
D68*
X155823089Y-72644265D02*
X155828089Y-72649265D01*
D69*
X157898089Y-70449265D02*
X157898089Y-71614265D01*
D66*
%TO.N,Niveaux_Battrie*%
X145573089Y-101999265D02*
X143523089Y-104049265D01*
X120923089Y-79349265D02*
X128371089Y-86797265D01*
X134471089Y-86797265D02*
X138173089Y-90499265D01*
X145573089Y-99549265D02*
X145573089Y-101999265D01*
X124273089Y-71324265D02*
X120923089Y-74674265D01*
D68*
X124273089Y-71324265D02*
X125138089Y-71324265D01*
D66*
X128371089Y-86797265D02*
X134471089Y-86797265D01*
D68*
X125138089Y-71324265D02*
X125463089Y-70999265D01*
D66*
X120923089Y-74674265D02*
X120923089Y-79349265D01*
X143523089Y-104049265D02*
X143523089Y-104874265D01*
%TO.N,VBUS_SEN*%
X123623089Y-93249265D02*
X124923089Y-94549265D01*
X142223089Y-98949265D02*
X149448089Y-98949265D01*
X119351725Y-89369265D02*
X118133089Y-89369265D01*
X123623089Y-93249265D02*
X123231725Y-93249265D01*
X118133089Y-89369265D02*
X118133089Y-90319265D01*
X123231725Y-93249265D02*
X119351725Y-89369265D01*
X141973089Y-99199265D02*
X142223089Y-98949265D01*
X141373089Y-99199265D02*
X141973089Y-99199265D01*
%TO.N,D+*%
X121013089Y-92619265D02*
X124143089Y-95749265D01*
X141223089Y-97199265D02*
X141223089Y-95149265D01*
X118133089Y-92619265D02*
X121013089Y-92619265D01*
X131435279Y-97799265D02*
X134673089Y-97799265D01*
X141523089Y-94849265D02*
X141523089Y-93524265D01*
X141223089Y-95149265D02*
X141523089Y-94849265D01*
X124143089Y-95749265D02*
X129385279Y-95749265D01*
X129385279Y-95749265D02*
X131435279Y-97799265D01*
%TO.N,D-*%
X142023089Y-95373530D02*
X142023089Y-93524265D01*
X120893089Y-91669265D02*
X118133089Y-91669265D01*
X124473089Y-95249265D02*
X120893089Y-91669265D01*
X130823089Y-96549265D02*
X129523089Y-95249265D01*
X141823089Y-95573530D02*
X142023089Y-95373530D01*
X129523089Y-95249265D02*
X124473089Y-95249265D01*
X134373089Y-96549265D02*
X130823089Y-96549265D01*
D68*
%TO.N,CS_FLASH*%
X160350089Y-92926265D02*
X160403089Y-92979265D01*
D66*
X147836184Y-92286170D02*
X156702184Y-92286170D01*
X157312589Y-92926265D02*
X158862589Y-92926265D01*
X157342279Y-92926265D02*
X158862589Y-92926265D01*
X147523089Y-92599265D02*
X147836184Y-92286170D01*
D68*
X158862589Y-92926265D02*
X160350089Y-92926265D01*
D66*
X156702184Y-92286170D02*
X157342279Y-92926265D01*
X147523089Y-93524265D02*
X147523089Y-92599265D01*
%TO.N,SPI3_MISO*%
X136123089Y-93999265D02*
X135380589Y-93256765D01*
X136123089Y-96449265D02*
X136123089Y-93999265D01*
X135380589Y-93256765D02*
X134094689Y-93256765D01*
X136623089Y-96949265D02*
X136123089Y-96449265D01*
X138098089Y-96949265D02*
X136623089Y-96949265D01*
%TO.N,GYRO_1_EXTI*%
X136373089Y-91499265D02*
X140373089Y-95499265D01*
X140373089Y-95499265D02*
X140373089Y-100199265D01*
X140373089Y-100199265D02*
X139123089Y-101449265D01*
X134307989Y-91499265D02*
X136373089Y-91499265D01*
X134094689Y-91712565D02*
X134307989Y-91499265D01*
X139123089Y-101449265D02*
X138098089Y-101449265D01*
%TO.N,GPS_RX*%
X112373089Y-101576765D02*
X113450589Y-101576765D01*
X147023089Y-106069265D02*
X147023089Y-104874265D01*
X113450589Y-101576765D02*
X114163089Y-102289265D01*
X146793089Y-106299265D02*
X147023089Y-106069265D01*
%TO.N,SPI3_SCK*%
X136973089Y-96449265D02*
X136723089Y-96199265D01*
X138098089Y-96449265D02*
X136973089Y-96449265D01*
X128973032Y-93349265D02*
X129385132Y-93761365D01*
X128923089Y-93349265D02*
X128973032Y-93349265D01*
X129385132Y-93761365D02*
X129891489Y-93761365D01*
%TO.N,GYRO_1_CS*%
X136423089Y-98449265D02*
X135273089Y-97299265D01*
X135273089Y-94357765D02*
X134676689Y-93761365D01*
X134676689Y-93761365D02*
X134094689Y-93761365D01*
X135273089Y-97299265D02*
X135273089Y-94357765D01*
X138098089Y-98449265D02*
X136423089Y-98449265D01*
%TO.N,SPI2_MOSI*%
X151687589Y-89116265D02*
X148956089Y-89116265D01*
X146023089Y-92049265D02*
X146023089Y-93524265D01*
X148956089Y-89116265D02*
X146023089Y-92049265D01*
%TO.N,SPI2_SCK*%
X147023089Y-93524265D02*
X147023089Y-92400265D01*
X150478889Y-90386265D02*
X151687589Y-90386265D01*
X147723089Y-91700265D02*
X149164889Y-91700265D01*
X147023089Y-92400265D02*
X147723089Y-91700265D01*
X149164889Y-91700265D02*
X150478889Y-90386265D01*
%TO.N,GPS_TX*%
X113390589Y-100476765D02*
X112373089Y-100476765D01*
X146523089Y-103569265D02*
X146523089Y-104874265D01*
X145833089Y-102879265D02*
X146523089Y-103569265D01*
X115936589Y-100935765D02*
X113849589Y-100935765D01*
X113849589Y-100935765D02*
X113390589Y-100476765D01*
%TO.N,SPI3_MOSI*%
X129039789Y-94265965D02*
X129891489Y-94265965D01*
X129023089Y-94249265D02*
X129039789Y-94265965D01*
X136272354Y-97450000D02*
X136940000Y-97450000D01*
X136940000Y-97450000D02*
X136940735Y-97449265D01*
X136940735Y-97449265D02*
X138098089Y-97449265D01*
X136247354Y-97425000D02*
X136272354Y-97450000D01*
D68*
%TO.N,Net-(R16-Pad1)*%
X124273089Y-73649265D02*
X124273089Y-72974265D01*
X125173089Y-74549265D02*
X124273089Y-73649265D01*
X125463089Y-74549265D02*
X125173089Y-74549265D01*
D69*
%TO.N,Net-(R18-Pad2)*%
X155548089Y-71149265D02*
X156248089Y-70449265D01*
X155083089Y-71149265D02*
X155548089Y-71149265D01*
%TO.N,Net-(R18-Pad1)*%
X153048089Y-71149265D02*
X152898089Y-70999265D01*
X154063089Y-71149265D02*
X153048089Y-71149265D01*
D68*
%TO.N,Net-(J10-Pin_2)*%
X135073089Y-106249265D02*
X135023089Y-106199265D01*
X135073089Y-107839265D02*
X135073089Y-106249265D01*
%TD*%
M02*
