M48
; DRILL file {KiCad 9.0.4} date 2026-03-05T12:49:17+0100
; FORMAT={-:-/ absolute / metric / decimal}
; #@! TF.CreationDate,2026-03-05T12:49:17+01:00
; #@! TF.GenerationSoftware,Kicad,Pcbnew,9.0.4
; #@! TF.FileFunction,Plated,1,4,PTH
FMAT,2
METRIC
; #@! TA.AperFunction,Plated,PTH,ViaDrill
T1C0.100
; #@! TA.AperFunction,Plated,PTH,ViaDrill
T2C0.300
; #@! TA.AperFunction,Plated,PTH,ComponentDrill
T3C0.300
; #@! TA.AperFunction,Plated,PTH,ComponentDrill
T4C0.500
; #@! TA.AperFunction,Plated,PTH,ComponentDrill
T5C0.550
; #@! TA.AperFunction,Plated,PTH,ComponentDrill
T6C1.000
; #@! TA.AperFunction,Plated,PTH,ComponentDrill
T7C1.300
; #@! TA.AperFunction,Plated,PTH,ComponentDrill
T8C1.500
; #@! TA.AperFunction,Plated,PTH,ComponentDrill
T9C1.700
; #@! TA.AperFunction,Plated,PTH,ComponentDrill
T10C3.000
%
G90
G05
T1
X114.163Y-102.289
X132.273Y-98.799
X145.833Y-102.879
T2
X111.823Y-85.999
X111.823Y-89.494
X111.823Y-91.519
X111.823Y-93.519
X111.823Y-95.544
X112.173Y-85.149
X112.373Y-99.377
X112.373Y-104.877
X112.373Y-105.977
X112.373Y-107.077
X114.523Y-93.819
X115.937Y-100.936
X117.113Y-89.369
X117.113Y-90.319
X117.113Y-91.669
X117.119Y-93.474
X117.308Y-95.319
X119.023Y-93.569
X121.793Y-90.819
X121.873Y-105.977
X121.873Y-108.177
X121.923Y-89.699
X124.923Y-94.549
X126.321Y-107.149
X126.458Y-101.537
X126.483Y-70.999
X126.643Y-73.149
X126.873Y-86.349
X127.521Y-105.997
X127.521Y-107.247
X127.521Y-108.497
X127.521Y-109.747
X127.823Y-104.14
X127.931Y-103.061
X128.017Y-102.247
X128.433Y-90.154
X128.923Y-93.349
X129.023Y-94.249
X129.123Y-71.914
X129.278Y-100.617
X129.323Y-103.049
X129.573Y-82.199
X129.671Y-108.497
X129.671Y-109.747
X130.238Y-100.649
X130.573Y-90.099
X130.646Y-94.749
X131.753Y-89.779
X131.823Y-72.549
X132.728Y-89.794
X134.073Y-99.85
X134.373Y-96.549
X134.513Y-100.799
X134.673Y-97.799
X134.882Y-92.122
X136.123Y-72.559
X136.247Y-97.425
X136.413Y-92.529
X136.523Y-73.699
X136.723Y-96.199
X136.823Y-94.499
X137.043Y-103.899
X137.123Y-72.559
X137.643Y-104.949
X138.003Y-103.899
X138.143Y-105.899
X138.173Y-90.499
X138.843Y-91.999
X139.103Y-105.899
X139.173Y-107.829
X139.723Y-101.999
X139.813Y-92.009
X140.573Y-109.349
X140.661Y-94.939
X141.223Y-97.199
X141.373Y-99.199
X141.653Y-91.999
X141.673Y-98.049
X141.823Y-95.574
X142.273Y-109.349
X143.383Y-101.499
X143.673Y-109.429
X144.723Y-107.684
X144.758Y-91.999
X145.573Y-99.549
X145.605Y-103.775
X145.673Y-107.679
X146.793Y-106.299
X147.673Y-108.129
X148.223Y-101.999
X148.653Y-80.349
X150.423Y-73.914
X150.913Y-95.199
X150.913Y-101.699
X151.248Y-70.999
X151.688Y-91.656
X151.688Y-92.926
X151.873Y-95.199
X151.873Y-101.699
X151.903Y-96.099
X153.123Y-74.549
X153.623Y-100.049
X153.673Y-101.649
X155.873Y-81.149
X157.723Y-100.049
X157.973Y-72.849
X158.863Y-89.116
X158.863Y-90.386
X159.073Y-100.589
X159.873Y-72.149
X161.423Y-92.979
X162.353Y-91.079
T3
X131.223Y-70.749
X131.223Y-71.849
X131.223Y-73.149
X131.223Y-74.349
X132.423Y-70.749
X132.423Y-71.849
X132.423Y-73.149
X132.423Y-74.349
X152.523Y-72.749
X152.523Y-73.849
X152.523Y-75.149
X152.523Y-76.349
X153.723Y-72.749
X153.723Y-73.849
X153.723Y-75.149
X153.723Y-76.349
T4
X110.273Y-81.599
X110.273Y-82.599
X110.273Y-83.599
X110.273Y-84.599
X110.273Y-85.599
X110.523Y-115.449
X110.573Y-72.949
X111.182Y-113.858
X111.182Y-117.04
X111.232Y-71.358
X111.232Y-74.54
X112.773Y-113.199
X112.773Y-117.699
X112.823Y-70.699
X112.823Y-75.199
X114.364Y-113.858
X114.364Y-117.04
X114.414Y-71.358
X114.414Y-74.54
X115.023Y-115.449
X115.073Y-72.949
X134.073Y-107.839
X135.073Y-107.839
X136.073Y-107.839
X162.923Y-73.049
X163.173Y-115.534
X163.582Y-71.458
X163.582Y-74.64
X163.832Y-113.943
X163.832Y-117.125
X165.173Y-70.799
X165.173Y-75.299
X165.423Y-113.284
X165.423Y-117.784
X166.764Y-71.458
X166.764Y-74.64
X167.014Y-113.943
X167.014Y-117.125
X167.423Y-73.049
X167.673Y-115.534
X167.803Y-91.979
X167.803Y-92.979
X167.843Y-87.919
X167.843Y-88.919
X167.843Y-89.919
X167.843Y-95.019
X167.843Y-96.019
X167.843Y-97.019
X167.843Y-99.069
X167.843Y-100.069
X167.843Y-101.069
X167.843Y-103.069
X167.843Y-104.069
X167.843Y-105.069
X167.843Y-107.069
X167.843Y-108.069
X167.843Y-109.069
T6
X117.523Y-78.299
X122.523Y-78.299
X160.675Y-82.559
X165.675Y-82.559
T7
X141.073Y-74.127
X146.073Y-74.127
T8
X121.093Y-114.609
T9
X118.553Y-112.069
X118.553Y-117.149
X123.633Y-112.069
X123.633Y-117.149
T10
X112.773Y-115.449
X112.823Y-72.949
X165.173Y-73.049
X165.423Y-115.534
T4
G00X112.148Y-89.019
M15
G01X111.498Y-89.019
M16
G05
G00X112.148Y-96.019
M15
G01X111.498Y-96.019
M16
G05
T5
G00X114.523Y-89.869
M15
G01X114.523Y-90.169
M16
G05
G00X114.523Y-94.869
M15
G01X114.523Y-95.169
M16
G05
M30
