%TF.GenerationSoftware,KiCad,Pcbnew,9.0.4*%
%TF.CreationDate,2026-03-05T12:42:53+01:00*%
%TF.ProjectId,flightcontrolerPCB,666c6967-6874-4636-9f6e-74726f6c6572,rev?*%
%TF.SameCoordinates,Original*%
%TF.FileFunction,Soldermask,Bot*%
%TF.FilePolarity,Negative*%
%FSLAX46Y46*%
G04 Gerber Fmt 4.6, Leading zero omitted, Abs format (unit mm)*
G04 Created by KiCad (PCBNEW 9.0.4) date 2026-03-05 12:42:53*
%MOMM*%
%LPD*%
G01*
G04 APERTURE LIST*
G04 Aperture macros list*
%AMRoundRect*
0 Rectangle with rounded corners*
0 $1 Rounding radius*
0 $2 $3 $4 $5 $6 $7 $8 $9 X,Y pos of 4 corners*
0 Add a 4 corners polygon primitive as box body*
4,1,4,$2,$3,$4,$5,$6,$7,$8,$9,$2,$3,0*
0 Add four circle primitives for the rounded corners*
1,1,$1+$1,$2,$3*
1,1,$1+$1,$4,$5*
1,1,$1+$1,$6,$7*
1,1,$1+$1,$8,$9*
0 Add four rect primitives between the rounded corners*
20,1,$1+$1,$2,$3,$4,$5,0*
20,1,$1+$1,$4,$5,$6,$7,0*
20,1,$1+$1,$6,$7,$8,$9,0*
20,1,$1+$1,$8,$9,$2,$3,0*%
G04 Aperture macros list end*
%ADD10RoundRect,0.250000X0.750000X0.750000X-0.750000X0.750000X-0.750000X-0.750000X0.750000X-0.750000X0*%
%ADD11C,2.000000*%
%ADD12RoundRect,0.200100X0.949900X0.949900X-0.949900X0.949900X-0.949900X-0.949900X0.949900X-0.949900X0*%
%ADD13C,2.500000*%
%ADD14C,0.800000*%
%ADD15C,6.000000*%
%ADD16R,0.850000X0.850000*%
%ADD17C,0.850000*%
%ADD18RoundRect,0.250000X1.050000X1.050000X-1.050000X1.050000X-1.050000X-1.050000X1.050000X-1.050000X0*%
%ADD19C,2.600000*%
%ADD20O,1.550000X0.890000*%
%ADD21O,0.950000X1.250000*%
%ADD22RoundRect,0.250000X-0.750000X-0.750000X0.750000X-0.750000X0.750000X0.750000X-0.750000X0.750000X0*%
G04 APERTURE END LIST*
D10*
%TO.C,C10*%
X122523089Y-78299265D03*
D11*
X117523089Y-78299265D03*
%TD*%
D12*
%TO.C,ANTENNE*%
X121093089Y-114609265D03*
D13*
X123633089Y-117149265D03*
X123633089Y-112069265D03*
X118553089Y-117149265D03*
X118553089Y-112069265D03*
%TD*%
D14*
%TO.C,H3*%
X162923089Y-73049265D03*
X163582099Y-71458275D03*
X163582099Y-74640255D03*
X165173089Y-70799265D03*
D15*
X165173089Y-73049265D03*
D14*
X165173089Y-75299265D03*
X166764079Y-71458275D03*
X166764079Y-74640255D03*
X167423089Y-73049265D03*
%TD*%
%TO.C,H1*%
X110523089Y-115449265D03*
X111182099Y-113858275D03*
X111182099Y-117040255D03*
X112773089Y-113199265D03*
D15*
X112773089Y-115449265D03*
D14*
X112773089Y-117699265D03*
X114364079Y-113858275D03*
X114364079Y-117040255D03*
X115023089Y-115449265D03*
%TD*%
D16*
%TO.C,J10*%
X134073089Y-107839265D03*
D17*
X135073089Y-107839265D03*
X136073089Y-107839265D03*
%TD*%
D16*
%TO.C,ESC4*%
X167843089Y-107069265D03*
D17*
X167843089Y-108069265D03*
X167843089Y-109069265D03*
%TD*%
D16*
%TO.C,ESC2*%
X167843089Y-99069265D03*
D17*
X167843089Y-100069265D03*
X167843089Y-101069265D03*
%TD*%
D16*
%TO.C,POWER*%
X167843089Y-87919265D03*
D17*
X167843089Y-88919265D03*
X167843089Y-89919265D03*
%TD*%
D16*
%TO.C,J7*%
X110273089Y-85599265D03*
D17*
X110273089Y-84599265D03*
X110273089Y-83599265D03*
X110273089Y-82599265D03*
X110273089Y-81599265D03*
%TD*%
D16*
%TO.C,ESC1*%
X167843089Y-95019265D03*
D17*
X167843089Y-96019265D03*
X167843089Y-97019265D03*
%TD*%
D16*
%TO.C,FC*%
X167803089Y-92979265D03*
D17*
X167803089Y-91979265D03*
%TD*%
D16*
%TO.C,ESC3*%
X167843089Y-103069265D03*
D17*
X167843089Y-104069265D03*
X167843089Y-105069265D03*
%TD*%
D18*
%TO.C,J13*%
X146073089Y-74126765D03*
D19*
X141073089Y-74126765D03*
%TD*%
D14*
%TO.C,H2*%
X163173089Y-115534165D03*
X163832099Y-113943175D03*
X163832099Y-117125155D03*
X165423089Y-113284165D03*
D15*
X165423089Y-115534165D03*
D14*
X165423089Y-117784165D03*
X167014079Y-113943175D03*
X167014079Y-117125155D03*
X167673089Y-115534165D03*
%TD*%
%TO.C,H4*%
X110573089Y-72949265D03*
X111232099Y-71358275D03*
X111232099Y-74540255D03*
X112823089Y-70699265D03*
D15*
X112823089Y-72949265D03*
D14*
X112823089Y-75199265D03*
X114414079Y-71358275D03*
X114414079Y-74540255D03*
X115073089Y-72949265D03*
%TD*%
D20*
%TO.C,J2*%
X111823089Y-89019265D03*
D21*
X114523089Y-90019265D03*
X114523089Y-95019265D03*
D20*
X111823089Y-96019265D03*
%TD*%
D22*
%TO.C,C23*%
X160675412Y-82559265D03*
D11*
X165675412Y-82559265D03*
%TD*%
M02*
