%TF.GenerationSoftware,KiCad,Pcbnew,9.0.4*%
%TF.CreationDate,2026-03-05T12:42:53+01:00*%
%TF.ProjectId,flightcontrolerPCB,666c6967-6874-4636-9f6e-74726f6c6572,rev?*%
%TF.SameCoordinates,Original*%
%TF.FileFunction,Soldermask,Top*%
%TF.FilePolarity,Negative*%
%FSLAX46Y46*%
G04 Gerber Fmt 4.6, Leading zero omitted, Abs format (unit mm)*
G04 Created by KiCad (PCBNEW 9.0.4) date 2026-03-05 12:42:53*
%MOMM*%
%LPD*%
G01*
G04 APERTURE LIST*
G04 Aperture macros list*
%AMRoundRect*
0 Rectangle with rounded corners*
0 $1 Rounding radius*
0 $2 $3 $4 $5 $6 $7 $8 $9 X,Y pos of 4 corners*
0 Add a 4 corners polygon primitive as box body*
4,1,4,$2,$3,$4,$5,$6,$7,$8,$9,$2,$3,0*
0 Add four circle primitives for the rounded corners*
1,1,$1+$1,$2,$3*
1,1,$1+$1,$4,$5*
1,1,$1+$1,$6,$7*
1,1,$1+$1,$8,$9*
0 Add four rect primitives between the rounded corners*
20,1,$1+$1,$2,$3,$4,$5,0*
20,1,$1+$1,$4,$5,$6,$7,0*
20,1,$1+$1,$6,$7,$8,$9,0*
20,1,$1+$1,$8,$9,$2,$3,0*%
G04 Aperture macros list end*
%ADD10R,1.550000X0.600000*%
%ADD11R,2.600000X3.100000*%
%ADD12RoundRect,0.162500X0.650000X0.162500X-0.650000X0.162500X-0.650000X-0.162500X0.650000X-0.162500X0*%
%ADD13RoundRect,0.250000X0.750000X0.750000X-0.750000X0.750000X-0.750000X-0.750000X0.750000X-0.750000X0*%
%ADD14C,2.000000*%
%ADD15RoundRect,0.135000X-0.135000X-0.185000X0.135000X-0.185000X0.135000X0.185000X-0.135000X0.185000X0*%
%ADD16RoundRect,0.112500X0.112500X-0.187500X0.112500X0.187500X-0.112500X0.187500X-0.112500X-0.187500X0*%
%ADD17RoundRect,0.200000X0.275000X-0.200000X0.275000X0.200000X-0.275000X0.200000X-0.275000X-0.200000X0*%
%ADD18RoundRect,0.140000X0.140000X0.170000X-0.140000X0.170000X-0.140000X-0.170000X0.140000X-0.170000X0*%
%ADD19RoundRect,0.200100X0.949900X0.949900X-0.949900X0.949900X-0.949900X-0.949900X0.949900X-0.949900X0*%
%ADD20C,2.500000*%
%ADD21RoundRect,0.140000X-0.140000X-0.170000X0.140000X-0.170000X0.140000X0.170000X-0.140000X0.170000X0*%
%ADD22C,0.800000*%
%ADD23C,6.000000*%
%ADD24RoundRect,0.140000X-0.170000X0.140000X-0.170000X-0.140000X0.170000X-0.140000X0.170000X0.140000X0*%
%ADD25RoundRect,0.102000X-1.350000X-1.100000X1.350000X-1.100000X1.350000X1.100000X-1.350000X1.100000X0*%
%ADD26RoundRect,0.135000X0.135000X0.185000X-0.135000X0.185000X-0.135000X-0.185000X0.135000X-0.185000X0*%
%ADD27R,0.850000X0.850000*%
%ADD28C,0.850000*%
%ADD29O,0.254000X1.016000*%
%ADD30O,1.016000X0.254000*%
%ADD31R,2.616200X2.616200*%
%ADD32RoundRect,0.135000X-0.185000X0.135000X-0.185000X-0.135000X0.185000X-0.135000X0.185000X0.135000X0*%
%ADD33RoundRect,0.147500X0.147500X0.172500X-0.147500X0.172500X-0.147500X-0.172500X0.147500X-0.172500X0*%
%ADD34RoundRect,0.147500X0.172500X-0.147500X0.172500X0.147500X-0.172500X0.147500X-0.172500X-0.147500X0*%
%ADD35RoundRect,0.225000X0.250000X-0.225000X0.250000X0.225000X-0.250000X0.225000X-0.250000X-0.225000X0*%
%ADD36RoundRect,0.140000X0.170000X-0.140000X0.170000X0.140000X-0.170000X0.140000X-0.170000X-0.140000X0*%
%ADD37RoundRect,0.075000X0.075000X-0.700000X0.075000X0.700000X-0.075000X0.700000X-0.075000X-0.700000X0*%
%ADD38RoundRect,0.075000X0.700000X-0.075000X0.700000X0.075000X-0.700000X0.075000X-0.700000X-0.075000X0*%
%ADD39RoundRect,0.200000X0.200000X0.275000X-0.200000X0.275000X-0.200000X-0.275000X0.200000X-0.275000X0*%
%ADD40RoundRect,0.102000X-1.100000X1.350000X-1.100000X-1.350000X1.100000X-1.350000X1.100000X1.350000X0*%
%ADD41R,0.950000X0.550000*%
%ADD42RoundRect,0.250000X-0.350000X0.450000X-0.350000X-0.450000X0.350000X-0.450000X0.350000X0.450000X0*%
%ADD43RoundRect,0.250000X0.475000X-0.250000X0.475000X0.250000X-0.475000X0.250000X-0.475000X-0.250000X0*%
%ADD44R,0.900000X1.000000*%
%ADD45R,1.700000X0.550000*%
%ADD46RoundRect,0.250000X1.050000X1.050000X-1.050000X1.050000X-1.050000X-1.050000X1.050000X-1.050000X0*%
%ADD47C,2.600000*%
%ADD48RoundRect,0.025500X0.199500X0.124500X-0.199500X0.124500X-0.199500X-0.124500X0.199500X-0.124500X0*%
%ADD49RoundRect,0.025500X0.124500X0.199500X-0.124500X0.199500X-0.124500X-0.199500X0.124500X-0.199500X0*%
%ADD50RoundRect,0.037500X-0.112500X0.172500X-0.112500X-0.172500X0.112500X-0.172500X0.112500X0.172500X0*%
%ADD51RoundRect,0.037500X-0.112500X0.167500X-0.112500X-0.167500X0.112500X-0.167500X0.112500X0.167500X0*%
%ADD52RoundRect,0.100000X-0.575000X0.100000X-0.575000X-0.100000X0.575000X-0.100000X0.575000X0.100000X0*%
%ADD53O,1.550000X0.890000*%
%ADD54RoundRect,0.250000X-0.525000X0.475000X-0.525000X-0.475000X0.525000X-0.475000X0.525000X0.475000X0*%
%ADD55O,0.950000X1.250000*%
%ADD56RoundRect,0.250000X-0.525000X0.500000X-0.525000X-0.500000X0.525000X-0.500000X0.525000X0.500000X0*%
%ADD57RoundRect,0.175000X-0.725000X-0.175000X0.725000X-0.175000X0.725000X0.175000X-0.725000X0.175000X0*%
%ADD58RoundRect,0.200000X-0.700000X-0.200000X0.700000X-0.200000X0.700000X0.200000X-0.700000X0.200000X0*%
%ADD59RoundRect,0.250000X-0.750000X-0.750000X0.750000X-0.750000X0.750000X0.750000X-0.750000X0.750000X0*%
%ADD60RoundRect,0.135000X0.185000X-0.135000X0.185000X0.135000X-0.185000X0.135000X-0.185000X-0.135000X0*%
G04 APERTURE END LIST*
D10*
%TO.C,U7*%
X134523089Y-74454265D03*
X134523089Y-73184265D03*
X134523089Y-71914265D03*
X134523089Y-70644265D03*
X129123089Y-70644265D03*
X129123089Y-71914265D03*
X129123089Y-73184265D03*
X129123089Y-74454265D03*
D11*
X131823089Y-72549265D03*
%TD*%
D12*
%TO.C,U10*%
X158862589Y-92926265D03*
X158862589Y-91656265D03*
X158862589Y-90386265D03*
X158862589Y-89116265D03*
X151687589Y-89116265D03*
X151687589Y-90386265D03*
X151687589Y-91656265D03*
X151687589Y-92926265D03*
%TD*%
D13*
%TO.C,C10*%
X122523089Y-78299265D03*
D14*
X117523089Y-78299265D03*
%TD*%
D15*
%TO.C,R4*%
X134513089Y-100799265D03*
X135533089Y-100799265D03*
%TD*%
D16*
%TO.C,D1*%
X157973089Y-74949265D03*
X157973089Y-72849265D03*
%TD*%
D17*
%TO.C,R16*%
X124273089Y-72974265D03*
X124273089Y-71324265D03*
%TD*%
D18*
%TO.C,C9*%
X139103089Y-105899265D03*
X138143089Y-105899265D03*
%TD*%
D19*
%TO.C,ANTENNE*%
X121093089Y-114609265D03*
D20*
X123633089Y-117149265D03*
X123633089Y-112069265D03*
X118553089Y-117149265D03*
X118553089Y-112069265D03*
%TD*%
D21*
%TO.C,C7*%
X137043089Y-103899265D03*
X138003089Y-103899265D03*
%TD*%
D22*
%TO.C,H3*%
X162923089Y-73049265D03*
X163582099Y-71458275D03*
X163582099Y-74640255D03*
X165173089Y-70799265D03*
D23*
X165173089Y-73049265D03*
D22*
X165173089Y-75299265D03*
X166764079Y-71458275D03*
X166764079Y-74640255D03*
X167423089Y-73049265D03*
%TD*%
D21*
%TO.C,C5*%
X150913089Y-101699265D03*
X151873089Y-101699265D03*
%TD*%
%TO.C,C1*%
X140693089Y-91999265D03*
X141653089Y-91999265D03*
%TD*%
D24*
%TO.C,C3*%
X159073089Y-100589265D03*
X159073089Y-101549265D03*
%TD*%
D25*
%TO.C,L4*%
X150773089Y-81149265D03*
X155873089Y-81149265D03*
%TD*%
D26*
%TO.C,R14*%
X118133089Y-89369265D03*
X117113089Y-89369265D03*
%TD*%
D22*
%TO.C,H1*%
X110523089Y-115449265D03*
X111182099Y-113858275D03*
X111182099Y-117040255D03*
X112773089Y-113199265D03*
D23*
X112773089Y-115449265D03*
D22*
X112773089Y-117699265D03*
X114364079Y-113858275D03*
X114364079Y-117040255D03*
X115023089Y-115449265D03*
%TD*%
D27*
%TO.C,J10*%
X134073089Y-107839265D03*
D28*
X135073089Y-107839265D03*
X136073089Y-107839265D03*
%TD*%
D15*
%TO.C,R12*%
X117113089Y-92619265D03*
X118133089Y-92619265D03*
%TD*%
D24*
%TO.C,C13*%
X143673089Y-108469265D03*
X143673089Y-109429265D03*
%TD*%
%TO.C,C12*%
X139173089Y-106869265D03*
X139173089Y-107829265D03*
%TD*%
D27*
%TO.C,ESC4*%
X167843089Y-107069265D03*
D28*
X167843089Y-108069265D03*
X167843089Y-109069265D03*
%TD*%
D29*
%TO.C,U2*%
X130716389Y-95065465D03*
X131223489Y-95065465D03*
X131725589Y-95065465D03*
X132260589Y-95065465D03*
X132765189Y-95065465D03*
X133269789Y-95065465D03*
D30*
X134094689Y-94265965D03*
X134094689Y-93761365D03*
X134094689Y-93256765D03*
X134094689Y-92721765D03*
X134094689Y-92219665D03*
X134094689Y-91712565D03*
D29*
X133269789Y-90913065D03*
X132765189Y-90913065D03*
X132260589Y-90913065D03*
X131725589Y-90913065D03*
X131223489Y-90913065D03*
X130716389Y-90913065D03*
D30*
X129891489Y-91712565D03*
X129891489Y-92219665D03*
X129891489Y-92721765D03*
X129891489Y-93256765D03*
X129891489Y-93761365D03*
X129891489Y-94265965D03*
D31*
X131983089Y-92979265D03*
%TD*%
D27*
%TO.C,ESC2*%
X167843089Y-99069265D03*
D28*
X167843089Y-100069265D03*
X167843089Y-101069265D03*
%TD*%
D32*
%TO.C,R7*%
X136123089Y-71539265D03*
X136123089Y-72559265D03*
%TD*%
D33*
%TO.C,D4*%
X144758089Y-91999265D03*
X143788089Y-91999265D03*
%TD*%
D18*
%TO.C,C6*%
X138603089Y-104949265D03*
X137643089Y-104949265D03*
%TD*%
D26*
%TO.C,R5*%
X158783089Y-71749265D03*
X157763089Y-71749265D03*
%TD*%
D24*
%TO.C,C20*%
X126320589Y-106105265D03*
X126320589Y-107065265D03*
%TD*%
D34*
%TO.C,L6*%
X144723089Y-107684265D03*
X144723089Y-106714265D03*
%TD*%
D21*
%TO.C,C2*%
X150943089Y-96149265D03*
X151903089Y-96149265D03*
%TD*%
D10*
%TO.C,U5*%
X155823089Y-76454265D03*
X155823089Y-75184265D03*
X155823089Y-73914265D03*
X155823089Y-72644265D03*
X150423089Y-72644265D03*
X150423089Y-73914265D03*
X150423089Y-75184265D03*
X150423089Y-76454265D03*
D11*
X153123089Y-74549265D03*
%TD*%
D35*
%TO.C,C15*%
X128433089Y-91704265D03*
X128433089Y-90154265D03*
%TD*%
D36*
%TO.C,C19*%
X126458089Y-102496765D03*
X126458089Y-101536765D03*
%TD*%
D18*
%TO.C,C18*%
X128353089Y-100596765D03*
X127393089Y-100596765D03*
%TD*%
D21*
%TO.C,C21*%
X147693089Y-80349265D03*
X148653089Y-80349265D03*
%TD*%
D26*
%TO.C,R9*%
X126483089Y-74549265D03*
X125463089Y-74549265D03*
%TD*%
D37*
%TO.C,U1*%
X140023089Y-104874265D03*
X140523089Y-104874265D03*
X141023089Y-104874265D03*
X141523089Y-104874265D03*
X142023089Y-104874265D03*
X142523089Y-104874265D03*
X143023089Y-104874265D03*
X143523089Y-104874265D03*
X144023089Y-104874265D03*
X144523089Y-104874265D03*
X145023089Y-104874265D03*
X145523089Y-104874265D03*
X146023089Y-104874265D03*
X146523089Y-104874265D03*
X147023089Y-104874265D03*
X147523089Y-104874265D03*
D38*
X149448089Y-102949265D03*
X149448089Y-102449265D03*
X149448089Y-101949265D03*
X149448089Y-101449265D03*
X149448089Y-100949265D03*
X149448089Y-100449265D03*
X149448089Y-99949265D03*
X149448089Y-99449265D03*
X149448089Y-98949265D03*
X149448089Y-98449265D03*
X149448089Y-97949265D03*
X149448089Y-97449265D03*
X149448089Y-96949265D03*
X149448089Y-96449265D03*
X149448089Y-95949265D03*
X149448089Y-95449265D03*
D37*
X147523089Y-93524265D03*
X147023089Y-93524265D03*
X146523089Y-93524265D03*
X146023089Y-93524265D03*
X145523089Y-93524265D03*
X145023089Y-93524265D03*
X144523089Y-93524265D03*
X144023089Y-93524265D03*
X143523089Y-93524265D03*
X143023089Y-93524265D03*
X142523089Y-93524265D03*
X142023089Y-93524265D03*
X141523089Y-93524265D03*
X141023089Y-93524265D03*
X140523089Y-93524265D03*
X140023089Y-93524265D03*
D38*
X138098089Y-95449265D03*
X138098089Y-95949265D03*
X138098089Y-96449265D03*
X138098089Y-96949265D03*
X138098089Y-97449265D03*
X138098089Y-97949265D03*
X138098089Y-98449265D03*
X138098089Y-98949265D03*
X138098089Y-99449265D03*
X138098089Y-99949265D03*
X138098089Y-100449265D03*
X138098089Y-100949265D03*
X138098089Y-101449265D03*
X138098089Y-101949265D03*
X138098089Y-102449265D03*
X138098089Y-102949265D03*
%TD*%
D32*
%TO.C,R8*%
X137123089Y-71539265D03*
X137123089Y-72559265D03*
%TD*%
D39*
%TO.C,R6*%
X157898089Y-70449265D03*
X156248089Y-70449265D03*
%TD*%
D27*
%TO.C,POWER*%
X167843089Y-87919265D03*
D28*
X167843089Y-88919265D03*
X167843089Y-89919265D03*
%TD*%
D27*
%TO.C,J7*%
X110273089Y-85599265D03*
D28*
X110273089Y-84599265D03*
X110273089Y-83599265D03*
X110273089Y-82599265D03*
X110273089Y-81599265D03*
%TD*%
D40*
%TO.C,L5*%
X129573089Y-77099265D03*
X129573089Y-82199265D03*
%TD*%
D41*
%TO.C,U4*%
X127520589Y-105996765D03*
X127520589Y-107246765D03*
X127520589Y-108496765D03*
X127520589Y-109746765D03*
X129670589Y-109746765D03*
X129670589Y-108496765D03*
X129670589Y-107246765D03*
X129670589Y-105996765D03*
%TD*%
D18*
%TO.C,C16*%
X132713089Y-89779265D03*
X131753089Y-89779265D03*
%TD*%
D21*
%TO.C,C4*%
X150913089Y-95199265D03*
X151873089Y-95199265D03*
%TD*%
D39*
%TO.C,R19*%
X152898089Y-70999265D03*
X151248089Y-70999265D03*
%TD*%
D27*
%TO.C,ESC1*%
X167843089Y-95019265D03*
D28*
X167843089Y-96019265D03*
X167843089Y-97019265D03*
%TD*%
D21*
%TO.C,C14*%
X135593089Y-92649265D03*
X136553089Y-92649265D03*
%TD*%
D42*
%TO.C,Y1*%
X140573089Y-107149265D03*
X140573089Y-109349265D03*
X142273089Y-109349265D03*
X142273089Y-107149265D03*
%TD*%
D27*
%TO.C,FC*%
X167803089Y-92979265D03*
D28*
X167803089Y-91979265D03*
%TD*%
D15*
%TO.C,R18*%
X154063089Y-71149265D03*
X155083089Y-71149265D03*
%TD*%
%TO.C,R13*%
X117113089Y-91669265D03*
X118133089Y-91669265D03*
%TD*%
D43*
%TO.C,D3*%
X136923089Y-79049265D03*
X136923089Y-77149265D03*
%TD*%
D27*
%TO.C,ESC3*%
X167843089Y-103069265D03*
D28*
X167843089Y-104069265D03*
X167843089Y-105069265D03*
%TD*%
D44*
%TO.C,SW1*%
X153623089Y-100049265D03*
X157723089Y-100049265D03*
X153623089Y-101649265D03*
X157723089Y-101649265D03*
D45*
X155673089Y-99424265D03*
%TD*%
D32*
%TO.C,R2*%
X143673089Y-106589265D03*
X143673089Y-107609265D03*
%TD*%
D24*
%TO.C,C30*%
X145673089Y-106719265D03*
X145673089Y-107679265D03*
%TD*%
D46*
%TO.C,J13*%
X146073089Y-74126765D03*
D47*
X141073089Y-74126765D03*
%TD*%
D48*
%TO.C,U3*%
X129948089Y-103596765D03*
X129948089Y-103096765D03*
X129948089Y-102596765D03*
X129948089Y-102096765D03*
D49*
X129423089Y-101571765D03*
X128923089Y-101571765D03*
X128423089Y-101571765D03*
X127923089Y-101571765D03*
D48*
X127398089Y-102096765D03*
X127398089Y-102596765D03*
X127398089Y-103096765D03*
X127398089Y-103596765D03*
D49*
X127923089Y-104121765D03*
X128423089Y-104121765D03*
X128923089Y-104121765D03*
X129423089Y-104121765D03*
%TD*%
D15*
%TO.C,R11*%
X117113089Y-90319265D03*
X118133089Y-90319265D03*
%TD*%
D16*
%TO.C,D2*%
X136523089Y-75799265D03*
X136523089Y-73699265D03*
%TD*%
D18*
%TO.C,C8*%
X139803089Y-91999265D03*
X138843089Y-91999265D03*
%TD*%
D50*
%TO.C,U6*%
X118273089Y-94229265D03*
D51*
X117773089Y-94224265D03*
X117273089Y-94224265D03*
X117273089Y-94814265D03*
X117773089Y-94814265D03*
X118273089Y-94814265D03*
%TD*%
D15*
%TO.C,R10*%
X125463089Y-70999265D03*
X126483089Y-70999265D03*
%TD*%
D22*
%TO.C,H2*%
X163173089Y-115534165D03*
X163832099Y-113943175D03*
X163832099Y-117125155D03*
X165423089Y-113284165D03*
D23*
X165423089Y-115534165D03*
D22*
X165423089Y-117784165D03*
X167014079Y-113943175D03*
X167014079Y-117125155D03*
X167673089Y-115534165D03*
%TD*%
%TO.C,H4*%
X110573089Y-72949265D03*
X111232099Y-71358275D03*
X111232099Y-74540255D03*
X112823089Y-70699265D03*
D23*
X112823089Y-72949265D03*
D22*
X112823089Y-75199265D03*
X114414079Y-71358275D03*
X114414079Y-74540255D03*
X115073089Y-72949265D03*
%TD*%
D18*
%TO.C,C25*%
X135103089Y-75949265D03*
X134143089Y-75949265D03*
%TD*%
D15*
%TO.C,R3*%
X134513089Y-99799265D03*
X135533089Y-99799265D03*
%TD*%
D24*
%TO.C,C31*%
X147673089Y-107169265D03*
X147673089Y-108129265D03*
%TD*%
D52*
%TO.C,J2*%
X114523089Y-91219265D03*
X114523089Y-91869265D03*
X114523089Y-92519265D03*
X114523089Y-93169265D03*
X114523089Y-93819265D03*
D53*
X111823089Y-89019265D03*
D54*
X111823089Y-89494265D03*
D55*
X114523089Y-90019265D03*
D56*
X111823089Y-91519265D03*
X111823089Y-93519265D03*
D55*
X114523089Y-95019265D03*
D54*
X111823089Y-95544265D03*
D53*
X111823089Y-96019265D03*
%TD*%
D18*
%TO.C,C22*%
X158553089Y-76299265D03*
X157593089Y-76299265D03*
%TD*%
D57*
%TO.C,U9*%
X112373089Y-99376765D03*
D58*
X112373089Y-100476765D03*
X112373089Y-101576765D03*
X112373089Y-102676765D03*
X112373089Y-103776765D03*
X112373089Y-104876765D03*
X112373089Y-105976765D03*
X112373089Y-107076765D03*
D57*
X112373089Y-108176765D03*
X121873089Y-108176765D03*
D58*
X121873089Y-107076765D03*
X121873089Y-105976765D03*
X121873089Y-104876765D03*
X121873089Y-103776765D03*
X121873089Y-102676765D03*
X121873089Y-101576765D03*
X121873089Y-100476765D03*
D57*
X121873089Y-99376765D03*
%TD*%
D59*
%TO.C,C23*%
X160675412Y-82559265D03*
D14*
X165675412Y-82559265D03*
%TD*%
D60*
%TO.C,R17*%
X146673089Y-108159265D03*
X146673089Y-107139265D03*
%TD*%
D26*
%TO.C,R15*%
X161423089Y-92979265D03*
X160403089Y-92979265D03*
%TD*%
D32*
%TO.C,R1*%
X135023089Y-105179265D03*
X135023089Y-106199265D03*
%TD*%
D18*
%TO.C,C17*%
X130238089Y-100616765D03*
X129278089Y-100616765D03*
%TD*%
%TO.C,C24*%
X127603089Y-73149265D03*
X126643089Y-73149265D03*
%TD*%
M02*
