%TF.GenerationSoftware,KiCad,Pcbnew,9.0.4*%
%TF.CreationDate,2026-03-05T12:42:53+01:00*%
%TF.ProjectId,flightcontrolerPCB,666c6967-6874-4636-9f6e-74726f6c6572,rev?*%
%TF.SameCoordinates,Original*%
%TF.FileFunction,Copper,L4,Bot*%
%TF.FilePolarity,Positive*%
%FSLAX46Y46*%
G04 Gerber Fmt 4.6, Leading zero omitted, Abs format (unit mm)*
G04 Created by KiCad (PCBNEW 9.0.4) date 2026-03-05 12:42:53*
%MOMM*%
%LPD*%
G01*
G04 APERTURE LIST*
G04 Aperture macros list*
%AMRoundRect*
0 Rectangle with rounded corners*
0 $1 Rounding radius*
0 $2 $3 $4 $5 $6 $7 $8 $9 X,Y pos of 4 corners*
0 Add a 4 corners polygon primitive as box body*
4,1,4,$2,$3,$4,$5,$6,$7,$8,$9,$2,$3,0*
0 Add four circle primitives for the rounded corners*
1,1,$1+$1,$2,$3*
1,1,$1+$1,$4,$5*
1,1,$1+$1,$6,$7*
1,1,$1+$1,$8,$9*
0 Add four rect primitives between the rounded corners*
20,1,$1+$1,$2,$3,$4,$5,0*
20,1,$1+$1,$4,$5,$6,$7,0*
20,1,$1+$1,$6,$7,$8,$9,0*
20,1,$1+$1,$8,$9,$2,$3,0*%
G04 Aperture macros list end*
%TA.AperFunction,ComponentPad*%
%ADD10C,0.600000*%
%TD*%
%TA.AperFunction,SMDPad,CuDef*%
%ADD11R,2.950000X4.500000*%
%TD*%
%TA.AperFunction,ComponentPad*%
%ADD12RoundRect,0.250000X0.750000X0.750000X-0.750000X0.750000X-0.750000X-0.750000X0.750000X-0.750000X0*%
%TD*%
%TA.AperFunction,ComponentPad*%
%ADD13C,2.000000*%
%TD*%
%TA.AperFunction,ComponentPad*%
%ADD14RoundRect,0.200100X0.949900X0.949900X-0.949900X0.949900X-0.949900X-0.949900X0.949900X-0.949900X0*%
%TD*%
%TA.AperFunction,ComponentPad*%
%ADD15C,2.500000*%
%TD*%
%TA.AperFunction,ComponentPad*%
%ADD16C,0.800000*%
%TD*%
%TA.AperFunction,ComponentPad*%
%ADD17C,6.000000*%
%TD*%
%TA.AperFunction,ComponentPad*%
%ADD18R,0.850000X0.850000*%
%TD*%
%TA.AperFunction,ComponentPad*%
%ADD19C,0.850000*%
%TD*%
%TA.AperFunction,ComponentPad*%
%ADD20RoundRect,0.250000X1.050000X1.050000X-1.050000X1.050000X-1.050000X-1.050000X1.050000X-1.050000X0*%
%TD*%
%TA.AperFunction,ComponentPad*%
%ADD21C,2.600000*%
%TD*%
%TA.AperFunction,HeatsinkPad*%
%ADD22O,1.550000X0.890000*%
%TD*%
%TA.AperFunction,HeatsinkPad*%
%ADD23O,0.950000X1.250000*%
%TD*%
%TA.AperFunction,ComponentPad*%
%ADD24RoundRect,0.250000X-0.750000X-0.750000X0.750000X-0.750000X0.750000X0.750000X-0.750000X0.750000X0*%
%TD*%
%TA.AperFunction,ViaPad*%
%ADD25C,0.600000*%
%TD*%
%TA.AperFunction,ViaPad*%
%ADD26C,0.500000*%
%TD*%
%TA.AperFunction,ViaPad*%
%ADD27C,0.300000*%
%TD*%
%TA.AperFunction,Conductor*%
%ADD28C,0.300000*%
%TD*%
%TA.AperFunction,Conductor*%
%ADD29C,0.500000*%
%TD*%
%TA.AperFunction,Conductor*%
%ADD30C,0.200000*%
%TD*%
G04 APERTURE END LIST*
D10*
%TO.P,U7,9,GNDPAD*%
%TO.N,GND*%
X132423089Y-74349265D03*
X132423089Y-73149265D03*
X132423089Y-71849265D03*
X132423089Y-70749265D03*
D11*
X131823089Y-72549265D03*
D10*
X131223089Y-74349265D03*
X131223089Y-73149265D03*
X131223089Y-71849265D03*
X131223089Y-70749265D03*
%TD*%
D12*
%TO.P,C10,1*%
%TO.N,VOUT_3.3V*%
X122523089Y-78299265D03*
D13*
%TO.P,C10,2*%
%TO.N,GND*%
X117523089Y-78299265D03*
%TD*%
D14*
%TO.P,ANTENNE,1,In*%
%TO.N,Net-(J1-In)*%
X121093089Y-114609265D03*
D15*
%TO.P,ANTENNE,2,Ext*%
%TO.N,GND*%
X123633089Y-117149265D03*
X123633089Y-112069265D03*
X118553089Y-117149265D03*
X118553089Y-112069265D03*
%TD*%
D16*
%TO.P,H3,1,1*%
%TO.N,GND*%
X162923089Y-73049265D03*
X163582099Y-71458275D03*
X163582099Y-74640255D03*
X165173089Y-70799265D03*
D17*
X165173089Y-73049265D03*
D16*
X165173089Y-75299265D03*
X166764079Y-71458275D03*
X166764079Y-74640255D03*
X167423089Y-73049265D03*
%TD*%
%TO.P,H1,1,1*%
%TO.N,GND*%
X110523089Y-115449265D03*
X111182099Y-113858275D03*
X111182099Y-117040255D03*
X112773089Y-113199265D03*
D17*
X112773089Y-115449265D03*
D16*
X112773089Y-117699265D03*
X114364079Y-113858275D03*
X114364079Y-117040255D03*
X115023089Y-115449265D03*
%TD*%
D18*
%TO.P,J10,1,Pin_1*%
%TO.N,VOUT_3.3V*%
X134073089Y-107839265D03*
D19*
%TO.P,J10,2,Pin_2*%
%TO.N,Net-(J10-Pin_2)*%
X135073089Y-107839265D03*
%TO.P,J10,3,Pin_3*%
%TO.N,GND*%
X136073089Y-107839265D03*
%TD*%
D18*
%TO.P,ESC4,1,Pin_1*%
%TO.N,GND*%
X167843089Y-107069265D03*
D19*
%TO.P,ESC4,2,Pin_2*%
%TO.N,VOUT_5V*%
X167843089Y-108069265D03*
%TO.P,ESC4,3,Pin_3*%
%TO.N,Signal ESC4*%
X167843089Y-109069265D03*
%TD*%
D18*
%TO.P,ESC2,1,Pin_1*%
%TO.N,GND*%
X167843089Y-99069265D03*
D19*
%TO.P,ESC2,2,Pin_2*%
%TO.N,VOUT_5V*%
X167843089Y-100069265D03*
%TO.P,ESC2,3,Pin_3*%
%TO.N,Signal ESC2*%
X167843089Y-101069265D03*
%TD*%
D10*
%TO.P,U5,9,GNDPAD*%
%TO.N,GND*%
X153723089Y-76349265D03*
X153723089Y-75149265D03*
X153723089Y-73849265D03*
X153723089Y-72749265D03*
D11*
X153123089Y-74549265D03*
D10*
X152523089Y-76349265D03*
X152523089Y-75149265D03*
X152523089Y-73849265D03*
X152523089Y-72749265D03*
%TD*%
D18*
%TO.P,POWER,1,Pin_1*%
%TO.N,GND*%
X167843089Y-87919265D03*
D19*
%TO.P,POWER,2,Pin_2*%
%TO.N,VOUT_3.3V*%
X167843089Y-88919265D03*
%TO.P,POWER,3,Pin_3*%
%TO.N,VOUT_5V*%
X167843089Y-89919265D03*
%TD*%
D18*
%TO.P,J7,1,Pin_1*%
%TO.N,SWDCLK*%
X110273089Y-85599265D03*
D19*
%TO.P,J7,2,Pin_2*%
%TO.N,SWDIO*%
X110273089Y-84599265D03*
%TO.P,J7,3,Pin_3*%
%TO.N,NRST*%
X110273089Y-83599265D03*
%TO.P,J7,4,Pin_4*%
%TO.N,GND*%
X110273089Y-82599265D03*
%TO.P,J7,5,Pin_5*%
%TO.N,VOUT_3.3V*%
X110273089Y-81599265D03*
%TD*%
D18*
%TO.P,ESC1,1,Pin_1*%
%TO.N,GND*%
X167843089Y-95019265D03*
D19*
%TO.P,ESC1,2,Pin_2*%
%TO.N,VOUT_5V*%
X167843089Y-96019265D03*
%TO.P,ESC1,3,Pin_3*%
%TO.N,Signal ESC1*%
X167843089Y-97019265D03*
%TD*%
D18*
%TO.P,FC,1,Pin_1*%
%TO.N,IBUS_RX_MCU*%
X167803089Y-92979265D03*
D19*
%TO.P,FC,2,Pin_2*%
%TO.N,MSP_TX_MCU*%
X167803089Y-91979265D03*
%TD*%
D18*
%TO.P,ESC3,1,Pin_1*%
%TO.N,GND*%
X167843089Y-103069265D03*
D19*
%TO.P,ESC3,2,Pin_2*%
%TO.N,VOUT_5V*%
X167843089Y-104069265D03*
%TO.P,ESC3,3,Pin_3*%
%TO.N,Signal ESC3*%
X167843089Y-105069265D03*
%TD*%
D20*
%TO.P,J13,1,Pin_1*%
%TO.N,GND*%
X146073089Y-74126765D03*
D21*
%TO.P,J13,2,Pin_2*%
%TO.N,Net-(D3-A)*%
X141073089Y-74126765D03*
%TD*%
D16*
%TO.P,H2,1,1*%
%TO.N,GND*%
X163173089Y-115534165D03*
X163832099Y-113943175D03*
X163832099Y-117125155D03*
X165423089Y-113284165D03*
D17*
X165423089Y-115534165D03*
D16*
X165423089Y-117784165D03*
X167014079Y-113943175D03*
X167014079Y-117125155D03*
X167673089Y-115534165D03*
%TD*%
%TO.P,H4,1,1*%
%TO.N,GND*%
X110573089Y-72949265D03*
X111232099Y-71358275D03*
X111232099Y-74540255D03*
X112823089Y-70699265D03*
D17*
X112823089Y-72949265D03*
D16*
X112823089Y-75199265D03*
X114414079Y-71358275D03*
X114414079Y-74540255D03*
X115073089Y-72949265D03*
%TD*%
D22*
%TO.P,J2,6,Shield*%
%TO.N,GND*%
X111823089Y-89019265D03*
D23*
X114523089Y-90019265D03*
X114523089Y-95019265D03*
D22*
X111823089Y-96019265D03*
%TD*%
D24*
%TO.P,C23,1*%
%TO.N,VOUT_5V*%
X160675412Y-82559265D03*
D13*
%TO.P,C23,2*%
%TO.N,GND*%
X165675412Y-82559265D03*
%TD*%
D25*
%TO.N,GND*%
X126320589Y-107149265D03*
X138143089Y-105899265D03*
X153623089Y-100049265D03*
X134882486Y-92121766D03*
X137123089Y-72559265D03*
X114523089Y-93819265D03*
X128016627Y-102246764D03*
X130646489Y-94749265D03*
X144758089Y-91999265D03*
D26*
X121873089Y-108176765D03*
D25*
X140573089Y-109349265D03*
X138843089Y-91999265D03*
X151248089Y-70999265D03*
X151873089Y-95199265D03*
X158862589Y-89116265D03*
X139173089Y-107829265D03*
X136523089Y-73699265D03*
X147673089Y-108129265D03*
X145604981Y-103775289D03*
X127520589Y-109746765D03*
X111823089Y-91519265D03*
X142273089Y-109349265D03*
X153123089Y-74549265D03*
X157723089Y-100049265D03*
X117307805Y-95319266D03*
X126483089Y-70999265D03*
X138003089Y-103899265D03*
X111823089Y-95544265D03*
X136413089Y-92529265D03*
X143673089Y-109429265D03*
D26*
X112373089Y-99376765D03*
D25*
X159073089Y-100589265D03*
X131823089Y-72549265D03*
X130573089Y-90099265D03*
X131753089Y-89779265D03*
X139723089Y-101999265D03*
X129278089Y-100616765D03*
X129123089Y-71914265D03*
X151873089Y-101699265D03*
X137643089Y-104949265D03*
X150423089Y-73914265D03*
X126643089Y-73149265D03*
X127520589Y-108496765D03*
X111823089Y-89494265D03*
X148223089Y-101998938D03*
X151903089Y-96099265D03*
X145673089Y-107679265D03*
X129670589Y-109746765D03*
X126458089Y-101536765D03*
X157973089Y-72849265D03*
X141653089Y-91999265D03*
X111823089Y-93519265D03*
X148653089Y-80349265D03*
X128433089Y-90154265D03*
X127931033Y-103060958D03*
X117113089Y-89369265D03*
D26*
X121873089Y-105976765D03*
D25*
%TO.N,NRST*%
X153673089Y-101649265D03*
X143383089Y-101499265D03*
X121793064Y-90819240D03*
%TO.N,VOUT_5V*%
X159873089Y-72149265D03*
X155873089Y-81149265D03*
X119023089Y-93569265D03*
X121923089Y-89699265D03*
X117113089Y-90319265D03*
X126873089Y-86349265D03*
%TO.N,VOUT_3.3V*%
X132728089Y-89794265D03*
X127520589Y-105996765D03*
X137043089Y-103899265D03*
X151687589Y-91656265D03*
X127823089Y-104140302D03*
X127520589Y-107246765D03*
X144723089Y-107684265D03*
X139813089Y-92009265D03*
X130238089Y-100649265D03*
X129670589Y-108496765D03*
D26*
X162353089Y-91079265D03*
D25*
X151687589Y-92926265D03*
X150913089Y-95199265D03*
X134513089Y-100799265D03*
D26*
X112373089Y-107076765D03*
D25*
X150913089Y-101699265D03*
X139103089Y-105899265D03*
X158862589Y-90386265D03*
X136123089Y-72559265D03*
D26*
X161423089Y-92979265D03*
D25*
X134073089Y-99850265D03*
D26*
X112373089Y-104876765D03*
X112373089Y-105976765D03*
D25*
X129323089Y-103049265D03*
X129573089Y-82199265D03*
D27*
%TO.N,ID*%
X132273089Y-98799265D03*
D25*
X141673089Y-98049265D03*
%TO.N,Net-(J2-D-)*%
X117113089Y-91669265D03*
X117118824Y-93473530D03*
%TO.N,SWDCLK*%
X111823089Y-85999265D03*
X136823089Y-94499265D03*
%TO.N,SWDIO*%
X112173089Y-85149265D03*
X140661197Y-94938844D03*
%TO.N,Niveaux_Battrie*%
X145573089Y-99549265D03*
X138173089Y-90499265D03*
%TO.N,VBUS_SEN*%
X124923089Y-94549265D03*
X141373089Y-99199265D03*
%TO.N,D+*%
X134673089Y-97799265D03*
X141223089Y-97199265D03*
%TO.N,D-*%
X141823089Y-95573530D03*
X134373089Y-96549265D03*
D26*
%TO.N,GPS_RX*%
X146793089Y-106299265D03*
D27*
X114163089Y-102289265D03*
D25*
%TO.N,SPI3_SCK*%
X136723089Y-96199265D03*
X128923089Y-93349265D03*
D26*
%TO.N,GPS_TX*%
X115936589Y-100935765D03*
D27*
X145833089Y-102879265D03*
D25*
%TO.N,SPI3_MOSI*%
X136247354Y-97425000D03*
X129023089Y-94249265D03*
%TD*%
D28*
%TO.N,NRST*%
X122323089Y-94549265D02*
X122323089Y-91349265D01*
X143383089Y-101499265D02*
X143403089Y-101519265D01*
X129029146Y-101217765D02*
X129010646Y-101199265D01*
X134063146Y-101199265D02*
X130538032Y-101199265D01*
X134264146Y-101400265D02*
X134063146Y-101199265D01*
X145003089Y-100979265D02*
X153003089Y-100979265D01*
X139474146Y-101398265D02*
X139472146Y-101400265D01*
X143284089Y-101400265D02*
X139974032Y-101400265D01*
X143383089Y-101499265D02*
X143284089Y-101400265D01*
X129010646Y-101199265D02*
X128973089Y-101199265D01*
X130487032Y-101250265D02*
X129989146Y-101250265D01*
X144463089Y-101519265D02*
X145003089Y-100979265D01*
X128973089Y-101199265D02*
X122323089Y-94549265D01*
X153003089Y-100979265D02*
X153673089Y-101649265D01*
X139472146Y-101400265D02*
X134264146Y-101400265D01*
X122323089Y-91349265D02*
X121793064Y-90819240D01*
X129545532Y-101199265D02*
X129527032Y-101217765D01*
X143403089Y-101519265D02*
X144463089Y-101519265D01*
X129938146Y-101199265D02*
X129545532Y-101199265D01*
X139974032Y-101400265D02*
X139972032Y-101398265D01*
X129989146Y-101250265D02*
X129938146Y-101199265D01*
X130538032Y-101199265D02*
X130487032Y-101250265D01*
X139972032Y-101398265D02*
X139474146Y-101398265D01*
X129527032Y-101217765D02*
X129029146Y-101217765D01*
D29*
%TO.N,VOUT_5V*%
X121923089Y-89699265D02*
X119093089Y-89699265D01*
X126873089Y-86349265D02*
X133223089Y-86349265D01*
X133223089Y-86349265D02*
X138423089Y-81149265D01*
D28*
X119023089Y-92229265D02*
X117113089Y-90319265D01*
X119023089Y-93569265D02*
X119023089Y-92229265D01*
D29*
X138423089Y-81149265D02*
X155873089Y-81149265D01*
X119093089Y-89699265D02*
X118473089Y-90319265D01*
X118473089Y-90319265D02*
X117113089Y-90319265D01*
%TO.N,VOUT_3.3V*%
X167843089Y-88919265D02*
X165983089Y-88919265D01*
X163873089Y-91029265D02*
X162403089Y-91029265D01*
X162403089Y-91029265D02*
X162353089Y-91079265D01*
X165983089Y-88919265D02*
X163873089Y-91029265D01*
D28*
%TO.N,ID*%
X140923089Y-98799265D02*
X141673089Y-98049265D01*
X132273089Y-98799265D02*
X140923089Y-98799265D01*
D30*
%TO.N,Net-(J2-D-)*%
X117118824Y-93473530D02*
X117118824Y-91675000D01*
X117118824Y-91675000D02*
X117113089Y-91669265D01*
D28*
%TO.N,SWDCLK*%
X135723089Y-91699265D02*
X131543089Y-87519265D01*
X136823089Y-94499265D02*
X136823089Y-94049265D01*
X135723089Y-92949265D02*
X135723089Y-91699265D01*
X113343089Y-87519265D02*
X111823089Y-85999265D01*
X136823089Y-94049265D02*
X135723089Y-92949265D01*
X131543089Y-87519265D02*
X113343089Y-87519265D01*
%TO.N,SWDIO*%
X132731618Y-87009265D02*
X114033089Y-87009265D01*
X114033089Y-87009265D02*
X112173089Y-85149265D01*
X140661197Y-94938844D02*
X132731618Y-87009265D01*
%TO.N,Niveaux_Battrie*%
X145573089Y-99549265D02*
X145573089Y-91849265D01*
X144223089Y-90499265D02*
X138173089Y-90499265D01*
X145573089Y-91849265D02*
X144223089Y-90499265D01*
%TO.N,VBUS_SEN*%
X141109899Y-99250265D02*
X132086278Y-99250265D01*
X129573089Y-99199265D02*
X124923089Y-94549265D01*
X132035279Y-99199265D02*
X129573089Y-99199265D01*
X141160899Y-99199265D02*
X141109899Y-99250265D01*
X132086278Y-99250265D02*
X132035279Y-99199265D01*
X141373089Y-99199265D02*
X141160899Y-99199265D01*
%TO.N,D+*%
X140396354Y-98026000D02*
X134899824Y-98026000D01*
X134899824Y-98026000D02*
X134673089Y-97799265D01*
X141223089Y-97199265D02*
X140396354Y-98026000D01*
%TO.N,D-*%
X141823089Y-95573530D02*
X141823089Y-95599265D01*
X136474146Y-96800265D02*
X136223146Y-96549265D01*
X136223146Y-96549265D02*
X134373089Y-96549265D01*
X141823089Y-95599265D02*
X140622089Y-96800265D01*
X140622089Y-96800265D02*
X136474146Y-96800265D01*
%TO.N,GPS_RX*%
X146592089Y-106500265D02*
X146793089Y-106299265D01*
X114163089Y-102289265D02*
X116703089Y-104829265D01*
X116703089Y-104829265D02*
X136223146Y-104829265D01*
X136223146Y-104829265D02*
X137894146Y-106500265D01*
X137894146Y-106500265D02*
X146592089Y-106500265D01*
%TO.N,SPI3_SCK*%
X133873089Y-93349265D02*
X128923089Y-93349265D01*
X136723089Y-96199265D02*
X133873089Y-93349265D01*
%TO.N,GPS_TX*%
X115936589Y-100935765D02*
X128059532Y-100935765D01*
X128059532Y-100935765D02*
X130003032Y-102879265D01*
X130003032Y-102879265D02*
X145833089Y-102879265D01*
%TO.N,SPI3_MOSI*%
X131939266Y-97165442D02*
X129023089Y-94249265D01*
X136247354Y-97425000D02*
X135987796Y-97165442D01*
X135987796Y-97165442D02*
X131939266Y-97165442D01*
%TD*%
M02*
