%TF.GenerationSoftware,KiCad,Pcbnew,9.0.4*%
%TF.CreationDate,2026-03-05T12:42:53+01:00*%
%TF.ProjectId,flightcontrolerPCB,666c6967-6874-4636-9f6e-74726f6c6572,rev?*%
%TF.SameCoordinates,Original*%
%TF.FileFunction,Legend,Bot*%
%TF.FilePolarity,Positive*%
%FSLAX46Y46*%
G04 Gerber Fmt 4.6, Leading zero omitted, Abs format (unit mm)*
G04 Created by KiCad (PCBNEW 9.0.4) date 2026-03-05 12:42:53*
%MOMM*%
%LPD*%
G01*
G04 APERTURE LIST*
%ADD10C,0.100000*%
G04 APERTURE END LIST*
D10*
G36*
X164451155Y-96724265D02*
G01*
X163909120Y-96724265D01*
X163777005Y-96717458D01*
X163667869Y-96698619D01*
X163568359Y-96665949D01*
X163488533Y-96623056D01*
X163418747Y-96565513D01*
X163351788Y-96486402D01*
X163296600Y-96391789D01*
X163249298Y-96267042D01*
X163227705Y-96177767D01*
X163214060Y-96076839D01*
X163209272Y-95962776D01*
X163209435Y-95959662D01*
X163414253Y-95959662D01*
X163419125Y-96073891D01*
X163432720Y-96170420D01*
X163453729Y-96251655D01*
X163484847Y-96329358D01*
X163521664Y-96392595D01*
X163563821Y-96443446D01*
X163620711Y-96487307D01*
X163698552Y-96522031D01*
X163791275Y-96541939D01*
X163931651Y-96549875D01*
X164252403Y-96549875D01*
X164252403Y-95392164D01*
X163936780Y-95392164D01*
X163817295Y-95396550D01*
X163734504Y-95407744D01*
X163679592Y-95423213D01*
X163611851Y-95459870D01*
X163549422Y-95515719D01*
X163491647Y-95594305D01*
X163460352Y-95658280D01*
X163436063Y-95738272D01*
X163420077Y-95837506D01*
X163414253Y-95959662D01*
X163209435Y-95959662D01*
X163216256Y-95829465D01*
X163236273Y-95710697D01*
X163268257Y-95604655D01*
X163314925Y-95505098D01*
X163374034Y-95419858D01*
X163445944Y-95347284D01*
X163510000Y-95301155D01*
X163583010Y-95265170D01*
X163666312Y-95239390D01*
X163768900Y-95224062D01*
X163933758Y-95217775D01*
X164451155Y-95217775D01*
X164451155Y-96724265D01*
G37*
G36*
X162622910Y-95620512D02*
G01*
X162719119Y-95649263D01*
X162804035Y-95696149D01*
X162879544Y-95762192D01*
X162938974Y-95841524D01*
X162982960Y-95936735D01*
X163010957Y-96051000D01*
X163020961Y-96188365D01*
X163011110Y-96320872D01*
X162983500Y-96431317D01*
X162940022Y-96523588D01*
X162881101Y-96600708D01*
X162806731Y-96663850D01*
X162720524Y-96709382D01*
X162620163Y-96737735D01*
X162502464Y-96747712D01*
X162407780Y-96741383D01*
X162325514Y-96723366D01*
X162253761Y-96694633D01*
X162190963Y-96655480D01*
X162119311Y-96586990D01*
X162063717Y-96501571D01*
X162023901Y-96396094D01*
X162214502Y-96372555D01*
X162247886Y-96446406D01*
X162285915Y-96501430D01*
X162328258Y-96541082D01*
X162378382Y-96569961D01*
X162435541Y-96587672D01*
X162501456Y-96593839D01*
X162588294Y-96583058D01*
X162663154Y-96551742D01*
X162728969Y-96499134D01*
X162767643Y-96449477D01*
X162797824Y-96388880D01*
X162819120Y-96315263D01*
X162830360Y-96226009D01*
X162018863Y-96226009D01*
X162017764Y-96176825D01*
X162025376Y-96072136D01*
X162212487Y-96072136D01*
X162820102Y-96072136D01*
X162804601Y-95982388D01*
X162772541Y-95908828D01*
X162724298Y-95848196D01*
X162662335Y-95801770D01*
X162592002Y-95773975D01*
X162510707Y-95764390D01*
X162442700Y-95771173D01*
X162383008Y-95790799D01*
X162329883Y-95823143D01*
X162282187Y-95869353D01*
X162250949Y-95917702D01*
X162227146Y-95983676D01*
X162212487Y-96072136D01*
X162025376Y-96072136D01*
X162027560Y-96042092D01*
X162054969Y-95930066D01*
X162098016Y-95836769D01*
X162156158Y-95759078D01*
X162230036Y-95694273D01*
X162312767Y-95648363D01*
X162406141Y-95620267D01*
X162512722Y-95610517D01*
X162622910Y-95620512D01*
G37*
G36*
X161866730Y-96395453D02*
G01*
X161684373Y-96366693D01*
X161667155Y-96436696D01*
X161638528Y-96491950D01*
X161598826Y-96535312D01*
X161548804Y-96566482D01*
X161484673Y-96586526D01*
X161402547Y-96593839D01*
X161319133Y-96587111D01*
X161258083Y-96569256D01*
X161214052Y-96542548D01*
X161178953Y-96505104D01*
X161159087Y-96465471D01*
X161152503Y-96422197D01*
X161158550Y-96383816D01*
X161176211Y-96351899D01*
X161206817Y-96324744D01*
X161259277Y-96301701D01*
X161395403Y-96262829D01*
X161581973Y-96210275D01*
X161676679Y-96174169D01*
X161746446Y-96128802D01*
X161795564Y-96070579D01*
X161825852Y-96001193D01*
X161836047Y-95924400D01*
X161827643Y-95854008D01*
X161802708Y-95789578D01*
X161763372Y-95732748D01*
X161712033Y-95686446D01*
X161664028Y-95658414D01*
X161594705Y-95632591D01*
X161518635Y-95616163D01*
X161435336Y-95610517D01*
X161312106Y-95620365D01*
X161210480Y-95647886D01*
X161148850Y-95677313D01*
X161102030Y-95711139D01*
X161067507Y-95749186D01*
X161029862Y-95820294D01*
X161003942Y-95920003D01*
X161184285Y-95944641D01*
X161198195Y-95890902D01*
X161221918Y-95847358D01*
X161255543Y-95812109D01*
X161297404Y-95786815D01*
X161351751Y-95770411D01*
X161422056Y-95764390D01*
X161506411Y-95770155D01*
X161564577Y-95784972D01*
X161603406Y-95806156D01*
X161634624Y-95836946D01*
X161652013Y-95869139D01*
X161657720Y-95903975D01*
X161652110Y-95937819D01*
X161635188Y-95968180D01*
X161607765Y-95994136D01*
X161564480Y-96017090D01*
X161401539Y-96063984D01*
X161221212Y-96115949D01*
X161128506Y-96149439D01*
X161058796Y-96190763D01*
X161007057Y-96246159D01*
X160983173Y-96290414D01*
X160968264Y-96342367D01*
X160963001Y-96403787D01*
X160968899Y-96463646D01*
X160986596Y-96521165D01*
X161016765Y-96577352D01*
X161057061Y-96626639D01*
X161108272Y-96668507D01*
X161172012Y-96703199D01*
X161240979Y-96727484D01*
X161317104Y-96742510D01*
X161401539Y-96747712D01*
X161509284Y-96741163D01*
X161596865Y-96723103D01*
X161667757Y-96695347D01*
X161724856Y-96658868D01*
X161773867Y-96610955D01*
X161813892Y-96552312D01*
X161845058Y-96481244D01*
X161866730Y-96395453D01*
G37*
G36*
X160742633Y-95428800D02*
G01*
X160742633Y-95217775D01*
X160558260Y-95217775D01*
X160558260Y-95428800D01*
X160742633Y-95428800D01*
G37*
G36*
X160742633Y-96724265D02*
G01*
X160742633Y-95633964D01*
X160558260Y-95633964D01*
X160558260Y-96724265D01*
X160742633Y-96724265D01*
G37*
G36*
X159971156Y-95618855D02*
G01*
X160054326Y-95642939D01*
X160128607Y-95682325D01*
X160193479Y-95735968D01*
X160247842Y-95803191D01*
X160292097Y-95885931D01*
X160323081Y-95975278D01*
X160341974Y-96070785D01*
X160348425Y-96173527D01*
X160340322Y-96285670D01*
X160316848Y-96386710D01*
X160278643Y-96478425D01*
X160225510Y-96562240D01*
X160158100Y-96632773D01*
X160079423Y-96682692D01*
X159987251Y-96713457D01*
X159878105Y-96724265D01*
X159791296Y-96715219D01*
X159713394Y-96688761D01*
X159642327Y-96644599D01*
X159576770Y-96580741D01*
X159580604Y-96744984D01*
X159590143Y-96816314D01*
X159612065Y-96874019D01*
X159643374Y-96921035D01*
X159684390Y-96959012D01*
X159733511Y-96985860D01*
X159798021Y-97003505D01*
X159882135Y-97010029D01*
X159959944Y-97003648D01*
X160021343Y-96986137D01*
X160069714Y-96959012D01*
X160098361Y-96930308D01*
X160119342Y-96891150D01*
X160132179Y-96838662D01*
X160311514Y-96812192D01*
X160305138Y-96898658D01*
X160283268Y-96969470D01*
X160247069Y-97027944D01*
X160195743Y-97076249D01*
X160134275Y-97113084D01*
X160062611Y-97140432D01*
X159978950Y-97157763D01*
X159881128Y-97163902D01*
X159773238Y-97156441D01*
X159682118Y-97135451D01*
X159604981Y-97102352D01*
X159535861Y-97055562D01*
X159481771Y-96999977D01*
X159441032Y-96934832D01*
X159415437Y-96861140D01*
X159396711Y-96745967D01*
X159389284Y-96574696D01*
X159389284Y-96166383D01*
X159561475Y-96166383D01*
X159568014Y-96272963D01*
X159585790Y-96356819D01*
X159612686Y-96422239D01*
X159647570Y-96472755D01*
X159710193Y-96527471D01*
X159780282Y-96559486D01*
X159860611Y-96570392D01*
X159941593Y-96559384D01*
X160011708Y-96527159D01*
X160073835Y-96472206D01*
X160108084Y-96421596D01*
X160134657Y-96355387D01*
X160152312Y-96269793D01*
X160158832Y-96160247D01*
X160152473Y-96060652D01*
X160134977Y-95980290D01*
X160108109Y-95915722D01*
X160072736Y-95864133D01*
X160009996Y-95807879D01*
X159941197Y-95775359D01*
X159863725Y-95764390D01*
X159784876Y-95775512D01*
X159714552Y-95808532D01*
X159650135Y-95865690D01*
X159613668Y-95918123D01*
X159586008Y-95983706D01*
X159568012Y-96065293D01*
X159561475Y-96166383D01*
X159389284Y-96166383D01*
X159389284Y-95633964D01*
X159559368Y-95633964D01*
X159559368Y-95767504D01*
X159627592Y-95697593D01*
X159702152Y-95649339D01*
X159784501Y-95620423D01*
X159877006Y-95610517D01*
X159971156Y-95618855D01*
G37*
G36*
X159111213Y-96724265D02*
G01*
X159111213Y-95633964D01*
X158945158Y-95633964D01*
X158945158Y-95788204D01*
X158892484Y-95723778D01*
X158832706Y-95674816D01*
X158764970Y-95639739D01*
X158687726Y-95618077D01*
X158598853Y-95610517D01*
X158503450Y-95619579D01*
X158418052Y-95645963D01*
X158344034Y-95688268D01*
X158294587Y-95738745D01*
X158260189Y-95800430D01*
X158237160Y-95875124D01*
X158230060Y-95936007D01*
X158226901Y-96054551D01*
X158226901Y-96724265D01*
X158411366Y-96724265D01*
X158411366Y-96060596D01*
X158417683Y-95954879D01*
X158432890Y-95891610D01*
X158462356Y-95841616D01*
X158509185Y-95802217D01*
X158567660Y-95777434D01*
X158637779Y-95768786D01*
X158713541Y-95777302D01*
X158780657Y-95802166D01*
X158841203Y-95843800D01*
X158874974Y-95883744D01*
X158901647Y-95940819D01*
X158919849Y-96020194D01*
X158926749Y-96128373D01*
X158926749Y-96724265D01*
X159111213Y-96724265D01*
G37*
G36*
X157608116Y-95620512D02*
G01*
X157704325Y-95649263D01*
X157789241Y-95696149D01*
X157864750Y-95762192D01*
X157924180Y-95841524D01*
X157968165Y-95936735D01*
X157996163Y-96051000D01*
X158006167Y-96188365D01*
X157996316Y-96320872D01*
X157968706Y-96431317D01*
X157925228Y-96523588D01*
X157866307Y-96600708D01*
X157791936Y-96663850D01*
X157705730Y-96709382D01*
X157605369Y-96737735D01*
X157487670Y-96747712D01*
X157392986Y-96741383D01*
X157310720Y-96723366D01*
X157238967Y-96694633D01*
X157176169Y-96655480D01*
X157104517Y-96586990D01*
X157048923Y-96501571D01*
X157009106Y-96396094D01*
X157199707Y-96372555D01*
X157233092Y-96446406D01*
X157271121Y-96501430D01*
X157313464Y-96541082D01*
X157363588Y-96569961D01*
X157420747Y-96587672D01*
X157486662Y-96593839D01*
X157573499Y-96583058D01*
X157648360Y-96551742D01*
X157714175Y-96499134D01*
X157752848Y-96449477D01*
X157783030Y-96388880D01*
X157804326Y-96315263D01*
X157815566Y-96226009D01*
X157004069Y-96226009D01*
X157002970Y-96176825D01*
X157010582Y-96072136D01*
X157197692Y-96072136D01*
X157805308Y-96072136D01*
X157789807Y-95982388D01*
X157757747Y-95908828D01*
X157709503Y-95848196D01*
X157647540Y-95801770D01*
X157577208Y-95773975D01*
X157495913Y-95764390D01*
X157427906Y-95771173D01*
X157368214Y-95790799D01*
X157315089Y-95823143D01*
X157267393Y-95869353D01*
X157236155Y-95917702D01*
X157212352Y-95983676D01*
X157197692Y-96072136D01*
X157010582Y-96072136D01*
X157012766Y-96042092D01*
X157040175Y-95930066D01*
X157083222Y-95836769D01*
X157141364Y-95759078D01*
X157215242Y-95694273D01*
X157297973Y-95648363D01*
X157391347Y-95620267D01*
X157497928Y-95610517D01*
X157608116Y-95620512D01*
G37*
G36*
X156084495Y-95761093D02*
G01*
X156139398Y-95700752D01*
X156209516Y-95652283D01*
X156290467Y-95621265D01*
X156384730Y-95610517D01*
X156472077Y-95618512D01*
X156552492Y-95642028D01*
X156627538Y-95681225D01*
X156693106Y-95734433D01*
X156747256Y-95801554D01*
X156790479Y-95884649D01*
X156820176Y-95974557D01*
X156838483Y-96072631D01*
X156844792Y-96180122D01*
X156837747Y-96290136D01*
X156817491Y-96388076D01*
X156784892Y-96475686D01*
X156738597Y-96556305D01*
X156682402Y-96622530D01*
X156615814Y-96675996D01*
X156540416Y-96715955D01*
X156461126Y-96739704D01*
X156376487Y-96747712D01*
X156279839Y-96737133D01*
X156198949Y-96706985D01*
X156130364Y-96657671D01*
X156072130Y-96586969D01*
X156072130Y-96724265D01*
X155901038Y-96724265D01*
X155901038Y-96194960D01*
X156069107Y-96194960D01*
X156075454Y-96297861D01*
X156092799Y-96379781D01*
X156119204Y-96444563D01*
X156153646Y-96495378D01*
X156215294Y-96550922D01*
X156282913Y-96583016D01*
X156359085Y-96593839D01*
X156434429Y-96582718D01*
X156502934Y-96549342D01*
X156567088Y-96490799D01*
X156603080Y-96437613D01*
X156630596Y-96370251D01*
X156648619Y-96285547D01*
X156655199Y-96179664D01*
X156648860Y-96069115D01*
X156631698Y-95982617D01*
X156605904Y-95915644D01*
X156572767Y-95864408D01*
X156512190Y-95808109D01*
X156444604Y-95775461D01*
X156367236Y-95764390D01*
X156306789Y-95770878D01*
X156252175Y-95789933D01*
X156201947Y-95821914D01*
X156155203Y-95868438D01*
X156120529Y-95921823D01*
X156093595Y-95991345D01*
X156075706Y-96080856D01*
X156069107Y-96194960D01*
X155901038Y-96194960D01*
X155901038Y-95217775D01*
X156084495Y-95217775D01*
X156084495Y-95761093D01*
G37*
G36*
X155029457Y-96724265D02*
G01*
X154858365Y-96724265D01*
X154858365Y-96584588D01*
X154797042Y-96657149D01*
X154727499Y-96707156D01*
X154648129Y-96737283D01*
X154556023Y-96747712D01*
X154462756Y-96738193D01*
X154377566Y-96710176D01*
X154298456Y-96663190D01*
X154224097Y-96595121D01*
X154166210Y-96515507D01*
X154123126Y-96419280D01*
X154095577Y-96303088D01*
X154086785Y-96178107D01*
X154274289Y-96178107D01*
X154280830Y-96283209D01*
X154298797Y-96367795D01*
X154326311Y-96435527D01*
X154362399Y-96489425D01*
X154410243Y-96536509D01*
X154460394Y-96568570D01*
X154513680Y-96587467D01*
X154571410Y-96593839D01*
X154641462Y-96585092D01*
X154702791Y-96559519D01*
X154757638Y-96516286D01*
X154807074Y-96452239D01*
X154833951Y-96391516D01*
X154852971Y-96301077D01*
X154860380Y-96170963D01*
X154853950Y-96070980D01*
X154836160Y-95989336D01*
X154808669Y-95922844D01*
X154772269Y-95868896D01*
X154724421Y-95821766D01*
X154674267Y-95789677D01*
X154620984Y-95770766D01*
X154563259Y-95764390D01*
X154487919Y-95775400D01*
X154420633Y-95808196D01*
X154358827Y-95865323D01*
X154324624Y-95917176D01*
X154298193Y-95984120D01*
X154280715Y-96069684D01*
X154274289Y-96178107D01*
X154086785Y-96178107D01*
X154085703Y-96162720D01*
X154094064Y-96047407D01*
X154118492Y-95941436D01*
X154158414Y-95843853D01*
X154209168Y-95764756D01*
X154274527Y-95700045D01*
X154356721Y-95651000D01*
X154448847Y-95620690D01*
X154546864Y-95610517D01*
X154633908Y-95619899D01*
X154711250Y-95647272D01*
X154781153Y-95692953D01*
X154844993Y-95759169D01*
X154844993Y-95217775D01*
X155029457Y-95217775D01*
X155029457Y-96724265D01*
G37*
G36*
X153870097Y-97142011D02*
G01*
X153890614Y-96973117D01*
X153831718Y-96985763D01*
X153785101Y-96989512D01*
X153727340Y-96983768D01*
X153686732Y-96968629D01*
X153653334Y-96943721D01*
X153626282Y-96910103D01*
X153607609Y-96871260D01*
X153569862Y-96770243D01*
X153553467Y-96724265D01*
X153966451Y-95633964D01*
X153767607Y-95633964D01*
X153541194Y-96264203D01*
X153499791Y-96386078D01*
X153462334Y-96516261D01*
X153427407Y-96390486D01*
X153386497Y-96268233D01*
X153153855Y-95633964D01*
X152969391Y-95633964D01*
X153383382Y-96740659D01*
X153448150Y-96905324D01*
X153486880Y-96987680D01*
X153541874Y-97069254D01*
X153599629Y-97121312D01*
X153643701Y-97144582D01*
X153693772Y-97158910D01*
X153751212Y-97163902D01*
X153805584Y-97158792D01*
X153870097Y-97142011D01*
G37*
G36*
X164457292Y-99244265D02*
G01*
X164457292Y-97737775D01*
X164158156Y-97737775D01*
X163802599Y-98804902D01*
X163730883Y-99028018D01*
X163650924Y-98786401D01*
X163291246Y-97737775D01*
X163023800Y-97737775D01*
X163023800Y-99244265D01*
X163215409Y-99244265D01*
X163215409Y-97982689D01*
X163651932Y-99244265D01*
X163831267Y-99244265D01*
X164265684Y-97961165D01*
X164265684Y-99244265D01*
X164457292Y-99244265D01*
G37*
G36*
X162384188Y-98138444D02*
G01*
X162473197Y-98161409D01*
X162553681Y-98198908D01*
X162627028Y-98251417D01*
X162684855Y-98312384D01*
X162730883Y-98385372D01*
X162765281Y-98472321D01*
X162787254Y-98575847D01*
X162795097Y-98699114D01*
X162785034Y-98837219D01*
X162757006Y-98950842D01*
X162713192Y-99044376D01*
X162654230Y-99121258D01*
X162579333Y-99184644D01*
X162494264Y-99229972D01*
X162397025Y-99257945D01*
X162284844Y-99267712D01*
X162191626Y-99260194D01*
X162104465Y-99238017D01*
X162022069Y-99201125D01*
X161947802Y-99150465D01*
X161887054Y-99088512D01*
X161838612Y-99014188D01*
X161805719Y-98931317D01*
X161783747Y-98823200D01*
X161776111Y-98692520D01*
X161965099Y-98692520D01*
X161971926Y-98801006D01*
X161990600Y-98887470D01*
X162019080Y-98955959D01*
X162056324Y-99009791D01*
X162105483Y-99055818D01*
X162159183Y-99087880D01*
X162218451Y-99107206D01*
X162284844Y-99113839D01*
X162351803Y-99107216D01*
X162411414Y-99087948D01*
X162465254Y-99056044D01*
X162514371Y-99010341D01*
X162551771Y-98956679D01*
X162580238Y-98889014D01*
X162598824Y-98804242D01*
X162605595Y-98698565D01*
X162598816Y-98592917D01*
X162580220Y-98508284D01*
X162551754Y-98440831D01*
X162514371Y-98387430D01*
X162465282Y-98341950D01*
X162411451Y-98310183D01*
X162351829Y-98290989D01*
X162284844Y-98284390D01*
X162218960Y-98290974D01*
X162159929Y-98310187D01*
X162106235Y-98342108D01*
X162056873Y-98387980D01*
X162018979Y-98441703D01*
X161990362Y-98508411D01*
X161971817Y-98590876D01*
X161965099Y-98692520D01*
X161776111Y-98692520D01*
X161775597Y-98683727D01*
X161785512Y-98554756D01*
X161813431Y-98446343D01*
X161857667Y-98354858D01*
X161918021Y-98277521D01*
X161993735Y-98213628D01*
X162078754Y-98168150D01*
X162174929Y-98140224D01*
X162284844Y-98130517D01*
X162384188Y-98138444D01*
G37*
G36*
X161559992Y-99244265D02*
G01*
X161559992Y-97737775D01*
X161375527Y-97737775D01*
X161375527Y-98279627D01*
X161305843Y-98213713D01*
X161229429Y-98167769D01*
X161144790Y-98140045D01*
X161049646Y-98130517D01*
X160970215Y-98136166D01*
X160900737Y-98152316D01*
X160839628Y-98178236D01*
X160784948Y-98214793D01*
X160742916Y-98258502D01*
X160712042Y-98310036D01*
X160692337Y-98367652D01*
X160678735Y-98447054D01*
X160673573Y-98554034D01*
X160673573Y-99244265D01*
X160858038Y-99244265D01*
X160858038Y-98553576D01*
X160865933Y-98462965D01*
X160886791Y-98397873D01*
X160918030Y-98351893D01*
X160961759Y-98317797D01*
X161017121Y-98296467D01*
X161087565Y-98288786D01*
X161166893Y-98299374D01*
X161241804Y-98331376D01*
X161285895Y-98363612D01*
X161319896Y-98401888D01*
X161344844Y-98446873D01*
X161366837Y-98527144D01*
X161375527Y-98648007D01*
X161375527Y-99244265D01*
X161559992Y-99244265D01*
G37*
G36*
X160068635Y-98140783D02*
G01*
X160180356Y-98169443D01*
X160248142Y-98200327D01*
X160301735Y-98237318D01*
X160343296Y-98280269D01*
X160375968Y-98330735D01*
X160403140Y-98393061D01*
X160424171Y-98469404D01*
X160243828Y-98493950D01*
X160218173Y-98418532D01*
X160187332Y-98365805D01*
X160152146Y-98330552D01*
X160108166Y-98306759D01*
X160046027Y-98290557D01*
X159959987Y-98284390D01*
X159869039Y-98292360D01*
X159800785Y-98313820D01*
X159749969Y-98346580D01*
X159722781Y-98381015D01*
X159704613Y-98431712D01*
X159697671Y-98504667D01*
X159698770Y-98552569D01*
X159819495Y-98583864D01*
X160027673Y-98615675D01*
X160191621Y-98643336D01*
X160262238Y-98668991D01*
X160324337Y-98703877D01*
X160377253Y-98749977D01*
X160419591Y-98809940D01*
X160446733Y-98879006D01*
X160455953Y-98956027D01*
X160449694Y-99022409D01*
X160431595Y-99080903D01*
X160401875Y-99133091D01*
X160359691Y-99180059D01*
X160309454Y-99216628D01*
X160248339Y-99243921D01*
X160174119Y-99261423D01*
X160084002Y-99267712D01*
X159977977Y-99258584D01*
X159880578Y-99231808D01*
X159787500Y-99185347D01*
X159683382Y-99108801D01*
X159669590Y-99183067D01*
X159646471Y-99244265D01*
X159453855Y-99244265D01*
X159483009Y-99180039D01*
X159500475Y-99113564D01*
X159508282Y-99022270D01*
X159512199Y-98787866D01*
X159512199Y-98764053D01*
X159698770Y-98764053D01*
X159707352Y-98878491D01*
X159728445Y-98949250D01*
X159759080Y-98999309D01*
X159799349Y-99041771D01*
X159850353Y-99077294D01*
X159907321Y-99102958D01*
X159970116Y-99118676D01*
X160039946Y-99124097D01*
X160110098Y-99117824D01*
X160163306Y-99100837D01*
X160203437Y-99074729D01*
X160234619Y-99038778D01*
X160252948Y-98998201D01*
X160259216Y-98951356D01*
X160252788Y-98905130D01*
X160233662Y-98863520D01*
X160203030Y-98829043D01*
X160160847Y-98803437D01*
X160105033Y-98785749D01*
X160000013Y-98766342D01*
X159812332Y-98731538D01*
X159698770Y-98696184D01*
X159698770Y-98764053D01*
X159512199Y-98764053D01*
X159512199Y-98541761D01*
X159515073Y-98428128D01*
X159521449Y-98371493D01*
X159544675Y-98300725D01*
X159578877Y-98245922D01*
X159628307Y-98202418D01*
X159706921Y-98163398D01*
X159801074Y-98139638D01*
X159933334Y-98130517D01*
X160068635Y-98140783D01*
G37*
G36*
X159226984Y-99244265D02*
G01*
X159226984Y-98153964D01*
X159061937Y-98153964D01*
X159061937Y-98306189D01*
X159002581Y-98234999D01*
X158925741Y-98178786D01*
X158867320Y-98152290D01*
X158803153Y-98136094D01*
X158732026Y-98130517D01*
X158652742Y-98136620D01*
X158587542Y-98153638D01*
X158533823Y-98180343D01*
X158487344Y-98217855D01*
X158451189Y-98263818D01*
X158424646Y-98319469D01*
X158367505Y-98248989D01*
X158306157Y-98196635D01*
X158240052Y-98160068D01*
X158168048Y-98138047D01*
X158088507Y-98130517D01*
X158007925Y-98136830D01*
X157941155Y-98154503D01*
X157885672Y-98182366D01*
X157839563Y-98220276D01*
X157803755Y-98267237D01*
X157776620Y-98326893D01*
X157758918Y-98402140D01*
X157752460Y-98496607D01*
X157752460Y-99244265D01*
X157935825Y-99244265D01*
X157935825Y-98556965D01*
X157941241Y-98453807D01*
X157953777Y-98397230D01*
X157978747Y-98353521D01*
X158018898Y-98318645D01*
X158069190Y-98296498D01*
X158129540Y-98288786D01*
X158202851Y-98297580D01*
X158265552Y-98322987D01*
X158320141Y-98365357D01*
X158359746Y-98421366D01*
X158386047Y-98500445D01*
X158395978Y-98610363D01*
X158395978Y-99244265D01*
X158580351Y-99244265D01*
X158580351Y-98535350D01*
X158586296Y-98454002D01*
X158602068Y-98394002D01*
X158625506Y-98350427D01*
X158660044Y-98317410D01*
X158707721Y-98296503D01*
X158773059Y-98288786D01*
X158847978Y-98299067D01*
X158917040Y-98329911D01*
X158956670Y-98361137D01*
X158988465Y-98400759D01*
X159012844Y-98450078D01*
X159033947Y-98538211D01*
X159042520Y-98678140D01*
X159042520Y-99244265D01*
X159226984Y-99244265D01*
G37*
G36*
X157142101Y-98140512D02*
G01*
X157238309Y-98169263D01*
X157323226Y-98216149D01*
X157398735Y-98282192D01*
X157458164Y-98361524D01*
X157502150Y-98456735D01*
X157530147Y-98571000D01*
X157540151Y-98708365D01*
X157530300Y-98840872D01*
X157502690Y-98951317D01*
X157459212Y-99043588D01*
X157400292Y-99120708D01*
X157325921Y-99183850D01*
X157239715Y-99229382D01*
X157139354Y-99257735D01*
X157021654Y-99267712D01*
X156926971Y-99261383D01*
X156844705Y-99243366D01*
X156772951Y-99214633D01*
X156710153Y-99175480D01*
X156638502Y-99106990D01*
X156582907Y-99021571D01*
X156543091Y-98916094D01*
X156733692Y-98892555D01*
X156767077Y-98966406D01*
X156805105Y-99021430D01*
X156847448Y-99061082D01*
X156897573Y-99089961D01*
X156954731Y-99107672D01*
X157020647Y-99113839D01*
X157107484Y-99103058D01*
X157182344Y-99071742D01*
X157248159Y-99019134D01*
X157286833Y-98969477D01*
X157317014Y-98908880D01*
X157338311Y-98835263D01*
X157349550Y-98746009D01*
X156538054Y-98746009D01*
X156536955Y-98696825D01*
X156544567Y-98592136D01*
X156731677Y-98592136D01*
X157339292Y-98592136D01*
X157323792Y-98502388D01*
X157291732Y-98428828D01*
X157243488Y-98368196D01*
X157181525Y-98321770D01*
X157111193Y-98293975D01*
X157029898Y-98284390D01*
X156961891Y-98291173D01*
X156902199Y-98310799D01*
X156849074Y-98343143D01*
X156801378Y-98389353D01*
X156770139Y-98437702D01*
X156746336Y-98503676D01*
X156731677Y-98592136D01*
X156544567Y-98592136D01*
X156546751Y-98562092D01*
X156574159Y-98450066D01*
X156617207Y-98356769D01*
X156675349Y-98279078D01*
X156749226Y-98214273D01*
X156831958Y-98168363D01*
X156925332Y-98140267D01*
X157031913Y-98130517D01*
X157142101Y-98140512D01*
G37*
G36*
X155618479Y-98281093D02*
G01*
X155673383Y-98220752D01*
X155743501Y-98172283D01*
X155824451Y-98141265D01*
X155918715Y-98130517D01*
X156006062Y-98138512D01*
X156086477Y-98162028D01*
X156161523Y-98201225D01*
X156227090Y-98254433D01*
X156281241Y-98321554D01*
X156324463Y-98404649D01*
X156354161Y-98494557D01*
X156372468Y-98592631D01*
X156378777Y-98700122D01*
X156371731Y-98810136D01*
X156351476Y-98908076D01*
X156318876Y-98995686D01*
X156272582Y-99076305D01*
X156216387Y-99142530D01*
X156149799Y-99195996D01*
X156074401Y-99235955D01*
X155995111Y-99259704D01*
X155910472Y-99267712D01*
X155813824Y-99257133D01*
X155732933Y-99226985D01*
X155664348Y-99177671D01*
X155606114Y-99106969D01*
X155606114Y-99244265D01*
X155435022Y-99244265D01*
X155435022Y-98714960D01*
X155603092Y-98714960D01*
X155609439Y-98817861D01*
X155626783Y-98899781D01*
X155653189Y-98964563D01*
X155687631Y-99015378D01*
X155749279Y-99070922D01*
X155816898Y-99103016D01*
X155893069Y-99113839D01*
X155968414Y-99102718D01*
X156036919Y-99069342D01*
X156101073Y-99010799D01*
X156137065Y-98957613D01*
X156164581Y-98890251D01*
X156182604Y-98805547D01*
X156189183Y-98699664D01*
X156182844Y-98589115D01*
X156165682Y-98502617D01*
X156139889Y-98435644D01*
X156106751Y-98384408D01*
X156046175Y-98328109D01*
X155978589Y-98295461D01*
X155901221Y-98284390D01*
X155840774Y-98290878D01*
X155786159Y-98309933D01*
X155735932Y-98341914D01*
X155689188Y-98388438D01*
X155654514Y-98441823D01*
X155627580Y-98511345D01*
X155609690Y-98600856D01*
X155603092Y-98714960D01*
X155435022Y-98714960D01*
X155435022Y-97737775D01*
X155618479Y-97737775D01*
X155618479Y-98281093D01*
G37*
G36*
X154819622Y-99244265D02*
G01*
X154608505Y-99244265D01*
X154443549Y-98787042D01*
X153815418Y-98787042D01*
X153640204Y-99244265D01*
X153413699Y-99244265D01*
X153667295Y-98622911D01*
X153876875Y-98622911D01*
X154386121Y-98622911D01*
X154221166Y-98182449D01*
X154174630Y-98039008D01*
X154140199Y-97895586D01*
X154099197Y-98025500D01*
X154033679Y-98206996D01*
X153876875Y-98622911D01*
X153667295Y-98622911D01*
X154028550Y-97737775D01*
X154242690Y-97737775D01*
X154819622Y-99244265D01*
G37*
G36*
X153278694Y-99244265D02*
G01*
X153278694Y-98153964D01*
X153113647Y-98153964D01*
X153113647Y-98306189D01*
X153054291Y-98234999D01*
X152977451Y-98178786D01*
X152919030Y-98152290D01*
X152854863Y-98136094D01*
X152783736Y-98130517D01*
X152704451Y-98136620D01*
X152639252Y-98153638D01*
X152585533Y-98180343D01*
X152539054Y-98217855D01*
X152502898Y-98263818D01*
X152476356Y-98319469D01*
X152419215Y-98248989D01*
X152357867Y-98196635D01*
X152291762Y-98160068D01*
X152219758Y-98138047D01*
X152140217Y-98130517D01*
X152059635Y-98136830D01*
X151992865Y-98154503D01*
X151937381Y-98182366D01*
X151891272Y-98220276D01*
X151855465Y-98267237D01*
X151828330Y-98326893D01*
X151810628Y-98402140D01*
X151804169Y-98496607D01*
X151804169Y-99244265D01*
X151987535Y-99244265D01*
X151987535Y-98556965D01*
X151992951Y-98453807D01*
X152005486Y-98397230D01*
X152030457Y-98353521D01*
X152070608Y-98318645D01*
X152120900Y-98296498D01*
X152181250Y-98288786D01*
X152254561Y-98297580D01*
X152317262Y-98322987D01*
X152371851Y-98365357D01*
X152411456Y-98421366D01*
X152437757Y-98500445D01*
X152447688Y-98610363D01*
X152447688Y-99244265D01*
X152632061Y-99244265D01*
X152632061Y-98535350D01*
X152638006Y-98454002D01*
X152653778Y-98394002D01*
X152677215Y-98350427D01*
X152711754Y-98317410D01*
X152759431Y-98296503D01*
X152824769Y-98288786D01*
X152899688Y-98299067D01*
X152968750Y-98329911D01*
X153008380Y-98361137D01*
X153040175Y-98400759D01*
X153064554Y-98450078D01*
X153085657Y-98538211D01*
X153094229Y-98678140D01*
X153094229Y-99244265D01*
X153278694Y-99244265D01*
G37*
G36*
X151529304Y-97948800D02*
G01*
X151529304Y-97737775D01*
X151344932Y-97737775D01*
X151344932Y-97948800D01*
X151529304Y-97948800D01*
G37*
G36*
X151529304Y-99244265D02*
G01*
X151529304Y-98153964D01*
X151344932Y-98153964D01*
X151344932Y-99244265D01*
X151529304Y-99244265D01*
G37*
G36*
X151064388Y-99244265D02*
G01*
X151064388Y-98153964D01*
X150898334Y-98153964D01*
X150898334Y-98308204D01*
X150845659Y-98243778D01*
X150785881Y-98194816D01*
X150718145Y-98159739D01*
X150640901Y-98138077D01*
X150552028Y-98130517D01*
X150456625Y-98139579D01*
X150371227Y-98165963D01*
X150297209Y-98208268D01*
X150247762Y-98258745D01*
X150213364Y-98320430D01*
X150190335Y-98395124D01*
X150183235Y-98456007D01*
X150180076Y-98574551D01*
X150180076Y-99244265D01*
X150364541Y-99244265D01*
X150364541Y-98580596D01*
X150370858Y-98474879D01*
X150386065Y-98411610D01*
X150415531Y-98361616D01*
X150462360Y-98322217D01*
X150520835Y-98297434D01*
X150590954Y-98288786D01*
X150666716Y-98297302D01*
X150733833Y-98322166D01*
X150794378Y-98363800D01*
X150828149Y-98403744D01*
X150854822Y-98460819D01*
X150873024Y-98540194D01*
X150879924Y-98648373D01*
X150879924Y-99244265D01*
X151064388Y-99244265D01*
G37*
G36*
X149561291Y-98140512D02*
G01*
X149657500Y-98169263D01*
X149742416Y-98216149D01*
X149817925Y-98282192D01*
X149877355Y-98361524D01*
X149921341Y-98456735D01*
X149949338Y-98571000D01*
X149959342Y-98708365D01*
X149949491Y-98840872D01*
X149921881Y-98951317D01*
X149878403Y-99043588D01*
X149819482Y-99120708D01*
X149745112Y-99183850D01*
X149658905Y-99229382D01*
X149558544Y-99257735D01*
X149440845Y-99267712D01*
X149346161Y-99261383D01*
X149263895Y-99243366D01*
X149192142Y-99214633D01*
X149129344Y-99175480D01*
X149057692Y-99106990D01*
X149002098Y-99021571D01*
X148962282Y-98916094D01*
X149152883Y-98892555D01*
X149186267Y-98966406D01*
X149224296Y-99021430D01*
X149266639Y-99061082D01*
X149316763Y-99089961D01*
X149373922Y-99107672D01*
X149439837Y-99113839D01*
X149526675Y-99103058D01*
X149601535Y-99071742D01*
X149667350Y-99019134D01*
X149706024Y-98969477D01*
X149736205Y-98908880D01*
X149757501Y-98835263D01*
X149768741Y-98746009D01*
X148957244Y-98746009D01*
X148956145Y-98696825D01*
X148963757Y-98592136D01*
X149150868Y-98592136D01*
X149758483Y-98592136D01*
X149742982Y-98502388D01*
X149710922Y-98428828D01*
X149662679Y-98368196D01*
X149600716Y-98321770D01*
X149530383Y-98293975D01*
X149449088Y-98284390D01*
X149381081Y-98291173D01*
X149321389Y-98310799D01*
X149268264Y-98343143D01*
X149220568Y-98389353D01*
X149189330Y-98437702D01*
X149165527Y-98503676D01*
X149150868Y-98592136D01*
X148963757Y-98592136D01*
X148965941Y-98562092D01*
X148993350Y-98450066D01*
X149036397Y-98356769D01*
X149094539Y-98279078D01*
X149168417Y-98214273D01*
X149251148Y-98168363D01*
X149344522Y-98140267D01*
X149451103Y-98130517D01*
X149561291Y-98140512D01*
G37*
G36*
X148120468Y-99244265D02*
G01*
X148120468Y-97737775D01*
X147034290Y-97737775D01*
X147034290Y-97912164D01*
X147921624Y-97912164D01*
X147921624Y-98376714D01*
X147090618Y-98376714D01*
X147090618Y-98551103D01*
X147921624Y-98551103D01*
X147921624Y-99069875D01*
X146999393Y-99069875D01*
X146999393Y-99244265D01*
X148120468Y-99244265D01*
G37*
G36*
X146731123Y-99244265D02*
G01*
X146731123Y-97737775D01*
X146431987Y-97737775D01*
X146076430Y-98804902D01*
X146004714Y-99028018D01*
X145924755Y-98786401D01*
X145565077Y-97737775D01*
X145297631Y-97737775D01*
X145297631Y-99244265D01*
X145489240Y-99244265D01*
X145489240Y-97982689D01*
X145925763Y-99244265D01*
X146105098Y-99244265D01*
X146539515Y-97961165D01*
X146539515Y-99244265D01*
X146731123Y-99244265D01*
G37*
G36*
X144984940Y-99244265D02*
G01*
X144412129Y-99244265D01*
X144274398Y-99237386D01*
X144169871Y-99219077D01*
X144077015Y-99186737D01*
X144005373Y-99144430D01*
X143946507Y-99086437D01*
X143895189Y-99003930D01*
X143861854Y-98909610D01*
X143850664Y-98807558D01*
X144056572Y-98807558D01*
X144064283Y-98877310D01*
X144086340Y-98936152D01*
X144120824Y-98985965D01*
X144162177Y-99020965D01*
X144212076Y-99045264D01*
X144276849Y-99062548D01*
X144412129Y-99069875D01*
X144786095Y-99069875D01*
X144786095Y-98545241D01*
X144438782Y-98545241D01*
X144303875Y-98552639D01*
X144219055Y-98570795D01*
X144171277Y-98592269D01*
X144131839Y-98621607D01*
X144099620Y-98659272D01*
X144076004Y-98702985D01*
X144061570Y-98751993D01*
X144056572Y-98807558D01*
X143850664Y-98807558D01*
X143850584Y-98806826D01*
X143859017Y-98721439D01*
X143883476Y-98645962D01*
X143923857Y-98578306D01*
X143978283Y-98521247D01*
X144047241Y-98475618D01*
X144133417Y-98441377D01*
X144067215Y-98401576D01*
X144015275Y-98355847D01*
X143975698Y-98303991D01*
X143946443Y-98245441D01*
X143929174Y-98185217D01*
X143925495Y-98145172D01*
X144119038Y-98145172D01*
X144129146Y-98219814D01*
X144157506Y-98277704D01*
X144203841Y-98322034D01*
X144271720Y-98353267D01*
X144338485Y-98365527D01*
X144461313Y-98370852D01*
X144786095Y-98370852D01*
X144786095Y-97912164D01*
X144485951Y-97912164D01*
X144335921Y-97918672D01*
X144257432Y-97933413D01*
X144216088Y-97951773D01*
X144182272Y-97977798D01*
X144154941Y-98012090D01*
X144128263Y-98073157D01*
X144119038Y-98145172D01*
X143925495Y-98145172D01*
X143923399Y-98122366D01*
X143929819Y-98054920D01*
X143949179Y-97989140D01*
X143982292Y-97923979D01*
X144026594Y-97866172D01*
X144080521Y-97819616D01*
X144145233Y-97783479D01*
X144216114Y-97759567D01*
X144306732Y-97743644D01*
X144421380Y-97737775D01*
X144984940Y-97737775D01*
X144984940Y-99244265D01*
G37*
G36*
X143742232Y-99244265D02*
G01*
X143531114Y-99244265D01*
X143366159Y-98787042D01*
X142738027Y-98787042D01*
X142562814Y-99244265D01*
X142336309Y-99244265D01*
X142589905Y-98622911D01*
X142799485Y-98622911D01*
X143308731Y-98622911D01*
X143143776Y-98182449D01*
X143097240Y-98039008D01*
X143062809Y-97895586D01*
X143021807Y-98025500D01*
X142956289Y-98206996D01*
X142799485Y-98622911D01*
X142589905Y-98622911D01*
X142951160Y-97737775D01*
X143165300Y-97737775D01*
X143742232Y-99244265D01*
G37*
G36*
X142174651Y-99244265D02*
G01*
X141975807Y-99244265D01*
X141975807Y-98568689D01*
X141745272Y-98568689D01*
X141634630Y-98575924D01*
X141589564Y-98591486D01*
X141543955Y-98616408D01*
X141500053Y-98652743D01*
X141443021Y-98718165D01*
X141299590Y-98927726D01*
X141100746Y-99244265D01*
X140850793Y-99244265D01*
X141112011Y-98830548D01*
X141194303Y-98716796D01*
X141277058Y-98628315D01*
X141323872Y-98593061D01*
X141396859Y-98552660D01*
X141288305Y-98530878D01*
X141201123Y-98499764D01*
X141131723Y-98460628D01*
X141077207Y-98413991D01*
X141031992Y-98356387D01*
X140999956Y-98293298D01*
X140980435Y-98223592D01*
X140973962Y-98148652D01*
X141178690Y-98148652D01*
X141188633Y-98218127D01*
X141218623Y-98282558D01*
X141248852Y-98319438D01*
X141287331Y-98349231D01*
X141335402Y-98372226D01*
X141419956Y-98392199D01*
X141548534Y-98400161D01*
X141975807Y-98400161D01*
X141975807Y-97906302D01*
X141500357Y-97906302D01*
X141390794Y-97915323D01*
X141311901Y-97939116D01*
X141256084Y-97974538D01*
X141213009Y-98024333D01*
X141187484Y-98081549D01*
X141178690Y-98148652D01*
X140973962Y-98148652D01*
X140973709Y-98145721D01*
X140980769Y-98065246D01*
X141001578Y-97990577D01*
X141036265Y-97920407D01*
X141083344Y-97858434D01*
X141138667Y-97811512D01*
X141203236Y-97778075D01*
X141274468Y-97757552D01*
X141373788Y-97743235D01*
X141508601Y-97737775D01*
X142174651Y-97737775D01*
X142174651Y-99244265D01*
G37*
G36*
X140670634Y-99244265D02*
G01*
X140670634Y-97737775D01*
X140471790Y-97737775D01*
X140471790Y-98485799D01*
X139725872Y-97737775D01*
X139456411Y-97737775D01*
X140086558Y-98348412D01*
X139428751Y-99244265D01*
X139691067Y-99244265D01*
X140225868Y-98481677D01*
X140471790Y-98722562D01*
X140471790Y-99244265D01*
X140670634Y-99244265D01*
G37*
G36*
X139229082Y-99244265D02*
G01*
X139229082Y-97737775D01*
X139030329Y-97737775D01*
X139030329Y-99244265D01*
X139229082Y-99244265D01*
G37*
G36*
X137795153Y-98140783D02*
G01*
X137906873Y-98169443D01*
X137974660Y-98200327D01*
X138028253Y-98237318D01*
X138069814Y-98280269D01*
X138102486Y-98330735D01*
X138129658Y-98393061D01*
X138150689Y-98469404D01*
X137970346Y-98493950D01*
X137944691Y-98418532D01*
X137913850Y-98365805D01*
X137878663Y-98330552D01*
X137834684Y-98306759D01*
X137772545Y-98290557D01*
X137686505Y-98284390D01*
X137595557Y-98292360D01*
X137527303Y-98313820D01*
X137476487Y-98346580D01*
X137449299Y-98381015D01*
X137431131Y-98431712D01*
X137424188Y-98504667D01*
X137425288Y-98552569D01*
X137546013Y-98583864D01*
X137754191Y-98615675D01*
X137918139Y-98643336D01*
X137988756Y-98668991D01*
X138050855Y-98703877D01*
X138103771Y-98749977D01*
X138146109Y-98809940D01*
X138173251Y-98879006D01*
X138182471Y-98956027D01*
X138176212Y-99022409D01*
X138158113Y-99080903D01*
X138128393Y-99133091D01*
X138086209Y-99180059D01*
X138035972Y-99216628D01*
X137974856Y-99243921D01*
X137900636Y-99261423D01*
X137810520Y-99267712D01*
X137704495Y-99258584D01*
X137607096Y-99231808D01*
X137514018Y-99185347D01*
X137409900Y-99108801D01*
X137396108Y-99183067D01*
X137372989Y-99244265D01*
X137180373Y-99244265D01*
X137209527Y-99180039D01*
X137226993Y-99113564D01*
X137234800Y-99022270D01*
X137238717Y-98787866D01*
X137238717Y-98764053D01*
X137425288Y-98764053D01*
X137433870Y-98878491D01*
X137454963Y-98949250D01*
X137485598Y-98999309D01*
X137525867Y-99041771D01*
X137576871Y-99077294D01*
X137633839Y-99102958D01*
X137696634Y-99118676D01*
X137766464Y-99124097D01*
X137836616Y-99117824D01*
X137889824Y-99100837D01*
X137929954Y-99074729D01*
X137961137Y-99038778D01*
X137979466Y-98998201D01*
X137985733Y-98951356D01*
X137979306Y-98905130D01*
X137960179Y-98863520D01*
X137929548Y-98829043D01*
X137887364Y-98803437D01*
X137831551Y-98785749D01*
X137726531Y-98766342D01*
X137538850Y-98731538D01*
X137425288Y-98696184D01*
X137425288Y-98764053D01*
X137238717Y-98764053D01*
X137238717Y-98541761D01*
X137241590Y-98428128D01*
X137247967Y-98371493D01*
X137271193Y-98300725D01*
X137305395Y-98245922D01*
X137354825Y-98202418D01*
X137433439Y-98163398D01*
X137527591Y-98139638D01*
X137659852Y-98130517D01*
X137795153Y-98140783D01*
G37*
G36*
X136953502Y-99244265D02*
G01*
X136953502Y-98153964D01*
X136787447Y-98153964D01*
X136787447Y-98308204D01*
X136734773Y-98243778D01*
X136674995Y-98194816D01*
X136607258Y-98159739D01*
X136530015Y-98138077D01*
X136441142Y-98130517D01*
X136345739Y-98139579D01*
X136260341Y-98165963D01*
X136186323Y-98208268D01*
X136136876Y-98258745D01*
X136102478Y-98320430D01*
X136079448Y-98395124D01*
X136072349Y-98456007D01*
X136069190Y-98574551D01*
X136069190Y-99244265D01*
X136253655Y-99244265D01*
X136253655Y-98580596D01*
X136259972Y-98474879D01*
X136275179Y-98411610D01*
X136304645Y-98361616D01*
X136351474Y-98322217D01*
X136409948Y-98297434D01*
X136480068Y-98288786D01*
X136555830Y-98297302D01*
X136622946Y-98322166D01*
X136683492Y-98363800D01*
X136717263Y-98403744D01*
X136743936Y-98460819D01*
X136762138Y-98540194D01*
X136769038Y-98648373D01*
X136769038Y-99244265D01*
X136953502Y-99244265D01*
G37*
G36*
X135093287Y-98281093D02*
G01*
X135148191Y-98220752D01*
X135218309Y-98172283D01*
X135299260Y-98141265D01*
X135393523Y-98130517D01*
X135480870Y-98138512D01*
X135561285Y-98162028D01*
X135636331Y-98201225D01*
X135701898Y-98254433D01*
X135756049Y-98321554D01*
X135799271Y-98404649D01*
X135828969Y-98494557D01*
X135847276Y-98592631D01*
X135853585Y-98700122D01*
X135846539Y-98810136D01*
X135826284Y-98908076D01*
X135793684Y-98995686D01*
X135747390Y-99076305D01*
X135691195Y-99142530D01*
X135624607Y-99195996D01*
X135549209Y-99235955D01*
X135469919Y-99259704D01*
X135385280Y-99267712D01*
X135288632Y-99257133D01*
X135207741Y-99226985D01*
X135139157Y-99177671D01*
X135080923Y-99106969D01*
X135080923Y-99244265D01*
X134909830Y-99244265D01*
X134909830Y-98714960D01*
X135077900Y-98714960D01*
X135084247Y-98817861D01*
X135101591Y-98899781D01*
X135127997Y-98964563D01*
X135162439Y-99015378D01*
X135224087Y-99070922D01*
X135291706Y-99103016D01*
X135367877Y-99113839D01*
X135443222Y-99102718D01*
X135511727Y-99069342D01*
X135575881Y-99010799D01*
X135611873Y-98957613D01*
X135639389Y-98890251D01*
X135657412Y-98805547D01*
X135663991Y-98699664D01*
X135657653Y-98589115D01*
X135640490Y-98502617D01*
X135614697Y-98435644D01*
X135581559Y-98384408D01*
X135520983Y-98328109D01*
X135453397Y-98295461D01*
X135376029Y-98284390D01*
X135315582Y-98290878D01*
X135260967Y-98309933D01*
X135210740Y-98341914D01*
X135163996Y-98388438D01*
X135129322Y-98441823D01*
X135102388Y-98511345D01*
X135084499Y-98600856D01*
X135077900Y-98714960D01*
X134909830Y-98714960D01*
X134909830Y-97737775D01*
X135093287Y-97737775D01*
X135093287Y-98281093D01*
G37*
G36*
X134007475Y-99244265D02*
G01*
X134007475Y-97737775D01*
X133808723Y-97737775D01*
X133808723Y-98359128D01*
X133027909Y-98359128D01*
X133027909Y-97737775D01*
X132829156Y-97737775D01*
X132829156Y-99244265D01*
X133027909Y-99244265D01*
X133027909Y-98533518D01*
X133808723Y-98533518D01*
X133808723Y-99244265D01*
X134007475Y-99244265D01*
G37*
G36*
X132197107Y-98140783D02*
G01*
X132308827Y-98169443D01*
X132376614Y-98200327D01*
X132430207Y-98237318D01*
X132471768Y-98280269D01*
X132504440Y-98330735D01*
X132531612Y-98393061D01*
X132552643Y-98469404D01*
X132372300Y-98493950D01*
X132346644Y-98418532D01*
X132315804Y-98365805D01*
X132280617Y-98330552D01*
X132236638Y-98306759D01*
X132174499Y-98290557D01*
X132088459Y-98284390D01*
X131997511Y-98292360D01*
X131929257Y-98313820D01*
X131878441Y-98346580D01*
X131851253Y-98381015D01*
X131833085Y-98431712D01*
X131826142Y-98504667D01*
X131827242Y-98552569D01*
X131947967Y-98583864D01*
X132156145Y-98615675D01*
X132320093Y-98643336D01*
X132390710Y-98668991D01*
X132452808Y-98703877D01*
X132505725Y-98749977D01*
X132548063Y-98809940D01*
X132575205Y-98879006D01*
X132584425Y-98956027D01*
X132578166Y-99022409D01*
X132560067Y-99080903D01*
X132530347Y-99133091D01*
X132488163Y-99180059D01*
X132437926Y-99216628D01*
X132376810Y-99243921D01*
X132302590Y-99261423D01*
X132212474Y-99267712D01*
X132106449Y-99258584D01*
X132009050Y-99231808D01*
X131915972Y-99185347D01*
X131811854Y-99108801D01*
X131798062Y-99183067D01*
X131774943Y-99244265D01*
X131582327Y-99244265D01*
X131611481Y-99180039D01*
X131628947Y-99113564D01*
X131636754Y-99022270D01*
X131640670Y-98787866D01*
X131640670Y-98764053D01*
X131827242Y-98764053D01*
X131835824Y-98878491D01*
X131856917Y-98949250D01*
X131887552Y-98999309D01*
X131927821Y-99041771D01*
X131978825Y-99077294D01*
X132035793Y-99102958D01*
X132098588Y-99118676D01*
X132168418Y-99124097D01*
X132238570Y-99117824D01*
X132291778Y-99100837D01*
X132331908Y-99074729D01*
X132363091Y-99038778D01*
X132381420Y-98998201D01*
X132387687Y-98951356D01*
X132381260Y-98905130D01*
X132362133Y-98863520D01*
X132331502Y-98829043D01*
X132289318Y-98803437D01*
X132233505Y-98785749D01*
X132128485Y-98766342D01*
X131940804Y-98731538D01*
X131827242Y-98696184D01*
X131827242Y-98764053D01*
X131640670Y-98764053D01*
X131640670Y-98541761D01*
X131643544Y-98428128D01*
X131649921Y-98371493D01*
X131673147Y-98300725D01*
X131707349Y-98245922D01*
X131756778Y-98202418D01*
X131835393Y-98163398D01*
X131929545Y-98139638D01*
X132061806Y-98130517D01*
X132197107Y-98140783D01*
G37*
G36*
X131355456Y-99244265D02*
G01*
X131355456Y-98153964D01*
X131190409Y-98153964D01*
X131190409Y-98306189D01*
X131131053Y-98234999D01*
X131054213Y-98178786D01*
X130995792Y-98152290D01*
X130931625Y-98136094D01*
X130860498Y-98130517D01*
X130781213Y-98136620D01*
X130716014Y-98153638D01*
X130662295Y-98180343D01*
X130615816Y-98217855D01*
X130579660Y-98263818D01*
X130553118Y-98319469D01*
X130495977Y-98248989D01*
X130434629Y-98196635D01*
X130368524Y-98160068D01*
X130296520Y-98138047D01*
X130216979Y-98130517D01*
X130136397Y-98136830D01*
X130069627Y-98154503D01*
X130014143Y-98182366D01*
X129968034Y-98220276D01*
X129932227Y-98267237D01*
X129905092Y-98326893D01*
X129887390Y-98402140D01*
X129880931Y-98496607D01*
X129880931Y-99244265D01*
X130064297Y-99244265D01*
X130064297Y-98556965D01*
X130069713Y-98453807D01*
X130082248Y-98397230D01*
X130107219Y-98353521D01*
X130147370Y-98318645D01*
X130197662Y-98296498D01*
X130258012Y-98288786D01*
X130331323Y-98297580D01*
X130394024Y-98322987D01*
X130448613Y-98365357D01*
X130488218Y-98421366D01*
X130514519Y-98500445D01*
X130524450Y-98610363D01*
X130524450Y-99244265D01*
X130708823Y-99244265D01*
X130708823Y-98535350D01*
X130714768Y-98454002D01*
X130730540Y-98394002D01*
X130753977Y-98350427D01*
X130788516Y-98317410D01*
X130836193Y-98296503D01*
X130901531Y-98288786D01*
X130976450Y-98299067D01*
X131045512Y-98329911D01*
X131085142Y-98361137D01*
X131116937Y-98400759D01*
X131141316Y-98450078D01*
X131162419Y-98538211D01*
X131170992Y-98678140D01*
X131170992Y-99244265D01*
X131355456Y-99244265D01*
G37*
G36*
X129704435Y-99244265D02*
G01*
X129704435Y-99095246D01*
X129011824Y-98301701D01*
X129219827Y-98307837D01*
X129663494Y-98307837D01*
X129663494Y-98153964D01*
X128774053Y-98153964D01*
X128774053Y-98275872D01*
X129363259Y-98968759D01*
X129477015Y-99095246D01*
X129244373Y-99085995D01*
X128741264Y-99085995D01*
X128741264Y-99244265D01*
X129704435Y-99244265D01*
G37*
G36*
X128233045Y-98140783D02*
G01*
X128344766Y-98169443D01*
X128412552Y-98200327D01*
X128466146Y-98237318D01*
X128507706Y-98280269D01*
X128540379Y-98330735D01*
X128567550Y-98393061D01*
X128588581Y-98469404D01*
X128408239Y-98493950D01*
X128382583Y-98418532D01*
X128351742Y-98365805D01*
X128316556Y-98330552D01*
X128272577Y-98306759D01*
X128210437Y-98290557D01*
X128124398Y-98284390D01*
X128033449Y-98292360D01*
X127965196Y-98313820D01*
X127914379Y-98346580D01*
X127887192Y-98381015D01*
X127869023Y-98431712D01*
X127862081Y-98504667D01*
X127863180Y-98552569D01*
X127983905Y-98583864D01*
X128192084Y-98615675D01*
X128356032Y-98643336D01*
X128426648Y-98668991D01*
X128488747Y-98703877D01*
X128541663Y-98749977D01*
X128584002Y-98809940D01*
X128611143Y-98879006D01*
X128620363Y-98956027D01*
X128614105Y-99022409D01*
X128596006Y-99080903D01*
X128566285Y-99133091D01*
X128524101Y-99180059D01*
X128473864Y-99216628D01*
X128412749Y-99243921D01*
X128338529Y-99261423D01*
X128248412Y-99267712D01*
X128142387Y-99258584D01*
X128044988Y-99231808D01*
X127951910Y-99185347D01*
X127847793Y-99108801D01*
X127834001Y-99183067D01*
X127810882Y-99244265D01*
X127618266Y-99244265D01*
X127647420Y-99180039D01*
X127664885Y-99113564D01*
X127672693Y-99022270D01*
X127676609Y-98787866D01*
X127676609Y-98764053D01*
X127863180Y-98764053D01*
X127871762Y-98878491D01*
X127892856Y-98949250D01*
X127923490Y-98999309D01*
X127963760Y-99041771D01*
X128014763Y-99077294D01*
X128071731Y-99102958D01*
X128134527Y-99118676D01*
X128204357Y-99124097D01*
X128274509Y-99117824D01*
X128327716Y-99100837D01*
X128367847Y-99074729D01*
X128399030Y-99038778D01*
X128417359Y-98998201D01*
X128423626Y-98951356D01*
X128417199Y-98905130D01*
X128398072Y-98863520D01*
X128367440Y-98829043D01*
X128325257Y-98803437D01*
X128269443Y-98785749D01*
X128164423Y-98766342D01*
X127976742Y-98731538D01*
X127863180Y-98696184D01*
X127863180Y-98764053D01*
X127676609Y-98764053D01*
X127676609Y-98541761D01*
X127679483Y-98428128D01*
X127685860Y-98371493D01*
X127709085Y-98300725D01*
X127743287Y-98245922D01*
X127792717Y-98202418D01*
X127871332Y-98163398D01*
X127965484Y-98139638D01*
X128097745Y-98130517D01*
X128233045Y-98140783D01*
G37*
G36*
X126852198Y-98756634D02*
G01*
X126664619Y-98740147D01*
X126651019Y-98815445D01*
X126630107Y-98877614D01*
X126602704Y-98928733D01*
X126565908Y-98973096D01*
X126516322Y-99012823D01*
X126451579Y-99047893D01*
X126381913Y-99072717D01*
X126305411Y-99088033D01*
X126220952Y-99093322D01*
X126111382Y-99084422D01*
X126020185Y-99059434D01*
X125964878Y-99032746D01*
X125922372Y-99001718D01*
X125890583Y-98966469D01*
X125858528Y-98904280D01*
X125847993Y-98837417D01*
X125858402Y-98770586D01*
X125889026Y-98713677D01*
X125939684Y-98667387D01*
X126024215Y-98624743D01*
X126103097Y-98599634D01*
X126291661Y-98551286D01*
X126482200Y-98498048D01*
X126581638Y-98457222D01*
X126649498Y-98414893D01*
X126702257Y-98368187D01*
X126742014Y-98316997D01*
X126771206Y-98259259D01*
X126788782Y-98197156D01*
X126794770Y-98129510D01*
X126787646Y-98055303D01*
X126766366Y-97984638D01*
X126730290Y-97916286D01*
X126681632Y-97856454D01*
X126619465Y-97806374D01*
X126541704Y-97765710D01*
X126457610Y-97737592D01*
X126366099Y-97720285D01*
X126266015Y-97714327D01*
X126155712Y-97720711D01*
X126058099Y-97738982D01*
X125971458Y-97768183D01*
X125891503Y-97810618D01*
X125826748Y-97863227D01*
X125775270Y-97926452D01*
X125736748Y-97998641D01*
X125712141Y-98077022D01*
X125701448Y-98163032D01*
X125892049Y-98177412D01*
X125911647Y-98086449D01*
X125946559Y-98015967D01*
X125996096Y-97961715D01*
X126059322Y-97923392D01*
X126144413Y-97898125D01*
X126257863Y-97888717D01*
X126376916Y-97897599D01*
X126461695Y-97920824D01*
X126520730Y-97954845D01*
X126567598Y-98003435D01*
X126594262Y-98055909D01*
X126603162Y-98114305D01*
X126596510Y-98165677D01*
X126577219Y-98209474D01*
X126544727Y-98247571D01*
X126500739Y-98275770D01*
X126409387Y-98311230D01*
X126245041Y-98354732D01*
X126022488Y-98411471D01*
X125912565Y-98450536D01*
X125829425Y-98496693D01*
X125765915Y-98547818D01*
X125718942Y-98603860D01*
X125684460Y-98668184D01*
X125663563Y-98738903D01*
X125656385Y-98817633D01*
X125663931Y-98895650D01*
X125686560Y-98970604D01*
X125725078Y-99043772D01*
X125776541Y-99108290D01*
X125841636Y-99163178D01*
X125922274Y-99208819D01*
X126009778Y-99241022D01*
X126105804Y-99260864D01*
X126211793Y-99267712D01*
X126346964Y-99260334D01*
X126459716Y-99239796D01*
X126553519Y-99207994D01*
X126639609Y-99160859D01*
X126711116Y-99101195D01*
X126769674Y-99028201D01*
X126813462Y-98945212D01*
X126840967Y-98855252D01*
X126852198Y-98756634D01*
G37*
G36*
X124852193Y-97723316D02*
G01*
X124965209Y-97749299D01*
X125067280Y-97791475D01*
X125160052Y-97849967D01*
X125244683Y-97925811D01*
X125314408Y-98013018D01*
X125369675Y-98113007D01*
X125410584Y-98227652D01*
X125436372Y-98359363D01*
X125445451Y-98510986D01*
X125435848Y-98640786D01*
X125407273Y-98765257D01*
X125359447Y-98885777D01*
X125311028Y-98970146D01*
X125253046Y-99044325D01*
X125185098Y-99109206D01*
X125106381Y-99165313D01*
X125020931Y-99209725D01*
X124929918Y-99241606D01*
X124832383Y-99261062D01*
X124727194Y-99267712D01*
X124599081Y-99257316D01*
X124478043Y-99226508D01*
X124362386Y-99175022D01*
X124282921Y-99123412D01*
X124213330Y-99061284D01*
X124152853Y-98987927D01*
X124101169Y-98902172D01*
X124050660Y-98778984D01*
X124019638Y-98643559D01*
X124008936Y-98493584D01*
X124009043Y-98492027D01*
X124213826Y-98492027D01*
X124224165Y-98637844D01*
X124253011Y-98758496D01*
X124298139Y-98858386D01*
X124358814Y-98941006D01*
X124436450Y-99010338D01*
X124522579Y-99059177D01*
X124618970Y-99088908D01*
X124728201Y-99099184D01*
X124835319Y-99089079D01*
X124930599Y-99059743D01*
X125016459Y-99011388D01*
X125094565Y-98942564D01*
X125156374Y-98860456D01*
X125201749Y-98763640D01*
X125230395Y-98649260D01*
X125240561Y-98513643D01*
X125232981Y-98371516D01*
X125212120Y-98255960D01*
X125180257Y-98162604D01*
X125138849Y-98087690D01*
X125088429Y-98028210D01*
X125007925Y-97964150D01*
X124921565Y-97919218D01*
X124827956Y-97892114D01*
X124725179Y-97882855D01*
X124628286Y-97891442D01*
X124539525Y-97916625D01*
X124457183Y-97958418D01*
X124384496Y-98015108D01*
X124324285Y-98085416D01*
X124275833Y-98171092D01*
X124242270Y-98264449D01*
X124221211Y-98370710D01*
X124213826Y-98492027D01*
X124009043Y-98492027D01*
X124019133Y-98345437D01*
X124048651Y-98211880D01*
X124096589Y-98090675D01*
X124145802Y-98006050D01*
X124204328Y-97932260D01*
X124272537Y-97868337D01*
X124351212Y-97813704D01*
X124436536Y-97770532D01*
X124526861Y-97739592D01*
X124623067Y-97720751D01*
X124726186Y-97714327D01*
X124852193Y-97723316D01*
G37*
G36*
X123760725Y-99244265D02*
G01*
X123760725Y-97737775D01*
X123561880Y-97737775D01*
X123561880Y-99069875D01*
X122822099Y-99069875D01*
X122822099Y-99244265D01*
X123760725Y-99244265D01*
G37*
G36*
X122359106Y-99244265D02*
G01*
X122359106Y-97912164D01*
X122854065Y-97912164D01*
X122854065Y-97737775D01*
X121663381Y-97737775D01*
X121663381Y-97912164D01*
X122160354Y-97912164D01*
X122160354Y-99244265D01*
X122359106Y-99244265D01*
G37*
G36*
X121780892Y-99244265D02*
G01*
X121569775Y-99244265D01*
X121404819Y-98787042D01*
X120776688Y-98787042D01*
X120601474Y-99244265D01*
X120374969Y-99244265D01*
X120628565Y-98622911D01*
X120838145Y-98622911D01*
X121347392Y-98622911D01*
X121182436Y-98182449D01*
X121135900Y-98039008D01*
X121101470Y-97895586D01*
X121060468Y-98025500D01*
X120994949Y-98206996D01*
X120838145Y-98622911D01*
X120628565Y-98622911D01*
X120989820Y-97737775D01*
X121203960Y-97737775D01*
X121780892Y-99244265D01*
G37*
G36*
X120218440Y-99244265D02*
G01*
X120218440Y-97737775D01*
X120014467Y-97737775D01*
X119225501Y-98920582D01*
X119225501Y-97737775D01*
X119034900Y-97737775D01*
X119034900Y-99244265D01*
X119238782Y-99244265D01*
X120027839Y-98060450D01*
X120027839Y-99244265D01*
X120218440Y-99244265D01*
G37*
G36*
X118667254Y-99244265D02*
G01*
X118667254Y-97737775D01*
X118468501Y-97737775D01*
X118468501Y-99244265D01*
X118667254Y-99244265D01*
G37*
G36*
X164518841Y-101276634D02*
G01*
X164331263Y-101260147D01*
X164317662Y-101335445D01*
X164296750Y-101397614D01*
X164269347Y-101448733D01*
X164232551Y-101493096D01*
X164182966Y-101532823D01*
X164118222Y-101567893D01*
X164048557Y-101592717D01*
X163972054Y-101608033D01*
X163887596Y-101613322D01*
X163778025Y-101604422D01*
X163686828Y-101579434D01*
X163631521Y-101552746D01*
X163589015Y-101521718D01*
X163557227Y-101486469D01*
X163525172Y-101424280D01*
X163514637Y-101357417D01*
X163525045Y-101290586D01*
X163555670Y-101233677D01*
X163606327Y-101187387D01*
X163690858Y-101144743D01*
X163769741Y-101119634D01*
X163958304Y-101071286D01*
X164148843Y-101018048D01*
X164248281Y-100977222D01*
X164316141Y-100934893D01*
X164368901Y-100888187D01*
X164408657Y-100836997D01*
X164437849Y-100779259D01*
X164455425Y-100717156D01*
X164461414Y-100649510D01*
X164454290Y-100575303D01*
X164433009Y-100504638D01*
X164396934Y-100436286D01*
X164348276Y-100376454D01*
X164286109Y-100326374D01*
X164208348Y-100285710D01*
X164124253Y-100257592D01*
X164032742Y-100240285D01*
X163932658Y-100234327D01*
X163822355Y-100240711D01*
X163724743Y-100258982D01*
X163638102Y-100288183D01*
X163558147Y-100330618D01*
X163493391Y-100383227D01*
X163441914Y-100446452D01*
X163403392Y-100518641D01*
X163378785Y-100597022D01*
X163368091Y-100683032D01*
X163558692Y-100697412D01*
X163578291Y-100606449D01*
X163613202Y-100535967D01*
X163662740Y-100481715D01*
X163725965Y-100443392D01*
X163811057Y-100418125D01*
X163924507Y-100408717D01*
X164043559Y-100417599D01*
X164128338Y-100440824D01*
X164187373Y-100474845D01*
X164234242Y-100523435D01*
X164260905Y-100575909D01*
X164269805Y-100634305D01*
X164263153Y-100685677D01*
X164243862Y-100729474D01*
X164211370Y-100767571D01*
X164167383Y-100795770D01*
X164076030Y-100831230D01*
X163911684Y-100874732D01*
X163689131Y-100931471D01*
X163579209Y-100970536D01*
X163496069Y-101016693D01*
X163432558Y-101067818D01*
X163385585Y-101123860D01*
X163351103Y-101188184D01*
X163330206Y-101258903D01*
X163323028Y-101337633D01*
X163330575Y-101415650D01*
X163353203Y-101490604D01*
X163391722Y-101563772D01*
X163443185Y-101628290D01*
X163508279Y-101683178D01*
X163588917Y-101728819D01*
X163676422Y-101761022D01*
X163772447Y-101780864D01*
X163878437Y-101787712D01*
X164013607Y-101780334D01*
X164126360Y-101759796D01*
X164220163Y-101727994D01*
X164306253Y-101680859D01*
X164377759Y-101621195D01*
X164436318Y-101548201D01*
X164480105Y-101465212D01*
X164507611Y-101375252D01*
X164518841Y-101276634D01*
G37*
G36*
X162362055Y-101764265D02*
G01*
X162362055Y-101603889D01*
X162417927Y-101671484D01*
X162479411Y-101722295D01*
X162547186Y-101758238D01*
X162622559Y-101780148D01*
X162707353Y-101787712D01*
X162801089Y-101778363D01*
X162887238Y-101750801D01*
X162962227Y-101707472D01*
X163011252Y-101658019D01*
X163045002Y-101597346D01*
X163068039Y-101521090D01*
X163075936Y-101458746D01*
X163079304Y-101348807D01*
X163079304Y-100673964D01*
X162894932Y-100673964D01*
X162894932Y-101278465D01*
X162891362Y-101411467D01*
X162883666Y-101473463D01*
X162867365Y-101519195D01*
X162842882Y-101556906D01*
X162809844Y-101587860D01*
X162770411Y-101610498D01*
X162724494Y-101624517D01*
X162670534Y-101629442D01*
X162590186Y-101618833D01*
X162514737Y-101586853D01*
X162470433Y-101554547D01*
X162436477Y-101516127D01*
X162411789Y-101470898D01*
X162390295Y-101388867D01*
X162381564Y-101257949D01*
X162381564Y-100673964D01*
X162197099Y-100673964D01*
X162197099Y-101764265D01*
X162362055Y-101764265D01*
G37*
G36*
X161495159Y-100655479D02*
G01*
X161555084Y-100669522D01*
X161606520Y-100691825D01*
X161675964Y-100742086D01*
X161740701Y-100815656D01*
X161740701Y-100673964D01*
X161908771Y-100673964D01*
X161908771Y-102180454D01*
X161724306Y-102180454D01*
X161724306Y-101648402D01*
X161671233Y-101702977D01*
X161603864Y-101748236D01*
X161526913Y-101777593D01*
X161438451Y-101787712D01*
X161356396Y-101779931D01*
X161276738Y-101756513D01*
X161198207Y-101716546D01*
X161128735Y-101662765D01*
X161070871Y-101595098D01*
X161024001Y-101511656D01*
X160991204Y-101420728D01*
X160970987Y-101320984D01*
X160964009Y-101210963D01*
X160964165Y-101208398D01*
X161152503Y-101208398D01*
X161159155Y-101319748D01*
X161177256Y-101407708D01*
X161204656Y-101476614D01*
X161240156Y-101530066D01*
X161287668Y-101576682D01*
X161337950Y-101608566D01*
X161391852Y-101627447D01*
X161450724Y-101633839D01*
X161526798Y-101622872D01*
X161594600Y-101590267D01*
X161656712Y-101533638D01*
X161691171Y-101481993D01*
X161717736Y-101415531D01*
X161735270Y-101330814D01*
X161741709Y-101223694D01*
X161735052Y-101117411D01*
X161716674Y-101030912D01*
X161688365Y-100960765D01*
X161651033Y-100904133D01*
X161601554Y-100853962D01*
X161550922Y-100820262D01*
X161498329Y-100800667D01*
X161442481Y-100794132D01*
X161367983Y-100805293D01*
X161300714Y-100838743D01*
X161238141Y-100897447D01*
X161203222Y-100950597D01*
X161176463Y-101017930D01*
X161158913Y-101102598D01*
X161152503Y-101208398D01*
X160964165Y-101208398D01*
X160970253Y-101108209D01*
X160988496Y-101013099D01*
X161018322Y-100924558D01*
X161061258Y-100842617D01*
X161114749Y-100775806D01*
X161179248Y-100722233D01*
X161253096Y-100682721D01*
X161334416Y-100658755D01*
X161425078Y-100650517D01*
X161495159Y-100655479D01*
G37*
G36*
X160405674Y-100660512D02*
G01*
X160501882Y-100689263D01*
X160586799Y-100736149D01*
X160662308Y-100802192D01*
X160721737Y-100881524D01*
X160765723Y-100976735D01*
X160793720Y-101091000D01*
X160803724Y-101228365D01*
X160793873Y-101360872D01*
X160766263Y-101471317D01*
X160722785Y-101563588D01*
X160663865Y-101640708D01*
X160589494Y-101703850D01*
X160503288Y-101749382D01*
X160402927Y-101777735D01*
X160285227Y-101787712D01*
X160190544Y-101781383D01*
X160108278Y-101763366D01*
X160036524Y-101734633D01*
X159973726Y-101695480D01*
X159902074Y-101626990D01*
X159846480Y-101541571D01*
X159806664Y-101436094D01*
X159997265Y-101412555D01*
X160030650Y-101486406D01*
X160068678Y-101541430D01*
X160111021Y-101581082D01*
X160161146Y-101609961D01*
X160218304Y-101627672D01*
X160284220Y-101633839D01*
X160371057Y-101623058D01*
X160445917Y-101591742D01*
X160511732Y-101539134D01*
X160550406Y-101489477D01*
X160580587Y-101428880D01*
X160601884Y-101355263D01*
X160613123Y-101266009D01*
X159801627Y-101266009D01*
X159800527Y-101216825D01*
X159808139Y-101112136D01*
X159995250Y-101112136D01*
X160602865Y-101112136D01*
X160587365Y-101022388D01*
X160555305Y-100948828D01*
X160507061Y-100888196D01*
X160445098Y-100841770D01*
X160374766Y-100813975D01*
X160293471Y-100804390D01*
X160225464Y-100811173D01*
X160165772Y-100830799D01*
X160112647Y-100863143D01*
X160064951Y-100909353D01*
X160033712Y-100957702D01*
X160009909Y-101023676D01*
X159995250Y-101112136D01*
X159808139Y-101112136D01*
X159810323Y-101082092D01*
X159837732Y-100970066D01*
X159880780Y-100876769D01*
X159938922Y-100799078D01*
X160012799Y-100734273D01*
X160095530Y-100688363D01*
X160188905Y-100660267D01*
X160295486Y-100650517D01*
X160405674Y-100660512D01*
G37*
G36*
X159577778Y-101764265D02*
G01*
X159577778Y-100673964D01*
X159411815Y-100673964D01*
X159411815Y-100838554D01*
X159345252Y-100736388D01*
X159294487Y-100687154D01*
X159237901Y-100659653D01*
X159176151Y-100650517D01*
X159115441Y-100656703D01*
X159052624Y-100675865D01*
X158986558Y-100709593D01*
X159050030Y-100879586D01*
X159118974Y-100849192D01*
X159185310Y-100839561D01*
X159242696Y-100848676D01*
X159293937Y-100876014D01*
X159334691Y-100918799D01*
X159362631Y-100977222D01*
X159385402Y-101078812D01*
X159393314Y-101193011D01*
X159393314Y-101764265D01*
X159577778Y-101764265D01*
G37*
G36*
X158574398Y-101764265D02*
G01*
X158988389Y-100673964D01*
X158793667Y-100673964D01*
X158560110Y-101327192D01*
X158490409Y-101547010D01*
X158421716Y-101339557D01*
X158179915Y-100673964D01*
X157990322Y-100673964D01*
X158402298Y-101764265D01*
X158574398Y-101764265D01*
G37*
G36*
X157826374Y-100468800D02*
G01*
X157826374Y-100257775D01*
X157642001Y-100257775D01*
X157642001Y-100468800D01*
X157826374Y-100468800D01*
G37*
G36*
X157826374Y-101764265D02*
G01*
X157826374Y-100673964D01*
X157642001Y-100673964D01*
X157642001Y-101764265D01*
X157826374Y-101764265D01*
G37*
G36*
X157435188Y-101435453D02*
G01*
X157252830Y-101406693D01*
X157235613Y-101476696D01*
X157206986Y-101531950D01*
X157167284Y-101575312D01*
X157117262Y-101606482D01*
X157053131Y-101626526D01*
X156971005Y-101633839D01*
X156887591Y-101627111D01*
X156826541Y-101609256D01*
X156782510Y-101582548D01*
X156747411Y-101545104D01*
X156727545Y-101505471D01*
X156720961Y-101462197D01*
X156727008Y-101423816D01*
X156744669Y-101391899D01*
X156775274Y-101364744D01*
X156827735Y-101341701D01*
X156963860Y-101302829D01*
X157150431Y-101250275D01*
X157245137Y-101214169D01*
X157314903Y-101168802D01*
X157364022Y-101110579D01*
X157394310Y-101041193D01*
X157404505Y-100964400D01*
X157396101Y-100894008D01*
X157371166Y-100829578D01*
X157331829Y-100772748D01*
X157280491Y-100726446D01*
X157232486Y-100698414D01*
X157163163Y-100672591D01*
X157087092Y-100656163D01*
X157003794Y-100650517D01*
X156880563Y-100660365D01*
X156778938Y-100687886D01*
X156717308Y-100717313D01*
X156670488Y-100751139D01*
X156635964Y-100789186D01*
X156598320Y-100860294D01*
X156572400Y-100960003D01*
X156752743Y-100984641D01*
X156766652Y-100930902D01*
X156790376Y-100887358D01*
X156824001Y-100852109D01*
X156865862Y-100826815D01*
X156920209Y-100810411D01*
X156990513Y-100804390D01*
X157074869Y-100810155D01*
X157133034Y-100824972D01*
X157171864Y-100846156D01*
X157203082Y-100876946D01*
X157220471Y-100909139D01*
X157226177Y-100943975D01*
X157220568Y-100977819D01*
X157203646Y-101008180D01*
X157176222Y-101034136D01*
X157132938Y-101057090D01*
X156969997Y-101103984D01*
X156789670Y-101155949D01*
X156696964Y-101189439D01*
X156627253Y-101230763D01*
X156575514Y-101286159D01*
X156551630Y-101330414D01*
X156536722Y-101382367D01*
X156531459Y-101443787D01*
X156537357Y-101503646D01*
X156555054Y-101561165D01*
X156585223Y-101617352D01*
X156625519Y-101666639D01*
X156676729Y-101708507D01*
X156740470Y-101743199D01*
X156809437Y-101767484D01*
X156885561Y-101782510D01*
X156969997Y-101787712D01*
X157077742Y-101781163D01*
X157165323Y-101763103D01*
X157236215Y-101735347D01*
X157293314Y-101698868D01*
X157342325Y-101650955D01*
X157382349Y-101592312D01*
X157413516Y-101521244D01*
X157435188Y-101435453D01*
G37*
G36*
X155975597Y-100660512D02*
G01*
X156071806Y-100689263D01*
X156156722Y-100736149D01*
X156232231Y-100802192D01*
X156291660Y-100881524D01*
X156335646Y-100976735D01*
X156363644Y-101091000D01*
X156373648Y-101228365D01*
X156363796Y-101360872D01*
X156336186Y-101471317D01*
X156292708Y-101563588D01*
X156233788Y-101640708D01*
X156159417Y-101703850D01*
X156073211Y-101749382D01*
X155972850Y-101777735D01*
X155855151Y-101787712D01*
X155760467Y-101781383D01*
X155678201Y-101763366D01*
X155606448Y-101734633D01*
X155543649Y-101695480D01*
X155471998Y-101626990D01*
X155416403Y-101541571D01*
X155376587Y-101436094D01*
X155567188Y-101412555D01*
X155600573Y-101486406D01*
X155638601Y-101541430D01*
X155680944Y-101581082D01*
X155731069Y-101609961D01*
X155788228Y-101627672D01*
X155854143Y-101633839D01*
X155940980Y-101623058D01*
X156015841Y-101591742D01*
X156081655Y-101539134D01*
X156120329Y-101489477D01*
X156150511Y-101428880D01*
X156171807Y-101355263D01*
X156183047Y-101266009D01*
X155371550Y-101266009D01*
X155370451Y-101216825D01*
X155378063Y-101112136D01*
X155565173Y-101112136D01*
X156172788Y-101112136D01*
X156157288Y-101022388D01*
X156125228Y-100948828D01*
X156076984Y-100888196D01*
X156015021Y-100841770D01*
X155944689Y-100813975D01*
X155863394Y-100804390D01*
X155795387Y-100811173D01*
X155735695Y-100830799D01*
X155682570Y-100863143D01*
X155634874Y-100909353D01*
X155603636Y-100957702D01*
X155579832Y-101023676D01*
X155565173Y-101112136D01*
X155378063Y-101112136D01*
X155380247Y-101082092D01*
X155407655Y-100970066D01*
X155450703Y-100876769D01*
X155508845Y-100799078D01*
X155582723Y-100734273D01*
X155665454Y-100688363D01*
X155758828Y-100660267D01*
X155865409Y-100650517D01*
X155975597Y-100660512D01*
G37*
G36*
X154451975Y-100801093D02*
G01*
X154506879Y-100740752D01*
X154576997Y-100692283D01*
X154657948Y-100661265D01*
X154752211Y-100650517D01*
X154839558Y-100658512D01*
X154919973Y-100682028D01*
X154995019Y-100721225D01*
X155060586Y-100774433D01*
X155114737Y-100841554D01*
X155157959Y-100924649D01*
X155187657Y-101014557D01*
X155205964Y-101112631D01*
X155212273Y-101220122D01*
X155205227Y-101330136D01*
X155184972Y-101428076D01*
X155152372Y-101515686D01*
X155106078Y-101596305D01*
X155049883Y-101662530D01*
X154983295Y-101715996D01*
X154907897Y-101755955D01*
X154828607Y-101779704D01*
X154743968Y-101787712D01*
X154647320Y-101777133D01*
X154566429Y-101746985D01*
X154497845Y-101697671D01*
X154439611Y-101626969D01*
X154439611Y-101764265D01*
X154268519Y-101764265D01*
X154268519Y-101234960D01*
X154436588Y-101234960D01*
X154442935Y-101337861D01*
X154460280Y-101419781D01*
X154486685Y-101484563D01*
X154521127Y-101535378D01*
X154582775Y-101590922D01*
X154650394Y-101623016D01*
X154726565Y-101633839D01*
X154801910Y-101622718D01*
X154870415Y-101589342D01*
X154934569Y-101530799D01*
X154970561Y-101477613D01*
X154998077Y-101410251D01*
X155016100Y-101325547D01*
X155022679Y-101219664D01*
X155016341Y-101109115D01*
X154999178Y-101022617D01*
X154973385Y-100955644D01*
X154940247Y-100904408D01*
X154879671Y-100848109D01*
X154812085Y-100815461D01*
X154734717Y-100804390D01*
X154674270Y-100810878D01*
X154619655Y-100829933D01*
X154569428Y-100861914D01*
X154522684Y-100908438D01*
X154488010Y-100961823D01*
X154461076Y-101031345D01*
X154443187Y-101120856D01*
X154436588Y-101234960D01*
X154268519Y-101234960D01*
X154268519Y-100257775D01*
X154451975Y-100257775D01*
X154451975Y-100801093D01*
G37*
G36*
X153396938Y-101764265D02*
G01*
X153225846Y-101764265D01*
X153225846Y-101624588D01*
X153164523Y-101697149D01*
X153094980Y-101747156D01*
X153015610Y-101777283D01*
X152923504Y-101787712D01*
X152830236Y-101778193D01*
X152745047Y-101750176D01*
X152665937Y-101703190D01*
X152591578Y-101635121D01*
X152533691Y-101555507D01*
X152490606Y-101459280D01*
X152463058Y-101343088D01*
X152454266Y-101218107D01*
X152641770Y-101218107D01*
X152648310Y-101323209D01*
X152666277Y-101407795D01*
X152693792Y-101475527D01*
X152729880Y-101529425D01*
X152777723Y-101576509D01*
X152827875Y-101608570D01*
X152881161Y-101627467D01*
X152938891Y-101633839D01*
X153008942Y-101625092D01*
X153070272Y-101599519D01*
X153125119Y-101556286D01*
X153174555Y-101492239D01*
X153201431Y-101431516D01*
X153220452Y-101341077D01*
X153227861Y-101210963D01*
X153221431Y-101110980D01*
X153203641Y-101029336D01*
X153176150Y-100962844D01*
X153139750Y-100908896D01*
X153091901Y-100861766D01*
X153041748Y-100829677D01*
X152988464Y-100810766D01*
X152930739Y-100804390D01*
X152855400Y-100815400D01*
X152788114Y-100848196D01*
X152726308Y-100905323D01*
X152692105Y-100957176D01*
X152665674Y-101024120D01*
X152648196Y-101109684D01*
X152641770Y-101218107D01*
X152454266Y-101218107D01*
X152453184Y-101202720D01*
X152461545Y-101087407D01*
X152485973Y-100981436D01*
X152525894Y-100883853D01*
X152576648Y-100804756D01*
X152642007Y-100740045D01*
X152724202Y-100691000D01*
X152816328Y-100660690D01*
X152914345Y-100650517D01*
X153001389Y-100659899D01*
X153078731Y-100687272D01*
X153148634Y-100732953D01*
X153212474Y-100799169D01*
X153212474Y-100257775D01*
X153396938Y-100257775D01*
X153396938Y-101764265D01*
G37*
G36*
X152237578Y-102182011D02*
G01*
X152258095Y-102013117D01*
X152199199Y-102025763D01*
X152152582Y-102029512D01*
X152094821Y-102023768D01*
X152054213Y-102008629D01*
X152020815Y-101983721D01*
X151993763Y-101950103D01*
X151975089Y-101911260D01*
X151937343Y-101810243D01*
X151920948Y-101764265D01*
X152333932Y-100673964D01*
X152135088Y-100673964D01*
X151908675Y-101304203D01*
X151867272Y-101426078D01*
X151829815Y-101556261D01*
X151794888Y-101430486D01*
X151753977Y-101308233D01*
X151521336Y-100673964D01*
X151336872Y-100673964D01*
X151750863Y-101780659D01*
X151815631Y-101945324D01*
X151854361Y-102027680D01*
X151909355Y-102109254D01*
X151967110Y-102161312D01*
X152011182Y-102184582D01*
X152061253Y-102198910D01*
X152118693Y-102203902D01*
X152173065Y-102198792D01*
X152237578Y-102182011D01*
G37*
G36*
X164457292Y-104284265D02*
G01*
X164457292Y-102777775D01*
X164158156Y-102777775D01*
X163802599Y-103844902D01*
X163730883Y-104068018D01*
X163650924Y-103826401D01*
X163291246Y-102777775D01*
X163023800Y-102777775D01*
X163023800Y-104284265D01*
X163215409Y-104284265D01*
X163215409Y-103022689D01*
X163651932Y-104284265D01*
X163831267Y-104284265D01*
X164265684Y-103001165D01*
X164265684Y-104284265D01*
X164457292Y-104284265D01*
G37*
G36*
X162728511Y-104284265D02*
G01*
X162728511Y-103193964D01*
X162562548Y-103193964D01*
X162562548Y-103358554D01*
X162495985Y-103256388D01*
X162445220Y-103207154D01*
X162388633Y-103179653D01*
X162326884Y-103170517D01*
X162266173Y-103176703D01*
X162203356Y-103195865D01*
X162137290Y-103229593D01*
X162200763Y-103399586D01*
X162269707Y-103369192D01*
X162336043Y-103359561D01*
X162393429Y-103368676D01*
X162444670Y-103396014D01*
X162485424Y-103438799D01*
X162513363Y-103497222D01*
X162536135Y-103598812D01*
X162544046Y-103713011D01*
X162544046Y-104284265D01*
X162728511Y-104284265D01*
G37*
G36*
X162090945Y-104284265D02*
G01*
X162090945Y-104073239D01*
X161880927Y-104073239D01*
X161880927Y-104284265D01*
X162090945Y-104284265D01*
G37*
G36*
X161054592Y-103857542D02*
G01*
X160875257Y-103832904D01*
X160862747Y-103947676D01*
X160840066Y-104022810D01*
X160810777Y-104069575D01*
X160768682Y-104104345D01*
X160716700Y-104125721D01*
X160651866Y-104133322D01*
X160581019Y-104124385D01*
X160522815Y-104098884D01*
X160476825Y-104058106D01*
X160447985Y-104005278D01*
X160433611Y-103937247D01*
X160427468Y-103816509D01*
X160427468Y-102777775D01*
X160228716Y-102777775D01*
X160228716Y-103802862D01*
X160234761Y-103929030D01*
X160250825Y-104024469D01*
X160274328Y-104095312D01*
X160310789Y-104159156D01*
X160358564Y-104211405D01*
X160418767Y-104253307D01*
X160486669Y-104282919D01*
X160563459Y-104301300D01*
X160650859Y-104307712D01*
X160749096Y-104299766D01*
X160830331Y-104277515D01*
X160897733Y-104242379D01*
X160953659Y-104194414D01*
X160996875Y-104135303D01*
X161028883Y-104061729D01*
X161048826Y-103970482D01*
X161054592Y-103857542D01*
G37*
G36*
X159602620Y-103180783D02*
G01*
X159714340Y-103209443D01*
X159782126Y-103240327D01*
X159835720Y-103277318D01*
X159877281Y-103320269D01*
X159909953Y-103370735D01*
X159937125Y-103433061D01*
X159958156Y-103509404D01*
X159777813Y-103533950D01*
X159752157Y-103458532D01*
X159721317Y-103405805D01*
X159686130Y-103370552D01*
X159642151Y-103346759D01*
X159580012Y-103330557D01*
X159493972Y-103324390D01*
X159403024Y-103332360D01*
X159334770Y-103353820D01*
X159283954Y-103386580D01*
X159256766Y-103421015D01*
X159238598Y-103471712D01*
X159231655Y-103544667D01*
X159232754Y-103592569D01*
X159353479Y-103623864D01*
X159561658Y-103655675D01*
X159725606Y-103683336D01*
X159796223Y-103708991D01*
X159858321Y-103743877D01*
X159911238Y-103789977D01*
X159953576Y-103849940D01*
X159980718Y-103919006D01*
X159989938Y-103996027D01*
X159983679Y-104062409D01*
X159965580Y-104120903D01*
X159935860Y-104173091D01*
X159893676Y-104220059D01*
X159843439Y-104256628D01*
X159782323Y-104283921D01*
X159708103Y-104301423D01*
X159617986Y-104307712D01*
X159511962Y-104298584D01*
X159414563Y-104271808D01*
X159321485Y-104225347D01*
X159217367Y-104148801D01*
X159203575Y-104223067D01*
X159180456Y-104284265D01*
X158987840Y-104284265D01*
X159016994Y-104220039D01*
X159034460Y-104153564D01*
X159042267Y-104062270D01*
X159046183Y-103827866D01*
X159046183Y-103804053D01*
X159232754Y-103804053D01*
X159241337Y-103918491D01*
X159262430Y-103989250D01*
X159293065Y-104039309D01*
X159333334Y-104081771D01*
X159384338Y-104117294D01*
X159441306Y-104142958D01*
X159504101Y-104158676D01*
X159573931Y-104164097D01*
X159644083Y-104157824D01*
X159697291Y-104140837D01*
X159737421Y-104114729D01*
X159768604Y-104078778D01*
X159786933Y-104038201D01*
X159793200Y-103991356D01*
X159786773Y-103945130D01*
X159767646Y-103903520D01*
X159737014Y-103869043D01*
X159694831Y-103843437D01*
X159639018Y-103825749D01*
X159533997Y-103806342D01*
X159346316Y-103771538D01*
X159232754Y-103736184D01*
X159232754Y-103804053D01*
X159046183Y-103804053D01*
X159046183Y-103581761D01*
X159049057Y-103468128D01*
X159055434Y-103411493D01*
X159078659Y-103340725D01*
X159112862Y-103285922D01*
X159162291Y-103242418D01*
X159240906Y-103203398D01*
X159335058Y-103179638D01*
X159467319Y-103170517D01*
X159602620Y-103180783D01*
G37*
G36*
X158560110Y-104284265D02*
G01*
X158893135Y-103193964D01*
X158702534Y-103193964D01*
X158529335Y-103824019D01*
X158464855Y-104057393D01*
X158408435Y-103834094D01*
X158235236Y-103193964D01*
X158045734Y-103193964D01*
X157882794Y-103827042D01*
X157828480Y-104034770D01*
X157766015Y-103825118D01*
X157579444Y-103193964D01*
X157400200Y-103193964D01*
X157740370Y-104284265D01*
X157931978Y-104284265D01*
X158105177Y-103631129D01*
X158147125Y-103445474D01*
X158367494Y-104284265D01*
X158560110Y-104284265D01*
G37*
G36*
X157245686Y-104284265D02*
G01*
X157245686Y-102777775D01*
X157061222Y-102777775D01*
X157061222Y-103319627D01*
X156991537Y-103253713D01*
X156915123Y-103207769D01*
X156830484Y-103180045D01*
X156735341Y-103170517D01*
X156655909Y-103176166D01*
X156586431Y-103192316D01*
X156525322Y-103218236D01*
X156470642Y-103254793D01*
X156428610Y-103298502D01*
X156397736Y-103350036D01*
X156378031Y-103407652D01*
X156364429Y-103487054D01*
X156359268Y-103594034D01*
X156359268Y-104284265D01*
X156543732Y-104284265D01*
X156543732Y-103593576D01*
X156551627Y-103502965D01*
X156572486Y-103437873D01*
X156603724Y-103391893D01*
X156647454Y-103357797D01*
X156702815Y-103336467D01*
X156773259Y-103328786D01*
X156852588Y-103339374D01*
X156927499Y-103371376D01*
X156971589Y-103403612D01*
X157005590Y-103441888D01*
X157030539Y-103486873D01*
X157052531Y-103567144D01*
X157061222Y-103688007D01*
X157061222Y-104284265D01*
X157245686Y-104284265D01*
G37*
G36*
X155742589Y-103180512D02*
G01*
X155838798Y-103209263D01*
X155923714Y-103256149D01*
X155999223Y-103322192D01*
X156058653Y-103401524D01*
X156102639Y-103496735D01*
X156130636Y-103611000D01*
X156140640Y-103748365D01*
X156130789Y-103880872D01*
X156103179Y-103991317D01*
X156059701Y-104083588D01*
X156000780Y-104160708D01*
X155926410Y-104223850D01*
X155840203Y-104269382D01*
X155739842Y-104297735D01*
X155622143Y-104307712D01*
X155527459Y-104301383D01*
X155445193Y-104283366D01*
X155373440Y-104254633D01*
X155310642Y-104215480D01*
X155238990Y-104146990D01*
X155183396Y-104061571D01*
X155143580Y-103956094D01*
X155334181Y-103932555D01*
X155367565Y-104006406D01*
X155405594Y-104061430D01*
X155447937Y-104101082D01*
X155498061Y-104129961D01*
X155555220Y-104147672D01*
X155621135Y-104153839D01*
X155707973Y-104143058D01*
X155782833Y-104111742D01*
X155848648Y-104059134D01*
X155887322Y-104009477D01*
X155917503Y-103948880D01*
X155938799Y-103875263D01*
X155950039Y-103786009D01*
X155138542Y-103786009D01*
X155137443Y-103736825D01*
X155145055Y-103632136D01*
X155332166Y-103632136D01*
X155939781Y-103632136D01*
X155924280Y-103542388D01*
X155892220Y-103468828D01*
X155843976Y-103408196D01*
X155782014Y-103361770D01*
X155711681Y-103333975D01*
X155630386Y-103324390D01*
X155562379Y-103331173D01*
X155502687Y-103350799D01*
X155449562Y-103383143D01*
X155401866Y-103429353D01*
X155370628Y-103477702D01*
X155346825Y-103543676D01*
X155332166Y-103632136D01*
X155145055Y-103632136D01*
X155147239Y-103602092D01*
X155174648Y-103490066D01*
X155217695Y-103396769D01*
X155275837Y-103319078D01*
X155349715Y-103254273D01*
X155432446Y-103208363D01*
X155525820Y-103180267D01*
X155632401Y-103170517D01*
X155742589Y-103180512D01*
G37*
G36*
X154914694Y-104284265D02*
G01*
X154914694Y-103193964D01*
X154748731Y-103193964D01*
X154748731Y-103358554D01*
X154682168Y-103256388D01*
X154631402Y-103207154D01*
X154574816Y-103179653D01*
X154513067Y-103170517D01*
X154452356Y-103176703D01*
X154389539Y-103195865D01*
X154323473Y-103229593D01*
X154386946Y-103399586D01*
X154455889Y-103369192D01*
X154522226Y-103359561D01*
X154579612Y-103368676D01*
X154630853Y-103396014D01*
X154671607Y-103438799D01*
X154699546Y-103497222D01*
X154722318Y-103598812D01*
X154730229Y-103713011D01*
X154730229Y-104284265D01*
X154914694Y-104284265D01*
G37*
G36*
X153612910Y-104284265D02*
G01*
X153612910Y-102777775D01*
X153313773Y-102777775D01*
X152958217Y-103844902D01*
X152886501Y-104068018D01*
X152806542Y-103826401D01*
X152446864Y-102777775D01*
X152179418Y-102777775D01*
X152179418Y-104284265D01*
X152371026Y-104284265D01*
X152371026Y-103022689D01*
X152807549Y-104284265D01*
X152986885Y-104284265D01*
X153421301Y-103001165D01*
X153421301Y-104284265D01*
X153612910Y-104284265D01*
G37*
G36*
X152023530Y-104284265D02*
G01*
X151812412Y-104284265D01*
X151647457Y-103827042D01*
X151019325Y-103827042D01*
X150844112Y-104284265D01*
X150617607Y-104284265D01*
X150871203Y-103662911D01*
X151080783Y-103662911D01*
X151590029Y-103662911D01*
X151425074Y-103222449D01*
X151378538Y-103079008D01*
X151344107Y-102935586D01*
X151303105Y-103065500D01*
X151237587Y-103246996D01*
X151080783Y-103662911D01*
X150871203Y-103662911D01*
X151232458Y-102777775D01*
X151446598Y-102777775D01*
X152023530Y-104284265D01*
G37*
G36*
X150461078Y-104284265D02*
G01*
X150461078Y-102777775D01*
X150257105Y-102777775D01*
X149468139Y-103960582D01*
X149468139Y-102777775D01*
X149277538Y-102777775D01*
X149277538Y-104284265D01*
X149481420Y-104284265D01*
X150270477Y-103100450D01*
X150270477Y-104284265D01*
X150461078Y-104284265D01*
G37*
G36*
X149011374Y-103796634D02*
G01*
X148823796Y-103780147D01*
X148810195Y-103855445D01*
X148789283Y-103917614D01*
X148761880Y-103968733D01*
X148725084Y-104013096D01*
X148675499Y-104052823D01*
X148610755Y-104087893D01*
X148541090Y-104112717D01*
X148464588Y-104128033D01*
X148380129Y-104133322D01*
X148270558Y-104124422D01*
X148179361Y-104099434D01*
X148124055Y-104072746D01*
X148081548Y-104041718D01*
X148049760Y-104006469D01*
X148017705Y-103944280D01*
X148007170Y-103877417D01*
X148017578Y-103810586D01*
X148048203Y-103753677D01*
X148098860Y-103707387D01*
X148183391Y-103664743D01*
X148262274Y-103639634D01*
X148450837Y-103591286D01*
X148641377Y-103538048D01*
X148740814Y-103497222D01*
X148808674Y-103454893D01*
X148861434Y-103408187D01*
X148901190Y-103356997D01*
X148930383Y-103299259D01*
X148947959Y-103237156D01*
X148953947Y-103169510D01*
X148946823Y-103095303D01*
X148925543Y-103024638D01*
X148889467Y-102956286D01*
X148840809Y-102896454D01*
X148778642Y-102846374D01*
X148700881Y-102805710D01*
X148616787Y-102777592D01*
X148525275Y-102760285D01*
X148425192Y-102754327D01*
X148314888Y-102760711D01*
X148217276Y-102778982D01*
X148130635Y-102808183D01*
X148050680Y-102850618D01*
X147985924Y-102903227D01*
X147934447Y-102966452D01*
X147895925Y-103038641D01*
X147871318Y-103117022D01*
X147860624Y-103203032D01*
X148051225Y-103217412D01*
X148070824Y-103126449D01*
X148105735Y-103055967D01*
X148155273Y-103001715D01*
X148218499Y-102963392D01*
X148303590Y-102938125D01*
X148417040Y-102928717D01*
X148536092Y-102937599D01*
X148620871Y-102960824D01*
X148679906Y-102994845D01*
X148726775Y-103043435D01*
X148753439Y-103095909D01*
X148762338Y-103154305D01*
X148755686Y-103205677D01*
X148736396Y-103249474D01*
X148703903Y-103287571D01*
X148659916Y-103315770D01*
X148568563Y-103351230D01*
X148404217Y-103394732D01*
X148181664Y-103451471D01*
X148071742Y-103490536D01*
X147988602Y-103536693D01*
X147925092Y-103587818D01*
X147878118Y-103643860D01*
X147843637Y-103708184D01*
X147822739Y-103778903D01*
X147815561Y-103857633D01*
X147823108Y-103935650D01*
X147845737Y-104010604D01*
X147884255Y-104083772D01*
X147935718Y-104148290D01*
X148000813Y-104203178D01*
X148081450Y-104248819D01*
X148168955Y-104281022D01*
X148264980Y-104300864D01*
X148370970Y-104307712D01*
X148506140Y-104300334D01*
X148618893Y-104279796D01*
X148712696Y-104247994D01*
X148798786Y-104200859D01*
X148870292Y-104141195D01*
X148928851Y-104068201D01*
X148972638Y-103985212D01*
X149000144Y-103895252D01*
X149011374Y-103796634D01*
G37*
G36*
X147011369Y-102763316D02*
G01*
X147124385Y-102789299D01*
X147226456Y-102831475D01*
X147319229Y-102889967D01*
X147403860Y-102965811D01*
X147473584Y-103053018D01*
X147528851Y-103153007D01*
X147569760Y-103267652D01*
X147595549Y-103399363D01*
X147604627Y-103550986D01*
X147595025Y-103680786D01*
X147566450Y-103805257D01*
X147518623Y-103925777D01*
X147470204Y-104010146D01*
X147412222Y-104084325D01*
X147344274Y-104149206D01*
X147265557Y-104205313D01*
X147180108Y-104249725D01*
X147089095Y-104281606D01*
X146991559Y-104301062D01*
X146886370Y-104307712D01*
X146758258Y-104297316D01*
X146637220Y-104266508D01*
X146521563Y-104215022D01*
X146442097Y-104163412D01*
X146372507Y-104101284D01*
X146312030Y-104027927D01*
X146260345Y-103942172D01*
X146209836Y-103818984D01*
X146178814Y-103683559D01*
X146168113Y-103533584D01*
X146168220Y-103532027D01*
X146373002Y-103532027D01*
X146383341Y-103677844D01*
X146412187Y-103798496D01*
X146457316Y-103898386D01*
X146517991Y-103981006D01*
X146595627Y-104050338D01*
X146681755Y-104099177D01*
X146778146Y-104128908D01*
X146887378Y-104139184D01*
X146994495Y-104129079D01*
X147089775Y-104099743D01*
X147175636Y-104051388D01*
X147253742Y-103982564D01*
X147315551Y-103900456D01*
X147360926Y-103803640D01*
X147389572Y-103689260D01*
X147399738Y-103553643D01*
X147392157Y-103411516D01*
X147371296Y-103295960D01*
X147339433Y-103202604D01*
X147298025Y-103127690D01*
X147247605Y-103068210D01*
X147167102Y-103004150D01*
X147080741Y-102959218D01*
X146987133Y-102932114D01*
X146884355Y-102922855D01*
X146787462Y-102931442D01*
X146698702Y-102956625D01*
X146616360Y-102998418D01*
X146543673Y-103055108D01*
X146483462Y-103125416D01*
X146435009Y-103211092D01*
X146401447Y-103304449D01*
X146380388Y-103410710D01*
X146373002Y-103532027D01*
X146168220Y-103532027D01*
X146178310Y-103385437D01*
X146207827Y-103251880D01*
X146255766Y-103130675D01*
X146304979Y-103046050D01*
X146363504Y-102972260D01*
X146431714Y-102908337D01*
X146510389Y-102853704D01*
X146595713Y-102810532D01*
X146686038Y-102779592D01*
X146782244Y-102760751D01*
X146885363Y-102754327D01*
X147011369Y-102763316D01*
G37*
G36*
X144925955Y-102777775D02*
G01*
X144727202Y-102777775D01*
X144727202Y-103646882D01*
X144733875Y-103798455D01*
X144751821Y-103916513D01*
X144778402Y-104007110D01*
X144821035Y-104089493D01*
X144881901Y-104161447D01*
X144963324Y-104224089D01*
X145056160Y-104268582D01*
X145171417Y-104297306D01*
X145314301Y-104307712D01*
X145453693Y-104298650D01*
X145567309Y-104273597D01*
X145659691Y-104234897D01*
X145741181Y-104178565D01*
X145804450Y-104108796D01*
X145851299Y-104023963D01*
X145881034Y-103929971D01*
X145901141Y-103806535D01*
X145908635Y-103646882D01*
X145908635Y-102777775D01*
X145709791Y-102777775D01*
X145709791Y-103649172D01*
X145704727Y-103781600D01*
X145691685Y-103875295D01*
X145673430Y-103939149D01*
X145643346Y-103996618D01*
X145602093Y-104044141D01*
X145548499Y-104082856D01*
X145487444Y-104110078D01*
X145415884Y-104127245D01*
X145331703Y-104133322D01*
X145220089Y-104125684D01*
X145134116Y-104105057D01*
X145068533Y-104073938D01*
X145019195Y-104033397D01*
X144983357Y-103981803D01*
X144954124Y-103906001D01*
X144933759Y-103798237D01*
X144925955Y-103649172D01*
X144925955Y-102777775D01*
G37*
G36*
X144393353Y-104284265D02*
G01*
X144194509Y-104284265D01*
X144194509Y-103608689D01*
X143963974Y-103608689D01*
X143853332Y-103615924D01*
X143808266Y-103631486D01*
X143762657Y-103656408D01*
X143718755Y-103692743D01*
X143661723Y-103758165D01*
X143518292Y-103967726D01*
X143319448Y-104284265D01*
X143069496Y-104284265D01*
X143330713Y-103870548D01*
X143413005Y-103756796D01*
X143495760Y-103668315D01*
X143542574Y-103633061D01*
X143615561Y-103592660D01*
X143507007Y-103570878D01*
X143419825Y-103539764D01*
X143350425Y-103500628D01*
X143295909Y-103453991D01*
X143250694Y-103396387D01*
X143218658Y-103333298D01*
X143199137Y-103263592D01*
X143192664Y-103188652D01*
X143397392Y-103188652D01*
X143407335Y-103258127D01*
X143437325Y-103322558D01*
X143467554Y-103359438D01*
X143506033Y-103389231D01*
X143554104Y-103412226D01*
X143638658Y-103432199D01*
X143767236Y-103440161D01*
X144194509Y-103440161D01*
X144194509Y-102946302D01*
X143719059Y-102946302D01*
X143609496Y-102955323D01*
X143530603Y-102979116D01*
X143474786Y-103014538D01*
X143431711Y-103064333D01*
X143406186Y-103121549D01*
X143397392Y-103188652D01*
X143192664Y-103188652D01*
X143192411Y-103185721D01*
X143199471Y-103105246D01*
X143220280Y-103030577D01*
X143254967Y-102960407D01*
X143302046Y-102898434D01*
X143357369Y-102851512D01*
X143421938Y-102818075D01*
X143493170Y-102797552D01*
X143592490Y-102783235D01*
X143727303Y-102777775D01*
X144393353Y-102777775D01*
X144393353Y-104284265D01*
G37*
G36*
X141996618Y-103180783D02*
G01*
X142108339Y-103209443D01*
X142176125Y-103240327D01*
X142229718Y-103277318D01*
X142271279Y-103320269D01*
X142303952Y-103370735D01*
X142331123Y-103433061D01*
X142352154Y-103509404D01*
X142171811Y-103533950D01*
X142146156Y-103458532D01*
X142115315Y-103405805D01*
X142080129Y-103370552D01*
X142036150Y-103346759D01*
X141974010Y-103330557D01*
X141887971Y-103324390D01*
X141797022Y-103332360D01*
X141728769Y-103353820D01*
X141677952Y-103386580D01*
X141650765Y-103421015D01*
X141632596Y-103471712D01*
X141625654Y-103544667D01*
X141626753Y-103592569D01*
X141747478Y-103623864D01*
X141955657Y-103655675D01*
X142119605Y-103683336D01*
X142190221Y-103708991D01*
X142252320Y-103743877D01*
X142305236Y-103789977D01*
X142347575Y-103849940D01*
X142374716Y-103919006D01*
X142383936Y-103996027D01*
X142377678Y-104062409D01*
X142359579Y-104120903D01*
X142329858Y-104173091D01*
X142287674Y-104220059D01*
X142237437Y-104256628D01*
X142176322Y-104283921D01*
X142102102Y-104301423D01*
X142011985Y-104307712D01*
X141905960Y-104298584D01*
X141808561Y-104271808D01*
X141715483Y-104225347D01*
X141611366Y-104148801D01*
X141597574Y-104223067D01*
X141574455Y-104284265D01*
X141381839Y-104284265D01*
X141410993Y-104220039D01*
X141428458Y-104153564D01*
X141436266Y-104062270D01*
X141440182Y-103827866D01*
X141440182Y-103804053D01*
X141626753Y-103804053D01*
X141635335Y-103918491D01*
X141656429Y-103989250D01*
X141687063Y-104039309D01*
X141727332Y-104081771D01*
X141778336Y-104117294D01*
X141835304Y-104142958D01*
X141898099Y-104158676D01*
X141967930Y-104164097D01*
X142038082Y-104157824D01*
X142091289Y-104140837D01*
X142131420Y-104114729D01*
X142162603Y-104078778D01*
X142180931Y-104038201D01*
X142187199Y-103991356D01*
X142180771Y-103945130D01*
X142161645Y-103903520D01*
X142131013Y-103869043D01*
X142088830Y-103843437D01*
X142033016Y-103825749D01*
X141927996Y-103806342D01*
X141740315Y-103771538D01*
X141626753Y-103736184D01*
X141626753Y-103804053D01*
X141440182Y-103804053D01*
X141440182Y-103581761D01*
X141443056Y-103468128D01*
X141449433Y-103411493D01*
X141472658Y-103340725D01*
X141506860Y-103285922D01*
X141556290Y-103242418D01*
X141634905Y-103203398D01*
X141729057Y-103179638D01*
X141861318Y-103170517D01*
X141996618Y-103180783D01*
G37*
G36*
X141154967Y-104284265D02*
G01*
X141154967Y-103193964D01*
X140988913Y-103193964D01*
X140988913Y-103348204D01*
X140936239Y-103283778D01*
X140876460Y-103234816D01*
X140808724Y-103199739D01*
X140731480Y-103178077D01*
X140642607Y-103170517D01*
X140547205Y-103179579D01*
X140461806Y-103205963D01*
X140387789Y-103248268D01*
X140338341Y-103298745D01*
X140303943Y-103360430D01*
X140280914Y-103435124D01*
X140273814Y-103496007D01*
X140270656Y-103614551D01*
X140270656Y-104284265D01*
X140455120Y-104284265D01*
X140455120Y-103620596D01*
X140461438Y-103514879D01*
X140476644Y-103451610D01*
X140506110Y-103401616D01*
X140552939Y-103362217D01*
X140611414Y-103337434D01*
X140681533Y-103328786D01*
X140757295Y-103337302D01*
X140824412Y-103362166D01*
X140884957Y-103403800D01*
X140918728Y-103443744D01*
X140945401Y-103500819D01*
X140963603Y-103580194D01*
X140970503Y-103688373D01*
X140970503Y-104284265D01*
X141154967Y-104284265D01*
G37*
G36*
X139294753Y-103321093D02*
G01*
X139349656Y-103260752D01*
X139419775Y-103212283D01*
X139500725Y-103181265D01*
X139594988Y-103170517D01*
X139682336Y-103178512D01*
X139762750Y-103202028D01*
X139837796Y-103241225D01*
X139903364Y-103294433D01*
X139957514Y-103361554D01*
X140000737Y-103444649D01*
X140030435Y-103534557D01*
X140048742Y-103632631D01*
X140055050Y-103740122D01*
X140048005Y-103850136D01*
X140027750Y-103948076D01*
X139995150Y-104035686D01*
X139948855Y-104116305D01*
X139892660Y-104182530D01*
X139826073Y-104235996D01*
X139750674Y-104275955D01*
X139671384Y-104299704D01*
X139586745Y-104307712D01*
X139490098Y-104297133D01*
X139409207Y-104266985D01*
X139340622Y-104217671D01*
X139282388Y-104146969D01*
X139282388Y-104284265D01*
X139111296Y-104284265D01*
X139111296Y-103754960D01*
X139279366Y-103754960D01*
X139285712Y-103857861D01*
X139303057Y-103939781D01*
X139329462Y-104004563D01*
X139363904Y-104055378D01*
X139425552Y-104110922D01*
X139493171Y-104143016D01*
X139569343Y-104153839D01*
X139644687Y-104142718D01*
X139713192Y-104109342D01*
X139777346Y-104050799D01*
X139813339Y-103997613D01*
X139840854Y-103930251D01*
X139858877Y-103845547D01*
X139865457Y-103739664D01*
X139859118Y-103629115D01*
X139841956Y-103542617D01*
X139816163Y-103475644D01*
X139783025Y-103424408D01*
X139722449Y-103368109D01*
X139654863Y-103335461D01*
X139577494Y-103324390D01*
X139517047Y-103330878D01*
X139462433Y-103349933D01*
X139412205Y-103381914D01*
X139365461Y-103428438D01*
X139330787Y-103481823D01*
X139303853Y-103551345D01*
X139285964Y-103640856D01*
X139279366Y-103754960D01*
X139111296Y-103754960D01*
X139111296Y-102777775D01*
X139294753Y-102777775D01*
X139294753Y-103321093D01*
G37*
G36*
X138221214Y-104284265D02*
G01*
X138221214Y-102777775D01*
X137922078Y-102777775D01*
X137566521Y-103844902D01*
X137494805Y-104068018D01*
X137414846Y-103826401D01*
X137055168Y-102777775D01*
X136787722Y-102777775D01*
X136787722Y-104284265D01*
X136979331Y-104284265D01*
X136979331Y-103022689D01*
X137415854Y-104284265D01*
X137595189Y-104284265D01*
X138029605Y-103001165D01*
X138029605Y-104284265D01*
X138221214Y-104284265D01*
G37*
G36*
X136492433Y-104284265D02*
G01*
X136492433Y-103193964D01*
X136326470Y-103193964D01*
X136326470Y-103358554D01*
X136259907Y-103256388D01*
X136209141Y-103207154D01*
X136152555Y-103179653D01*
X136090806Y-103170517D01*
X136030095Y-103176703D01*
X135967278Y-103195865D01*
X135901212Y-103229593D01*
X135964685Y-103399586D01*
X136033628Y-103369192D01*
X136099965Y-103359561D01*
X136157351Y-103368676D01*
X136208592Y-103396014D01*
X136249346Y-103438799D01*
X136277285Y-103497222D01*
X136300057Y-103598812D01*
X136307968Y-103713011D01*
X136307968Y-104284265D01*
X136492433Y-104284265D01*
G37*
G36*
X135865125Y-103955453D02*
G01*
X135682767Y-103926693D01*
X135665550Y-103996696D01*
X135636923Y-104051950D01*
X135597221Y-104095312D01*
X135547199Y-104126482D01*
X135483068Y-104146526D01*
X135400942Y-104153839D01*
X135317528Y-104147111D01*
X135256478Y-104129256D01*
X135212447Y-104102548D01*
X135177348Y-104065104D01*
X135157482Y-104025471D01*
X135150898Y-103982197D01*
X135156945Y-103943816D01*
X135174606Y-103911899D01*
X135205212Y-103884744D01*
X135257672Y-103861701D01*
X135393798Y-103822829D01*
X135580368Y-103770275D01*
X135675074Y-103734169D01*
X135744841Y-103688802D01*
X135793959Y-103630579D01*
X135824247Y-103561193D01*
X135834442Y-103484400D01*
X135826038Y-103414008D01*
X135801103Y-103349578D01*
X135761767Y-103292748D01*
X135710428Y-103246446D01*
X135662423Y-103218414D01*
X135593100Y-103192591D01*
X135517030Y-103176163D01*
X135433731Y-103170517D01*
X135310501Y-103180365D01*
X135208875Y-103207886D01*
X135147245Y-103237313D01*
X135100425Y-103271139D01*
X135065902Y-103309186D01*
X135028257Y-103380294D01*
X135002337Y-103480003D01*
X135182680Y-103504641D01*
X135196590Y-103450902D01*
X135220313Y-103407358D01*
X135253938Y-103372109D01*
X135295799Y-103346815D01*
X135350146Y-103330411D01*
X135420451Y-103324390D01*
X135504806Y-103330155D01*
X135562972Y-103344972D01*
X135601801Y-103366156D01*
X135633019Y-103396946D01*
X135650408Y-103429139D01*
X135656114Y-103463975D01*
X135650505Y-103497819D01*
X135633583Y-103528180D01*
X135606159Y-103554136D01*
X135562875Y-103577090D01*
X135399934Y-103623984D01*
X135219607Y-103675949D01*
X135126901Y-103709439D01*
X135057191Y-103750763D01*
X135005452Y-103806159D01*
X134981567Y-103850414D01*
X134966659Y-103902367D01*
X134961396Y-103963787D01*
X134967294Y-104023646D01*
X134984991Y-104081165D01*
X135015160Y-104137352D01*
X135055456Y-104186639D01*
X135106667Y-104228507D01*
X135170407Y-104263199D01*
X135239374Y-104287484D01*
X135315499Y-104302510D01*
X135399934Y-104307712D01*
X135507679Y-104301163D01*
X135595260Y-104283103D01*
X135666152Y-104255347D01*
X135723251Y-104218868D01*
X135772262Y-104170955D01*
X135812287Y-104112312D01*
X135843453Y-104041244D01*
X135865125Y-103955453D01*
G37*
G36*
X134689829Y-104284265D02*
G01*
X134689829Y-104073239D01*
X134479810Y-104073239D01*
X134479810Y-104284265D01*
X134689829Y-104284265D01*
G37*
G36*
X132480194Y-103756700D02*
G01*
X132281442Y-103806892D01*
X132320874Y-103926534D01*
X132371756Y-104026845D01*
X132433523Y-104110494D01*
X132506389Y-104179484D01*
X132590582Y-104234771D01*
X132683682Y-104274623D01*
X132787294Y-104299196D01*
X132903437Y-104307712D01*
X133025925Y-104300752D01*
X133130977Y-104281116D01*
X133221108Y-104250229D01*
X133298469Y-104208885D01*
X133368911Y-104154863D01*
X133430746Y-104089886D01*
X133484439Y-104012918D01*
X133530011Y-103922480D01*
X133573865Y-103795338D01*
X133600414Y-103661537D01*
X133609420Y-103519754D01*
X133598812Y-103365425D01*
X133568458Y-103229957D01*
X133519753Y-103110433D01*
X133469479Y-103027321D01*
X133410490Y-102956037D01*
X133342446Y-102895483D01*
X133264580Y-102845002D01*
X133151281Y-102794878D01*
X133030475Y-102764620D01*
X132900322Y-102754327D01*
X132788228Y-102761997D01*
X132688918Y-102784031D01*
X132600446Y-102819526D01*
X132521227Y-102868358D01*
X132451231Y-102930044D01*
X132392444Y-103003070D01*
X132344348Y-103088724D01*
X132307087Y-103188835D01*
X132502726Y-103234997D01*
X132545533Y-103130792D01*
X132596294Y-103053244D01*
X132654400Y-102997318D01*
X132724111Y-102956913D01*
X132806440Y-102931747D01*
X132904444Y-102922855D01*
X133017281Y-102932783D01*
X133112682Y-102960928D01*
X133193963Y-103006111D01*
X133263640Y-103067745D01*
X133317805Y-103141605D01*
X133357362Y-103229502D01*
X133383513Y-103323937D01*
X133399188Y-103420140D01*
X133404440Y-103518655D01*
X133397747Y-103645918D01*
X133378737Y-103757039D01*
X133348661Y-103854153D01*
X133303366Y-103943421D01*
X133245686Y-104013931D01*
X133175004Y-104068293D01*
X133094016Y-104107770D01*
X133009408Y-104131271D01*
X132919831Y-104139184D01*
X132837413Y-104132830D01*
X132763731Y-104114457D01*
X132697309Y-104084546D01*
X132636998Y-104042830D01*
X132585812Y-103991262D01*
X132542489Y-103927717D01*
X132507061Y-103850334D01*
X132480194Y-103756700D01*
G37*
G36*
X132060341Y-104284265D02*
G01*
X132060341Y-102777775D01*
X131875876Y-102777775D01*
X131875876Y-103319627D01*
X131806192Y-103253713D01*
X131729778Y-103207769D01*
X131645139Y-103180045D01*
X131549995Y-103170517D01*
X131470564Y-103176166D01*
X131401086Y-103192316D01*
X131339977Y-103218236D01*
X131285297Y-103254793D01*
X131243265Y-103298502D01*
X131212391Y-103350036D01*
X131192686Y-103407652D01*
X131179084Y-103487054D01*
X131173922Y-103594034D01*
X131173922Y-104284265D01*
X131358387Y-104284265D01*
X131358387Y-103593576D01*
X131366282Y-103502965D01*
X131387140Y-103437873D01*
X131418379Y-103391893D01*
X131462108Y-103357797D01*
X131517470Y-103336467D01*
X131587914Y-103328786D01*
X131667242Y-103339374D01*
X131742153Y-103371376D01*
X131786244Y-103403612D01*
X131820245Y-103441888D01*
X131845193Y-103486873D01*
X131867186Y-103567144D01*
X131875876Y-103688007D01*
X131875876Y-104284265D01*
X132060341Y-104284265D01*
G37*
G36*
X130568984Y-103180783D02*
G01*
X130680705Y-103209443D01*
X130748491Y-103240327D01*
X130802084Y-103277318D01*
X130843645Y-103320269D01*
X130876317Y-103370735D01*
X130903489Y-103433061D01*
X130924520Y-103509404D01*
X130744177Y-103533950D01*
X130718522Y-103458532D01*
X130687681Y-103405805D01*
X130652494Y-103370552D01*
X130608515Y-103346759D01*
X130546376Y-103330557D01*
X130460336Y-103324390D01*
X130369388Y-103332360D01*
X130301134Y-103353820D01*
X130250318Y-103386580D01*
X130223130Y-103421015D01*
X130204962Y-103471712D01*
X130198020Y-103544667D01*
X130199119Y-103592569D01*
X130319844Y-103623864D01*
X130528022Y-103655675D01*
X130691970Y-103683336D01*
X130762587Y-103708991D01*
X130824686Y-103743877D01*
X130877602Y-103789977D01*
X130919940Y-103849940D01*
X130947082Y-103919006D01*
X130956302Y-103996027D01*
X130950043Y-104062409D01*
X130931944Y-104120903D01*
X130902224Y-104173091D01*
X130860040Y-104220059D01*
X130809803Y-104256628D01*
X130748688Y-104283921D01*
X130674468Y-104301423D01*
X130584351Y-104307712D01*
X130478326Y-104298584D01*
X130380927Y-104271808D01*
X130287849Y-104225347D01*
X130183731Y-104148801D01*
X130169939Y-104223067D01*
X130146820Y-104284265D01*
X129954204Y-104284265D01*
X129983358Y-104220039D01*
X130000824Y-104153564D01*
X130008631Y-104062270D01*
X130012548Y-103827866D01*
X130012548Y-103804053D01*
X130199119Y-103804053D01*
X130207701Y-103918491D01*
X130228794Y-103989250D01*
X130259429Y-104039309D01*
X130299698Y-104081771D01*
X130350702Y-104117294D01*
X130407670Y-104142958D01*
X130470465Y-104158676D01*
X130540295Y-104164097D01*
X130610447Y-104157824D01*
X130663655Y-104140837D01*
X130703785Y-104114729D01*
X130734968Y-104078778D01*
X130753297Y-104038201D01*
X130759564Y-103991356D01*
X130753137Y-103945130D01*
X130734011Y-103903520D01*
X130703379Y-103869043D01*
X130661196Y-103843437D01*
X130605382Y-103825749D01*
X130500362Y-103806342D01*
X130312681Y-103771538D01*
X130199119Y-103736184D01*
X130199119Y-103804053D01*
X130012548Y-103804053D01*
X130012548Y-103581761D01*
X130015421Y-103468128D01*
X130021798Y-103411493D01*
X130045024Y-103340725D01*
X130079226Y-103285922D01*
X130128656Y-103242418D01*
X130207270Y-103203398D01*
X130301422Y-103179638D01*
X130433683Y-103170517D01*
X130568984Y-103180783D01*
G37*
G36*
X129033622Y-103321093D02*
G01*
X129088526Y-103260752D01*
X129158644Y-103212283D01*
X129239594Y-103181265D01*
X129333858Y-103170517D01*
X129421205Y-103178512D01*
X129501620Y-103202028D01*
X129576666Y-103241225D01*
X129642233Y-103294433D01*
X129696384Y-103361554D01*
X129739606Y-103444649D01*
X129769304Y-103534557D01*
X129787611Y-103632631D01*
X129793920Y-103740122D01*
X129786874Y-103850136D01*
X129766619Y-103948076D01*
X129734019Y-104035686D01*
X129687725Y-104116305D01*
X129631530Y-104182530D01*
X129564942Y-104235996D01*
X129489544Y-104275955D01*
X129410254Y-104299704D01*
X129325615Y-104307712D01*
X129228967Y-104297133D01*
X129148076Y-104266985D01*
X129079491Y-104217671D01*
X129021258Y-104146969D01*
X129021258Y-104284265D01*
X128850165Y-104284265D01*
X128850165Y-103754960D01*
X129018235Y-103754960D01*
X129024582Y-103857861D01*
X129041926Y-103939781D01*
X129068332Y-104004563D01*
X129102774Y-104055378D01*
X129164422Y-104110922D01*
X129232041Y-104143016D01*
X129308212Y-104153839D01*
X129383557Y-104142718D01*
X129452062Y-104109342D01*
X129516216Y-104050799D01*
X129552208Y-103997613D01*
X129579724Y-103930251D01*
X129597747Y-103845547D01*
X129604326Y-103739664D01*
X129597988Y-103629115D01*
X129580825Y-103542617D01*
X129555032Y-103475644D01*
X129521894Y-103424408D01*
X129461318Y-103368109D01*
X129393732Y-103335461D01*
X129316364Y-103324390D01*
X129255917Y-103330878D01*
X129201302Y-103349933D01*
X129151075Y-103381914D01*
X129104331Y-103428438D01*
X129069657Y-103481823D01*
X129042723Y-103551345D01*
X129024834Y-103640856D01*
X129018235Y-103754960D01*
X128850165Y-103754960D01*
X128850165Y-102777775D01*
X129033622Y-102777775D01*
X129033622Y-103321093D01*
G37*
G36*
X128564859Y-104284265D02*
G01*
X128564859Y-102777775D01*
X128380486Y-102777775D01*
X128380486Y-104284265D01*
X128564859Y-104284265D01*
G37*
G36*
X128093715Y-102988800D02*
G01*
X128093715Y-102777775D01*
X127909342Y-102777775D01*
X127909342Y-102988800D01*
X128093715Y-102988800D01*
G37*
G36*
X128093715Y-104284265D02*
G01*
X128093715Y-103193964D01*
X127909342Y-103193964D01*
X127909342Y-104284265D01*
X128093715Y-104284265D01*
G37*
G36*
X127303946Y-103180783D02*
G01*
X127415666Y-103209443D01*
X127483452Y-103240327D01*
X127537046Y-103277318D01*
X127578607Y-103320269D01*
X127611279Y-103370735D01*
X127638451Y-103433061D01*
X127659482Y-103509404D01*
X127479139Y-103533950D01*
X127453483Y-103458532D01*
X127422643Y-103405805D01*
X127387456Y-103370552D01*
X127343477Y-103346759D01*
X127281338Y-103330557D01*
X127195298Y-103324390D01*
X127104350Y-103332360D01*
X127036096Y-103353820D01*
X126985280Y-103386580D01*
X126958092Y-103421015D01*
X126939923Y-103471712D01*
X126932981Y-103544667D01*
X126934080Y-103592569D01*
X127054805Y-103623864D01*
X127262984Y-103655675D01*
X127426932Y-103683336D01*
X127497549Y-103708991D01*
X127559647Y-103743877D01*
X127612564Y-103789977D01*
X127654902Y-103849940D01*
X127682043Y-103919006D01*
X127691264Y-103996027D01*
X127685005Y-104062409D01*
X127666906Y-104120903D01*
X127637186Y-104173091D01*
X127595001Y-104220059D01*
X127544765Y-104256628D01*
X127483649Y-104283921D01*
X127409429Y-104301423D01*
X127319312Y-104307712D01*
X127213288Y-104298584D01*
X127115889Y-104271808D01*
X127022811Y-104225347D01*
X126918693Y-104148801D01*
X126904901Y-104223067D01*
X126881782Y-104284265D01*
X126689166Y-104284265D01*
X126718320Y-104220039D01*
X126735786Y-104153564D01*
X126743593Y-104062270D01*
X126747509Y-103827866D01*
X126747509Y-103804053D01*
X126934080Y-103804053D01*
X126942663Y-103918491D01*
X126963756Y-103989250D01*
X126994391Y-104039309D01*
X127034660Y-104081771D01*
X127085664Y-104117294D01*
X127142631Y-104142958D01*
X127205427Y-104158676D01*
X127275257Y-104164097D01*
X127345409Y-104157824D01*
X127398617Y-104140837D01*
X127438747Y-104114729D01*
X127469930Y-104078778D01*
X127488259Y-104038201D01*
X127494526Y-103991356D01*
X127488099Y-103945130D01*
X127468972Y-103903520D01*
X127438340Y-103869043D01*
X127396157Y-103843437D01*
X127340344Y-103825749D01*
X127235323Y-103806342D01*
X127047642Y-103771538D01*
X126934080Y-103736184D01*
X126934080Y-103804053D01*
X126747509Y-103804053D01*
X126747509Y-103581761D01*
X126750383Y-103468128D01*
X126756760Y-103411493D01*
X126779985Y-103340725D01*
X126814188Y-103285922D01*
X126863617Y-103242418D01*
X126942232Y-103203398D01*
X127036384Y-103179638D01*
X127168645Y-103170517D01*
X127303946Y-103180783D01*
G37*
G36*
X125956895Y-103857542D02*
G01*
X125777560Y-103832904D01*
X125765050Y-103947676D01*
X125742369Y-104022810D01*
X125713080Y-104069575D01*
X125670985Y-104104345D01*
X125619003Y-104125721D01*
X125554169Y-104133322D01*
X125483322Y-104124385D01*
X125425117Y-104098884D01*
X125379128Y-104058106D01*
X125350288Y-104005278D01*
X125335913Y-103937247D01*
X125329771Y-103816509D01*
X125329771Y-102777775D01*
X125131019Y-102777775D01*
X125131019Y-103802862D01*
X125137064Y-103929030D01*
X125153128Y-104024469D01*
X125176631Y-104095312D01*
X125213092Y-104159156D01*
X125260867Y-104211405D01*
X125321070Y-104253307D01*
X125388972Y-104282919D01*
X125465762Y-104301300D01*
X125553162Y-104307712D01*
X125651399Y-104299766D01*
X125732634Y-104277515D01*
X125800036Y-104242379D01*
X125855962Y-104194414D01*
X125899178Y-104135303D01*
X125931186Y-104061729D01*
X125951129Y-103970482D01*
X125956895Y-103857542D01*
G37*
G36*
X124802115Y-104284265D02*
G01*
X124802115Y-102777775D01*
X123715937Y-102777775D01*
X123715937Y-102952164D01*
X124603271Y-102952164D01*
X124603271Y-103416714D01*
X123772265Y-103416714D01*
X123772265Y-103591103D01*
X124603271Y-103591103D01*
X124603271Y-104109875D01*
X123681040Y-104109875D01*
X123681040Y-104284265D01*
X124802115Y-104284265D01*
G37*
G36*
X123403611Y-104284265D02*
G01*
X123204767Y-104284265D01*
X123204767Y-103608689D01*
X122974232Y-103608689D01*
X122863590Y-103615924D01*
X122818524Y-103631486D01*
X122772915Y-103656408D01*
X122729013Y-103692743D01*
X122671982Y-103758165D01*
X122528550Y-103967726D01*
X122329706Y-104284265D01*
X122079754Y-104284265D01*
X122340971Y-103870548D01*
X122423263Y-103756796D01*
X122506019Y-103668315D01*
X122552832Y-103633061D01*
X122625820Y-103592660D01*
X122517266Y-103570878D01*
X122430083Y-103539764D01*
X122360683Y-103500628D01*
X122306167Y-103453991D01*
X122260953Y-103396387D01*
X122228916Y-103333298D01*
X122209395Y-103263592D01*
X122202922Y-103188652D01*
X122407650Y-103188652D01*
X122417593Y-103258127D01*
X122447583Y-103322558D01*
X122477812Y-103359438D01*
X122516292Y-103389231D01*
X122564362Y-103412226D01*
X122648917Y-103432199D01*
X122777494Y-103440161D01*
X123204767Y-103440161D01*
X123204767Y-102946302D01*
X122729318Y-102946302D01*
X122619754Y-102955323D01*
X122540861Y-102979116D01*
X122485044Y-103014538D01*
X122441969Y-103064333D01*
X122416444Y-103121549D01*
X122407650Y-103188652D01*
X122202922Y-103188652D01*
X122202669Y-103185721D01*
X122209729Y-103105246D01*
X122230538Y-103030577D01*
X122265226Y-102960407D01*
X122312304Y-102898434D01*
X122367627Y-102851512D01*
X122432196Y-102818075D01*
X122503428Y-102797552D01*
X122602748Y-102783235D01*
X122737561Y-102777775D01*
X123403611Y-102777775D01*
X123403611Y-104284265D01*
G37*
G36*
X122056398Y-104284265D02*
G01*
X121845281Y-104284265D01*
X121680325Y-103827042D01*
X121052194Y-103827042D01*
X120876980Y-104284265D01*
X120650475Y-104284265D01*
X120904071Y-103662911D01*
X121113651Y-103662911D01*
X121622897Y-103662911D01*
X121457942Y-103222449D01*
X121411406Y-103079008D01*
X121376975Y-102935586D01*
X121335973Y-103065500D01*
X121270455Y-103246996D01*
X121113651Y-103662911D01*
X120904071Y-103662911D01*
X121265326Y-102777775D01*
X121479466Y-102777775D01*
X122056398Y-104284265D01*
G37*
G36*
X120491839Y-104284265D02*
G01*
X119949803Y-104284265D01*
X119817689Y-104277458D01*
X119708553Y-104258619D01*
X119609043Y-104225949D01*
X119529217Y-104183056D01*
X119459431Y-104125513D01*
X119392472Y-104046402D01*
X119337284Y-103951789D01*
X119289981Y-103827042D01*
X119268389Y-103737767D01*
X119254744Y-103636839D01*
X119249956Y-103522776D01*
X119250119Y-103519662D01*
X119454937Y-103519662D01*
X119459809Y-103633891D01*
X119473404Y-103730420D01*
X119494413Y-103811655D01*
X119525530Y-103889358D01*
X119562347Y-103952595D01*
X119604505Y-104003446D01*
X119661395Y-104047307D01*
X119739236Y-104082031D01*
X119831959Y-104101939D01*
X119972335Y-104109875D01*
X120293087Y-104109875D01*
X120293087Y-102952164D01*
X119977464Y-102952164D01*
X119857979Y-102956550D01*
X119775188Y-102967744D01*
X119720276Y-102983213D01*
X119652535Y-103019870D01*
X119590106Y-103075719D01*
X119532331Y-103154305D01*
X119501036Y-103218280D01*
X119476747Y-103298272D01*
X119460761Y-103397506D01*
X119454937Y-103519662D01*
X119250119Y-103519662D01*
X119256940Y-103389465D01*
X119276957Y-103270697D01*
X119308941Y-103164655D01*
X119355609Y-103065098D01*
X119414718Y-102979858D01*
X119486627Y-102907284D01*
X119550684Y-102861155D01*
X119623694Y-102825170D01*
X119706996Y-102799390D01*
X119809584Y-102784062D01*
X119974441Y-102777775D01*
X120491839Y-102777775D01*
X120491839Y-104284265D01*
G37*
M02*
