%TF.GenerationSoftware,KiCad,Pcbnew,9.0.4*%
%TF.CreationDate,2026-03-05T12:42:53+01:00*%
%TF.ProjectId,flightcontrolerPCB,666c6967-6874-4636-9f6e-74726f6c6572,rev?*%
%TF.SameCoordinates,Original*%
%TF.FileFunction,Legend,Top*%
%TF.FilePolarity,Positive*%
%FSLAX46Y46*%
G04 Gerber Fmt 4.6, Leading zero omitted, Abs format (unit mm)*
G04 Created by KiCad (PCBNEW 9.0.4) date 2026-03-05 12:42:53*
%MOMM*%
%LPD*%
G01*
G04 APERTURE LIST*
%ADD10C,0.100000*%
%ADD11C,0.150000*%
%ADD12C,0.125000*%
%ADD13C,0.120000*%
%ADD14C,0.200000*%
%ADD15C,0.203200*%
%ADD16C,0.254000*%
%ADD17C,0.127000*%
G04 APERTURE END LIST*
D10*
G36*
X131604414Y-115318916D02*
G01*
X132104624Y-115274952D01*
X132140892Y-115475747D01*
X132196657Y-115641529D01*
X132269732Y-115777848D01*
X132367855Y-115896148D01*
X132500083Y-116002086D01*
X132672733Y-116095608D01*
X132858507Y-116161805D01*
X133062513Y-116202647D01*
X133287736Y-116216752D01*
X133579924Y-116193018D01*
X133823116Y-116126382D01*
X133970601Y-116055216D01*
X134083951Y-115972474D01*
X134168720Y-115878476D01*
X134254199Y-115712640D01*
X134282293Y-115534338D01*
X134254537Y-115356121D01*
X134172872Y-115204366D01*
X134037785Y-115080924D01*
X133812370Y-114967206D01*
X133602016Y-114900249D01*
X133099181Y-114771323D01*
X132591076Y-114629353D01*
X132325908Y-114520486D01*
X132144948Y-114407608D01*
X132004256Y-114283057D01*
X131898239Y-114146550D01*
X131820393Y-113992582D01*
X131773523Y-113826976D01*
X131757555Y-113646585D01*
X131776552Y-113448700D01*
X131833299Y-113260260D01*
X131929502Y-113077987D01*
X132059256Y-112918437D01*
X132225035Y-112784891D01*
X132432398Y-112676452D01*
X132656649Y-112601471D01*
X132900679Y-112555318D01*
X133167569Y-112539432D01*
X133461710Y-112556455D01*
X133722011Y-112605178D01*
X133953054Y-112683047D01*
X134166267Y-112796207D01*
X134338948Y-112936497D01*
X134476222Y-113105098D01*
X134578947Y-113297602D01*
X134644565Y-113506617D01*
X134673082Y-113735978D01*
X134164812Y-113774324D01*
X134112550Y-113531755D01*
X134019452Y-113343806D01*
X133887352Y-113199132D01*
X133718750Y-113096938D01*
X133491840Y-113029559D01*
X133189306Y-113004470D01*
X132871833Y-113028157D01*
X132645756Y-113090090D01*
X132488329Y-113180814D01*
X132363347Y-113310386D01*
X132292243Y-113450316D01*
X132268511Y-113606040D01*
X132286249Y-113743032D01*
X132337691Y-113859824D01*
X132424338Y-113961414D01*
X132541637Y-114036613D01*
X132785244Y-114131173D01*
X133223500Y-114247178D01*
X133816975Y-114398482D01*
X134110102Y-114502656D01*
X134331808Y-114625741D01*
X134501169Y-114762075D01*
X134626431Y-114911519D01*
X134718382Y-115083049D01*
X134774109Y-115271633D01*
X134793249Y-115481581D01*
X134773126Y-115689625D01*
X134712782Y-115889503D01*
X134610067Y-116084617D01*
X134472832Y-116256667D01*
X134299246Y-116403033D01*
X134084212Y-116524743D01*
X133850866Y-116610619D01*
X133594799Y-116663530D01*
X133312160Y-116681791D01*
X132951705Y-116662115D01*
X132651032Y-116607349D01*
X132400890Y-116522544D01*
X132171317Y-116396851D01*
X131980634Y-116237746D01*
X131824477Y-116043096D01*
X131707711Y-115821792D01*
X131634363Y-115581898D01*
X131604414Y-115318916D01*
G37*
G36*
X135456857Y-116619265D02*
G01*
X135456857Y-112601958D01*
X135948518Y-112601958D01*
X135948518Y-114894422D01*
X137112579Y-113711798D01*
X137749320Y-113711798D01*
X136639969Y-114790374D01*
X137861428Y-116619265D01*
X137254728Y-116619265D01*
X136295587Y-115132558D01*
X135948518Y-115466683D01*
X135948518Y-116619265D01*
X135456857Y-116619265D01*
G37*
G36*
X138230234Y-117733256D02*
G01*
X138175524Y-117282872D01*
X138332578Y-117316594D01*
X138456892Y-117326592D01*
X138610921Y-117311273D01*
X138719209Y-117270904D01*
X138808269Y-117204482D01*
X138880409Y-117114833D01*
X138930204Y-117011252D01*
X139030862Y-116741874D01*
X139074582Y-116619265D01*
X137973291Y-113711798D01*
X138503542Y-113711798D01*
X139107310Y-115392433D01*
X139217717Y-115717433D01*
X139317604Y-116064589D01*
X139410742Y-115729188D01*
X139519837Y-115403179D01*
X140140213Y-113711798D01*
X140632119Y-113711798D01*
X139528141Y-116662984D01*
X139355427Y-117102091D01*
X139252146Y-117321707D01*
X139105496Y-117539237D01*
X138951483Y-117678057D01*
X138833959Y-117740111D01*
X138700434Y-117778320D01*
X138547262Y-117791630D01*
X138402270Y-117778005D01*
X138230234Y-117733256D01*
G37*
G36*
X143144855Y-112556563D02*
G01*
X143401404Y-112606804D01*
X143642271Y-112689312D01*
X143869802Y-112804435D01*
X144079602Y-112950125D01*
X144261494Y-113120587D01*
X144417561Y-113317359D01*
X144548797Y-113543026D01*
X144676633Y-113866239D01*
X144755346Y-114222392D01*
X144782537Y-114617450D01*
X144754001Y-115017383D01*
X144671275Y-115378517D01*
X144536585Y-115707017D01*
X144398759Y-115935699D01*
X144237488Y-116131317D01*
X144051912Y-116296991D01*
X143840004Y-116434617D01*
X143531585Y-116571915D01*
X143208818Y-116654067D01*
X142867185Y-116681791D01*
X142586680Y-116664057D01*
X142326586Y-116612174D01*
X142083884Y-116527159D01*
X141856019Y-116408727D01*
X141646107Y-116259108D01*
X141464912Y-116086093D01*
X141310293Y-115888281D01*
X141181176Y-115663298D01*
X141053639Y-115341910D01*
X140977440Y-115009989D01*
X140952356Y-114670939D01*
X141498204Y-114670939D01*
X141525313Y-115032587D01*
X141601702Y-115337599D01*
X141722703Y-115595775D01*
X141887527Y-115814729D01*
X142095810Y-115998261D01*
X142324771Y-116127206D01*
X142578851Y-116205437D01*
X142864498Y-116232384D01*
X143155781Y-116204981D01*
X143412824Y-116125698D01*
X143642500Y-115995460D01*
X143849530Y-115810576D01*
X144011330Y-115590255D01*
X144131672Y-115323881D01*
X144208595Y-115002144D01*
X144236166Y-114613298D01*
X144216472Y-114289785D01*
X144160313Y-114006423D01*
X144070814Y-113757471D01*
X143941607Y-113529002D01*
X143781044Y-113341513D01*
X143587213Y-113190339D01*
X143367634Y-113078891D01*
X143130939Y-113011738D01*
X142872558Y-112988839D01*
X142598485Y-113013531D01*
X142348862Y-113085807D01*
X142118567Y-113205626D01*
X141903891Y-113376452D01*
X141769437Y-113535065D01*
X141659016Y-113734838D01*
X141574048Y-113983786D01*
X141518419Y-114291935D01*
X141498204Y-114670939D01*
X140952356Y-114670939D01*
X140951832Y-114663856D01*
X140976041Y-114259527D01*
X141044810Y-113908298D01*
X141153902Y-113602578D01*
X141301280Y-113335942D01*
X141487213Y-113103389D01*
X141712896Y-112901137D01*
X141960288Y-112745159D01*
X142232478Y-112632689D01*
X142533853Y-112563402D01*
X142869871Y-112539432D01*
X143144855Y-112556563D01*
G37*
G36*
X145398029Y-116619265D02*
G01*
X145398029Y-113711798D01*
X145840597Y-113711798D01*
X145840597Y-114150702D01*
X146018098Y-113878260D01*
X146153472Y-113746969D01*
X146304369Y-113673634D01*
X146469034Y-113649271D01*
X146630928Y-113665768D01*
X146798441Y-113716865D01*
X146974617Y-113806808D01*
X146805356Y-114260123D01*
X146621507Y-114179071D01*
X146444610Y-114153389D01*
X146291581Y-114177695D01*
X146154938Y-114250597D01*
X146046260Y-114364689D01*
X145971756Y-114520486D01*
X145911032Y-114791391D01*
X145889934Y-115095922D01*
X145889934Y-116619265D01*
X145398029Y-116619265D01*
G37*
G36*
X149161079Y-115556320D02*
G01*
X149644680Y-115619090D01*
X149586967Y-115863290D01*
X149499586Y-116071502D01*
X149383851Y-116249081D01*
X149238992Y-116399934D01*
X149068333Y-116522132D01*
X148880205Y-116609573D01*
X148671262Y-116663234D01*
X148437143Y-116681791D01*
X148145103Y-116655839D01*
X147892729Y-116581556D01*
X147672536Y-116461136D01*
X147479222Y-116292468D01*
X147327982Y-116088984D01*
X147215324Y-115841570D01*
X147143168Y-115541211D01*
X147117255Y-115176522D01*
X147135774Y-114866250D01*
X147188613Y-114593905D01*
X147272837Y-114354156D01*
X147396666Y-114136143D01*
X147553817Y-113961699D01*
X147746913Y-113825615D01*
X147964940Y-113727826D01*
X148194792Y-113669136D01*
X148439830Y-113649271D01*
X148675300Y-113665783D01*
X148879478Y-113712799D01*
X149057334Y-113787901D01*
X149212858Y-113890583D01*
X149346906Y-114020622D01*
X149455593Y-114175611D01*
X149539729Y-114359077D01*
X149598273Y-114575929D01*
X149120046Y-114649690D01*
X149059311Y-114461735D01*
X148978229Y-114317129D01*
X148878246Y-114207855D01*
X148755643Y-114126025D01*
X148617350Y-114076648D01*
X148458881Y-114059599D01*
X148278175Y-114076891D01*
X148120107Y-114126769D01*
X147980110Y-114208545D01*
X147855112Y-114324603D01*
X147761303Y-114461318D01*
X147688717Y-114639572D01*
X147640587Y-114869375D01*
X147622837Y-115162844D01*
X147640147Y-115461607D01*
X147686890Y-115693890D01*
X147756955Y-115872451D01*
X147846808Y-116007925D01*
X147967817Y-116123586D01*
X148103354Y-116204846D01*
X148256413Y-116254321D01*
X148431525Y-116271463D01*
X148617859Y-116251092D01*
X148777072Y-116192550D01*
X148915126Y-116096096D01*
X149023350Y-115966820D01*
X149106428Y-115791059D01*
X149161079Y-115556320D01*
G37*
G36*
X151645282Y-113673594D02*
G01*
X151896354Y-113736955D01*
X152105993Y-113841007D01*
X152237806Y-113957017D01*
X152329012Y-114103159D01*
X152390946Y-114291874D01*
X152407951Y-114442900D01*
X152415615Y-114745922D01*
X152415615Y-115402202D01*
X152426059Y-116027278D01*
X152446878Y-116270730D01*
X152493453Y-116447997D01*
X152571197Y-116619265D01*
X152057555Y-116619265D01*
X151995904Y-116456071D01*
X151959125Y-116258029D01*
X151681478Y-116462150D01*
X151433270Y-116586047D01*
X151173539Y-116657450D01*
X150890807Y-116681791D01*
X150650495Y-116665021D01*
X150452575Y-116618349D01*
X150289601Y-116545567D01*
X150155636Y-116448050D01*
X150043144Y-116322802D01*
X149963891Y-116183633D01*
X149915627Y-116027651D01*
X149898936Y-115850632D01*
X149900427Y-115838176D01*
X150423570Y-115838176D01*
X150440283Y-115963096D01*
X150489160Y-116071301D01*
X150572314Y-116167171D01*
X150679328Y-116236792D01*
X150821216Y-116282089D01*
X151008287Y-116298818D01*
X151194501Y-116284362D01*
X151361956Y-116242447D01*
X151513870Y-116174010D01*
X151649880Y-116079282D01*
X151757264Y-115966050D01*
X151838957Y-115832558D01*
X151895206Y-115643869D01*
X151918092Y-115338699D01*
X151918092Y-115157715D01*
X151615260Y-115251994D01*
X151114777Y-115344805D01*
X150834723Y-115396558D01*
X150685887Y-115443724D01*
X150573398Y-115512006D01*
X150491714Y-115603947D01*
X150440710Y-115714905D01*
X150423570Y-115838176D01*
X149900427Y-115838176D01*
X149923524Y-115645243D01*
X149995901Y-115461065D01*
X150108803Y-115301166D01*
X150249913Y-115178232D01*
X150415510Y-115085201D01*
X150603821Y-115016787D01*
X151041016Y-114943026D01*
X151596159Y-114858198D01*
X151918092Y-114774743D01*
X151921023Y-114647004D01*
X151902510Y-114452458D01*
X151854061Y-114317267D01*
X151781560Y-114225440D01*
X151646050Y-114138079D01*
X151464041Y-114080852D01*
X151221511Y-114059599D01*
X150992072Y-114076045D01*
X150826367Y-114119250D01*
X150709090Y-114182698D01*
X150615259Y-114276706D01*
X150533017Y-114417312D01*
X150464603Y-114618427D01*
X149983689Y-114552970D01*
X150039771Y-114349389D01*
X150112229Y-114183187D01*
X150199355Y-114048609D01*
X150310184Y-113934073D01*
X150453100Y-113835430D01*
X150633863Y-113753075D01*
X150931784Y-113676648D01*
X151292586Y-113649271D01*
X151645282Y-113673594D01*
G37*
G36*
X153266557Y-116619265D02*
G01*
X153266557Y-112601958D01*
X155968860Y-112601958D01*
X155968860Y-113066997D01*
X153796564Y-113066997D01*
X153796564Y-114321428D01*
X155676501Y-114321428D01*
X155676501Y-114786466D01*
X153796564Y-114786466D01*
X153796564Y-116619265D01*
X153266557Y-116619265D01*
G37*
G36*
X159516731Y-115212426D02*
G01*
X160046738Y-115346271D01*
X159941584Y-115665317D01*
X159805899Y-115932811D01*
X159641187Y-116155878D01*
X159446878Y-116339851D01*
X159222363Y-116487283D01*
X158974096Y-116593555D01*
X158697799Y-116659083D01*
X158388085Y-116681791D01*
X158061449Y-116663232D01*
X157781309Y-116610870D01*
X157540962Y-116528504D01*
X157334666Y-116418253D01*
X157146821Y-116274195D01*
X156981926Y-116100923D01*
X156838745Y-115895674D01*
X156717220Y-115654505D01*
X156600276Y-115315461D01*
X156529477Y-114958659D01*
X156505461Y-114580569D01*
X156533751Y-114169026D01*
X156614694Y-113807779D01*
X156744575Y-113489048D01*
X156878639Y-113267416D01*
X157035943Y-113077325D01*
X157217394Y-112915847D01*
X157425035Y-112781232D01*
X157727166Y-112647568D01*
X158049315Y-112566880D01*
X158396389Y-112539432D01*
X158695308Y-112559885D01*
X158960135Y-112618642D01*
X159196060Y-112713295D01*
X159407310Y-112843514D01*
X159593965Y-113008009D01*
X159750732Y-113202747D01*
X159878988Y-113431157D01*
X159978350Y-113698120D01*
X159456647Y-113821218D01*
X159342495Y-113543337D01*
X159207132Y-113336543D01*
X159052181Y-113187408D01*
X158866288Y-113079661D01*
X158646742Y-113012550D01*
X158385398Y-112988839D01*
X158084501Y-113015314D01*
X157830097Y-113090368D01*
X157613347Y-113210856D01*
X157427543Y-113375212D01*
X157283102Y-113572172D01*
X157177617Y-113806564D01*
X157107881Y-114058392D01*
X157066082Y-114314933D01*
X157052077Y-114577639D01*
X157069923Y-114917008D01*
X157120616Y-115213330D01*
X157200821Y-115472300D01*
X157321605Y-115710347D01*
X157475421Y-115898374D01*
X157663905Y-116043340D01*
X157879872Y-116148612D01*
X158105495Y-116211281D01*
X158344366Y-116232384D01*
X158564147Y-116215440D01*
X158760632Y-116166445D01*
X158937758Y-116086681D01*
X159098587Y-115975440D01*
X159235085Y-115837924D01*
X159350612Y-115668471D01*
X159445087Y-115462118D01*
X159516731Y-115212426D01*
G37*
D11*
X126739755Y-69565298D02*
X126739755Y-70131965D01*
X126739755Y-70131965D02*
X126773089Y-70198631D01*
X126773089Y-70198631D02*
X126806422Y-70231965D01*
X126806422Y-70231965D02*
X126873089Y-70265298D01*
X126873089Y-70265298D02*
X127006422Y-70265298D01*
X127006422Y-70265298D02*
X127073089Y-70231965D01*
X127073089Y-70231965D02*
X127106422Y-70198631D01*
X127106422Y-70198631D02*
X127139755Y-70131965D01*
X127139755Y-70131965D02*
X127139755Y-69565298D01*
X127406422Y-69565298D02*
X127873088Y-69565298D01*
X127873088Y-69565298D02*
X127573088Y-70265298D01*
D12*
X154656041Y-87184074D02*
X154656041Y-87588836D01*
X154656041Y-87588836D02*
X154679851Y-87636455D01*
X154679851Y-87636455D02*
X154703660Y-87660265D01*
X154703660Y-87660265D02*
X154751279Y-87684074D01*
X154751279Y-87684074D02*
X154846517Y-87684074D01*
X154846517Y-87684074D02*
X154894136Y-87660265D01*
X154894136Y-87660265D02*
X154917946Y-87636455D01*
X154917946Y-87636455D02*
X154941755Y-87588836D01*
X154941755Y-87588836D02*
X154941755Y-87184074D01*
X155441756Y-87684074D02*
X155156042Y-87684074D01*
X155298899Y-87684074D02*
X155298899Y-87184074D01*
X155298899Y-87184074D02*
X155251280Y-87255503D01*
X155251280Y-87255503D02*
X155203661Y-87303122D01*
X155203661Y-87303122D02*
X155156042Y-87326931D01*
X155751279Y-87184074D02*
X155798898Y-87184074D01*
X155798898Y-87184074D02*
X155846517Y-87207884D01*
X155846517Y-87207884D02*
X155870327Y-87231693D01*
X155870327Y-87231693D02*
X155894136Y-87279312D01*
X155894136Y-87279312D02*
X155917946Y-87374550D01*
X155917946Y-87374550D02*
X155917946Y-87493598D01*
X155917946Y-87493598D02*
X155894136Y-87588836D01*
X155894136Y-87588836D02*
X155870327Y-87636455D01*
X155870327Y-87636455D02*
X155846517Y-87660265D01*
X155846517Y-87660265D02*
X155798898Y-87684074D01*
X155798898Y-87684074D02*
X155751279Y-87684074D01*
X155751279Y-87684074D02*
X155703660Y-87660265D01*
X155703660Y-87660265D02*
X155679851Y-87636455D01*
X155679851Y-87636455D02*
X155656041Y-87588836D01*
X155656041Y-87588836D02*
X155632232Y-87493598D01*
X155632232Y-87493598D02*
X155632232Y-87374550D01*
X155632232Y-87374550D02*
X155656041Y-87279312D01*
X155656041Y-87279312D02*
X155679851Y-87231693D01*
X155679851Y-87231693D02*
X155703660Y-87207884D01*
X155703660Y-87207884D02*
X155751279Y-87184074D01*
D11*
X119573088Y-84798631D02*
X119539755Y-84831965D01*
X119539755Y-84831965D02*
X119439755Y-84865298D01*
X119439755Y-84865298D02*
X119373088Y-84865298D01*
X119373088Y-84865298D02*
X119273088Y-84831965D01*
X119273088Y-84831965D02*
X119206422Y-84765298D01*
X119206422Y-84765298D02*
X119173088Y-84698631D01*
X119173088Y-84698631D02*
X119139755Y-84565298D01*
X119139755Y-84565298D02*
X119139755Y-84465298D01*
X119139755Y-84465298D02*
X119173088Y-84331965D01*
X119173088Y-84331965D02*
X119206422Y-84265298D01*
X119206422Y-84265298D02*
X119273088Y-84198631D01*
X119273088Y-84198631D02*
X119373088Y-84165298D01*
X119373088Y-84165298D02*
X119439755Y-84165298D01*
X119439755Y-84165298D02*
X119539755Y-84198631D01*
X119539755Y-84198631D02*
X119573088Y-84231965D01*
X120239755Y-84865298D02*
X119839755Y-84865298D01*
X120039755Y-84865298D02*
X120039755Y-84165298D01*
X120039755Y-84165298D02*
X119973088Y-84265298D01*
X119973088Y-84265298D02*
X119906422Y-84331965D01*
X119906422Y-84331965D02*
X119839755Y-84365298D01*
X120673089Y-84165298D02*
X120739755Y-84165298D01*
X120739755Y-84165298D02*
X120806422Y-84198631D01*
X120806422Y-84198631D02*
X120839755Y-84231965D01*
X120839755Y-84231965D02*
X120873089Y-84298631D01*
X120873089Y-84298631D02*
X120906422Y-84431965D01*
X120906422Y-84431965D02*
X120906422Y-84598631D01*
X120906422Y-84598631D02*
X120873089Y-84731965D01*
X120873089Y-84731965D02*
X120839755Y-84798631D01*
X120839755Y-84798631D02*
X120806422Y-84831965D01*
X120806422Y-84831965D02*
X120739755Y-84865298D01*
X120739755Y-84865298D02*
X120673089Y-84865298D01*
X120673089Y-84865298D02*
X120606422Y-84831965D01*
X120606422Y-84831965D02*
X120573089Y-84798631D01*
X120573089Y-84798631D02*
X120539755Y-84731965D01*
X120539755Y-84731965D02*
X120506422Y-84598631D01*
X120506422Y-84598631D02*
X120506422Y-84431965D01*
X120506422Y-84431965D02*
X120539755Y-84298631D01*
X120539755Y-84298631D02*
X120573089Y-84231965D01*
X120573089Y-84231965D02*
X120606422Y-84198631D01*
X120606422Y-84198631D02*
X120673089Y-84165298D01*
X133256422Y-101215298D02*
X133023089Y-100881965D01*
X132856422Y-101215298D02*
X132856422Y-100515298D01*
X132856422Y-100515298D02*
X133123089Y-100515298D01*
X133123089Y-100515298D02*
X133189756Y-100548631D01*
X133189756Y-100548631D02*
X133223089Y-100581965D01*
X133223089Y-100581965D02*
X133256422Y-100648631D01*
X133256422Y-100648631D02*
X133256422Y-100748631D01*
X133256422Y-100748631D02*
X133223089Y-100815298D01*
X133223089Y-100815298D02*
X133189756Y-100848631D01*
X133189756Y-100848631D02*
X133123089Y-100881965D01*
X133123089Y-100881965D02*
X132856422Y-100881965D01*
X133856422Y-100748631D02*
X133856422Y-101215298D01*
X133689756Y-100481965D02*
X133523089Y-100981965D01*
X133523089Y-100981965D02*
X133956422Y-100981965D01*
X160089122Y-73465931D02*
X159389122Y-73465931D01*
X159389122Y-73465931D02*
X159389122Y-73299264D01*
X159389122Y-73299264D02*
X159422455Y-73199264D01*
X159422455Y-73199264D02*
X159489122Y-73132598D01*
X159489122Y-73132598D02*
X159555789Y-73099264D01*
X159555789Y-73099264D02*
X159689122Y-73065931D01*
X159689122Y-73065931D02*
X159789122Y-73065931D01*
X159789122Y-73065931D02*
X159922455Y-73099264D01*
X159922455Y-73099264D02*
X159989122Y-73132598D01*
X159989122Y-73132598D02*
X160055789Y-73199264D01*
X160055789Y-73199264D02*
X160089122Y-73299264D01*
X160089122Y-73299264D02*
X160089122Y-73465931D01*
X160089122Y-72399264D02*
X160089122Y-72799264D01*
X160089122Y-72599264D02*
X159389122Y-72599264D01*
X159389122Y-72599264D02*
X159489122Y-72665931D01*
X159489122Y-72665931D02*
X159555789Y-72732598D01*
X159555789Y-72732598D02*
X159589122Y-72799264D01*
X123289122Y-72099265D02*
X122955789Y-72332598D01*
X123289122Y-72499265D02*
X122589122Y-72499265D01*
X122589122Y-72499265D02*
X122589122Y-72232598D01*
X122589122Y-72232598D02*
X122622455Y-72165932D01*
X122622455Y-72165932D02*
X122655789Y-72132598D01*
X122655789Y-72132598D02*
X122722455Y-72099265D01*
X122722455Y-72099265D02*
X122822455Y-72099265D01*
X122822455Y-72099265D02*
X122889122Y-72132598D01*
X122889122Y-72132598D02*
X122922455Y-72165932D01*
X122922455Y-72165932D02*
X122955789Y-72232598D01*
X122955789Y-72232598D02*
X122955789Y-72499265D01*
X123289122Y-71432598D02*
X123289122Y-71832598D01*
X123289122Y-71632598D02*
X122589122Y-71632598D01*
X122589122Y-71632598D02*
X122689122Y-71699265D01*
X122689122Y-71699265D02*
X122755789Y-71765932D01*
X122755789Y-71765932D02*
X122789122Y-71832598D01*
X122589122Y-70832598D02*
X122589122Y-70965931D01*
X122589122Y-70965931D02*
X122622455Y-71032598D01*
X122622455Y-71032598D02*
X122655789Y-71065931D01*
X122655789Y-71065931D02*
X122755789Y-71132598D01*
X122755789Y-71132598D02*
X122889122Y-71165931D01*
X122889122Y-71165931D02*
X123155789Y-71165931D01*
X123155789Y-71165931D02*
X123222455Y-71132598D01*
X123222455Y-71132598D02*
X123255789Y-71099265D01*
X123255789Y-71099265D02*
X123289122Y-71032598D01*
X123289122Y-71032598D02*
X123289122Y-70899265D01*
X123289122Y-70899265D02*
X123255789Y-70832598D01*
X123255789Y-70832598D02*
X123222455Y-70799265D01*
X123222455Y-70799265D02*
X123155789Y-70765931D01*
X123155789Y-70765931D02*
X122989122Y-70765931D01*
X122989122Y-70765931D02*
X122922455Y-70799265D01*
X122922455Y-70799265D02*
X122889122Y-70832598D01*
X122889122Y-70832598D02*
X122855789Y-70899265D01*
X122855789Y-70899265D02*
X122855789Y-71032598D01*
X122855789Y-71032598D02*
X122889122Y-71099265D01*
X122889122Y-71099265D02*
X122922455Y-71132598D01*
X122922455Y-71132598D02*
X122989122Y-71165931D01*
X136856422Y-106248631D02*
X136823089Y-106281965D01*
X136823089Y-106281965D02*
X136723089Y-106315298D01*
X136723089Y-106315298D02*
X136656422Y-106315298D01*
X136656422Y-106315298D02*
X136556422Y-106281965D01*
X136556422Y-106281965D02*
X136489756Y-106215298D01*
X136489756Y-106215298D02*
X136456422Y-106148631D01*
X136456422Y-106148631D02*
X136423089Y-106015298D01*
X136423089Y-106015298D02*
X136423089Y-105915298D01*
X136423089Y-105915298D02*
X136456422Y-105781965D01*
X136456422Y-105781965D02*
X136489756Y-105715298D01*
X136489756Y-105715298D02*
X136556422Y-105648631D01*
X136556422Y-105648631D02*
X136656422Y-105615298D01*
X136656422Y-105615298D02*
X136723089Y-105615298D01*
X136723089Y-105615298D02*
X136823089Y-105648631D01*
X136823089Y-105648631D02*
X136856422Y-105681965D01*
X137189756Y-106315298D02*
X137323089Y-106315298D01*
X137323089Y-106315298D02*
X137389756Y-106281965D01*
X137389756Y-106281965D02*
X137423089Y-106248631D01*
X137423089Y-106248631D02*
X137489756Y-106148631D01*
X137489756Y-106148631D02*
X137523089Y-106015298D01*
X137523089Y-106015298D02*
X137523089Y-105748631D01*
X137523089Y-105748631D02*
X137489756Y-105681965D01*
X137489756Y-105681965D02*
X137456422Y-105648631D01*
X137456422Y-105648631D02*
X137389756Y-105615298D01*
X137389756Y-105615298D02*
X137256422Y-105615298D01*
X137256422Y-105615298D02*
X137189756Y-105648631D01*
X137189756Y-105648631D02*
X137156422Y-105681965D01*
X137156422Y-105681965D02*
X137123089Y-105748631D01*
X137123089Y-105748631D02*
X137123089Y-105915298D01*
X137123089Y-105915298D02*
X137156422Y-105981965D01*
X137156422Y-105981965D02*
X137189756Y-106015298D01*
X137189756Y-106015298D02*
X137256422Y-106048631D01*
X137256422Y-106048631D02*
X137389756Y-106048631D01*
X137389756Y-106048631D02*
X137456422Y-106015298D01*
X137456422Y-106015298D02*
X137489756Y-105981965D01*
X137489756Y-105981965D02*
X137523089Y-105915298D01*
X126862193Y-118404502D02*
X126862193Y-117928312D01*
X127147908Y-118499740D02*
X126147908Y-118166407D01*
X126147908Y-118166407D02*
X127147908Y-117833074D01*
X127147908Y-117499740D02*
X126147908Y-117499740D01*
X126147908Y-117499740D02*
X127147908Y-116928312D01*
X127147908Y-116928312D02*
X126147908Y-116928312D01*
X126147908Y-116594978D02*
X126147908Y-116023550D01*
X127147908Y-116309264D02*
X126147908Y-116309264D01*
X126624098Y-115690216D02*
X126624098Y-115356883D01*
X127147908Y-115214026D02*
X127147908Y-115690216D01*
X127147908Y-115690216D02*
X126147908Y-115690216D01*
X126147908Y-115690216D02*
X126147908Y-115214026D01*
X127147908Y-114785454D02*
X126147908Y-114785454D01*
X126147908Y-114785454D02*
X127147908Y-114214026D01*
X127147908Y-114214026D02*
X126147908Y-114214026D01*
X127147908Y-113737835D02*
X126147908Y-113737835D01*
X126147908Y-113737835D02*
X127147908Y-113166407D01*
X127147908Y-113166407D02*
X126147908Y-113166407D01*
X126624098Y-112690216D02*
X126624098Y-112356883D01*
X127147908Y-112214026D02*
X127147908Y-112690216D01*
X127147908Y-112690216D02*
X126147908Y-112690216D01*
X126147908Y-112690216D02*
X126147908Y-112214026D01*
X135756422Y-104248631D02*
X135723089Y-104281965D01*
X135723089Y-104281965D02*
X135623089Y-104315298D01*
X135623089Y-104315298D02*
X135556422Y-104315298D01*
X135556422Y-104315298D02*
X135456422Y-104281965D01*
X135456422Y-104281965D02*
X135389756Y-104215298D01*
X135389756Y-104215298D02*
X135356422Y-104148631D01*
X135356422Y-104148631D02*
X135323089Y-104015298D01*
X135323089Y-104015298D02*
X135323089Y-103915298D01*
X135323089Y-103915298D02*
X135356422Y-103781965D01*
X135356422Y-103781965D02*
X135389756Y-103715298D01*
X135389756Y-103715298D02*
X135456422Y-103648631D01*
X135456422Y-103648631D02*
X135556422Y-103615298D01*
X135556422Y-103615298D02*
X135623089Y-103615298D01*
X135623089Y-103615298D02*
X135723089Y-103648631D01*
X135723089Y-103648631D02*
X135756422Y-103681965D01*
X135989756Y-103615298D02*
X136456422Y-103615298D01*
X136456422Y-103615298D02*
X136156422Y-104315298D01*
X165961184Y-77404084D02*
X165961184Y-76404084D01*
X165961184Y-76880274D02*
X166532612Y-76880274D01*
X166532612Y-77404084D02*
X166532612Y-76404084D01*
X166913565Y-76404084D02*
X167532612Y-76404084D01*
X167532612Y-76404084D02*
X167199279Y-76785036D01*
X167199279Y-76785036D02*
X167342136Y-76785036D01*
X167342136Y-76785036D02*
X167437374Y-76832655D01*
X167437374Y-76832655D02*
X167484993Y-76880274D01*
X167484993Y-76880274D02*
X167532612Y-76975512D01*
X167532612Y-76975512D02*
X167532612Y-77213607D01*
X167532612Y-77213607D02*
X167484993Y-77308845D01*
X167484993Y-77308845D02*
X167437374Y-77356465D01*
X167437374Y-77356465D02*
X167342136Y-77404084D01*
X167342136Y-77404084D02*
X167056422Y-77404084D01*
X167056422Y-77404084D02*
X166961184Y-77356465D01*
X166961184Y-77356465D02*
X166913565Y-77308845D01*
X151276422Y-100788631D02*
X151243089Y-100821965D01*
X151243089Y-100821965D02*
X151143089Y-100855298D01*
X151143089Y-100855298D02*
X151076422Y-100855298D01*
X151076422Y-100855298D02*
X150976422Y-100821965D01*
X150976422Y-100821965D02*
X150909756Y-100755298D01*
X150909756Y-100755298D02*
X150876422Y-100688631D01*
X150876422Y-100688631D02*
X150843089Y-100555298D01*
X150843089Y-100555298D02*
X150843089Y-100455298D01*
X150843089Y-100455298D02*
X150876422Y-100321965D01*
X150876422Y-100321965D02*
X150909756Y-100255298D01*
X150909756Y-100255298D02*
X150976422Y-100188631D01*
X150976422Y-100188631D02*
X151076422Y-100155298D01*
X151076422Y-100155298D02*
X151143089Y-100155298D01*
X151143089Y-100155298D02*
X151243089Y-100188631D01*
X151243089Y-100188631D02*
X151276422Y-100221965D01*
X151909756Y-100155298D02*
X151576422Y-100155298D01*
X151576422Y-100155298D02*
X151543089Y-100488631D01*
X151543089Y-100488631D02*
X151576422Y-100455298D01*
X151576422Y-100455298D02*
X151643089Y-100421965D01*
X151643089Y-100421965D02*
X151809756Y-100421965D01*
X151809756Y-100421965D02*
X151876422Y-100455298D01*
X151876422Y-100455298D02*
X151909756Y-100488631D01*
X151909756Y-100488631D02*
X151943089Y-100555298D01*
X151943089Y-100555298D02*
X151943089Y-100721965D01*
X151943089Y-100721965D02*
X151909756Y-100788631D01*
X151909756Y-100788631D02*
X151876422Y-100821965D01*
X151876422Y-100821965D02*
X151809756Y-100855298D01*
X151809756Y-100855298D02*
X151643089Y-100855298D01*
X151643089Y-100855298D02*
X151576422Y-100821965D01*
X151576422Y-100821965D02*
X151543089Y-100788631D01*
X140856422Y-91148631D02*
X140823089Y-91181965D01*
X140823089Y-91181965D02*
X140723089Y-91215298D01*
X140723089Y-91215298D02*
X140656422Y-91215298D01*
X140656422Y-91215298D02*
X140556422Y-91181965D01*
X140556422Y-91181965D02*
X140489756Y-91115298D01*
X140489756Y-91115298D02*
X140456422Y-91048631D01*
X140456422Y-91048631D02*
X140423089Y-90915298D01*
X140423089Y-90915298D02*
X140423089Y-90815298D01*
X140423089Y-90815298D02*
X140456422Y-90681965D01*
X140456422Y-90681965D02*
X140489756Y-90615298D01*
X140489756Y-90615298D02*
X140556422Y-90548631D01*
X140556422Y-90548631D02*
X140656422Y-90515298D01*
X140656422Y-90515298D02*
X140723089Y-90515298D01*
X140723089Y-90515298D02*
X140823089Y-90548631D01*
X140823089Y-90548631D02*
X140856422Y-90581965D01*
X141523089Y-91215298D02*
X141123089Y-91215298D01*
X141323089Y-91215298D02*
X141323089Y-90515298D01*
X141323089Y-90515298D02*
X141256422Y-90615298D01*
X141256422Y-90615298D02*
X141189756Y-90681965D01*
X141189756Y-90681965D02*
X141123089Y-90715298D01*
X160482455Y-101185931D02*
X160515789Y-101219264D01*
X160515789Y-101219264D02*
X160549122Y-101319264D01*
X160549122Y-101319264D02*
X160549122Y-101385931D01*
X160549122Y-101385931D02*
X160515789Y-101485931D01*
X160515789Y-101485931D02*
X160449122Y-101552598D01*
X160449122Y-101552598D02*
X160382455Y-101585931D01*
X160382455Y-101585931D02*
X160249122Y-101619264D01*
X160249122Y-101619264D02*
X160149122Y-101619264D01*
X160149122Y-101619264D02*
X160015789Y-101585931D01*
X160015789Y-101585931D02*
X159949122Y-101552598D01*
X159949122Y-101552598D02*
X159882455Y-101485931D01*
X159882455Y-101485931D02*
X159849122Y-101385931D01*
X159849122Y-101385931D02*
X159849122Y-101319264D01*
X159849122Y-101319264D02*
X159882455Y-101219264D01*
X159882455Y-101219264D02*
X159915789Y-101185931D01*
X159849122Y-100952598D02*
X159849122Y-100519264D01*
X159849122Y-100519264D02*
X160115789Y-100752598D01*
X160115789Y-100752598D02*
X160115789Y-100652598D01*
X160115789Y-100652598D02*
X160149122Y-100585931D01*
X160149122Y-100585931D02*
X160182455Y-100552598D01*
X160182455Y-100552598D02*
X160249122Y-100519264D01*
X160249122Y-100519264D02*
X160415789Y-100519264D01*
X160415789Y-100519264D02*
X160482455Y-100552598D01*
X160482455Y-100552598D02*
X160515789Y-100585931D01*
X160515789Y-100585931D02*
X160549122Y-100652598D01*
X160549122Y-100652598D02*
X160549122Y-100852598D01*
X160549122Y-100852598D02*
X160515789Y-100919264D01*
X160515789Y-100919264D02*
X160482455Y-100952598D01*
X148486422Y-83247541D02*
X148181660Y-83247541D01*
X148181660Y-83247541D02*
X148181660Y-82607541D01*
X148974041Y-82820874D02*
X148974041Y-83247541D01*
X148821660Y-82577065D02*
X148669279Y-83034207D01*
X148669279Y-83034207D02*
X149065470Y-83034207D01*
X119223088Y-89585298D02*
X118989755Y-89251965D01*
X118823088Y-89585298D02*
X118823088Y-88885298D01*
X118823088Y-88885298D02*
X119089755Y-88885298D01*
X119089755Y-88885298D02*
X119156422Y-88918631D01*
X119156422Y-88918631D02*
X119189755Y-88951965D01*
X119189755Y-88951965D02*
X119223088Y-89018631D01*
X119223088Y-89018631D02*
X119223088Y-89118631D01*
X119223088Y-89118631D02*
X119189755Y-89185298D01*
X119189755Y-89185298D02*
X119156422Y-89218631D01*
X119156422Y-89218631D02*
X119089755Y-89251965D01*
X119089755Y-89251965D02*
X118823088Y-89251965D01*
X119889755Y-89585298D02*
X119489755Y-89585298D01*
X119689755Y-89585298D02*
X119689755Y-88885298D01*
X119689755Y-88885298D02*
X119623088Y-88985298D01*
X119623088Y-88985298D02*
X119556422Y-89051965D01*
X119556422Y-89051965D02*
X119489755Y-89085298D01*
X120489755Y-89118631D02*
X120489755Y-89585298D01*
X120323089Y-88851965D02*
X120156422Y-89351965D01*
X120156422Y-89351965D02*
X120589755Y-89351965D01*
X111861184Y-111754084D02*
X111861184Y-110754084D01*
X111861184Y-111230274D02*
X112432612Y-111230274D01*
X112432612Y-111754084D02*
X112432612Y-110754084D01*
X113432612Y-111754084D02*
X112861184Y-111754084D01*
X113146898Y-111754084D02*
X113146898Y-110754084D01*
X113146898Y-110754084D02*
X113051660Y-110896941D01*
X113051660Y-110896941D02*
X112956422Y-110992179D01*
X112956422Y-110992179D02*
X112861184Y-111039798D01*
D12*
X132447898Y-107994026D02*
X132805041Y-107994026D01*
X132805041Y-107994026D02*
X132876469Y-108017835D01*
X132876469Y-108017835D02*
X132924089Y-108065454D01*
X132924089Y-108065454D02*
X132947898Y-108136883D01*
X132947898Y-108136883D02*
X132947898Y-108184502D01*
X132947898Y-107494026D02*
X132947898Y-107779740D01*
X132947898Y-107636883D02*
X132447898Y-107636883D01*
X132447898Y-107636883D02*
X132519327Y-107684502D01*
X132519327Y-107684502D02*
X132566946Y-107732121D01*
X132566946Y-107732121D02*
X132590755Y-107779740D01*
X132447898Y-107184503D02*
X132447898Y-107136884D01*
X132447898Y-107136884D02*
X132471708Y-107089265D01*
X132471708Y-107089265D02*
X132495517Y-107065455D01*
X132495517Y-107065455D02*
X132543136Y-107041646D01*
X132543136Y-107041646D02*
X132638374Y-107017836D01*
X132638374Y-107017836D02*
X132757422Y-107017836D01*
X132757422Y-107017836D02*
X132852660Y-107041646D01*
X132852660Y-107041646D02*
X132900279Y-107065455D01*
X132900279Y-107065455D02*
X132924089Y-107089265D01*
X132924089Y-107089265D02*
X132947898Y-107136884D01*
X132947898Y-107136884D02*
X132947898Y-107184503D01*
X132947898Y-107184503D02*
X132924089Y-107232122D01*
X132924089Y-107232122D02*
X132900279Y-107255931D01*
X132900279Y-107255931D02*
X132852660Y-107279741D01*
X132852660Y-107279741D02*
X132757422Y-107303550D01*
X132757422Y-107303550D02*
X132638374Y-107303550D01*
X132638374Y-107303550D02*
X132543136Y-107279741D01*
X132543136Y-107279741D02*
X132495517Y-107255931D01*
X132495517Y-107255931D02*
X132471708Y-107232122D01*
X132471708Y-107232122D02*
X132447898Y-107184503D01*
D11*
X119123088Y-93035298D02*
X118889755Y-92701965D01*
X118723088Y-93035298D02*
X118723088Y-92335298D01*
X118723088Y-92335298D02*
X118989755Y-92335298D01*
X118989755Y-92335298D02*
X119056422Y-92368631D01*
X119056422Y-92368631D02*
X119089755Y-92401965D01*
X119089755Y-92401965D02*
X119123088Y-92468631D01*
X119123088Y-92468631D02*
X119123088Y-92568631D01*
X119123088Y-92568631D02*
X119089755Y-92635298D01*
X119089755Y-92635298D02*
X119056422Y-92668631D01*
X119056422Y-92668631D02*
X118989755Y-92701965D01*
X118989755Y-92701965D02*
X118723088Y-92701965D01*
X119789755Y-93035298D02*
X119389755Y-93035298D01*
X119589755Y-93035298D02*
X119589755Y-92335298D01*
X119589755Y-92335298D02*
X119523088Y-92435298D01*
X119523088Y-92435298D02*
X119456422Y-92501965D01*
X119456422Y-92501965D02*
X119389755Y-92535298D01*
X120056422Y-92401965D02*
X120089755Y-92368631D01*
X120089755Y-92368631D02*
X120156422Y-92335298D01*
X120156422Y-92335298D02*
X120323089Y-92335298D01*
X120323089Y-92335298D02*
X120389755Y-92368631D01*
X120389755Y-92368631D02*
X120423089Y-92401965D01*
X120423089Y-92401965D02*
X120456422Y-92468631D01*
X120456422Y-92468631D02*
X120456422Y-92535298D01*
X120456422Y-92535298D02*
X120423089Y-92635298D01*
X120423089Y-92635298D02*
X120023089Y-93035298D01*
X120023089Y-93035298D02*
X120456422Y-93035298D01*
D12*
X144551660Y-110026455D02*
X144527851Y-110050265D01*
X144527851Y-110050265D02*
X144456422Y-110074074D01*
X144456422Y-110074074D02*
X144408803Y-110074074D01*
X144408803Y-110074074D02*
X144337375Y-110050265D01*
X144337375Y-110050265D02*
X144289756Y-110002645D01*
X144289756Y-110002645D02*
X144265946Y-109955026D01*
X144265946Y-109955026D02*
X144242137Y-109859788D01*
X144242137Y-109859788D02*
X144242137Y-109788360D01*
X144242137Y-109788360D02*
X144265946Y-109693122D01*
X144265946Y-109693122D02*
X144289756Y-109645503D01*
X144289756Y-109645503D02*
X144337375Y-109597884D01*
X144337375Y-109597884D02*
X144408803Y-109574074D01*
X144408803Y-109574074D02*
X144456422Y-109574074D01*
X144456422Y-109574074D02*
X144527851Y-109597884D01*
X144527851Y-109597884D02*
X144551660Y-109621693D01*
X145027851Y-110074074D02*
X144742137Y-110074074D01*
X144884994Y-110074074D02*
X144884994Y-109574074D01*
X144884994Y-109574074D02*
X144837375Y-109645503D01*
X144837375Y-109645503D02*
X144789756Y-109693122D01*
X144789756Y-109693122D02*
X144742137Y-109716931D01*
X145194517Y-109574074D02*
X145504041Y-109574074D01*
X145504041Y-109574074D02*
X145337374Y-109764550D01*
X145337374Y-109764550D02*
X145408803Y-109764550D01*
X145408803Y-109764550D02*
X145456422Y-109788360D01*
X145456422Y-109788360D02*
X145480231Y-109812169D01*
X145480231Y-109812169D02*
X145504041Y-109859788D01*
X145504041Y-109859788D02*
X145504041Y-109978836D01*
X145504041Y-109978836D02*
X145480231Y-110026455D01*
X145480231Y-110026455D02*
X145456422Y-110050265D01*
X145456422Y-110050265D02*
X145408803Y-110074074D01*
X145408803Y-110074074D02*
X145265946Y-110074074D01*
X145265946Y-110074074D02*
X145218327Y-110050265D01*
X145218327Y-110050265D02*
X145194517Y-110026455D01*
D11*
X139422455Y-109799265D02*
X139455789Y-109832598D01*
X139455789Y-109832598D02*
X139489122Y-109932598D01*
X139489122Y-109932598D02*
X139489122Y-109999265D01*
X139489122Y-109999265D02*
X139455789Y-110099265D01*
X139455789Y-110099265D02*
X139389122Y-110165932D01*
X139389122Y-110165932D02*
X139322455Y-110199265D01*
X139322455Y-110199265D02*
X139189122Y-110232598D01*
X139189122Y-110232598D02*
X139089122Y-110232598D01*
X139089122Y-110232598D02*
X138955789Y-110199265D01*
X138955789Y-110199265D02*
X138889122Y-110165932D01*
X138889122Y-110165932D02*
X138822455Y-110099265D01*
X138822455Y-110099265D02*
X138789122Y-109999265D01*
X138789122Y-109999265D02*
X138789122Y-109932598D01*
X138789122Y-109932598D02*
X138822455Y-109832598D01*
X138822455Y-109832598D02*
X138855789Y-109799265D01*
X139489122Y-109132598D02*
X139489122Y-109532598D01*
X139489122Y-109332598D02*
X138789122Y-109332598D01*
X138789122Y-109332598D02*
X138889122Y-109399265D01*
X138889122Y-109399265D02*
X138955789Y-109465932D01*
X138955789Y-109465932D02*
X138989122Y-109532598D01*
X138855789Y-108865931D02*
X138822455Y-108832598D01*
X138822455Y-108832598D02*
X138789122Y-108765931D01*
X138789122Y-108765931D02*
X138789122Y-108599265D01*
X138789122Y-108599265D02*
X138822455Y-108532598D01*
X138822455Y-108532598D02*
X138855789Y-108499265D01*
X138855789Y-108499265D02*
X138922455Y-108465931D01*
X138922455Y-108465931D02*
X138989122Y-108465931D01*
X138989122Y-108465931D02*
X139089122Y-108499265D01*
X139089122Y-108499265D02*
X139489122Y-108899265D01*
X139489122Y-108899265D02*
X139489122Y-108465931D01*
G36*
X165574104Y-108778318D02*
G01*
X165781222Y-108778318D01*
X165781222Y-108845241D01*
X165722359Y-108866429D01*
X165679922Y-108889021D01*
X165652506Y-108914606D01*
X165643937Y-108929647D01*
X165638462Y-108947762D01*
X165634676Y-108993496D01*
X165634676Y-109209346D01*
X165992248Y-109209346D01*
X165992248Y-109063166D01*
X165989861Y-109034965D01*
X165983760Y-109016089D01*
X165972603Y-109000805D01*
X165954756Y-108987695D01*
X165931154Y-108977579D01*
X165890643Y-108966202D01*
X165890643Y-108901966D01*
X166154425Y-108901966D01*
X166154425Y-108966202D01*
X166115768Y-108977052D01*
X166091899Y-108987390D01*
X166073291Y-109000587D01*
X166061796Y-109015051D01*
X166055411Y-109033305D01*
X166052820Y-109063166D01*
X166052820Y-109209346D01*
X166447516Y-109209346D01*
X166447516Y-108996916D01*
X166445877Y-108965059D01*
X166441654Y-108942633D01*
X166433656Y-108923107D01*
X166421627Y-108906729D01*
X166405809Y-108892926D01*
X166384685Y-108880106D01*
X166337302Y-108860628D01*
X166265800Y-108839135D01*
X166265800Y-108771479D01*
X166508089Y-108784485D01*
X166508089Y-109417013D01*
X166474566Y-109417013D01*
X166461747Y-109378760D01*
X166450325Y-109360349D01*
X166434734Y-109348768D01*
X166412345Y-109341542D01*
X166337057Y-109337085D01*
X165745135Y-109337085D01*
X165676381Y-109340504D01*
X165656298Y-109345356D01*
X165642858Y-109351800D01*
X165623746Y-109372683D01*
X165607626Y-109417013D01*
X165574104Y-109417013D01*
X165574104Y-108778318D01*
G37*
G36*
X166297063Y-108549829D02*
G01*
X166352891Y-108532825D01*
X166391401Y-108512948D01*
X166421578Y-108486221D01*
X166442631Y-108452865D01*
X166454688Y-108412880D01*
X166459240Y-108357915D01*
X166454052Y-108306235D01*
X166439804Y-108266253D01*
X166417413Y-108235305D01*
X166386868Y-108212432D01*
X166347071Y-108197875D01*
X166295231Y-108192563D01*
X166246432Y-108197318D01*
X166208830Y-108210332D01*
X166175953Y-108232781D01*
X166142945Y-108268400D01*
X166112194Y-108314705D01*
X166070894Y-108391377D01*
X166029603Y-108466221D01*
X165993225Y-108517772D01*
X165952686Y-108559088D01*
X165910793Y-108587076D01*
X165864540Y-108604177D01*
X165813584Y-108609974D01*
X165763503Y-108605783D01*
X165719498Y-108593724D01*
X165680472Y-108574131D01*
X165646239Y-108547037D01*
X165617220Y-108512344D01*
X165593216Y-108468924D01*
X165576440Y-108421747D01*
X165566008Y-108369084D01*
X165562380Y-108310044D01*
X165567876Y-108208622D01*
X165576078Y-108156267D01*
X165592483Y-108084669D01*
X165777314Y-108084669D01*
X165777314Y-108152263D01*
X165721069Y-108171109D01*
X165683341Y-108191891D01*
X165654261Y-108218478D01*
X165636325Y-108247945D01*
X165626647Y-108282673D01*
X165622952Y-108331232D01*
X165627210Y-108373984D01*
X165639439Y-108410855D01*
X165660055Y-108442338D01*
X165689142Y-108466542D01*
X165724725Y-108481672D01*
X165768277Y-108486998D01*
X165814491Y-108482363D01*
X165850526Y-108469595D01*
X165882079Y-108448004D01*
X165912930Y-108415251D01*
X165941171Y-108373263D01*
X165977349Y-108305953D01*
X166022187Y-108224258D01*
X166058987Y-108170398D01*
X166099857Y-108127061D01*
X166145022Y-108095232D01*
X166196341Y-108075249D01*
X166257862Y-108068243D01*
X166326444Y-108074285D01*
X166379556Y-108090775D01*
X166425009Y-108117950D01*
X166460522Y-108153301D01*
X166487084Y-108196435D01*
X166505768Y-108248922D01*
X166516174Y-108306153D01*
X166519812Y-108370860D01*
X166516208Y-108441939D01*
X166504616Y-108523880D01*
X166483725Y-108618156D01*
X166297063Y-108618156D01*
X166297063Y-108549829D01*
G37*
G36*
X165592972Y-107289231D02*
G01*
X165781222Y-107289231D01*
X165781222Y-107356825D01*
X165726221Y-107376432D01*
X165687555Y-107398529D01*
X165657192Y-107426453D01*
X165637851Y-107457270D01*
X165626922Y-107492853D01*
X165622952Y-107537870D01*
X165628169Y-107583057D01*
X165643628Y-107624474D01*
X165669908Y-107663228D01*
X165704270Y-107695615D01*
X165750443Y-107724534D01*
X165810958Y-107749628D01*
X165874492Y-107766380D01*
X165949795Y-107777201D01*
X166038715Y-107781075D01*
X166128283Y-107777863D01*
X166204059Y-107768910D01*
X166267815Y-107755124D01*
X166329123Y-107733639D01*
X166375948Y-107707963D01*
X166410941Y-107678615D01*
X166437691Y-107642475D01*
X166453715Y-107601510D01*
X166459240Y-107554234D01*
X166454819Y-107501200D01*
X166443120Y-107462704D01*
X166422569Y-107430309D01*
X166392073Y-107402926D01*
X166352327Y-107380848D01*
X166289247Y-107356825D01*
X166289247Y-107289231D01*
X166485496Y-107289231D01*
X166500470Y-107354020D01*
X166511203Y-107420694D01*
X166517560Y-107489626D01*
X166519812Y-107568583D01*
X166514597Y-107637846D01*
X166499793Y-107697244D01*
X166476161Y-107748443D01*
X166443764Y-107792736D01*
X166401965Y-107830961D01*
X166341885Y-107866971D01*
X166265718Y-107894761D01*
X166169936Y-107913055D01*
X166050377Y-107919744D01*
X165953420Y-107914247D01*
X165868288Y-107898575D01*
X165793373Y-107873643D01*
X165724074Y-107837233D01*
X165667731Y-107792143D01*
X165622708Y-107738027D01*
X165589742Y-107675855D01*
X165569449Y-107605223D01*
X165562380Y-107524192D01*
X165568853Y-107409459D01*
X165577688Y-107355247D01*
X165592972Y-107289231D01*
G37*
G36*
X166226721Y-106499716D02*
G01*
X166226721Y-106663664D01*
X166338095Y-106663664D01*
X166404652Y-106660611D01*
X166437991Y-106650352D01*
X166458385Y-106629164D01*
X166474627Y-106583735D01*
X166508089Y-106583735D01*
X166508089Y-106861073D01*
X166474810Y-106861073D01*
X166462057Y-106822814D01*
X166450691Y-106804409D01*
X166435175Y-106792822D01*
X166412956Y-106785602D01*
X166338157Y-106781144D01*
X166226721Y-106781144D01*
X166226721Y-107161003D01*
X166176895Y-107161003D01*
X165603943Y-106781144D01*
X165728465Y-106781144D01*
X166152654Y-107048285D01*
X166162241Y-107048285D01*
X166162241Y-106781144D01*
X165992125Y-106781144D01*
X165848389Y-106779129D01*
X165728465Y-106774306D01*
X165728465Y-106781144D01*
X165603943Y-106781144D01*
X165574104Y-106761361D01*
X165574104Y-106663664D01*
X166162241Y-106663664D01*
X166162241Y-106649314D01*
X166160444Y-106612520D01*
X166156318Y-106592650D01*
X166148120Y-106577080D01*
X166135313Y-106564318D01*
X166117521Y-106554330D01*
X166086037Y-106543435D01*
X166086037Y-106491534D01*
X166226721Y-106499716D01*
G37*
D13*
X128610106Y-93364979D02*
X128998677Y-93364979D01*
X128998677Y-93364979D02*
X129044391Y-93342122D01*
X129044391Y-93342122D02*
X129067249Y-93319265D01*
X129067249Y-93319265D02*
X129090106Y-93273550D01*
X129090106Y-93273550D02*
X129090106Y-93182122D01*
X129090106Y-93182122D02*
X129067249Y-93136407D01*
X129067249Y-93136407D02*
X129044391Y-93113550D01*
X129044391Y-93113550D02*
X128998677Y-93090693D01*
X128998677Y-93090693D02*
X128610106Y-93090693D01*
X128655820Y-92884979D02*
X128632963Y-92862122D01*
X128632963Y-92862122D02*
X128610106Y-92816408D01*
X128610106Y-92816408D02*
X128610106Y-92702122D01*
X128610106Y-92702122D02*
X128632963Y-92656408D01*
X128632963Y-92656408D02*
X128655820Y-92633550D01*
X128655820Y-92633550D02*
X128701534Y-92610693D01*
X128701534Y-92610693D02*
X128747249Y-92610693D01*
X128747249Y-92610693D02*
X128815820Y-92633550D01*
X128815820Y-92633550D02*
X129090106Y-92907836D01*
X129090106Y-92907836D02*
X129090106Y-92610693D01*
D11*
G36*
X165474104Y-100778318D02*
G01*
X165681222Y-100778318D01*
X165681222Y-100845241D01*
X165622359Y-100866429D01*
X165579922Y-100889021D01*
X165552506Y-100914606D01*
X165543937Y-100929647D01*
X165538462Y-100947762D01*
X165534676Y-100993496D01*
X165534676Y-101209346D01*
X165892248Y-101209346D01*
X165892248Y-101063166D01*
X165889861Y-101034965D01*
X165883760Y-101016089D01*
X165872603Y-101000805D01*
X165854756Y-100987695D01*
X165831154Y-100977579D01*
X165790643Y-100966202D01*
X165790643Y-100901966D01*
X166054425Y-100901966D01*
X166054425Y-100966202D01*
X166015768Y-100977052D01*
X165991899Y-100987390D01*
X165973291Y-101000587D01*
X165961796Y-101015051D01*
X165955411Y-101033305D01*
X165952820Y-101063166D01*
X165952820Y-101209346D01*
X166347516Y-101209346D01*
X166347516Y-100996916D01*
X166345877Y-100965059D01*
X166341654Y-100942633D01*
X166333656Y-100923107D01*
X166321627Y-100906729D01*
X166305809Y-100892926D01*
X166284685Y-100880106D01*
X166237302Y-100860628D01*
X166165800Y-100839135D01*
X166165800Y-100771479D01*
X166408089Y-100784485D01*
X166408089Y-101417013D01*
X166374566Y-101417013D01*
X166361747Y-101378760D01*
X166350325Y-101360349D01*
X166334734Y-101348768D01*
X166312345Y-101341542D01*
X166237057Y-101337085D01*
X165645135Y-101337085D01*
X165576381Y-101340504D01*
X165556298Y-101345356D01*
X165542858Y-101351800D01*
X165523746Y-101372683D01*
X165507626Y-101417013D01*
X165474104Y-101417013D01*
X165474104Y-100778318D01*
G37*
G36*
X166197063Y-100549829D02*
G01*
X166252891Y-100532825D01*
X166291401Y-100512948D01*
X166321578Y-100486221D01*
X166342631Y-100452865D01*
X166354688Y-100412880D01*
X166359240Y-100357915D01*
X166354052Y-100306235D01*
X166339804Y-100266253D01*
X166317413Y-100235305D01*
X166286868Y-100212432D01*
X166247071Y-100197875D01*
X166195231Y-100192563D01*
X166146432Y-100197318D01*
X166108830Y-100210332D01*
X166075953Y-100232781D01*
X166042945Y-100268400D01*
X166012194Y-100314705D01*
X165970894Y-100391377D01*
X165929603Y-100466221D01*
X165893225Y-100517772D01*
X165852686Y-100559088D01*
X165810793Y-100587076D01*
X165764540Y-100604177D01*
X165713584Y-100609974D01*
X165663503Y-100605783D01*
X165619498Y-100593724D01*
X165580472Y-100574131D01*
X165546239Y-100547037D01*
X165517220Y-100512344D01*
X165493216Y-100468924D01*
X165476440Y-100421747D01*
X165466008Y-100369084D01*
X165462380Y-100310044D01*
X165467876Y-100208622D01*
X165476078Y-100156267D01*
X165492483Y-100084669D01*
X165677314Y-100084669D01*
X165677314Y-100152263D01*
X165621069Y-100171109D01*
X165583341Y-100191891D01*
X165554261Y-100218478D01*
X165536325Y-100247945D01*
X165526647Y-100282673D01*
X165522952Y-100331232D01*
X165527210Y-100373984D01*
X165539439Y-100410855D01*
X165560055Y-100442338D01*
X165589142Y-100466542D01*
X165624725Y-100481672D01*
X165668277Y-100486998D01*
X165714491Y-100482363D01*
X165750526Y-100469595D01*
X165782079Y-100448004D01*
X165812930Y-100415251D01*
X165841171Y-100373263D01*
X165877349Y-100305953D01*
X165922187Y-100224258D01*
X165958987Y-100170398D01*
X165999857Y-100127061D01*
X166045022Y-100095232D01*
X166096341Y-100075249D01*
X166157862Y-100068243D01*
X166226444Y-100074285D01*
X166279556Y-100090775D01*
X166325009Y-100117950D01*
X166360522Y-100153301D01*
X166387084Y-100196435D01*
X166405768Y-100248922D01*
X166416174Y-100306153D01*
X166419812Y-100370860D01*
X166416208Y-100441939D01*
X166404616Y-100523880D01*
X166383725Y-100618156D01*
X166197063Y-100618156D01*
X166197063Y-100549829D01*
G37*
G36*
X165492972Y-99289231D02*
G01*
X165681222Y-99289231D01*
X165681222Y-99356825D01*
X165626221Y-99376432D01*
X165587555Y-99398529D01*
X165557192Y-99426453D01*
X165537851Y-99457270D01*
X165526922Y-99492853D01*
X165522952Y-99537870D01*
X165528169Y-99583057D01*
X165543628Y-99624474D01*
X165569908Y-99663228D01*
X165604270Y-99695615D01*
X165650443Y-99724534D01*
X165710958Y-99749628D01*
X165774492Y-99766380D01*
X165849795Y-99777201D01*
X165938715Y-99781075D01*
X166028283Y-99777863D01*
X166104059Y-99768910D01*
X166167815Y-99755124D01*
X166229123Y-99733639D01*
X166275948Y-99707963D01*
X166310941Y-99678615D01*
X166337691Y-99642475D01*
X166353715Y-99601510D01*
X166359240Y-99554234D01*
X166354819Y-99501200D01*
X166343120Y-99462704D01*
X166322569Y-99430309D01*
X166292073Y-99402926D01*
X166252327Y-99380848D01*
X166189247Y-99356825D01*
X166189247Y-99289231D01*
X166385496Y-99289231D01*
X166400470Y-99354020D01*
X166411203Y-99420694D01*
X166417560Y-99489626D01*
X166419812Y-99568583D01*
X166414597Y-99637846D01*
X166399793Y-99697244D01*
X166376161Y-99748443D01*
X166343764Y-99792736D01*
X166301965Y-99830961D01*
X166241885Y-99866971D01*
X166165718Y-99894761D01*
X166069936Y-99913055D01*
X165950377Y-99919744D01*
X165853420Y-99914247D01*
X165768288Y-99898575D01*
X165693373Y-99873643D01*
X165624074Y-99837233D01*
X165567731Y-99792143D01*
X165522708Y-99738027D01*
X165489742Y-99675855D01*
X165469449Y-99605223D01*
X165462380Y-99524192D01*
X165468853Y-99409459D01*
X165477688Y-99355247D01*
X165492972Y-99289231D01*
G37*
G36*
X166295737Y-98734006D02*
G01*
X166291646Y-98680089D01*
X166285932Y-98661007D01*
X166278029Y-98647299D01*
X166253177Y-98627821D01*
X166205855Y-98609686D01*
X166205855Y-98551617D01*
X166408089Y-98563219D01*
X166408089Y-99125466D01*
X166372246Y-99125466D01*
X166301321Y-99091740D01*
X166225822Y-99046209D01*
X166148893Y-98989646D01*
X166049357Y-98904792D01*
X165917221Y-98790731D01*
X165869105Y-98755748D01*
X165832408Y-98733700D01*
X165796722Y-98717180D01*
X165764936Y-98706711D01*
X165733083Y-98700564D01*
X165701250Y-98698529D01*
X165652082Y-98702830D01*
X165611002Y-98714955D01*
X165575811Y-98735825D01*
X165549331Y-98765147D01*
X165532818Y-98802016D01*
X165526860Y-98850143D01*
X165532559Y-98897877D01*
X165548839Y-98937586D01*
X165575739Y-98971135D01*
X165614931Y-98999429D01*
X165669498Y-99022273D01*
X165669498Y-99104949D01*
X165537790Y-99104949D01*
X165502692Y-99022777D01*
X165480210Y-98950222D01*
X165466541Y-98879649D01*
X165462380Y-98820773D01*
X165466504Y-98756356D01*
X165477859Y-98704300D01*
X165495313Y-98662402D01*
X165518312Y-98628859D01*
X165548381Y-98601216D01*
X165584548Y-98581123D01*
X165628063Y-98568463D01*
X165680672Y-98563952D01*
X165715937Y-98565820D01*
X165747106Y-98571157D01*
X165776970Y-98580266D01*
X165807007Y-98593688D01*
X165870693Y-98634965D01*
X165939875Y-98692362D01*
X166056684Y-98800989D01*
X166150811Y-98885531D01*
X166229803Y-98947767D01*
X166295737Y-98991560D01*
X166295737Y-98734006D01*
G37*
X136439122Y-70365931D02*
X136105789Y-70599264D01*
X136439122Y-70765931D02*
X135739122Y-70765931D01*
X135739122Y-70765931D02*
X135739122Y-70499264D01*
X135739122Y-70499264D02*
X135772455Y-70432598D01*
X135772455Y-70432598D02*
X135805789Y-70399264D01*
X135805789Y-70399264D02*
X135872455Y-70365931D01*
X135872455Y-70365931D02*
X135972455Y-70365931D01*
X135972455Y-70365931D02*
X136039122Y-70399264D01*
X136039122Y-70399264D02*
X136072455Y-70432598D01*
X136072455Y-70432598D02*
X136105789Y-70499264D01*
X136105789Y-70499264D02*
X136105789Y-70765931D01*
X135739122Y-70132598D02*
X135739122Y-69665931D01*
X135739122Y-69665931D02*
X136439122Y-69965931D01*
X143756422Y-91365298D02*
X143756422Y-90665298D01*
X143756422Y-90665298D02*
X143923089Y-90665298D01*
X143923089Y-90665298D02*
X144023089Y-90698631D01*
X144023089Y-90698631D02*
X144089756Y-90765298D01*
X144089756Y-90765298D02*
X144123089Y-90831965D01*
X144123089Y-90831965D02*
X144156422Y-90965298D01*
X144156422Y-90965298D02*
X144156422Y-91065298D01*
X144156422Y-91065298D02*
X144123089Y-91198631D01*
X144123089Y-91198631D02*
X144089756Y-91265298D01*
X144089756Y-91265298D02*
X144023089Y-91331965D01*
X144023089Y-91331965D02*
X143923089Y-91365298D01*
X143923089Y-91365298D02*
X143756422Y-91365298D01*
X144756422Y-90898631D02*
X144756422Y-91365298D01*
X144589756Y-90631965D02*
X144423089Y-91131965D01*
X144423089Y-91131965D02*
X144856422Y-91131965D01*
X136356422Y-105248631D02*
X136323089Y-105281965D01*
X136323089Y-105281965D02*
X136223089Y-105315298D01*
X136223089Y-105315298D02*
X136156422Y-105315298D01*
X136156422Y-105315298D02*
X136056422Y-105281965D01*
X136056422Y-105281965D02*
X135989756Y-105215298D01*
X135989756Y-105215298D02*
X135956422Y-105148631D01*
X135956422Y-105148631D02*
X135923089Y-105015298D01*
X135923089Y-105015298D02*
X135923089Y-104915298D01*
X135923089Y-104915298D02*
X135956422Y-104781965D01*
X135956422Y-104781965D02*
X135989756Y-104715298D01*
X135989756Y-104715298D02*
X136056422Y-104648631D01*
X136056422Y-104648631D02*
X136156422Y-104615298D01*
X136156422Y-104615298D02*
X136223089Y-104615298D01*
X136223089Y-104615298D02*
X136323089Y-104648631D01*
X136323089Y-104648631D02*
X136356422Y-104681965D01*
X136956422Y-104615298D02*
X136823089Y-104615298D01*
X136823089Y-104615298D02*
X136756422Y-104648631D01*
X136756422Y-104648631D02*
X136723089Y-104681965D01*
X136723089Y-104681965D02*
X136656422Y-104781965D01*
X136656422Y-104781965D02*
X136623089Y-104915298D01*
X136623089Y-104915298D02*
X136623089Y-105181965D01*
X136623089Y-105181965D02*
X136656422Y-105248631D01*
X136656422Y-105248631D02*
X136689756Y-105281965D01*
X136689756Y-105281965D02*
X136756422Y-105315298D01*
X136756422Y-105315298D02*
X136889756Y-105315298D01*
X136889756Y-105315298D02*
X136956422Y-105281965D01*
X136956422Y-105281965D02*
X136989756Y-105248631D01*
X136989756Y-105248631D02*
X137023089Y-105181965D01*
X137023089Y-105181965D02*
X137023089Y-105015298D01*
X137023089Y-105015298D02*
X136989756Y-104948631D01*
X136989756Y-104948631D02*
X136956422Y-104915298D01*
X136956422Y-104915298D02*
X136889756Y-104881965D01*
X136889756Y-104881965D02*
X136756422Y-104881965D01*
X136756422Y-104881965D02*
X136689756Y-104915298D01*
X136689756Y-104915298D02*
X136656422Y-104948631D01*
X136656422Y-104948631D02*
X136623089Y-105015298D01*
X159856422Y-72015298D02*
X159623089Y-71681965D01*
X159456422Y-72015298D02*
X159456422Y-71315298D01*
X159456422Y-71315298D02*
X159723089Y-71315298D01*
X159723089Y-71315298D02*
X159789756Y-71348631D01*
X159789756Y-71348631D02*
X159823089Y-71381965D01*
X159823089Y-71381965D02*
X159856422Y-71448631D01*
X159856422Y-71448631D02*
X159856422Y-71548631D01*
X159856422Y-71548631D02*
X159823089Y-71615298D01*
X159823089Y-71615298D02*
X159789756Y-71648631D01*
X159789756Y-71648631D02*
X159723089Y-71681965D01*
X159723089Y-71681965D02*
X159456422Y-71681965D01*
X160489756Y-71315298D02*
X160156422Y-71315298D01*
X160156422Y-71315298D02*
X160123089Y-71648631D01*
X160123089Y-71648631D02*
X160156422Y-71615298D01*
X160156422Y-71615298D02*
X160223089Y-71581965D01*
X160223089Y-71581965D02*
X160389756Y-71581965D01*
X160389756Y-71581965D02*
X160456422Y-71615298D01*
X160456422Y-71615298D02*
X160489756Y-71648631D01*
X160489756Y-71648631D02*
X160523089Y-71715298D01*
X160523089Y-71715298D02*
X160523089Y-71881965D01*
X160523089Y-71881965D02*
X160489756Y-71948631D01*
X160489756Y-71948631D02*
X160456422Y-71981965D01*
X160456422Y-71981965D02*
X160389756Y-72015298D01*
X160389756Y-72015298D02*
X160223089Y-72015298D01*
X160223089Y-72015298D02*
X160156422Y-71981965D01*
X160156422Y-71981965D02*
X160123089Y-71948631D01*
X125489955Y-106927429D02*
X125523289Y-106960762D01*
X125523289Y-106960762D02*
X125556622Y-107060762D01*
X125556622Y-107060762D02*
X125556622Y-107127429D01*
X125556622Y-107127429D02*
X125523289Y-107227429D01*
X125523289Y-107227429D02*
X125456622Y-107294096D01*
X125456622Y-107294096D02*
X125389955Y-107327429D01*
X125389955Y-107327429D02*
X125256622Y-107360762D01*
X125256622Y-107360762D02*
X125156622Y-107360762D01*
X125156622Y-107360762D02*
X125023289Y-107327429D01*
X125023289Y-107327429D02*
X124956622Y-107294096D01*
X124956622Y-107294096D02*
X124889955Y-107227429D01*
X124889955Y-107227429D02*
X124856622Y-107127429D01*
X124856622Y-107127429D02*
X124856622Y-107060762D01*
X124856622Y-107060762D02*
X124889955Y-106960762D01*
X124889955Y-106960762D02*
X124923289Y-106927429D01*
X124923289Y-106660762D02*
X124889955Y-106627429D01*
X124889955Y-106627429D02*
X124856622Y-106560762D01*
X124856622Y-106560762D02*
X124856622Y-106394096D01*
X124856622Y-106394096D02*
X124889955Y-106327429D01*
X124889955Y-106327429D02*
X124923289Y-106294096D01*
X124923289Y-106294096D02*
X124989955Y-106260762D01*
X124989955Y-106260762D02*
X125056622Y-106260762D01*
X125056622Y-106260762D02*
X125156622Y-106294096D01*
X125156622Y-106294096D02*
X125556622Y-106694096D01*
X125556622Y-106694096D02*
X125556622Y-106260762D01*
X124856622Y-105827429D02*
X124856622Y-105760762D01*
X124856622Y-105760762D02*
X124889955Y-105694095D01*
X124889955Y-105694095D02*
X124923289Y-105660762D01*
X124923289Y-105660762D02*
X124989955Y-105627429D01*
X124989955Y-105627429D02*
X125123289Y-105594095D01*
X125123289Y-105594095D02*
X125289955Y-105594095D01*
X125289955Y-105594095D02*
X125423289Y-105627429D01*
X125423289Y-105627429D02*
X125489955Y-105660762D01*
X125489955Y-105660762D02*
X125523289Y-105694095D01*
X125523289Y-105694095D02*
X125556622Y-105760762D01*
X125556622Y-105760762D02*
X125556622Y-105827429D01*
X125556622Y-105827429D02*
X125523289Y-105894095D01*
X125523289Y-105894095D02*
X125489955Y-105927429D01*
X125489955Y-105927429D02*
X125423289Y-105960762D01*
X125423289Y-105960762D02*
X125289955Y-105994095D01*
X125289955Y-105994095D02*
X125123289Y-105994095D01*
X125123289Y-105994095D02*
X124989955Y-105960762D01*
X124989955Y-105960762D02*
X124923289Y-105927429D01*
X124923289Y-105927429D02*
X124889955Y-105894095D01*
X124889955Y-105894095D02*
X124856622Y-105827429D01*
D12*
X145847898Y-108832598D02*
X145847898Y-109070693D01*
X145847898Y-109070693D02*
X145347898Y-109070693D01*
X145347898Y-108451645D02*
X145347898Y-108546883D01*
X145347898Y-108546883D02*
X145371708Y-108594502D01*
X145371708Y-108594502D02*
X145395517Y-108618312D01*
X145395517Y-108618312D02*
X145466946Y-108665931D01*
X145466946Y-108665931D02*
X145562184Y-108689740D01*
X145562184Y-108689740D02*
X145752660Y-108689740D01*
X145752660Y-108689740D02*
X145800279Y-108665931D01*
X145800279Y-108665931D02*
X145824089Y-108642121D01*
X145824089Y-108642121D02*
X145847898Y-108594502D01*
X145847898Y-108594502D02*
X145847898Y-108499264D01*
X145847898Y-108499264D02*
X145824089Y-108451645D01*
X145824089Y-108451645D02*
X145800279Y-108427836D01*
X145800279Y-108427836D02*
X145752660Y-108404026D01*
X145752660Y-108404026D02*
X145633612Y-108404026D01*
X145633612Y-108404026D02*
X145585993Y-108427836D01*
X145585993Y-108427836D02*
X145562184Y-108451645D01*
X145562184Y-108451645D02*
X145538374Y-108499264D01*
X145538374Y-108499264D02*
X145538374Y-108594502D01*
X145538374Y-108594502D02*
X145562184Y-108642121D01*
X145562184Y-108642121D02*
X145585993Y-108665931D01*
X145585993Y-108665931D02*
X145633612Y-108689740D01*
D11*
X152956422Y-96348631D02*
X152923089Y-96381965D01*
X152923089Y-96381965D02*
X152823089Y-96415298D01*
X152823089Y-96415298D02*
X152756422Y-96415298D01*
X152756422Y-96415298D02*
X152656422Y-96381965D01*
X152656422Y-96381965D02*
X152589756Y-96315298D01*
X152589756Y-96315298D02*
X152556422Y-96248631D01*
X152556422Y-96248631D02*
X152523089Y-96115298D01*
X152523089Y-96115298D02*
X152523089Y-96015298D01*
X152523089Y-96015298D02*
X152556422Y-95881965D01*
X152556422Y-95881965D02*
X152589756Y-95815298D01*
X152589756Y-95815298D02*
X152656422Y-95748631D01*
X152656422Y-95748631D02*
X152756422Y-95715298D01*
X152756422Y-95715298D02*
X152823089Y-95715298D01*
X152823089Y-95715298D02*
X152923089Y-95748631D01*
X152923089Y-95748631D02*
X152956422Y-95781965D01*
X153223089Y-95781965D02*
X153256422Y-95748631D01*
X153256422Y-95748631D02*
X153323089Y-95715298D01*
X153323089Y-95715298D02*
X153489756Y-95715298D01*
X153489756Y-95715298D02*
X153556422Y-95748631D01*
X153556422Y-95748631D02*
X153589756Y-95781965D01*
X153589756Y-95781965D02*
X153623089Y-95848631D01*
X153623089Y-95848631D02*
X153623089Y-95915298D01*
X153623089Y-95915298D02*
X153589756Y-96015298D01*
X153589756Y-96015298D02*
X153189756Y-96415298D01*
X153189756Y-96415298D02*
X153623089Y-96415298D01*
X149239122Y-71282598D02*
X149805789Y-71282598D01*
X149805789Y-71282598D02*
X149872455Y-71249265D01*
X149872455Y-71249265D02*
X149905789Y-71215931D01*
X149905789Y-71215931D02*
X149939122Y-71149265D01*
X149939122Y-71149265D02*
X149939122Y-71015931D01*
X149939122Y-71015931D02*
X149905789Y-70949265D01*
X149905789Y-70949265D02*
X149872455Y-70915931D01*
X149872455Y-70915931D02*
X149805789Y-70882598D01*
X149805789Y-70882598D02*
X149239122Y-70882598D01*
X149239122Y-70215932D02*
X149239122Y-70549265D01*
X149239122Y-70549265D02*
X149572455Y-70582598D01*
X149572455Y-70582598D02*
X149539122Y-70549265D01*
X149539122Y-70549265D02*
X149505789Y-70482598D01*
X149505789Y-70482598D02*
X149505789Y-70315932D01*
X149505789Y-70315932D02*
X149539122Y-70249265D01*
X149539122Y-70249265D02*
X149572455Y-70215932D01*
X149572455Y-70215932D02*
X149639122Y-70182598D01*
X149639122Y-70182598D02*
X149805789Y-70182598D01*
X149805789Y-70182598D02*
X149872455Y-70215932D01*
X149872455Y-70215932D02*
X149905789Y-70249265D01*
X149905789Y-70249265D02*
X149939122Y-70315932D01*
X149939122Y-70315932D02*
X149939122Y-70482598D01*
X149939122Y-70482598D02*
X149905789Y-70549265D01*
X149905789Y-70549265D02*
X149872455Y-70582598D01*
X127973088Y-89198631D02*
X127939755Y-89231965D01*
X127939755Y-89231965D02*
X127839755Y-89265298D01*
X127839755Y-89265298D02*
X127773088Y-89265298D01*
X127773088Y-89265298D02*
X127673088Y-89231965D01*
X127673088Y-89231965D02*
X127606422Y-89165298D01*
X127606422Y-89165298D02*
X127573088Y-89098631D01*
X127573088Y-89098631D02*
X127539755Y-88965298D01*
X127539755Y-88965298D02*
X127539755Y-88865298D01*
X127539755Y-88865298D02*
X127573088Y-88731965D01*
X127573088Y-88731965D02*
X127606422Y-88665298D01*
X127606422Y-88665298D02*
X127673088Y-88598631D01*
X127673088Y-88598631D02*
X127773088Y-88565298D01*
X127773088Y-88565298D02*
X127839755Y-88565298D01*
X127839755Y-88565298D02*
X127939755Y-88598631D01*
X127939755Y-88598631D02*
X127973088Y-88631965D01*
X128639755Y-89265298D02*
X128239755Y-89265298D01*
X128439755Y-89265298D02*
X128439755Y-88565298D01*
X128439755Y-88565298D02*
X128373088Y-88665298D01*
X128373088Y-88665298D02*
X128306422Y-88731965D01*
X128306422Y-88731965D02*
X128239755Y-88765298D01*
X129273089Y-88565298D02*
X128939755Y-88565298D01*
X128939755Y-88565298D02*
X128906422Y-88898631D01*
X128906422Y-88898631D02*
X128939755Y-88865298D01*
X128939755Y-88865298D02*
X129006422Y-88831965D01*
X129006422Y-88831965D02*
X129173089Y-88831965D01*
X129173089Y-88831965D02*
X129239755Y-88865298D01*
X129239755Y-88865298D02*
X129273089Y-88898631D01*
X129273089Y-88898631D02*
X129306422Y-88965298D01*
X129306422Y-88965298D02*
X129306422Y-89131965D01*
X129306422Y-89131965D02*
X129273089Y-89198631D01*
X129273089Y-89198631D02*
X129239755Y-89231965D01*
X129239755Y-89231965D02*
X129173089Y-89265298D01*
X129173089Y-89265298D02*
X129006422Y-89265298D01*
X129006422Y-89265298D02*
X128939755Y-89231965D01*
X128939755Y-89231965D02*
X128906422Y-89198631D01*
X125547455Y-102466765D02*
X125580789Y-102500098D01*
X125580789Y-102500098D02*
X125614122Y-102600098D01*
X125614122Y-102600098D02*
X125614122Y-102666765D01*
X125614122Y-102666765D02*
X125580789Y-102766765D01*
X125580789Y-102766765D02*
X125514122Y-102833432D01*
X125514122Y-102833432D02*
X125447455Y-102866765D01*
X125447455Y-102866765D02*
X125314122Y-102900098D01*
X125314122Y-102900098D02*
X125214122Y-102900098D01*
X125214122Y-102900098D02*
X125080789Y-102866765D01*
X125080789Y-102866765D02*
X125014122Y-102833432D01*
X125014122Y-102833432D02*
X124947455Y-102766765D01*
X124947455Y-102766765D02*
X124914122Y-102666765D01*
X124914122Y-102666765D02*
X124914122Y-102600098D01*
X124914122Y-102600098D02*
X124947455Y-102500098D01*
X124947455Y-102500098D02*
X124980789Y-102466765D01*
X125614122Y-101800098D02*
X125614122Y-102200098D01*
X125614122Y-102000098D02*
X124914122Y-102000098D01*
X124914122Y-102000098D02*
X125014122Y-102066765D01*
X125014122Y-102066765D02*
X125080789Y-102133432D01*
X125080789Y-102133432D02*
X125114122Y-102200098D01*
X125614122Y-101466765D02*
X125614122Y-101333431D01*
X125614122Y-101333431D02*
X125580789Y-101266765D01*
X125580789Y-101266765D02*
X125547455Y-101233431D01*
X125547455Y-101233431D02*
X125447455Y-101166765D01*
X125447455Y-101166765D02*
X125314122Y-101133431D01*
X125314122Y-101133431D02*
X125047455Y-101133431D01*
X125047455Y-101133431D02*
X124980789Y-101166765D01*
X124980789Y-101166765D02*
X124947455Y-101200098D01*
X124947455Y-101200098D02*
X124914122Y-101266765D01*
X124914122Y-101266765D02*
X124914122Y-101400098D01*
X124914122Y-101400098D02*
X124947455Y-101466765D01*
X124947455Y-101466765D02*
X124980789Y-101500098D01*
X124980789Y-101500098D02*
X125047455Y-101533431D01*
X125047455Y-101533431D02*
X125214122Y-101533431D01*
X125214122Y-101533431D02*
X125280789Y-101500098D01*
X125280789Y-101500098D02*
X125314122Y-101466765D01*
X125314122Y-101466765D02*
X125347455Y-101400098D01*
X125347455Y-101400098D02*
X125347455Y-101266765D01*
X125347455Y-101266765D02*
X125314122Y-101200098D01*
X125314122Y-101200098D02*
X125280789Y-101166765D01*
X125280789Y-101166765D02*
X125214122Y-101133431D01*
X127173088Y-99898631D02*
X127139755Y-99931965D01*
X127139755Y-99931965D02*
X127039755Y-99965298D01*
X127039755Y-99965298D02*
X126973088Y-99965298D01*
X126973088Y-99965298D02*
X126873088Y-99931965D01*
X126873088Y-99931965D02*
X126806422Y-99865298D01*
X126806422Y-99865298D02*
X126773088Y-99798631D01*
X126773088Y-99798631D02*
X126739755Y-99665298D01*
X126739755Y-99665298D02*
X126739755Y-99565298D01*
X126739755Y-99565298D02*
X126773088Y-99431965D01*
X126773088Y-99431965D02*
X126806422Y-99365298D01*
X126806422Y-99365298D02*
X126873088Y-99298631D01*
X126873088Y-99298631D02*
X126973088Y-99265298D01*
X126973088Y-99265298D02*
X127039755Y-99265298D01*
X127039755Y-99265298D02*
X127139755Y-99298631D01*
X127139755Y-99298631D02*
X127173088Y-99331965D01*
X127839755Y-99965298D02*
X127439755Y-99965298D01*
X127639755Y-99965298D02*
X127639755Y-99265298D01*
X127639755Y-99265298D02*
X127573088Y-99365298D01*
X127573088Y-99365298D02*
X127506422Y-99431965D01*
X127506422Y-99431965D02*
X127439755Y-99465298D01*
X128239755Y-99565298D02*
X128173089Y-99531965D01*
X128173089Y-99531965D02*
X128139755Y-99498631D01*
X128139755Y-99498631D02*
X128106422Y-99431965D01*
X128106422Y-99431965D02*
X128106422Y-99398631D01*
X128106422Y-99398631D02*
X128139755Y-99331965D01*
X128139755Y-99331965D02*
X128173089Y-99298631D01*
X128173089Y-99298631D02*
X128239755Y-99265298D01*
X128239755Y-99265298D02*
X128373089Y-99265298D01*
X128373089Y-99265298D02*
X128439755Y-99298631D01*
X128439755Y-99298631D02*
X128473089Y-99331965D01*
X128473089Y-99331965D02*
X128506422Y-99398631D01*
X128506422Y-99398631D02*
X128506422Y-99431965D01*
X128506422Y-99431965D02*
X128473089Y-99498631D01*
X128473089Y-99498631D02*
X128439755Y-99531965D01*
X128439755Y-99531965D02*
X128373089Y-99565298D01*
X128373089Y-99565298D02*
X128239755Y-99565298D01*
X128239755Y-99565298D02*
X128173089Y-99598631D01*
X128173089Y-99598631D02*
X128139755Y-99631965D01*
X128139755Y-99631965D02*
X128106422Y-99698631D01*
X128106422Y-99698631D02*
X128106422Y-99831965D01*
X128106422Y-99831965D02*
X128139755Y-99898631D01*
X128139755Y-99898631D02*
X128173089Y-99931965D01*
X128173089Y-99931965D02*
X128239755Y-99965298D01*
X128239755Y-99965298D02*
X128373089Y-99965298D01*
X128373089Y-99965298D02*
X128439755Y-99931965D01*
X128439755Y-99931965D02*
X128473089Y-99898631D01*
X128473089Y-99898631D02*
X128506422Y-99831965D01*
X128506422Y-99831965D02*
X128506422Y-99698631D01*
X128506422Y-99698631D02*
X128473089Y-99631965D01*
X128473089Y-99631965D02*
X128439755Y-99598631D01*
X128439755Y-99598631D02*
X128373089Y-99565298D01*
X147723088Y-81648631D02*
X147689755Y-81681965D01*
X147689755Y-81681965D02*
X147589755Y-81715298D01*
X147589755Y-81715298D02*
X147523088Y-81715298D01*
X147523088Y-81715298D02*
X147423088Y-81681965D01*
X147423088Y-81681965D02*
X147356422Y-81615298D01*
X147356422Y-81615298D02*
X147323088Y-81548631D01*
X147323088Y-81548631D02*
X147289755Y-81415298D01*
X147289755Y-81415298D02*
X147289755Y-81315298D01*
X147289755Y-81315298D02*
X147323088Y-81181965D01*
X147323088Y-81181965D02*
X147356422Y-81115298D01*
X147356422Y-81115298D02*
X147423088Y-81048631D01*
X147423088Y-81048631D02*
X147523088Y-81015298D01*
X147523088Y-81015298D02*
X147589755Y-81015298D01*
X147589755Y-81015298D02*
X147689755Y-81048631D01*
X147689755Y-81048631D02*
X147723088Y-81081965D01*
X147989755Y-81081965D02*
X148023088Y-81048631D01*
X148023088Y-81048631D02*
X148089755Y-81015298D01*
X148089755Y-81015298D02*
X148256422Y-81015298D01*
X148256422Y-81015298D02*
X148323088Y-81048631D01*
X148323088Y-81048631D02*
X148356422Y-81081965D01*
X148356422Y-81081965D02*
X148389755Y-81148631D01*
X148389755Y-81148631D02*
X148389755Y-81215298D01*
X148389755Y-81215298D02*
X148356422Y-81315298D01*
X148356422Y-81315298D02*
X147956422Y-81715298D01*
X147956422Y-81715298D02*
X148389755Y-81715298D01*
X149056422Y-81715298D02*
X148656422Y-81715298D01*
X148856422Y-81715298D02*
X148856422Y-81015298D01*
X148856422Y-81015298D02*
X148789755Y-81115298D01*
X148789755Y-81115298D02*
X148723089Y-81181965D01*
X148723089Y-81181965D02*
X148656422Y-81215298D01*
X125606422Y-73865298D02*
X125373089Y-73531965D01*
X125206422Y-73865298D02*
X125206422Y-73165298D01*
X125206422Y-73165298D02*
X125473089Y-73165298D01*
X125473089Y-73165298D02*
X125539756Y-73198631D01*
X125539756Y-73198631D02*
X125573089Y-73231965D01*
X125573089Y-73231965D02*
X125606422Y-73298631D01*
X125606422Y-73298631D02*
X125606422Y-73398631D01*
X125606422Y-73398631D02*
X125573089Y-73465298D01*
X125573089Y-73465298D02*
X125539756Y-73498631D01*
X125539756Y-73498631D02*
X125473089Y-73531965D01*
X125473089Y-73531965D02*
X125206422Y-73531965D01*
X125939756Y-73865298D02*
X126073089Y-73865298D01*
X126073089Y-73865298D02*
X126139756Y-73831965D01*
X126139756Y-73831965D02*
X126173089Y-73798631D01*
X126173089Y-73798631D02*
X126239756Y-73698631D01*
X126239756Y-73698631D02*
X126273089Y-73565298D01*
X126273089Y-73565298D02*
X126273089Y-73298631D01*
X126273089Y-73298631D02*
X126239756Y-73231965D01*
X126239756Y-73231965D02*
X126206422Y-73198631D01*
X126206422Y-73198631D02*
X126139756Y-73165298D01*
X126139756Y-73165298D02*
X126006422Y-73165298D01*
X126006422Y-73165298D02*
X125939756Y-73198631D01*
X125939756Y-73198631D02*
X125906422Y-73231965D01*
X125906422Y-73231965D02*
X125873089Y-73298631D01*
X125873089Y-73298631D02*
X125873089Y-73465298D01*
X125873089Y-73465298D02*
X125906422Y-73531965D01*
X125906422Y-73531965D02*
X125939756Y-73565298D01*
X125939756Y-73565298D02*
X126006422Y-73598631D01*
X126006422Y-73598631D02*
X126139756Y-73598631D01*
X126139756Y-73598631D02*
X126206422Y-73565298D01*
X126206422Y-73565298D02*
X126239756Y-73531965D01*
X126239756Y-73531965D02*
X126273089Y-73465298D01*
X135989122Y-99732598D02*
X136555789Y-99732598D01*
X136555789Y-99732598D02*
X136622455Y-99699265D01*
X136622455Y-99699265D02*
X136655789Y-99665931D01*
X136655789Y-99665931D02*
X136689122Y-99599265D01*
X136689122Y-99599265D02*
X136689122Y-99465931D01*
X136689122Y-99465931D02*
X136655789Y-99399265D01*
X136655789Y-99399265D02*
X136622455Y-99365931D01*
X136622455Y-99365931D02*
X136555789Y-99332598D01*
X136555789Y-99332598D02*
X135989122Y-99332598D01*
X136689122Y-98632598D02*
X136689122Y-99032598D01*
X136689122Y-98832598D02*
X135989122Y-98832598D01*
X135989122Y-98832598D02*
X136089122Y-98899265D01*
X136089122Y-98899265D02*
X136155789Y-98965932D01*
X136155789Y-98965932D02*
X136189122Y-99032598D01*
X137389122Y-70365931D02*
X137055789Y-70599264D01*
X137389122Y-70765931D02*
X136689122Y-70765931D01*
X136689122Y-70765931D02*
X136689122Y-70499264D01*
X136689122Y-70499264D02*
X136722455Y-70432598D01*
X136722455Y-70432598D02*
X136755789Y-70399264D01*
X136755789Y-70399264D02*
X136822455Y-70365931D01*
X136822455Y-70365931D02*
X136922455Y-70365931D01*
X136922455Y-70365931D02*
X136989122Y-70399264D01*
X136989122Y-70399264D02*
X137022455Y-70432598D01*
X137022455Y-70432598D02*
X137055789Y-70499264D01*
X137055789Y-70499264D02*
X137055789Y-70765931D01*
X136989122Y-69965931D02*
X136955789Y-70032598D01*
X136955789Y-70032598D02*
X136922455Y-70065931D01*
X136922455Y-70065931D02*
X136855789Y-70099264D01*
X136855789Y-70099264D02*
X136822455Y-70099264D01*
X136822455Y-70099264D02*
X136755789Y-70065931D01*
X136755789Y-70065931D02*
X136722455Y-70032598D01*
X136722455Y-70032598D02*
X136689122Y-69965931D01*
X136689122Y-69965931D02*
X136689122Y-69832598D01*
X136689122Y-69832598D02*
X136722455Y-69765931D01*
X136722455Y-69765931D02*
X136755789Y-69732598D01*
X136755789Y-69732598D02*
X136822455Y-69699264D01*
X136822455Y-69699264D02*
X136855789Y-69699264D01*
X136855789Y-69699264D02*
X136922455Y-69732598D01*
X136922455Y-69732598D02*
X136955789Y-69765931D01*
X136955789Y-69765931D02*
X136989122Y-69832598D01*
X136989122Y-69832598D02*
X136989122Y-69965931D01*
X136989122Y-69965931D02*
X137022455Y-70032598D01*
X137022455Y-70032598D02*
X137055789Y-70065931D01*
X137055789Y-70065931D02*
X137122455Y-70099264D01*
X137122455Y-70099264D02*
X137255789Y-70099264D01*
X137255789Y-70099264D02*
X137322455Y-70065931D01*
X137322455Y-70065931D02*
X137355789Y-70032598D01*
X137355789Y-70032598D02*
X137389122Y-69965931D01*
X137389122Y-69965931D02*
X137389122Y-69832598D01*
X137389122Y-69832598D02*
X137355789Y-69765931D01*
X137355789Y-69765931D02*
X137322455Y-69732598D01*
X137322455Y-69732598D02*
X137255789Y-69699264D01*
X137255789Y-69699264D02*
X137122455Y-69699264D01*
X137122455Y-69699264D02*
X137055789Y-69732598D01*
X137055789Y-69732598D02*
X137022455Y-69765931D01*
X137022455Y-69765931D02*
X136989122Y-69832598D01*
X159389122Y-70415931D02*
X159055789Y-70649264D01*
X159389122Y-70815931D02*
X158689122Y-70815931D01*
X158689122Y-70815931D02*
X158689122Y-70549264D01*
X158689122Y-70549264D02*
X158722455Y-70482598D01*
X158722455Y-70482598D02*
X158755789Y-70449264D01*
X158755789Y-70449264D02*
X158822455Y-70415931D01*
X158822455Y-70415931D02*
X158922455Y-70415931D01*
X158922455Y-70415931D02*
X158989122Y-70449264D01*
X158989122Y-70449264D02*
X159022455Y-70482598D01*
X159022455Y-70482598D02*
X159055789Y-70549264D01*
X159055789Y-70549264D02*
X159055789Y-70815931D01*
X158689122Y-69815931D02*
X158689122Y-69949264D01*
X158689122Y-69949264D02*
X158722455Y-70015931D01*
X158722455Y-70015931D02*
X158755789Y-70049264D01*
X158755789Y-70049264D02*
X158855789Y-70115931D01*
X158855789Y-70115931D02*
X158989122Y-70149264D01*
X158989122Y-70149264D02*
X159255789Y-70149264D01*
X159255789Y-70149264D02*
X159322455Y-70115931D01*
X159322455Y-70115931D02*
X159355789Y-70082598D01*
X159355789Y-70082598D02*
X159389122Y-70015931D01*
X159389122Y-70015931D02*
X159389122Y-69882598D01*
X159389122Y-69882598D02*
X159355789Y-69815931D01*
X159355789Y-69815931D02*
X159322455Y-69782598D01*
X159322455Y-69782598D02*
X159255789Y-69749264D01*
X159255789Y-69749264D02*
X159089122Y-69749264D01*
X159089122Y-69749264D02*
X159022455Y-69782598D01*
X159022455Y-69782598D02*
X158989122Y-69815931D01*
X158989122Y-69815931D02*
X158955789Y-69882598D01*
X158955789Y-69882598D02*
X158955789Y-70015931D01*
X158955789Y-70015931D02*
X158989122Y-70082598D01*
X158989122Y-70082598D02*
X159022455Y-70115931D01*
X159022455Y-70115931D02*
X159089122Y-70149264D01*
G36*
X166050828Y-90140369D02*
G01*
X166092238Y-90153137D01*
X166128585Y-90174150D01*
X166157250Y-90201949D01*
X166178797Y-90235941D01*
X166193581Y-90276535D01*
X166201776Y-90320268D01*
X166204565Y-90366892D01*
X166202642Y-90449129D01*
X166362157Y-90449129D01*
X166407336Y-90446051D01*
X166423049Y-90441862D01*
X166434007Y-90436477D01*
X166442717Y-90428938D01*
X166449352Y-90419038D01*
X166460166Y-90384588D01*
X166483589Y-90384588D01*
X166483589Y-90594496D01*
X166460123Y-90594496D01*
X166451150Y-90567719D01*
X166443154Y-90554831D01*
X166432240Y-90546725D01*
X166416568Y-90541666D01*
X166363867Y-90538546D01*
X165949521Y-90538546D01*
X165901393Y-90540940D01*
X165887335Y-90544336D01*
X165877927Y-90548847D01*
X165864549Y-90563465D01*
X165853265Y-90594496D01*
X165829799Y-90594496D01*
X165829799Y-90377877D01*
X165872200Y-90377877D01*
X165874123Y-90449129D01*
X166162165Y-90449129D01*
X166162165Y-90393692D01*
X166158323Y-90342272D01*
X166148145Y-90304488D01*
X166136637Y-90282792D01*
X166121202Y-90265021D01*
X166101471Y-90250718D01*
X166078943Y-90240844D01*
X166050582Y-90234394D01*
X166015045Y-90232040D01*
X165976037Y-90235038D01*
X165946743Y-90243067D01*
X165921632Y-90256420D01*
X165902675Y-90273415D01*
X165888568Y-90294410D01*
X165879124Y-90319576D01*
X165873989Y-90347048D01*
X165872200Y-90377877D01*
X165829799Y-90377877D01*
X165829799Y-90357318D01*
X165833046Y-90300003D01*
X165841894Y-90254483D01*
X165855284Y-90218634D01*
X165872584Y-90190665D01*
X165895898Y-90167379D01*
X165924543Y-90150456D01*
X165959644Y-90139750D01*
X166002821Y-90135912D01*
X166050828Y-90140369D01*
G37*
G36*
X166222677Y-89517567D02*
G01*
X166285241Y-89529067D01*
X166337794Y-89546963D01*
X166386228Y-89573169D01*
X166424285Y-89604590D01*
X166453412Y-89641381D01*
X166474441Y-89683499D01*
X166487332Y-89730548D01*
X166491795Y-89783628D01*
X166486917Y-89839248D01*
X166472860Y-89888134D01*
X166457916Y-89917968D01*
X166438348Y-89944809D01*
X166413833Y-89968960D01*
X166385760Y-89989048D01*
X166351917Y-90006483D01*
X166311422Y-90021063D01*
X166269462Y-90030884D01*
X166220085Y-90037221D01*
X166162208Y-90039485D01*
X166091397Y-90035545D01*
X166030626Y-90024430D01*
X165978458Y-90006958D01*
X165930226Y-89981428D01*
X165891723Y-89950478D01*
X165861642Y-89913950D01*
X165839623Y-89872049D01*
X165826215Y-89825622D01*
X165821893Y-89776960D01*
X165863993Y-89776960D01*
X165866362Y-89805057D01*
X165873147Y-89829468D01*
X165884125Y-89850862D01*
X165908018Y-89878611D01*
X165941443Y-89902025D01*
X165981128Y-89919130D01*
X166031330Y-89931645D01*
X166085608Y-89938517D01*
X166148787Y-89940963D01*
X166224871Y-89937686D01*
X166285976Y-89928748D01*
X166334538Y-89915295D01*
X166372714Y-89898178D01*
X166407176Y-89873456D01*
X166430571Y-89844929D01*
X166444553Y-89811952D01*
X166449395Y-89773114D01*
X166445586Y-89739676D01*
X166434531Y-89710531D01*
X166416098Y-89684679D01*
X166391855Y-89663447D01*
X166359877Y-89645167D01*
X166318517Y-89630140D01*
X166275331Y-89620398D01*
X166225595Y-89614176D01*
X166168448Y-89611974D01*
X166098617Y-89614666D01*
X166041474Y-89622059D01*
X165995127Y-89633260D01*
X165950709Y-89650482D01*
X165918181Y-89669974D01*
X165895153Y-89691390D01*
X165877805Y-89717325D01*
X165867500Y-89745585D01*
X165863993Y-89776960D01*
X165821893Y-89776960D01*
X165821593Y-89773584D01*
X165826101Y-89717929D01*
X165838864Y-89670706D01*
X165859249Y-89630396D01*
X165887698Y-89595427D01*
X165924214Y-89566314D01*
X165970080Y-89542860D01*
X166019730Y-89527158D01*
X166078617Y-89517062D01*
X166148316Y-89513453D01*
X166222677Y-89517567D01*
G37*
G36*
X165951744Y-89011100D02*
G01*
X166483589Y-89164118D01*
X166483589Y-89241568D01*
X165966447Y-89380695D01*
X165913489Y-89396509D01*
X165881218Y-89410828D01*
X165863523Y-89426386D01*
X165853222Y-89450536D01*
X165829799Y-89450536D01*
X165829799Y-89245885D01*
X165854291Y-89245885D01*
X165862007Y-89272709D01*
X165871131Y-89287217D01*
X165884155Y-89295833D01*
X165902504Y-89298928D01*
X165941998Y-89294654D01*
X165993888Y-89282686D01*
X166369808Y-89186558D01*
X165829799Y-89032600D01*
X165829799Y-88952244D01*
X166370278Y-88827479D01*
X166007223Y-88714596D01*
X165945378Y-88698074D01*
X165913019Y-88694036D01*
X165887008Y-88697506D01*
X165871687Y-88706261D01*
X165861561Y-88721162D01*
X165854291Y-88746652D01*
X165829799Y-88746652D01*
X165829799Y-88558244D01*
X165854291Y-88558244D01*
X165864891Y-88581196D01*
X165880962Y-88597695D01*
X165912335Y-88614920D01*
X165969781Y-88636676D01*
X166483589Y-88810723D01*
X166483589Y-88879111D01*
X165951744Y-89011100D01*
G37*
G36*
X165829799Y-88053369D02*
G01*
X165974782Y-88053369D01*
X165974782Y-88100215D01*
X165933578Y-88115047D01*
X165903872Y-88130861D01*
X165884681Y-88148770D01*
X165878682Y-88159300D01*
X165874850Y-88171980D01*
X165872200Y-88203994D01*
X165872200Y-88355088D01*
X166122500Y-88355088D01*
X166122500Y-88252763D01*
X166120830Y-88233022D01*
X166116559Y-88219808D01*
X166108749Y-88209110D01*
X166096256Y-88199933D01*
X166079735Y-88192852D01*
X166051376Y-88184888D01*
X166051376Y-88139923D01*
X166236024Y-88139923D01*
X166236024Y-88184888D01*
X166208964Y-88192483D01*
X166192256Y-88199719D01*
X166179231Y-88208957D01*
X166171184Y-88219082D01*
X166166715Y-88231860D01*
X166164900Y-88252763D01*
X166164900Y-88355088D01*
X166441188Y-88355088D01*
X166441188Y-88206387D01*
X166440040Y-88184087D01*
X166437085Y-88168389D01*
X166431486Y-88154721D01*
X166423065Y-88143257D01*
X166411993Y-88133594D01*
X166397206Y-88124621D01*
X166364038Y-88110986D01*
X166313986Y-88095941D01*
X166313986Y-88048582D01*
X166483589Y-88057686D01*
X166483589Y-88500456D01*
X166460123Y-88500456D01*
X166451150Y-88473679D01*
X166443154Y-88460791D01*
X166432240Y-88452684D01*
X166416568Y-88447626D01*
X166363867Y-88444506D01*
X165949521Y-88444506D01*
X165901393Y-88446899D01*
X165887335Y-88450295D01*
X165877927Y-88454807D01*
X165864549Y-88469425D01*
X165853265Y-88500456D01*
X165829799Y-88500456D01*
X165829799Y-88053369D01*
G37*
G36*
X166483589Y-87519002D02*
G01*
X166428921Y-87553453D01*
X166369423Y-87585467D01*
X166289281Y-87627568D01*
X166235554Y-87658899D01*
X166220022Y-87671398D01*
X166211319Y-87681381D01*
X166201744Y-87703351D01*
X166199094Y-87738485D01*
X166199094Y-87791101D01*
X166362200Y-87791101D01*
X166412337Y-87788494D01*
X166426804Y-87784921D01*
X166435845Y-87780587D01*
X166448796Y-87766268D01*
X166460080Y-87735151D01*
X166483589Y-87735151D01*
X166483589Y-87936939D01*
X166460166Y-87936939D01*
X166451192Y-87910162D01*
X166443197Y-87897274D01*
X166432283Y-87889167D01*
X166416611Y-87884109D01*
X166363867Y-87880989D01*
X165949564Y-87880989D01*
X165901393Y-87883382D01*
X165887335Y-87886778D01*
X165877927Y-87891290D01*
X165864549Y-87905908D01*
X165853265Y-87936939D01*
X165829799Y-87936939D01*
X165829799Y-87721303D01*
X165872200Y-87721303D01*
X165874123Y-87791101D01*
X166156694Y-87791101D01*
X166156694Y-87737075D01*
X166155028Y-87697453D01*
X166150753Y-87669670D01*
X166142192Y-87644893D01*
X166128185Y-87621841D01*
X166108719Y-87602411D01*
X166081766Y-87586707D01*
X166049974Y-87577081D01*
X166008719Y-87573542D01*
X165965940Y-87577729D01*
X165933578Y-87589100D01*
X165907311Y-87608503D01*
X165887929Y-87636202D01*
X165876578Y-87670918D01*
X165872200Y-87721303D01*
X165829799Y-87721303D01*
X165829799Y-87700231D01*
X165832888Y-87642814D01*
X165841307Y-87597113D01*
X165854028Y-87561061D01*
X165870405Y-87532894D01*
X165892737Y-87509236D01*
X165920361Y-87492113D01*
X165954394Y-87481296D01*
X165996495Y-87477414D01*
X166038834Y-87481616D01*
X166075532Y-87493708D01*
X166107754Y-87513531D01*
X166134952Y-87540205D01*
X166158893Y-87575715D01*
X166179390Y-87621841D01*
X166183322Y-87621841D01*
X166198032Y-87594651D01*
X166217773Y-87571875D01*
X166243825Y-87551603D01*
X166287272Y-87525713D01*
X166366218Y-87482671D01*
X166419047Y-87450657D01*
X166435595Y-87436605D01*
X166446787Y-87423387D01*
X166454637Y-87407996D01*
X166460166Y-87386543D01*
X166483589Y-87386543D01*
X166483589Y-87519002D01*
G37*
X109939755Y-86664084D02*
X109939755Y-87378369D01*
X109939755Y-87378369D02*
X109892136Y-87521226D01*
X109892136Y-87521226D02*
X109796898Y-87616465D01*
X109796898Y-87616465D02*
X109654041Y-87664084D01*
X109654041Y-87664084D02*
X109558803Y-87664084D01*
X110320708Y-86664084D02*
X110987374Y-86664084D01*
X110987374Y-86664084D02*
X110558803Y-87664084D01*
X134617765Y-79805931D02*
X134617765Y-80110693D01*
X134617765Y-80110693D02*
X133977765Y-80110693D01*
X133977765Y-79287836D02*
X133977765Y-79592598D01*
X133977765Y-79592598D02*
X134282527Y-79623074D01*
X134282527Y-79623074D02*
X134252050Y-79592598D01*
X134252050Y-79592598D02*
X134221574Y-79531645D01*
X134221574Y-79531645D02*
X134221574Y-79379264D01*
X134221574Y-79379264D02*
X134252050Y-79318312D01*
X134252050Y-79318312D02*
X134282527Y-79287836D01*
X134282527Y-79287836D02*
X134343479Y-79257359D01*
X134343479Y-79257359D02*
X134495860Y-79257359D01*
X134495860Y-79257359D02*
X134556812Y-79287836D01*
X134556812Y-79287836D02*
X134587289Y-79318312D01*
X134587289Y-79318312D02*
X134617765Y-79379264D01*
X134617765Y-79379264D02*
X134617765Y-79531645D01*
X134617765Y-79531645D02*
X134587289Y-79592598D01*
X134587289Y-79592598D02*
X134556812Y-79623074D01*
X130589122Y-109232598D02*
X131155789Y-109232598D01*
X131155789Y-109232598D02*
X131222455Y-109199265D01*
X131222455Y-109199265D02*
X131255789Y-109165931D01*
X131255789Y-109165931D02*
X131289122Y-109099265D01*
X131289122Y-109099265D02*
X131289122Y-108965931D01*
X131289122Y-108965931D02*
X131255789Y-108899265D01*
X131255789Y-108899265D02*
X131222455Y-108865931D01*
X131222455Y-108865931D02*
X131155789Y-108832598D01*
X131155789Y-108832598D02*
X130589122Y-108832598D01*
X130822455Y-108199265D02*
X131289122Y-108199265D01*
X130555789Y-108365932D02*
X131055789Y-108532598D01*
X131055789Y-108532598D02*
X131055789Y-108099265D01*
X131673088Y-89048631D02*
X131639755Y-89081965D01*
X131639755Y-89081965D02*
X131539755Y-89115298D01*
X131539755Y-89115298D02*
X131473088Y-89115298D01*
X131473088Y-89115298D02*
X131373088Y-89081965D01*
X131373088Y-89081965D02*
X131306422Y-89015298D01*
X131306422Y-89015298D02*
X131273088Y-88948631D01*
X131273088Y-88948631D02*
X131239755Y-88815298D01*
X131239755Y-88815298D02*
X131239755Y-88715298D01*
X131239755Y-88715298D02*
X131273088Y-88581965D01*
X131273088Y-88581965D02*
X131306422Y-88515298D01*
X131306422Y-88515298D02*
X131373088Y-88448631D01*
X131373088Y-88448631D02*
X131473088Y-88415298D01*
X131473088Y-88415298D02*
X131539755Y-88415298D01*
X131539755Y-88415298D02*
X131639755Y-88448631D01*
X131639755Y-88448631D02*
X131673088Y-88481965D01*
X132339755Y-89115298D02*
X131939755Y-89115298D01*
X132139755Y-89115298D02*
X132139755Y-88415298D01*
X132139755Y-88415298D02*
X132073088Y-88515298D01*
X132073088Y-88515298D02*
X132006422Y-88581965D01*
X132006422Y-88581965D02*
X131939755Y-88615298D01*
X132939755Y-88415298D02*
X132806422Y-88415298D01*
X132806422Y-88415298D02*
X132739755Y-88448631D01*
X132739755Y-88448631D02*
X132706422Y-88481965D01*
X132706422Y-88481965D02*
X132639755Y-88581965D01*
X132639755Y-88581965D02*
X132606422Y-88715298D01*
X132606422Y-88715298D02*
X132606422Y-88981965D01*
X132606422Y-88981965D02*
X132639755Y-89048631D01*
X132639755Y-89048631D02*
X132673089Y-89081965D01*
X132673089Y-89081965D02*
X132739755Y-89115298D01*
X132739755Y-89115298D02*
X132873089Y-89115298D01*
X132873089Y-89115298D02*
X132939755Y-89081965D01*
X132939755Y-89081965D02*
X132973089Y-89048631D01*
X132973089Y-89048631D02*
X133006422Y-88981965D01*
X133006422Y-88981965D02*
X133006422Y-88815298D01*
X133006422Y-88815298D02*
X132973089Y-88748631D01*
X132973089Y-88748631D02*
X132939755Y-88715298D01*
X132939755Y-88715298D02*
X132873089Y-88681965D01*
X132873089Y-88681965D02*
X132739755Y-88681965D01*
X132739755Y-88681965D02*
X132673089Y-88715298D01*
X132673089Y-88715298D02*
X132639755Y-88748631D01*
X132639755Y-88748631D02*
X132606422Y-88815298D01*
X152906422Y-95348631D02*
X152873089Y-95381965D01*
X152873089Y-95381965D02*
X152773089Y-95415298D01*
X152773089Y-95415298D02*
X152706422Y-95415298D01*
X152706422Y-95415298D02*
X152606422Y-95381965D01*
X152606422Y-95381965D02*
X152539756Y-95315298D01*
X152539756Y-95315298D02*
X152506422Y-95248631D01*
X152506422Y-95248631D02*
X152473089Y-95115298D01*
X152473089Y-95115298D02*
X152473089Y-95015298D01*
X152473089Y-95015298D02*
X152506422Y-94881965D01*
X152506422Y-94881965D02*
X152539756Y-94815298D01*
X152539756Y-94815298D02*
X152606422Y-94748631D01*
X152606422Y-94748631D02*
X152706422Y-94715298D01*
X152706422Y-94715298D02*
X152773089Y-94715298D01*
X152773089Y-94715298D02*
X152873089Y-94748631D01*
X152873089Y-94748631D02*
X152906422Y-94781965D01*
X153506422Y-94948631D02*
X153506422Y-95415298D01*
X153339756Y-94681965D02*
X153173089Y-95181965D01*
X153173089Y-95181965D02*
X153606422Y-95181965D01*
X151123088Y-70215298D02*
X150889755Y-69881965D01*
X150723088Y-70215298D02*
X150723088Y-69515298D01*
X150723088Y-69515298D02*
X150989755Y-69515298D01*
X150989755Y-69515298D02*
X151056422Y-69548631D01*
X151056422Y-69548631D02*
X151089755Y-69581965D01*
X151089755Y-69581965D02*
X151123088Y-69648631D01*
X151123088Y-69648631D02*
X151123088Y-69748631D01*
X151123088Y-69748631D02*
X151089755Y-69815298D01*
X151089755Y-69815298D02*
X151056422Y-69848631D01*
X151056422Y-69848631D02*
X150989755Y-69881965D01*
X150989755Y-69881965D02*
X150723088Y-69881965D01*
X151789755Y-70215298D02*
X151389755Y-70215298D01*
X151589755Y-70215298D02*
X151589755Y-69515298D01*
X151589755Y-69515298D02*
X151523088Y-69615298D01*
X151523088Y-69615298D02*
X151456422Y-69681965D01*
X151456422Y-69681965D02*
X151389755Y-69715298D01*
X152123089Y-70215298D02*
X152256422Y-70215298D01*
X152256422Y-70215298D02*
X152323089Y-70181965D01*
X152323089Y-70181965D02*
X152356422Y-70148631D01*
X152356422Y-70148631D02*
X152423089Y-70048631D01*
X152423089Y-70048631D02*
X152456422Y-69915298D01*
X152456422Y-69915298D02*
X152456422Y-69648631D01*
X152456422Y-69648631D02*
X152423089Y-69581965D01*
X152423089Y-69581965D02*
X152389755Y-69548631D01*
X152389755Y-69548631D02*
X152323089Y-69515298D01*
X152323089Y-69515298D02*
X152189755Y-69515298D01*
X152189755Y-69515298D02*
X152123089Y-69548631D01*
X152123089Y-69548631D02*
X152089755Y-69581965D01*
X152089755Y-69581965D02*
X152056422Y-69648631D01*
X152056422Y-69648631D02*
X152056422Y-69815298D01*
X152056422Y-69815298D02*
X152089755Y-69881965D01*
X152089755Y-69881965D02*
X152123089Y-69915298D01*
X152123089Y-69915298D02*
X152189755Y-69948631D01*
X152189755Y-69948631D02*
X152323089Y-69948631D01*
X152323089Y-69948631D02*
X152389755Y-69915298D01*
X152389755Y-69915298D02*
X152423089Y-69881965D01*
X152423089Y-69881965D02*
X152456422Y-69815298D01*
D12*
G36*
X165674104Y-96778318D02*
G01*
X165881222Y-96778318D01*
X165881222Y-96845241D01*
X165822359Y-96866429D01*
X165779922Y-96889021D01*
X165752506Y-96914606D01*
X165743937Y-96929647D01*
X165738462Y-96947762D01*
X165734676Y-96993496D01*
X165734676Y-97209346D01*
X166092248Y-97209346D01*
X166092248Y-97063166D01*
X166089861Y-97034965D01*
X166083760Y-97016089D01*
X166072603Y-97000805D01*
X166054756Y-96987695D01*
X166031154Y-96977579D01*
X165990643Y-96966202D01*
X165990643Y-96901966D01*
X166254425Y-96901966D01*
X166254425Y-96966202D01*
X166215768Y-96977052D01*
X166191899Y-96987390D01*
X166173291Y-97000587D01*
X166161796Y-97015051D01*
X166155411Y-97033305D01*
X166152820Y-97063166D01*
X166152820Y-97209346D01*
X166547516Y-97209346D01*
X166547516Y-96996916D01*
X166545877Y-96965059D01*
X166541654Y-96942633D01*
X166533656Y-96923107D01*
X166521627Y-96906729D01*
X166505809Y-96892926D01*
X166484685Y-96880106D01*
X166437302Y-96860628D01*
X166365800Y-96839135D01*
X166365800Y-96771479D01*
X166608089Y-96784485D01*
X166608089Y-97417013D01*
X166574566Y-97417013D01*
X166561747Y-97378760D01*
X166550325Y-97360349D01*
X166534734Y-97348768D01*
X166512345Y-97341542D01*
X166437057Y-97337085D01*
X165845135Y-97337085D01*
X165776381Y-97340504D01*
X165756298Y-97345356D01*
X165742858Y-97351800D01*
X165723746Y-97372683D01*
X165707626Y-97417013D01*
X165674104Y-97417013D01*
X165674104Y-96778318D01*
G37*
G36*
X166397063Y-96549829D02*
G01*
X166452891Y-96532825D01*
X166491401Y-96512948D01*
X166521578Y-96486221D01*
X166542631Y-96452865D01*
X166554688Y-96412880D01*
X166559240Y-96357915D01*
X166554052Y-96306235D01*
X166539804Y-96266253D01*
X166517413Y-96235305D01*
X166486868Y-96212432D01*
X166447071Y-96197875D01*
X166395231Y-96192563D01*
X166346432Y-96197318D01*
X166308830Y-96210332D01*
X166275953Y-96232781D01*
X166242945Y-96268400D01*
X166212194Y-96314705D01*
X166170894Y-96391377D01*
X166129603Y-96466221D01*
X166093225Y-96517772D01*
X166052686Y-96559088D01*
X166010793Y-96587076D01*
X165964540Y-96604177D01*
X165913584Y-96609974D01*
X165863503Y-96605783D01*
X165819498Y-96593724D01*
X165780472Y-96574131D01*
X165746239Y-96547037D01*
X165717220Y-96512344D01*
X165693216Y-96468924D01*
X165676440Y-96421747D01*
X165666008Y-96369084D01*
X165662380Y-96310044D01*
X165667876Y-96208622D01*
X165676078Y-96156267D01*
X165692483Y-96084669D01*
X165877314Y-96084669D01*
X165877314Y-96152263D01*
X165821069Y-96171109D01*
X165783341Y-96191891D01*
X165754261Y-96218478D01*
X165736325Y-96247945D01*
X165726647Y-96282673D01*
X165722952Y-96331232D01*
X165727210Y-96373984D01*
X165739439Y-96410855D01*
X165760055Y-96442338D01*
X165789142Y-96466542D01*
X165824725Y-96481672D01*
X165868277Y-96486998D01*
X165914491Y-96482363D01*
X165950526Y-96469595D01*
X165982079Y-96448004D01*
X166012930Y-96415251D01*
X166041171Y-96373263D01*
X166077349Y-96305953D01*
X166122187Y-96224258D01*
X166158987Y-96170398D01*
X166199857Y-96127061D01*
X166245022Y-96095232D01*
X166296341Y-96075249D01*
X166357862Y-96068243D01*
X166426444Y-96074285D01*
X166479556Y-96090775D01*
X166525009Y-96117950D01*
X166560522Y-96153301D01*
X166587084Y-96196435D01*
X166605768Y-96248922D01*
X166616174Y-96306153D01*
X166619812Y-96370860D01*
X166616208Y-96441939D01*
X166604616Y-96523880D01*
X166583725Y-96618156D01*
X166397063Y-96618156D01*
X166397063Y-96549829D01*
G37*
G36*
X165692972Y-95289231D02*
G01*
X165881222Y-95289231D01*
X165881222Y-95356825D01*
X165826221Y-95376432D01*
X165787555Y-95398529D01*
X165757192Y-95426453D01*
X165737851Y-95457270D01*
X165726922Y-95492853D01*
X165722952Y-95537870D01*
X165728169Y-95583057D01*
X165743628Y-95624474D01*
X165769908Y-95663228D01*
X165804270Y-95695615D01*
X165850443Y-95724534D01*
X165910958Y-95749628D01*
X165974492Y-95766380D01*
X166049795Y-95777201D01*
X166138715Y-95781075D01*
X166228283Y-95777863D01*
X166304059Y-95768910D01*
X166367815Y-95755124D01*
X166429123Y-95733639D01*
X166475948Y-95707963D01*
X166510941Y-95678615D01*
X166537691Y-95642475D01*
X166553715Y-95601510D01*
X166559240Y-95554234D01*
X166554819Y-95501200D01*
X166543120Y-95462704D01*
X166522569Y-95430309D01*
X166492073Y-95402926D01*
X166452327Y-95380848D01*
X166389247Y-95356825D01*
X166389247Y-95289231D01*
X166585496Y-95289231D01*
X166600470Y-95354020D01*
X166611203Y-95420694D01*
X166617560Y-95489626D01*
X166619812Y-95568583D01*
X166614597Y-95637846D01*
X166599793Y-95697244D01*
X166576161Y-95748443D01*
X166543764Y-95792736D01*
X166501965Y-95830961D01*
X166441885Y-95866971D01*
X166365718Y-95894761D01*
X166269936Y-95913055D01*
X166150377Y-95919744D01*
X166053420Y-95914247D01*
X165968288Y-95898575D01*
X165893373Y-95873643D01*
X165824074Y-95837233D01*
X165767731Y-95792143D01*
X165722708Y-95738027D01*
X165689742Y-95675855D01*
X165669449Y-95605223D01*
X165662380Y-95524192D01*
X165668853Y-95409459D01*
X165677688Y-95355247D01*
X165692972Y-95289231D01*
G37*
G36*
X166429425Y-94738829D02*
G01*
X166489386Y-94734372D01*
X166508133Y-94728022D01*
X166522298Y-94718679D01*
X166533224Y-94705486D01*
X166542143Y-94686195D01*
X166553073Y-94632950D01*
X166558202Y-94548198D01*
X166608089Y-94548198D01*
X166608089Y-95053048D01*
X166558019Y-95053048D01*
X166548799Y-94944787D01*
X166540935Y-94914638D01*
X166531274Y-94895267D01*
X166517400Y-94880631D01*
X166498362Y-94870354D01*
X166473739Y-94864849D01*
X166429120Y-94862477D01*
X165873101Y-94862477D01*
X165847879Y-94865239D01*
X165832984Y-94872064D01*
X165823587Y-94883539D01*
X165820283Y-94900030D01*
X165824841Y-94923460D01*
X165842754Y-94962190D01*
X165904669Y-95061902D01*
X165852035Y-95092005D01*
X165662380Y-94772291D01*
X165662380Y-94734738D01*
X165844585Y-94738829D01*
X166429425Y-94738829D01*
G37*
D11*
X135623088Y-91738631D02*
X135589755Y-91771965D01*
X135589755Y-91771965D02*
X135489755Y-91805298D01*
X135489755Y-91805298D02*
X135423088Y-91805298D01*
X135423088Y-91805298D02*
X135323088Y-91771965D01*
X135323088Y-91771965D02*
X135256422Y-91705298D01*
X135256422Y-91705298D02*
X135223088Y-91638631D01*
X135223088Y-91638631D02*
X135189755Y-91505298D01*
X135189755Y-91505298D02*
X135189755Y-91405298D01*
X135189755Y-91405298D02*
X135223088Y-91271965D01*
X135223088Y-91271965D02*
X135256422Y-91205298D01*
X135256422Y-91205298D02*
X135323088Y-91138631D01*
X135323088Y-91138631D02*
X135423088Y-91105298D01*
X135423088Y-91105298D02*
X135489755Y-91105298D01*
X135489755Y-91105298D02*
X135589755Y-91138631D01*
X135589755Y-91138631D02*
X135623088Y-91171965D01*
X136289755Y-91805298D02*
X135889755Y-91805298D01*
X136089755Y-91805298D02*
X136089755Y-91105298D01*
X136089755Y-91105298D02*
X136023088Y-91205298D01*
X136023088Y-91205298D02*
X135956422Y-91271965D01*
X135956422Y-91271965D02*
X135889755Y-91305298D01*
X136889755Y-91338631D02*
X136889755Y-91805298D01*
X136723089Y-91071965D02*
X136556422Y-91571965D01*
X136556422Y-91571965D02*
X136989755Y-91571965D01*
D12*
X139684994Y-110785979D02*
X139684994Y-111024074D01*
X139518328Y-110524074D02*
X139684994Y-110785979D01*
X139684994Y-110785979D02*
X139851661Y-110524074D01*
X140280232Y-111024074D02*
X139994518Y-111024074D01*
X140137375Y-111024074D02*
X140137375Y-110524074D01*
X140137375Y-110524074D02*
X140089756Y-110595503D01*
X140089756Y-110595503D02*
X140042137Y-110643122D01*
X140042137Y-110643122D02*
X139994518Y-110666931D01*
D11*
G36*
X165544104Y-92537577D02*
G01*
X165751222Y-92537577D01*
X165751222Y-92604560D01*
X165675873Y-92633564D01*
X165649407Y-92648671D01*
X165632092Y-92662934D01*
X165619232Y-92679617D01*
X165610843Y-92698838D01*
X165606406Y-92720955D01*
X165604676Y-92752755D01*
X165604676Y-92952912D01*
X165977879Y-92952912D01*
X165977879Y-92812228D01*
X165975154Y-92784075D01*
X165968109Y-92765089D01*
X165955587Y-92749933D01*
X165935381Y-92736757D01*
X165909091Y-92726617D01*
X165864550Y-92715202D01*
X165864550Y-92650967D01*
X166151780Y-92650967D01*
X166151780Y-92715202D01*
X166108446Y-92726633D01*
X166081804Y-92737062D01*
X166060941Y-92750375D01*
X166048343Y-92764723D01*
X166041272Y-92783031D01*
X166038451Y-92812228D01*
X166038451Y-92952912D01*
X166305592Y-92952912D01*
X166371049Y-92948149D01*
X166393814Y-92941511D01*
X166409884Y-92932456D01*
X166422273Y-92919824D01*
X166431377Y-92903086D01*
X166444627Y-92857291D01*
X166478089Y-92857291D01*
X166478089Y-93160579D01*
X166444566Y-93160579D01*
X166431747Y-93122326D01*
X166420325Y-93103915D01*
X166404734Y-93092334D01*
X166382345Y-93085108D01*
X166307057Y-93080651D01*
X165715135Y-93080651D01*
X165646381Y-93084070D01*
X165626298Y-93088922D01*
X165612858Y-93095366D01*
X165593746Y-93116249D01*
X165577626Y-93160579D01*
X165544104Y-93160579D01*
X165544104Y-92537577D01*
G37*
G36*
X165562972Y-91790926D02*
G01*
X165751222Y-91790926D01*
X165751222Y-91858521D01*
X165696221Y-91878128D01*
X165657555Y-91900225D01*
X165627192Y-91928149D01*
X165607851Y-91958966D01*
X165596922Y-91994548D01*
X165592952Y-92039566D01*
X165598169Y-92084753D01*
X165613628Y-92126170D01*
X165639908Y-92164923D01*
X165674270Y-92197311D01*
X165720443Y-92226229D01*
X165780958Y-92251324D01*
X165844492Y-92268076D01*
X165919795Y-92278897D01*
X166008715Y-92282771D01*
X166098283Y-92279558D01*
X166174059Y-92270606D01*
X166237815Y-92256820D01*
X166299123Y-92235334D01*
X166345948Y-92209659D01*
X166380941Y-92180311D01*
X166407691Y-92144171D01*
X166423715Y-92103206D01*
X166429240Y-92055930D01*
X166424819Y-92002896D01*
X166413120Y-91964400D01*
X166392569Y-91932005D01*
X166362073Y-91904622D01*
X166322327Y-91882544D01*
X166259247Y-91858521D01*
X166259247Y-91790926D01*
X166455496Y-91790926D01*
X166470470Y-91855716D01*
X166481203Y-91922390D01*
X166487560Y-91991322D01*
X166489812Y-92070279D01*
X166484597Y-92139542D01*
X166469793Y-92198940D01*
X166446161Y-92250139D01*
X166413764Y-92294432D01*
X166371965Y-92332657D01*
X166311885Y-92368667D01*
X166235718Y-92396457D01*
X166139936Y-92414751D01*
X166020377Y-92421439D01*
X165923420Y-92415943D01*
X165838288Y-92400271D01*
X165763373Y-92375339D01*
X165694074Y-92338929D01*
X165637731Y-92293839D01*
X165592708Y-92239723D01*
X165559742Y-92177551D01*
X165539449Y-92106918D01*
X165532380Y-92025888D01*
X165538853Y-91911155D01*
X165547688Y-91856942D01*
X165562972Y-91790926D01*
G37*
X154123088Y-70315298D02*
X153889755Y-69981965D01*
X153723088Y-70315298D02*
X153723088Y-69615298D01*
X153723088Y-69615298D02*
X153989755Y-69615298D01*
X153989755Y-69615298D02*
X154056422Y-69648631D01*
X154056422Y-69648631D02*
X154089755Y-69681965D01*
X154089755Y-69681965D02*
X154123088Y-69748631D01*
X154123088Y-69748631D02*
X154123088Y-69848631D01*
X154123088Y-69848631D02*
X154089755Y-69915298D01*
X154089755Y-69915298D02*
X154056422Y-69948631D01*
X154056422Y-69948631D02*
X153989755Y-69981965D01*
X153989755Y-69981965D02*
X153723088Y-69981965D01*
X154789755Y-70315298D02*
X154389755Y-70315298D01*
X154589755Y-70315298D02*
X154589755Y-69615298D01*
X154589755Y-69615298D02*
X154523088Y-69715298D01*
X154523088Y-69715298D02*
X154456422Y-69781965D01*
X154456422Y-69781965D02*
X154389755Y-69815298D01*
X155189755Y-69915298D02*
X155123089Y-69881965D01*
X155123089Y-69881965D02*
X155089755Y-69848631D01*
X155089755Y-69848631D02*
X155056422Y-69781965D01*
X155056422Y-69781965D02*
X155056422Y-69748631D01*
X155056422Y-69748631D02*
X155089755Y-69681965D01*
X155089755Y-69681965D02*
X155123089Y-69648631D01*
X155123089Y-69648631D02*
X155189755Y-69615298D01*
X155189755Y-69615298D02*
X155323089Y-69615298D01*
X155323089Y-69615298D02*
X155389755Y-69648631D01*
X155389755Y-69648631D02*
X155423089Y-69681965D01*
X155423089Y-69681965D02*
X155456422Y-69748631D01*
X155456422Y-69748631D02*
X155456422Y-69781965D01*
X155456422Y-69781965D02*
X155423089Y-69848631D01*
X155423089Y-69848631D02*
X155389755Y-69881965D01*
X155389755Y-69881965D02*
X155323089Y-69915298D01*
X155323089Y-69915298D02*
X155189755Y-69915298D01*
X155189755Y-69915298D02*
X155123089Y-69948631D01*
X155123089Y-69948631D02*
X155089755Y-69981965D01*
X155089755Y-69981965D02*
X155056422Y-70048631D01*
X155056422Y-70048631D02*
X155056422Y-70181965D01*
X155056422Y-70181965D02*
X155089755Y-70248631D01*
X155089755Y-70248631D02*
X155123089Y-70281965D01*
X155123089Y-70281965D02*
X155189755Y-70315298D01*
X155189755Y-70315298D02*
X155323089Y-70315298D01*
X155323089Y-70315298D02*
X155389755Y-70281965D01*
X155389755Y-70281965D02*
X155423089Y-70248631D01*
X155423089Y-70248631D02*
X155456422Y-70181965D01*
X155456422Y-70181965D02*
X155456422Y-70048631D01*
X155456422Y-70048631D02*
X155423089Y-69981965D01*
X155423089Y-69981965D02*
X155389755Y-69948631D01*
X155389755Y-69948631D02*
X155323089Y-69915298D01*
X119273088Y-92035298D02*
X119039755Y-91701965D01*
X118873088Y-92035298D02*
X118873088Y-91335298D01*
X118873088Y-91335298D02*
X119139755Y-91335298D01*
X119139755Y-91335298D02*
X119206422Y-91368631D01*
X119206422Y-91368631D02*
X119239755Y-91401965D01*
X119239755Y-91401965D02*
X119273088Y-91468631D01*
X119273088Y-91468631D02*
X119273088Y-91568631D01*
X119273088Y-91568631D02*
X119239755Y-91635298D01*
X119239755Y-91635298D02*
X119206422Y-91668631D01*
X119206422Y-91668631D02*
X119139755Y-91701965D01*
X119139755Y-91701965D02*
X118873088Y-91701965D01*
X119939755Y-92035298D02*
X119539755Y-92035298D01*
X119739755Y-92035298D02*
X119739755Y-91335298D01*
X119739755Y-91335298D02*
X119673088Y-91435298D01*
X119673088Y-91435298D02*
X119606422Y-91501965D01*
X119606422Y-91501965D02*
X119539755Y-91535298D01*
X120173089Y-91335298D02*
X120606422Y-91335298D01*
X120606422Y-91335298D02*
X120373089Y-91601965D01*
X120373089Y-91601965D02*
X120473089Y-91601965D01*
X120473089Y-91601965D02*
X120539755Y-91635298D01*
X120539755Y-91635298D02*
X120573089Y-91668631D01*
X120573089Y-91668631D02*
X120606422Y-91735298D01*
X120606422Y-91735298D02*
X120606422Y-91901965D01*
X120606422Y-91901965D02*
X120573089Y-91968631D01*
X120573089Y-91968631D02*
X120539755Y-92001965D01*
X120539755Y-92001965D02*
X120473089Y-92035298D01*
X120473089Y-92035298D02*
X120273089Y-92035298D01*
X120273089Y-92035298D02*
X120206422Y-92001965D01*
X120206422Y-92001965D02*
X120173089Y-91968631D01*
X136506422Y-80715298D02*
X136506422Y-80015298D01*
X136506422Y-80015298D02*
X136673089Y-80015298D01*
X136673089Y-80015298D02*
X136773089Y-80048631D01*
X136773089Y-80048631D02*
X136839756Y-80115298D01*
X136839756Y-80115298D02*
X136873089Y-80181965D01*
X136873089Y-80181965D02*
X136906422Y-80315298D01*
X136906422Y-80315298D02*
X136906422Y-80415298D01*
X136906422Y-80415298D02*
X136873089Y-80548631D01*
X136873089Y-80548631D02*
X136839756Y-80615298D01*
X136839756Y-80615298D02*
X136773089Y-80681965D01*
X136773089Y-80681965D02*
X136673089Y-80715298D01*
X136673089Y-80715298D02*
X136506422Y-80715298D01*
X137139756Y-80015298D02*
X137573089Y-80015298D01*
X137573089Y-80015298D02*
X137339756Y-80281965D01*
X137339756Y-80281965D02*
X137439756Y-80281965D01*
X137439756Y-80281965D02*
X137506422Y-80315298D01*
X137506422Y-80315298D02*
X137539756Y-80348631D01*
X137539756Y-80348631D02*
X137573089Y-80415298D01*
X137573089Y-80415298D02*
X137573089Y-80581965D01*
X137573089Y-80581965D02*
X137539756Y-80648631D01*
X137539756Y-80648631D02*
X137506422Y-80681965D01*
X137506422Y-80681965D02*
X137439756Y-80715298D01*
X137439756Y-80715298D02*
X137239756Y-80715298D01*
X137239756Y-80715298D02*
X137173089Y-80681965D01*
X137173089Y-80681965D02*
X137139756Y-80648631D01*
G36*
X165574104Y-104928318D02*
G01*
X165781222Y-104928318D01*
X165781222Y-104995241D01*
X165722359Y-105016429D01*
X165679922Y-105039021D01*
X165652506Y-105064606D01*
X165643937Y-105079647D01*
X165638462Y-105097762D01*
X165634676Y-105143496D01*
X165634676Y-105359346D01*
X165992248Y-105359346D01*
X165992248Y-105213166D01*
X165989861Y-105184965D01*
X165983760Y-105166089D01*
X165972603Y-105150805D01*
X165954756Y-105137695D01*
X165931154Y-105127579D01*
X165890643Y-105116202D01*
X165890643Y-105051966D01*
X166154425Y-105051966D01*
X166154425Y-105116202D01*
X166115768Y-105127052D01*
X166091899Y-105137390D01*
X166073291Y-105150587D01*
X166061796Y-105165051D01*
X166055411Y-105183305D01*
X166052820Y-105213166D01*
X166052820Y-105359346D01*
X166447516Y-105359346D01*
X166447516Y-105146916D01*
X166445877Y-105115059D01*
X166441654Y-105092633D01*
X166433656Y-105073107D01*
X166421627Y-105056729D01*
X166405809Y-105042926D01*
X166384685Y-105030106D01*
X166337302Y-105010628D01*
X166265800Y-104989135D01*
X166265800Y-104921479D01*
X166508089Y-104934485D01*
X166508089Y-105567013D01*
X166474566Y-105567013D01*
X166461747Y-105528760D01*
X166450325Y-105510349D01*
X166434734Y-105498768D01*
X166412345Y-105491542D01*
X166337057Y-105487085D01*
X165745135Y-105487085D01*
X165676381Y-105490504D01*
X165656298Y-105495356D01*
X165642858Y-105501800D01*
X165623746Y-105522683D01*
X165607626Y-105567013D01*
X165574104Y-105567013D01*
X165574104Y-104928318D01*
G37*
G36*
X166297063Y-104699829D02*
G01*
X166352891Y-104682825D01*
X166391401Y-104662948D01*
X166421578Y-104636221D01*
X166442631Y-104602865D01*
X166454688Y-104562880D01*
X166459240Y-104507915D01*
X166454052Y-104456235D01*
X166439804Y-104416253D01*
X166417413Y-104385305D01*
X166386868Y-104362432D01*
X166347071Y-104347875D01*
X166295231Y-104342563D01*
X166246432Y-104347318D01*
X166208830Y-104360332D01*
X166175953Y-104382781D01*
X166142945Y-104418400D01*
X166112194Y-104464705D01*
X166070894Y-104541377D01*
X166029603Y-104616221D01*
X165993225Y-104667772D01*
X165952686Y-104709088D01*
X165910793Y-104737076D01*
X165864540Y-104754177D01*
X165813584Y-104759974D01*
X165763503Y-104755783D01*
X165719498Y-104743724D01*
X165680472Y-104724131D01*
X165646239Y-104697037D01*
X165617220Y-104662344D01*
X165593216Y-104618924D01*
X165576440Y-104571747D01*
X165566008Y-104519084D01*
X165562380Y-104460044D01*
X165567876Y-104358622D01*
X165576078Y-104306267D01*
X165592483Y-104234669D01*
X165777314Y-104234669D01*
X165777314Y-104302263D01*
X165721069Y-104321109D01*
X165683341Y-104341891D01*
X165654261Y-104368478D01*
X165636325Y-104397945D01*
X165626647Y-104432673D01*
X165622952Y-104481232D01*
X165627210Y-104523984D01*
X165639439Y-104560855D01*
X165660055Y-104592338D01*
X165689142Y-104616542D01*
X165724725Y-104631672D01*
X165768277Y-104636998D01*
X165814491Y-104632363D01*
X165850526Y-104619595D01*
X165882079Y-104598004D01*
X165912930Y-104565251D01*
X165941171Y-104523263D01*
X165977349Y-104455953D01*
X166022187Y-104374258D01*
X166058987Y-104320398D01*
X166099857Y-104277061D01*
X166145022Y-104245232D01*
X166196341Y-104225249D01*
X166257862Y-104218243D01*
X166326444Y-104224285D01*
X166379556Y-104240775D01*
X166425009Y-104267950D01*
X166460522Y-104303301D01*
X166487084Y-104346435D01*
X166505768Y-104398922D01*
X166516174Y-104456153D01*
X166519812Y-104520860D01*
X166516208Y-104591939D01*
X166504616Y-104673880D01*
X166483725Y-104768156D01*
X166297063Y-104768156D01*
X166297063Y-104699829D01*
G37*
G36*
X165592972Y-103439231D02*
G01*
X165781222Y-103439231D01*
X165781222Y-103506825D01*
X165726221Y-103526432D01*
X165687555Y-103548529D01*
X165657192Y-103576453D01*
X165637851Y-103607270D01*
X165626922Y-103642853D01*
X165622952Y-103687870D01*
X165628169Y-103733057D01*
X165643628Y-103774474D01*
X165669908Y-103813228D01*
X165704270Y-103845615D01*
X165750443Y-103874534D01*
X165810958Y-103899628D01*
X165874492Y-103916380D01*
X165949795Y-103927201D01*
X166038715Y-103931075D01*
X166128283Y-103927863D01*
X166204059Y-103918910D01*
X166267815Y-103905124D01*
X166329123Y-103883639D01*
X166375948Y-103857963D01*
X166410941Y-103828615D01*
X166437691Y-103792475D01*
X166453715Y-103751510D01*
X166459240Y-103704234D01*
X166454819Y-103651200D01*
X166443120Y-103612704D01*
X166422569Y-103580309D01*
X166392073Y-103552926D01*
X166352327Y-103530848D01*
X166289247Y-103506825D01*
X166289247Y-103439231D01*
X166485496Y-103439231D01*
X166500470Y-103504020D01*
X166511203Y-103570694D01*
X166517560Y-103639626D01*
X166519812Y-103718583D01*
X166514597Y-103787846D01*
X166499793Y-103847244D01*
X166476161Y-103898443D01*
X166443764Y-103942736D01*
X166401965Y-103980961D01*
X166341885Y-104016971D01*
X166265718Y-104044761D01*
X166169936Y-104063055D01*
X166050377Y-104069744D01*
X165953420Y-104064247D01*
X165868288Y-104048575D01*
X165793373Y-104023643D01*
X165724074Y-103987233D01*
X165667731Y-103942143D01*
X165622708Y-103888027D01*
X165589742Y-103825855D01*
X165569449Y-103755223D01*
X165562380Y-103674192D01*
X165568853Y-103559459D01*
X165577688Y-103505247D01*
X165592972Y-103439231D01*
G37*
G36*
X165769498Y-103254949D02*
G01*
X165638462Y-103254949D01*
X165604171Y-103176234D01*
X165581248Y-103106755D01*
X165566973Y-103038063D01*
X165562380Y-102973521D01*
X165568711Y-102899365D01*
X165586438Y-102838271D01*
X165605328Y-102801721D01*
X165628295Y-102772455D01*
X165655437Y-102749489D01*
X165686682Y-102732661D01*
X165722156Y-102722316D01*
X165762843Y-102718714D01*
X165818679Y-102724757D01*
X165865486Y-102741978D01*
X165906618Y-102769620D01*
X165942727Y-102807191D01*
X165973955Y-102853088D01*
X166007269Y-102916124D01*
X166013130Y-102916124D01*
X166023300Y-102875283D01*
X166038837Y-102835890D01*
X166059699Y-102799333D01*
X166085732Y-102767258D01*
X166117089Y-102740320D01*
X166154547Y-102719081D01*
X166196544Y-102705656D01*
X166245955Y-102700946D01*
X166297964Y-102704946D01*
X166344681Y-102716538D01*
X166387005Y-102735445D01*
X166424605Y-102761996D01*
X166456910Y-102796797D01*
X166484214Y-102841019D01*
X166503351Y-102889617D01*
X166515499Y-102946689D01*
X166519812Y-103013821D01*
X166516654Y-103073519D01*
X166506623Y-103140522D01*
X166491019Y-103206720D01*
X166471757Y-103265208D01*
X166328326Y-103265208D01*
X166328326Y-103183203D01*
X166373573Y-103164211D01*
X166406820Y-103143070D01*
X166430419Y-103120066D01*
X166447406Y-103092191D01*
X166458247Y-103057180D01*
X166462171Y-103013149D01*
X166456102Y-102955945D01*
X166439472Y-102912249D01*
X166413261Y-102878877D01*
X166377883Y-102854826D01*
X166330784Y-102839214D01*
X166268425Y-102833447D01*
X166218601Y-102837641D01*
X166177395Y-102849399D01*
X166143170Y-102868028D01*
X166114735Y-102893592D01*
X166086656Y-102936758D01*
X166068371Y-102994097D01*
X166061613Y-103069813D01*
X166061613Y-103131302D01*
X166003971Y-103131302D01*
X165997117Y-103070355D01*
X165985026Y-103019017D01*
X165968373Y-102975902D01*
X165945456Y-102936002D01*
X165919697Y-102905141D01*
X165891070Y-102881991D01*
X165858412Y-102864949D01*
X165823269Y-102854705D01*
X165784946Y-102851216D01*
X165735870Y-102856193D01*
X165697696Y-102869901D01*
X165667954Y-102891516D01*
X165645964Y-102920901D01*
X165631968Y-102959187D01*
X165626860Y-103009058D01*
X165631055Y-103050534D01*
X165642906Y-103084858D01*
X165662031Y-103113533D01*
X165687852Y-103136829D01*
X165722946Y-103156788D01*
X165769498Y-103173006D01*
X165769498Y-103254949D01*
G37*
D12*
X152674089Y-100565930D02*
X152697898Y-100494502D01*
X152697898Y-100494502D02*
X152697898Y-100375454D01*
X152697898Y-100375454D02*
X152674089Y-100327835D01*
X152674089Y-100327835D02*
X152650279Y-100304026D01*
X152650279Y-100304026D02*
X152602660Y-100280216D01*
X152602660Y-100280216D02*
X152555041Y-100280216D01*
X152555041Y-100280216D02*
X152507422Y-100304026D01*
X152507422Y-100304026D02*
X152483612Y-100327835D01*
X152483612Y-100327835D02*
X152459803Y-100375454D01*
X152459803Y-100375454D02*
X152435993Y-100470692D01*
X152435993Y-100470692D02*
X152412184Y-100518311D01*
X152412184Y-100518311D02*
X152388374Y-100542121D01*
X152388374Y-100542121D02*
X152340755Y-100565930D01*
X152340755Y-100565930D02*
X152293136Y-100565930D01*
X152293136Y-100565930D02*
X152245517Y-100542121D01*
X152245517Y-100542121D02*
X152221708Y-100518311D01*
X152221708Y-100518311D02*
X152197898Y-100470692D01*
X152197898Y-100470692D02*
X152197898Y-100351645D01*
X152197898Y-100351645D02*
X152221708Y-100280216D01*
X152197898Y-100113550D02*
X152697898Y-99994502D01*
X152697898Y-99994502D02*
X152340755Y-99899264D01*
X152340755Y-99899264D02*
X152697898Y-99804026D01*
X152697898Y-99804026D02*
X152197898Y-99684979D01*
X152697898Y-99232597D02*
X152697898Y-99518311D01*
X152697898Y-99375454D02*
X152197898Y-99375454D01*
X152197898Y-99375454D02*
X152269327Y-99423073D01*
X152269327Y-99423073D02*
X152316946Y-99470692D01*
X152316946Y-99470692D02*
X152340755Y-99518311D01*
X144847898Y-108732598D02*
X144609803Y-108899264D01*
X144847898Y-109018312D02*
X144347898Y-109018312D01*
X144347898Y-109018312D02*
X144347898Y-108827836D01*
X144347898Y-108827836D02*
X144371708Y-108780217D01*
X144371708Y-108780217D02*
X144395517Y-108756407D01*
X144395517Y-108756407D02*
X144443136Y-108732598D01*
X144443136Y-108732598D02*
X144514565Y-108732598D01*
X144514565Y-108732598D02*
X144562184Y-108756407D01*
X144562184Y-108756407D02*
X144585993Y-108780217D01*
X144585993Y-108780217D02*
X144609803Y-108827836D01*
X144609803Y-108827836D02*
X144609803Y-109018312D01*
X144395517Y-108542121D02*
X144371708Y-108518312D01*
X144371708Y-108518312D02*
X144347898Y-108470693D01*
X144347898Y-108470693D02*
X144347898Y-108351645D01*
X144347898Y-108351645D02*
X144371708Y-108304026D01*
X144371708Y-108304026D02*
X144395517Y-108280217D01*
X144395517Y-108280217D02*
X144443136Y-108256407D01*
X144443136Y-108256407D02*
X144490755Y-108256407D01*
X144490755Y-108256407D02*
X144562184Y-108280217D01*
X144562184Y-108280217D02*
X144847898Y-108565931D01*
X144847898Y-108565931D02*
X144847898Y-108256407D01*
X146650279Y-109670693D02*
X146674089Y-109694502D01*
X146674089Y-109694502D02*
X146697898Y-109765931D01*
X146697898Y-109765931D02*
X146697898Y-109813550D01*
X146697898Y-109813550D02*
X146674089Y-109884978D01*
X146674089Y-109884978D02*
X146626469Y-109932597D01*
X146626469Y-109932597D02*
X146578850Y-109956407D01*
X146578850Y-109956407D02*
X146483612Y-109980216D01*
X146483612Y-109980216D02*
X146412184Y-109980216D01*
X146412184Y-109980216D02*
X146316946Y-109956407D01*
X146316946Y-109956407D02*
X146269327Y-109932597D01*
X146269327Y-109932597D02*
X146221708Y-109884978D01*
X146221708Y-109884978D02*
X146197898Y-109813550D01*
X146197898Y-109813550D02*
X146197898Y-109765931D01*
X146197898Y-109765931D02*
X146221708Y-109694502D01*
X146221708Y-109694502D02*
X146245517Y-109670693D01*
X146197898Y-109504026D02*
X146197898Y-109194502D01*
X146197898Y-109194502D02*
X146388374Y-109361169D01*
X146388374Y-109361169D02*
X146388374Y-109289740D01*
X146388374Y-109289740D02*
X146412184Y-109242121D01*
X146412184Y-109242121D02*
X146435993Y-109218312D01*
X146435993Y-109218312D02*
X146483612Y-109194502D01*
X146483612Y-109194502D02*
X146602660Y-109194502D01*
X146602660Y-109194502D02*
X146650279Y-109218312D01*
X146650279Y-109218312D02*
X146674089Y-109242121D01*
X146674089Y-109242121D02*
X146697898Y-109289740D01*
X146697898Y-109289740D02*
X146697898Y-109432597D01*
X146697898Y-109432597D02*
X146674089Y-109480216D01*
X146674089Y-109480216D02*
X146650279Y-109504026D01*
X146197898Y-108884979D02*
X146197898Y-108837360D01*
X146197898Y-108837360D02*
X146221708Y-108789741D01*
X146221708Y-108789741D02*
X146245517Y-108765931D01*
X146245517Y-108765931D02*
X146293136Y-108742122D01*
X146293136Y-108742122D02*
X146388374Y-108718312D01*
X146388374Y-108718312D02*
X146507422Y-108718312D01*
X146507422Y-108718312D02*
X146602660Y-108742122D01*
X146602660Y-108742122D02*
X146650279Y-108765931D01*
X146650279Y-108765931D02*
X146674089Y-108789741D01*
X146674089Y-108789741D02*
X146697898Y-108837360D01*
X146697898Y-108837360D02*
X146697898Y-108884979D01*
X146697898Y-108884979D02*
X146674089Y-108932598D01*
X146674089Y-108932598D02*
X146650279Y-108956407D01*
X146650279Y-108956407D02*
X146602660Y-108980217D01*
X146602660Y-108980217D02*
X146507422Y-109004026D01*
X146507422Y-109004026D02*
X146388374Y-109004026D01*
X146388374Y-109004026D02*
X146293136Y-108980217D01*
X146293136Y-108980217D02*
X146245517Y-108956407D01*
X146245517Y-108956407D02*
X146221708Y-108932598D01*
X146221708Y-108932598D02*
X146197898Y-108884979D01*
X145318327Y-79974074D02*
X145318327Y-80331217D01*
X145318327Y-80331217D02*
X145294518Y-80402645D01*
X145294518Y-80402645D02*
X145246899Y-80450265D01*
X145246899Y-80450265D02*
X145175470Y-80474074D01*
X145175470Y-80474074D02*
X145127851Y-80474074D01*
X145818327Y-80474074D02*
X145532613Y-80474074D01*
X145675470Y-80474074D02*
X145675470Y-79974074D01*
X145675470Y-79974074D02*
X145627851Y-80045503D01*
X145627851Y-80045503D02*
X145580232Y-80093122D01*
X145580232Y-80093122D02*
X145532613Y-80116931D01*
X145984993Y-79974074D02*
X146294517Y-79974074D01*
X146294517Y-79974074D02*
X146127850Y-80164550D01*
X146127850Y-80164550D02*
X146199279Y-80164550D01*
X146199279Y-80164550D02*
X146246898Y-80188360D01*
X146246898Y-80188360D02*
X146270707Y-80212169D01*
X146270707Y-80212169D02*
X146294517Y-80259788D01*
X146294517Y-80259788D02*
X146294517Y-80378836D01*
X146294517Y-80378836D02*
X146270707Y-80426455D01*
X146270707Y-80426455D02*
X146246898Y-80450265D01*
X146246898Y-80450265D02*
X146199279Y-80474074D01*
X146199279Y-80474074D02*
X146056422Y-80474074D01*
X146056422Y-80474074D02*
X146008803Y-80450265D01*
X146008803Y-80450265D02*
X145984993Y-80426455D01*
D11*
X125921365Y-104159384D02*
X126439460Y-104159384D01*
X126439460Y-104159384D02*
X126500412Y-104128907D01*
X126500412Y-104128907D02*
X126530889Y-104098431D01*
X126530889Y-104098431D02*
X126561365Y-104037479D01*
X126561365Y-104037479D02*
X126561365Y-103915574D01*
X126561365Y-103915574D02*
X126530889Y-103854622D01*
X126530889Y-103854622D02*
X126500412Y-103824145D01*
X126500412Y-103824145D02*
X126439460Y-103793669D01*
X126439460Y-103793669D02*
X125921365Y-103793669D01*
X125921365Y-103549860D02*
X125921365Y-103153669D01*
X125921365Y-103153669D02*
X126165174Y-103367003D01*
X126165174Y-103367003D02*
X126165174Y-103275574D01*
X126165174Y-103275574D02*
X126195650Y-103214622D01*
X126195650Y-103214622D02*
X126226127Y-103184146D01*
X126226127Y-103184146D02*
X126287079Y-103153669D01*
X126287079Y-103153669D02*
X126439460Y-103153669D01*
X126439460Y-103153669D02*
X126500412Y-103184146D01*
X126500412Y-103184146D02*
X126530889Y-103214622D01*
X126530889Y-103214622D02*
X126561365Y-103275574D01*
X126561365Y-103275574D02*
X126561365Y-103458431D01*
X126561365Y-103458431D02*
X126530889Y-103519384D01*
X126530889Y-103519384D02*
X126500412Y-103549860D01*
X119273088Y-90585298D02*
X119039755Y-90251965D01*
X118873088Y-90585298D02*
X118873088Y-89885298D01*
X118873088Y-89885298D02*
X119139755Y-89885298D01*
X119139755Y-89885298D02*
X119206422Y-89918631D01*
X119206422Y-89918631D02*
X119239755Y-89951965D01*
X119239755Y-89951965D02*
X119273088Y-90018631D01*
X119273088Y-90018631D02*
X119273088Y-90118631D01*
X119273088Y-90118631D02*
X119239755Y-90185298D01*
X119239755Y-90185298D02*
X119206422Y-90218631D01*
X119206422Y-90218631D02*
X119139755Y-90251965D01*
X119139755Y-90251965D02*
X118873088Y-90251965D01*
X119939755Y-90585298D02*
X119539755Y-90585298D01*
X119739755Y-90585298D02*
X119739755Y-89885298D01*
X119739755Y-89885298D02*
X119673088Y-89985298D01*
X119673088Y-89985298D02*
X119606422Y-90051965D01*
X119606422Y-90051965D02*
X119539755Y-90085298D01*
X120606422Y-90585298D02*
X120206422Y-90585298D01*
X120406422Y-90585298D02*
X120406422Y-89885298D01*
X120406422Y-89885298D02*
X120339755Y-89985298D01*
X120339755Y-89985298D02*
X120273089Y-90051965D01*
X120273089Y-90051965D02*
X120206422Y-90085298D01*
X138289122Y-75315931D02*
X137589122Y-75315931D01*
X137589122Y-75315931D02*
X137589122Y-75149264D01*
X137589122Y-75149264D02*
X137622455Y-75049264D01*
X137622455Y-75049264D02*
X137689122Y-74982598D01*
X137689122Y-74982598D02*
X137755789Y-74949264D01*
X137755789Y-74949264D02*
X137889122Y-74915931D01*
X137889122Y-74915931D02*
X137989122Y-74915931D01*
X137989122Y-74915931D02*
X138122455Y-74949264D01*
X138122455Y-74949264D02*
X138189122Y-74982598D01*
X138189122Y-74982598D02*
X138255789Y-75049264D01*
X138255789Y-75049264D02*
X138289122Y-75149264D01*
X138289122Y-75149264D02*
X138289122Y-75315931D01*
X137655789Y-74649264D02*
X137622455Y-74615931D01*
X137622455Y-74615931D02*
X137589122Y-74549264D01*
X137589122Y-74549264D02*
X137589122Y-74382598D01*
X137589122Y-74382598D02*
X137622455Y-74315931D01*
X137622455Y-74315931D02*
X137655789Y-74282598D01*
X137655789Y-74282598D02*
X137722455Y-74249264D01*
X137722455Y-74249264D02*
X137789122Y-74249264D01*
X137789122Y-74249264D02*
X137889122Y-74282598D01*
X137889122Y-74282598D02*
X138289122Y-74682598D01*
X138289122Y-74682598D02*
X138289122Y-74249264D01*
X139056422Y-91298631D02*
X139023089Y-91331965D01*
X139023089Y-91331965D02*
X138923089Y-91365298D01*
X138923089Y-91365298D02*
X138856422Y-91365298D01*
X138856422Y-91365298D02*
X138756422Y-91331965D01*
X138756422Y-91331965D02*
X138689756Y-91265298D01*
X138689756Y-91265298D02*
X138656422Y-91198631D01*
X138656422Y-91198631D02*
X138623089Y-91065298D01*
X138623089Y-91065298D02*
X138623089Y-90965298D01*
X138623089Y-90965298D02*
X138656422Y-90831965D01*
X138656422Y-90831965D02*
X138689756Y-90765298D01*
X138689756Y-90765298D02*
X138756422Y-90698631D01*
X138756422Y-90698631D02*
X138856422Y-90665298D01*
X138856422Y-90665298D02*
X138923089Y-90665298D01*
X138923089Y-90665298D02*
X139023089Y-90698631D01*
X139023089Y-90698631D02*
X139056422Y-90731965D01*
X139456422Y-90965298D02*
X139389756Y-90931965D01*
X139389756Y-90931965D02*
X139356422Y-90898631D01*
X139356422Y-90898631D02*
X139323089Y-90831965D01*
X139323089Y-90831965D02*
X139323089Y-90798631D01*
X139323089Y-90798631D02*
X139356422Y-90731965D01*
X139356422Y-90731965D02*
X139389756Y-90698631D01*
X139389756Y-90698631D02*
X139456422Y-90665298D01*
X139456422Y-90665298D02*
X139589756Y-90665298D01*
X139589756Y-90665298D02*
X139656422Y-90698631D01*
X139656422Y-90698631D02*
X139689756Y-90731965D01*
X139689756Y-90731965D02*
X139723089Y-90798631D01*
X139723089Y-90798631D02*
X139723089Y-90831965D01*
X139723089Y-90831965D02*
X139689756Y-90898631D01*
X139689756Y-90898631D02*
X139656422Y-90931965D01*
X139656422Y-90931965D02*
X139589756Y-90965298D01*
X139589756Y-90965298D02*
X139456422Y-90965298D01*
X139456422Y-90965298D02*
X139389756Y-90998631D01*
X139389756Y-90998631D02*
X139356422Y-91031965D01*
X139356422Y-91031965D02*
X139323089Y-91098631D01*
X139323089Y-91098631D02*
X139323089Y-91231965D01*
X139323089Y-91231965D02*
X139356422Y-91298631D01*
X139356422Y-91298631D02*
X139389756Y-91331965D01*
X139389756Y-91331965D02*
X139456422Y-91365298D01*
X139456422Y-91365298D02*
X139589756Y-91365298D01*
X139589756Y-91365298D02*
X139656422Y-91331965D01*
X139656422Y-91331965D02*
X139689756Y-91298631D01*
X139689756Y-91298631D02*
X139723089Y-91231965D01*
X139723089Y-91231965D02*
X139723089Y-91098631D01*
X139723089Y-91098631D02*
X139689756Y-91031965D01*
X139689756Y-91031965D02*
X139656422Y-90998631D01*
X139656422Y-90998631D02*
X139589756Y-90965298D01*
X118941869Y-94317541D02*
X118941869Y-94835636D01*
X118941869Y-94835636D02*
X118972346Y-94896588D01*
X118972346Y-94896588D02*
X119002822Y-94927065D01*
X119002822Y-94927065D02*
X119063774Y-94957541D01*
X119063774Y-94957541D02*
X119185679Y-94957541D01*
X119185679Y-94957541D02*
X119246631Y-94927065D01*
X119246631Y-94927065D02*
X119277108Y-94896588D01*
X119277108Y-94896588D02*
X119307584Y-94835636D01*
X119307584Y-94835636D02*
X119307584Y-94317541D01*
X119886631Y-94317541D02*
X119764726Y-94317541D01*
X119764726Y-94317541D02*
X119703774Y-94348017D01*
X119703774Y-94348017D02*
X119673298Y-94378493D01*
X119673298Y-94378493D02*
X119612345Y-94469922D01*
X119612345Y-94469922D02*
X119581869Y-94591826D01*
X119581869Y-94591826D02*
X119581869Y-94835636D01*
X119581869Y-94835636D02*
X119612345Y-94896588D01*
X119612345Y-94896588D02*
X119642822Y-94927065D01*
X119642822Y-94927065D02*
X119703774Y-94957541D01*
X119703774Y-94957541D02*
X119825679Y-94957541D01*
X119825679Y-94957541D02*
X119886631Y-94927065D01*
X119886631Y-94927065D02*
X119917107Y-94896588D01*
X119917107Y-94896588D02*
X119947584Y-94835636D01*
X119947584Y-94835636D02*
X119947584Y-94683255D01*
X119947584Y-94683255D02*
X119917107Y-94622303D01*
X119917107Y-94622303D02*
X119886631Y-94591826D01*
X119886631Y-94591826D02*
X119825679Y-94561350D01*
X119825679Y-94561350D02*
X119703774Y-94561350D01*
X119703774Y-94561350D02*
X119642822Y-94591826D01*
X119642822Y-94591826D02*
X119612345Y-94622303D01*
X119612345Y-94622303D02*
X119581869Y-94683255D01*
X124868088Y-70180298D02*
X124634755Y-69846965D01*
X124468088Y-70180298D02*
X124468088Y-69480298D01*
X124468088Y-69480298D02*
X124734755Y-69480298D01*
X124734755Y-69480298D02*
X124801422Y-69513631D01*
X124801422Y-69513631D02*
X124834755Y-69546965D01*
X124834755Y-69546965D02*
X124868088Y-69613631D01*
X124868088Y-69613631D02*
X124868088Y-69713631D01*
X124868088Y-69713631D02*
X124834755Y-69780298D01*
X124834755Y-69780298D02*
X124801422Y-69813631D01*
X124801422Y-69813631D02*
X124734755Y-69846965D01*
X124734755Y-69846965D02*
X124468088Y-69846965D01*
X125534755Y-70180298D02*
X125134755Y-70180298D01*
X125334755Y-70180298D02*
X125334755Y-69480298D01*
X125334755Y-69480298D02*
X125268088Y-69580298D01*
X125268088Y-69580298D02*
X125201422Y-69646965D01*
X125201422Y-69646965D02*
X125134755Y-69680298D01*
X125968089Y-69480298D02*
X126034755Y-69480298D01*
X126034755Y-69480298D02*
X126101422Y-69513631D01*
X126101422Y-69513631D02*
X126134755Y-69546965D01*
X126134755Y-69546965D02*
X126168089Y-69613631D01*
X126168089Y-69613631D02*
X126201422Y-69746965D01*
X126201422Y-69746965D02*
X126201422Y-69913631D01*
X126201422Y-69913631D02*
X126168089Y-70046965D01*
X126168089Y-70046965D02*
X126134755Y-70113631D01*
X126134755Y-70113631D02*
X126101422Y-70146965D01*
X126101422Y-70146965D02*
X126034755Y-70180298D01*
X126034755Y-70180298D02*
X125968089Y-70180298D01*
X125968089Y-70180298D02*
X125901422Y-70146965D01*
X125901422Y-70146965D02*
X125868089Y-70113631D01*
X125868089Y-70113631D02*
X125834755Y-70046965D01*
X125834755Y-70046965D02*
X125801422Y-69913631D01*
X125801422Y-69913631D02*
X125801422Y-69746965D01*
X125801422Y-69746965D02*
X125834755Y-69613631D01*
X125834755Y-69613631D02*
X125868089Y-69546965D01*
X125868089Y-69546965D02*
X125901422Y-69513631D01*
X125901422Y-69513631D02*
X125968089Y-69480298D01*
X164661184Y-112038984D02*
X164661184Y-111038984D01*
X164661184Y-111515174D02*
X165232612Y-111515174D01*
X165232612Y-112038984D02*
X165232612Y-111038984D01*
X165661184Y-111134222D02*
X165708803Y-111086603D01*
X165708803Y-111086603D02*
X165804041Y-111038984D01*
X165804041Y-111038984D02*
X166042136Y-111038984D01*
X166042136Y-111038984D02*
X166137374Y-111086603D01*
X166137374Y-111086603D02*
X166184993Y-111134222D01*
X166184993Y-111134222D02*
X166232612Y-111229460D01*
X166232612Y-111229460D02*
X166232612Y-111324698D01*
X166232612Y-111324698D02*
X166184993Y-111467555D01*
X166184993Y-111467555D02*
X165613565Y-112038984D01*
X165613565Y-112038984D02*
X166232612Y-112038984D01*
X112011184Y-77604084D02*
X112011184Y-76604084D01*
X112011184Y-77080274D02*
X112582612Y-77080274D01*
X112582612Y-77604084D02*
X112582612Y-76604084D01*
X113487374Y-76937417D02*
X113487374Y-77604084D01*
X113249279Y-76556465D02*
X113011184Y-77270750D01*
X113011184Y-77270750D02*
X113630231Y-77270750D01*
X134173088Y-77358631D02*
X134139755Y-77391965D01*
X134139755Y-77391965D02*
X134039755Y-77425298D01*
X134039755Y-77425298D02*
X133973088Y-77425298D01*
X133973088Y-77425298D02*
X133873088Y-77391965D01*
X133873088Y-77391965D02*
X133806422Y-77325298D01*
X133806422Y-77325298D02*
X133773088Y-77258631D01*
X133773088Y-77258631D02*
X133739755Y-77125298D01*
X133739755Y-77125298D02*
X133739755Y-77025298D01*
X133739755Y-77025298D02*
X133773088Y-76891965D01*
X133773088Y-76891965D02*
X133806422Y-76825298D01*
X133806422Y-76825298D02*
X133873088Y-76758631D01*
X133873088Y-76758631D02*
X133973088Y-76725298D01*
X133973088Y-76725298D02*
X134039755Y-76725298D01*
X134039755Y-76725298D02*
X134139755Y-76758631D01*
X134139755Y-76758631D02*
X134173088Y-76791965D01*
X134439755Y-76791965D02*
X134473088Y-76758631D01*
X134473088Y-76758631D02*
X134539755Y-76725298D01*
X134539755Y-76725298D02*
X134706422Y-76725298D01*
X134706422Y-76725298D02*
X134773088Y-76758631D01*
X134773088Y-76758631D02*
X134806422Y-76791965D01*
X134806422Y-76791965D02*
X134839755Y-76858631D01*
X134839755Y-76858631D02*
X134839755Y-76925298D01*
X134839755Y-76925298D02*
X134806422Y-77025298D01*
X134806422Y-77025298D02*
X134406422Y-77425298D01*
X134406422Y-77425298D02*
X134839755Y-77425298D01*
X135473089Y-76725298D02*
X135139755Y-76725298D01*
X135139755Y-76725298D02*
X135106422Y-77058631D01*
X135106422Y-77058631D02*
X135139755Y-77025298D01*
X135139755Y-77025298D02*
X135206422Y-76991965D01*
X135206422Y-76991965D02*
X135373089Y-76991965D01*
X135373089Y-76991965D02*
X135439755Y-77025298D01*
X135439755Y-77025298D02*
X135473089Y-77058631D01*
X135473089Y-77058631D02*
X135506422Y-77125298D01*
X135506422Y-77125298D02*
X135506422Y-77291965D01*
X135506422Y-77291965D02*
X135473089Y-77358631D01*
X135473089Y-77358631D02*
X135439755Y-77391965D01*
X135439755Y-77391965D02*
X135373089Y-77425298D01*
X135373089Y-77425298D02*
X135206422Y-77425298D01*
X135206422Y-77425298D02*
X135139755Y-77391965D01*
X135139755Y-77391965D02*
X135106422Y-77358631D01*
X133116422Y-100175298D02*
X132883089Y-99841965D01*
X132716422Y-100175298D02*
X132716422Y-99475298D01*
X132716422Y-99475298D02*
X132983089Y-99475298D01*
X132983089Y-99475298D02*
X133049756Y-99508631D01*
X133049756Y-99508631D02*
X133083089Y-99541965D01*
X133083089Y-99541965D02*
X133116422Y-99608631D01*
X133116422Y-99608631D02*
X133116422Y-99708631D01*
X133116422Y-99708631D02*
X133083089Y-99775298D01*
X133083089Y-99775298D02*
X133049756Y-99808631D01*
X133049756Y-99808631D02*
X132983089Y-99841965D01*
X132983089Y-99841965D02*
X132716422Y-99841965D01*
X133349756Y-99475298D02*
X133783089Y-99475298D01*
X133783089Y-99475298D02*
X133549756Y-99741965D01*
X133549756Y-99741965D02*
X133649756Y-99741965D01*
X133649756Y-99741965D02*
X133716422Y-99775298D01*
X133716422Y-99775298D02*
X133749756Y-99808631D01*
X133749756Y-99808631D02*
X133783089Y-99875298D01*
X133783089Y-99875298D02*
X133783089Y-100041965D01*
X133783089Y-100041965D02*
X133749756Y-100108631D01*
X133749756Y-100108631D02*
X133716422Y-100141965D01*
X133716422Y-100141965D02*
X133649756Y-100175298D01*
X133649756Y-100175298D02*
X133449756Y-100175298D01*
X133449756Y-100175298D02*
X133383089Y-100141965D01*
X133383089Y-100141965D02*
X133349756Y-100108631D01*
D12*
X148050279Y-109620693D02*
X148074089Y-109644502D01*
X148074089Y-109644502D02*
X148097898Y-109715931D01*
X148097898Y-109715931D02*
X148097898Y-109763550D01*
X148097898Y-109763550D02*
X148074089Y-109834978D01*
X148074089Y-109834978D02*
X148026469Y-109882597D01*
X148026469Y-109882597D02*
X147978850Y-109906407D01*
X147978850Y-109906407D02*
X147883612Y-109930216D01*
X147883612Y-109930216D02*
X147812184Y-109930216D01*
X147812184Y-109930216D02*
X147716946Y-109906407D01*
X147716946Y-109906407D02*
X147669327Y-109882597D01*
X147669327Y-109882597D02*
X147621708Y-109834978D01*
X147621708Y-109834978D02*
X147597898Y-109763550D01*
X147597898Y-109763550D02*
X147597898Y-109715931D01*
X147597898Y-109715931D02*
X147621708Y-109644502D01*
X147621708Y-109644502D02*
X147645517Y-109620693D01*
X147597898Y-109454026D02*
X147597898Y-109144502D01*
X147597898Y-109144502D02*
X147788374Y-109311169D01*
X147788374Y-109311169D02*
X147788374Y-109239740D01*
X147788374Y-109239740D02*
X147812184Y-109192121D01*
X147812184Y-109192121D02*
X147835993Y-109168312D01*
X147835993Y-109168312D02*
X147883612Y-109144502D01*
X147883612Y-109144502D02*
X148002660Y-109144502D01*
X148002660Y-109144502D02*
X148050279Y-109168312D01*
X148050279Y-109168312D02*
X148074089Y-109192121D01*
X148074089Y-109192121D02*
X148097898Y-109239740D01*
X148097898Y-109239740D02*
X148097898Y-109382597D01*
X148097898Y-109382597D02*
X148074089Y-109430216D01*
X148074089Y-109430216D02*
X148050279Y-109454026D01*
X148097898Y-108668312D02*
X148097898Y-108954026D01*
X148097898Y-108811169D02*
X147597898Y-108811169D01*
X147597898Y-108811169D02*
X147669327Y-108858788D01*
X147669327Y-108858788D02*
X147716946Y-108906407D01*
X147716946Y-108906407D02*
X147740755Y-108954026D01*
D11*
X111989755Y-86985298D02*
X111989755Y-87485298D01*
X111989755Y-87485298D02*
X111956422Y-87585298D01*
X111956422Y-87585298D02*
X111889755Y-87651965D01*
X111889755Y-87651965D02*
X111789755Y-87685298D01*
X111789755Y-87685298D02*
X111723089Y-87685298D01*
X112289755Y-87051965D02*
X112323088Y-87018631D01*
X112323088Y-87018631D02*
X112389755Y-86985298D01*
X112389755Y-86985298D02*
X112556422Y-86985298D01*
X112556422Y-86985298D02*
X112623088Y-87018631D01*
X112623088Y-87018631D02*
X112656422Y-87051965D01*
X112656422Y-87051965D02*
X112689755Y-87118631D01*
X112689755Y-87118631D02*
X112689755Y-87185298D01*
X112689755Y-87185298D02*
X112656422Y-87285298D01*
X112656422Y-87285298D02*
X112256422Y-87685298D01*
X112256422Y-87685298D02*
X112689755Y-87685298D01*
X157923088Y-77698631D02*
X157889755Y-77731965D01*
X157889755Y-77731965D02*
X157789755Y-77765298D01*
X157789755Y-77765298D02*
X157723088Y-77765298D01*
X157723088Y-77765298D02*
X157623088Y-77731965D01*
X157623088Y-77731965D02*
X157556422Y-77665298D01*
X157556422Y-77665298D02*
X157523088Y-77598631D01*
X157523088Y-77598631D02*
X157489755Y-77465298D01*
X157489755Y-77465298D02*
X157489755Y-77365298D01*
X157489755Y-77365298D02*
X157523088Y-77231965D01*
X157523088Y-77231965D02*
X157556422Y-77165298D01*
X157556422Y-77165298D02*
X157623088Y-77098631D01*
X157623088Y-77098631D02*
X157723088Y-77065298D01*
X157723088Y-77065298D02*
X157789755Y-77065298D01*
X157789755Y-77065298D02*
X157889755Y-77098631D01*
X157889755Y-77098631D02*
X157923088Y-77131965D01*
X158189755Y-77131965D02*
X158223088Y-77098631D01*
X158223088Y-77098631D02*
X158289755Y-77065298D01*
X158289755Y-77065298D02*
X158456422Y-77065298D01*
X158456422Y-77065298D02*
X158523088Y-77098631D01*
X158523088Y-77098631D02*
X158556422Y-77131965D01*
X158556422Y-77131965D02*
X158589755Y-77198631D01*
X158589755Y-77198631D02*
X158589755Y-77265298D01*
X158589755Y-77265298D02*
X158556422Y-77365298D01*
X158556422Y-77365298D02*
X158156422Y-77765298D01*
X158156422Y-77765298D02*
X158589755Y-77765298D01*
X158856422Y-77131965D02*
X158889755Y-77098631D01*
X158889755Y-77098631D02*
X158956422Y-77065298D01*
X158956422Y-77065298D02*
X159123089Y-77065298D01*
X159123089Y-77065298D02*
X159189755Y-77098631D01*
X159189755Y-77098631D02*
X159223089Y-77131965D01*
X159223089Y-77131965D02*
X159256422Y-77198631D01*
X159256422Y-77198631D02*
X159256422Y-77265298D01*
X159256422Y-77265298D02*
X159223089Y-77365298D01*
X159223089Y-77365298D02*
X158823089Y-77765298D01*
X158823089Y-77765298D02*
X159256422Y-77765298D01*
X116361184Y-97231584D02*
X116361184Y-98041107D01*
X116361184Y-98041107D02*
X116408803Y-98136345D01*
X116408803Y-98136345D02*
X116456422Y-98183965D01*
X116456422Y-98183965D02*
X116551660Y-98231584D01*
X116551660Y-98231584D02*
X116742136Y-98231584D01*
X116742136Y-98231584D02*
X116837374Y-98183965D01*
X116837374Y-98183965D02*
X116884993Y-98136345D01*
X116884993Y-98136345D02*
X116932612Y-98041107D01*
X116932612Y-98041107D02*
X116932612Y-97231584D01*
X117456422Y-98231584D02*
X117646898Y-98231584D01*
X117646898Y-98231584D02*
X117742136Y-98183965D01*
X117742136Y-98183965D02*
X117789755Y-98136345D01*
X117789755Y-98136345D02*
X117884993Y-97993488D01*
X117884993Y-97993488D02*
X117932612Y-97803012D01*
X117932612Y-97803012D02*
X117932612Y-97422060D01*
X117932612Y-97422060D02*
X117884993Y-97326822D01*
X117884993Y-97326822D02*
X117837374Y-97279203D01*
X117837374Y-97279203D02*
X117742136Y-97231584D01*
X117742136Y-97231584D02*
X117551660Y-97231584D01*
X117551660Y-97231584D02*
X117456422Y-97279203D01*
X117456422Y-97279203D02*
X117408803Y-97326822D01*
X117408803Y-97326822D02*
X117361184Y-97422060D01*
X117361184Y-97422060D02*
X117361184Y-97660155D01*
X117361184Y-97660155D02*
X117408803Y-97755393D01*
X117408803Y-97755393D02*
X117456422Y-97803012D01*
X117456422Y-97803012D02*
X117551660Y-97850631D01*
X117551660Y-97850631D02*
X117742136Y-97850631D01*
X117742136Y-97850631D02*
X117837374Y-97803012D01*
X117837374Y-97803012D02*
X117884993Y-97755393D01*
X117884993Y-97755393D02*
X117932612Y-97660155D01*
X157303088Y-86409631D02*
X157269755Y-86442965D01*
X157269755Y-86442965D02*
X157169755Y-86476298D01*
X157169755Y-86476298D02*
X157103088Y-86476298D01*
X157103088Y-86476298D02*
X157003088Y-86442965D01*
X157003088Y-86442965D02*
X156936422Y-86376298D01*
X156936422Y-86376298D02*
X156903088Y-86309631D01*
X156903088Y-86309631D02*
X156869755Y-86176298D01*
X156869755Y-86176298D02*
X156869755Y-86076298D01*
X156869755Y-86076298D02*
X156903088Y-85942965D01*
X156903088Y-85942965D02*
X156936422Y-85876298D01*
X156936422Y-85876298D02*
X157003088Y-85809631D01*
X157003088Y-85809631D02*
X157103088Y-85776298D01*
X157103088Y-85776298D02*
X157169755Y-85776298D01*
X157169755Y-85776298D02*
X157269755Y-85809631D01*
X157269755Y-85809631D02*
X157303088Y-85842965D01*
X157569755Y-85842965D02*
X157603088Y-85809631D01*
X157603088Y-85809631D02*
X157669755Y-85776298D01*
X157669755Y-85776298D02*
X157836422Y-85776298D01*
X157836422Y-85776298D02*
X157903088Y-85809631D01*
X157903088Y-85809631D02*
X157936422Y-85842965D01*
X157936422Y-85842965D02*
X157969755Y-85909631D01*
X157969755Y-85909631D02*
X157969755Y-85976298D01*
X157969755Y-85976298D02*
X157936422Y-86076298D01*
X157936422Y-86076298D02*
X157536422Y-86476298D01*
X157536422Y-86476298D02*
X157969755Y-86476298D01*
X158203089Y-85776298D02*
X158636422Y-85776298D01*
X158636422Y-85776298D02*
X158403089Y-86042965D01*
X158403089Y-86042965D02*
X158503089Y-86042965D01*
X158503089Y-86042965D02*
X158569755Y-86076298D01*
X158569755Y-86076298D02*
X158603089Y-86109631D01*
X158603089Y-86109631D02*
X158636422Y-86176298D01*
X158636422Y-86176298D02*
X158636422Y-86342965D01*
X158636422Y-86342965D02*
X158603089Y-86409631D01*
X158603089Y-86409631D02*
X158569755Y-86442965D01*
X158569755Y-86442965D02*
X158503089Y-86476298D01*
X158503089Y-86476298D02*
X158303089Y-86476298D01*
X158303089Y-86476298D02*
X158236422Y-86442965D01*
X158236422Y-86442965D02*
X158203089Y-86409631D01*
D12*
X147397898Y-109670693D02*
X147159803Y-109837359D01*
X147397898Y-109956407D02*
X146897898Y-109956407D01*
X146897898Y-109956407D02*
X146897898Y-109765931D01*
X146897898Y-109765931D02*
X146921708Y-109718312D01*
X146921708Y-109718312D02*
X146945517Y-109694502D01*
X146945517Y-109694502D02*
X146993136Y-109670693D01*
X146993136Y-109670693D02*
X147064565Y-109670693D01*
X147064565Y-109670693D02*
X147112184Y-109694502D01*
X147112184Y-109694502D02*
X147135993Y-109718312D01*
X147135993Y-109718312D02*
X147159803Y-109765931D01*
X147159803Y-109765931D02*
X147159803Y-109956407D01*
X147397898Y-109194502D02*
X147397898Y-109480216D01*
X147397898Y-109337359D02*
X146897898Y-109337359D01*
X146897898Y-109337359D02*
X146969327Y-109384978D01*
X146969327Y-109384978D02*
X147016946Y-109432597D01*
X147016946Y-109432597D02*
X147040755Y-109480216D01*
X146897898Y-109027836D02*
X146897898Y-108694503D01*
X146897898Y-108694503D02*
X147397898Y-108908788D01*
X160512660Y-94125074D02*
X160345994Y-93886979D01*
X160226946Y-94125074D02*
X160226946Y-93625074D01*
X160226946Y-93625074D02*
X160417422Y-93625074D01*
X160417422Y-93625074D02*
X160465041Y-93648884D01*
X160465041Y-93648884D02*
X160488851Y-93672693D01*
X160488851Y-93672693D02*
X160512660Y-93720312D01*
X160512660Y-93720312D02*
X160512660Y-93791741D01*
X160512660Y-93791741D02*
X160488851Y-93839360D01*
X160488851Y-93839360D02*
X160465041Y-93863169D01*
X160465041Y-93863169D02*
X160417422Y-93886979D01*
X160417422Y-93886979D02*
X160226946Y-93886979D01*
X160988851Y-94125074D02*
X160703137Y-94125074D01*
X160845994Y-94125074D02*
X160845994Y-93625074D01*
X160845994Y-93625074D02*
X160798375Y-93696503D01*
X160798375Y-93696503D02*
X160750756Y-93744122D01*
X160750756Y-93744122D02*
X160703137Y-93767931D01*
X161441231Y-93625074D02*
X161203136Y-93625074D01*
X161203136Y-93625074D02*
X161179327Y-93863169D01*
X161179327Y-93863169D02*
X161203136Y-93839360D01*
X161203136Y-93839360D02*
X161250755Y-93815550D01*
X161250755Y-93815550D02*
X161369803Y-93815550D01*
X161369803Y-93815550D02*
X161417422Y-93839360D01*
X161417422Y-93839360D02*
X161441231Y-93863169D01*
X161441231Y-93863169D02*
X161465041Y-93910788D01*
X161465041Y-93910788D02*
X161465041Y-94029836D01*
X161465041Y-94029836D02*
X161441231Y-94077455D01*
X161441231Y-94077455D02*
X161417422Y-94101265D01*
X161417422Y-94101265D02*
X161369803Y-94125074D01*
X161369803Y-94125074D02*
X161250755Y-94125074D01*
X161250755Y-94125074D02*
X161203136Y-94101265D01*
X161203136Y-94101265D02*
X161179327Y-94077455D01*
X134397898Y-105972598D02*
X134159803Y-106139264D01*
X134397898Y-106258312D02*
X133897898Y-106258312D01*
X133897898Y-106258312D02*
X133897898Y-106067836D01*
X133897898Y-106067836D02*
X133921708Y-106020217D01*
X133921708Y-106020217D02*
X133945517Y-105996407D01*
X133945517Y-105996407D02*
X133993136Y-105972598D01*
X133993136Y-105972598D02*
X134064565Y-105972598D01*
X134064565Y-105972598D02*
X134112184Y-105996407D01*
X134112184Y-105996407D02*
X134135993Y-106020217D01*
X134135993Y-106020217D02*
X134159803Y-106067836D01*
X134159803Y-106067836D02*
X134159803Y-106258312D01*
X134397898Y-105496407D02*
X134397898Y-105782121D01*
X134397898Y-105639264D02*
X133897898Y-105639264D01*
X133897898Y-105639264D02*
X133969327Y-105686883D01*
X133969327Y-105686883D02*
X134016946Y-105734502D01*
X134016946Y-105734502D02*
X134040755Y-105782121D01*
D11*
X129673088Y-99798631D02*
X129639755Y-99831965D01*
X129639755Y-99831965D02*
X129539755Y-99865298D01*
X129539755Y-99865298D02*
X129473088Y-99865298D01*
X129473088Y-99865298D02*
X129373088Y-99831965D01*
X129373088Y-99831965D02*
X129306422Y-99765298D01*
X129306422Y-99765298D02*
X129273088Y-99698631D01*
X129273088Y-99698631D02*
X129239755Y-99565298D01*
X129239755Y-99565298D02*
X129239755Y-99465298D01*
X129239755Y-99465298D02*
X129273088Y-99331965D01*
X129273088Y-99331965D02*
X129306422Y-99265298D01*
X129306422Y-99265298D02*
X129373088Y-99198631D01*
X129373088Y-99198631D02*
X129473088Y-99165298D01*
X129473088Y-99165298D02*
X129539755Y-99165298D01*
X129539755Y-99165298D02*
X129639755Y-99198631D01*
X129639755Y-99198631D02*
X129673088Y-99231965D01*
X130339755Y-99865298D02*
X129939755Y-99865298D01*
X130139755Y-99865298D02*
X130139755Y-99165298D01*
X130139755Y-99165298D02*
X130073088Y-99265298D01*
X130073088Y-99265298D02*
X130006422Y-99331965D01*
X130006422Y-99331965D02*
X129939755Y-99365298D01*
X130573089Y-99165298D02*
X131039755Y-99165298D01*
X131039755Y-99165298D02*
X130739755Y-99865298D01*
X126073088Y-72248631D02*
X126039755Y-72281965D01*
X126039755Y-72281965D02*
X125939755Y-72315298D01*
X125939755Y-72315298D02*
X125873088Y-72315298D01*
X125873088Y-72315298D02*
X125773088Y-72281965D01*
X125773088Y-72281965D02*
X125706422Y-72215298D01*
X125706422Y-72215298D02*
X125673088Y-72148631D01*
X125673088Y-72148631D02*
X125639755Y-72015298D01*
X125639755Y-72015298D02*
X125639755Y-71915298D01*
X125639755Y-71915298D02*
X125673088Y-71781965D01*
X125673088Y-71781965D02*
X125706422Y-71715298D01*
X125706422Y-71715298D02*
X125773088Y-71648631D01*
X125773088Y-71648631D02*
X125873088Y-71615298D01*
X125873088Y-71615298D02*
X125939755Y-71615298D01*
X125939755Y-71615298D02*
X126039755Y-71648631D01*
X126039755Y-71648631D02*
X126073088Y-71681965D01*
X126339755Y-71681965D02*
X126373088Y-71648631D01*
X126373088Y-71648631D02*
X126439755Y-71615298D01*
X126439755Y-71615298D02*
X126606422Y-71615298D01*
X126606422Y-71615298D02*
X126673088Y-71648631D01*
X126673088Y-71648631D02*
X126706422Y-71681965D01*
X126706422Y-71681965D02*
X126739755Y-71748631D01*
X126739755Y-71748631D02*
X126739755Y-71815298D01*
X126739755Y-71815298D02*
X126706422Y-71915298D01*
X126706422Y-71915298D02*
X126306422Y-72315298D01*
X126306422Y-72315298D02*
X126739755Y-72315298D01*
X127339755Y-71848631D02*
X127339755Y-72315298D01*
X127173089Y-71581965D02*
X127006422Y-72081965D01*
X127006422Y-72081965D02*
X127439755Y-72081965D01*
%TO.C,U7*%
X133898089Y-69974265D02*
X129748089Y-69974265D01*
X133898089Y-75124265D02*
X129748089Y-75124265D01*
D13*
X134563089Y-75379265D02*
X134083089Y-75379265D01*
X134323089Y-75049265D01*
X134563089Y-75379265D01*
G36*
X134563089Y-75379265D02*
G01*
X134083089Y-75379265D01*
X134323089Y-75049265D01*
X134563089Y-75379265D01*
G37*
%TO.C,U10*%
X152515089Y-88261265D02*
X152515089Y-88531265D01*
X152515089Y-93781265D02*
X152515089Y-93511265D01*
X155275089Y-88261265D02*
X152515089Y-88261265D01*
X155275089Y-88261265D02*
X158035089Y-88261265D01*
X155275089Y-93781265D02*
X152515089Y-93781265D01*
X155275089Y-93781265D02*
X158035089Y-93781265D01*
X158035089Y-88261265D02*
X158035089Y-88531265D01*
X158035089Y-93781265D02*
X158035089Y-93511265D01*
X159040089Y-93841265D02*
X158560089Y-93841265D01*
X158800089Y-93511265D01*
X159040089Y-93841265D01*
G36*
X159040089Y-93841265D02*
G01*
X158560089Y-93841265D01*
X158800089Y-93511265D01*
X159040089Y-93841265D01*
G37*
%TO.C,C10*%
X114943089Y-78898265D02*
X114943089Y-77700265D01*
X114983089Y-79161265D02*
X114983089Y-77437265D01*
X115023089Y-79361265D02*
X115023089Y-77237265D01*
X115063089Y-79529265D02*
X115063089Y-77069265D01*
X115103089Y-79676265D02*
X115103089Y-76922265D01*
X115143089Y-79808265D02*
X115143089Y-76790265D01*
X115183089Y-79929265D02*
X115183089Y-76669265D01*
X115223089Y-80041265D02*
X115223089Y-76557265D01*
X115263089Y-80145265D02*
X115263089Y-76453265D01*
X115303089Y-80243265D02*
X115303089Y-76355265D01*
X115343089Y-80336265D02*
X115343089Y-76262265D01*
X115383089Y-80423265D02*
X115383089Y-76175265D01*
X115423089Y-80507265D02*
X115423089Y-76091265D01*
X115463089Y-80587265D02*
X115463089Y-76011265D01*
X115503089Y-80664265D02*
X115503089Y-75934265D01*
X115543089Y-80738265D02*
X115543089Y-75860265D01*
X115583089Y-80809265D02*
X115583089Y-75789265D01*
X115623089Y-80877265D02*
X115623089Y-75721265D01*
X115663089Y-80943265D02*
X115663089Y-75655265D01*
X115703089Y-81007265D02*
X115703089Y-75591265D01*
X115743089Y-81069265D02*
X115743089Y-75529265D01*
X115783089Y-81129265D02*
X115783089Y-75469265D01*
X115823089Y-81187265D02*
X115823089Y-75411265D01*
X115863089Y-81244265D02*
X115863089Y-75354265D01*
X115903089Y-81299265D02*
X115903089Y-75299265D01*
X115943089Y-81352265D02*
X115943089Y-75246265D01*
X115983089Y-81404265D02*
X115983089Y-75194265D01*
X116023089Y-81455265D02*
X116023089Y-75143265D01*
X116063089Y-81504265D02*
X116063089Y-75094265D01*
X116103089Y-81553265D02*
X116103089Y-75045265D01*
X116143089Y-81600265D02*
X116143089Y-74998265D01*
X116183089Y-81646265D02*
X116183089Y-74952265D01*
X116223089Y-81690265D02*
X116223089Y-74908265D01*
X116263089Y-81734265D02*
X116263089Y-74864265D01*
X116303089Y-77059265D02*
X116303089Y-74821265D01*
X116303089Y-81777265D02*
X116303089Y-79539265D01*
X116343089Y-77059265D02*
X116343089Y-74779265D01*
X116343089Y-81819265D02*
X116343089Y-79539265D01*
X116383089Y-77059265D02*
X116383089Y-74738265D01*
X116383089Y-81860265D02*
X116383089Y-79539265D01*
X116423089Y-77059265D02*
X116423089Y-74698265D01*
X116423089Y-81900265D02*
X116423089Y-79539265D01*
X116463089Y-77059265D02*
X116463089Y-74659265D01*
X116463089Y-81939265D02*
X116463089Y-79539265D01*
X116503089Y-77059265D02*
X116503089Y-74621265D01*
X116503089Y-81977265D02*
X116503089Y-79539265D01*
X116543089Y-77059265D02*
X116543089Y-74583265D01*
X116543089Y-82015265D02*
X116543089Y-79539265D01*
X116583089Y-77059265D02*
X116583089Y-74547265D01*
X116583089Y-82051265D02*
X116583089Y-79539265D01*
X116623089Y-77059265D02*
X116623089Y-74511265D01*
X116623089Y-82087265D02*
X116623089Y-79539265D01*
X116663089Y-77059265D02*
X116663089Y-74476265D01*
X116663089Y-82122265D02*
X116663089Y-79539265D01*
X116703089Y-77059265D02*
X116703089Y-74441265D01*
X116703089Y-82157265D02*
X116703089Y-79539265D01*
X116743089Y-77059265D02*
X116743089Y-74408265D01*
X116743089Y-82190265D02*
X116743089Y-79539265D01*
X116783089Y-77059265D02*
X116783089Y-74375265D01*
X116783089Y-82223265D02*
X116783089Y-79539265D01*
X116823089Y-77059265D02*
X116823089Y-74342265D01*
X116823089Y-82256265D02*
X116823089Y-79539265D01*
X116863089Y-77059265D02*
X116863089Y-74311265D01*
X116863089Y-82287265D02*
X116863089Y-79539265D01*
X116903089Y-77059265D02*
X116903089Y-74279265D01*
X116903089Y-82319265D02*
X116903089Y-79539265D01*
X116943089Y-77059265D02*
X116943089Y-74249265D01*
X116943089Y-82349265D02*
X116943089Y-79539265D01*
X116983089Y-77059265D02*
X116983089Y-74219265D01*
X116983089Y-82379265D02*
X116983089Y-79539265D01*
X117023089Y-77059265D02*
X117023089Y-74190265D01*
X117023089Y-82408265D02*
X117023089Y-79539265D01*
X117063089Y-77059265D02*
X117063089Y-74161265D01*
X117063089Y-82437265D02*
X117063089Y-79539265D01*
X117103089Y-77059265D02*
X117103089Y-74133265D01*
X117103089Y-82465265D02*
X117103089Y-79539265D01*
X117143089Y-77059265D02*
X117143089Y-74106265D01*
X117143089Y-82492265D02*
X117143089Y-79539265D01*
X117183089Y-77059265D02*
X117183089Y-74079265D01*
X117183089Y-82519265D02*
X117183089Y-79539265D01*
X117223089Y-77059265D02*
X117223089Y-74052265D01*
X117223089Y-82546265D02*
X117223089Y-79539265D01*
X117263089Y-77059265D02*
X117263089Y-74027265D01*
X117263089Y-82571265D02*
X117263089Y-79539265D01*
X117303089Y-77059265D02*
X117303089Y-74001265D01*
X117303089Y-82597265D02*
X117303089Y-79539265D01*
X117343089Y-77059265D02*
X117343089Y-73976265D01*
X117343089Y-82622265D02*
X117343089Y-79539265D01*
X117383089Y-77059265D02*
X117383089Y-73952265D01*
X117383089Y-82646265D02*
X117383089Y-79539265D01*
X117423089Y-77059265D02*
X117423089Y-73928265D01*
X117423089Y-82670265D02*
X117423089Y-79539265D01*
X117463089Y-77059265D02*
X117463089Y-73905265D01*
X117463089Y-82693265D02*
X117463089Y-79539265D01*
X117503089Y-77059265D02*
X117503089Y-73882265D01*
X117503089Y-82716265D02*
X117503089Y-79539265D01*
X117543089Y-77059265D02*
X117543089Y-73860265D01*
X117543089Y-82738265D02*
X117543089Y-79539265D01*
X117583089Y-77059265D02*
X117583089Y-73838265D01*
X117583089Y-82760265D02*
X117583089Y-79539265D01*
X117623089Y-77059265D02*
X117623089Y-73816265D01*
X117623089Y-82782265D02*
X117623089Y-79539265D01*
X117663089Y-77059265D02*
X117663089Y-73795265D01*
X117663089Y-82803265D02*
X117663089Y-79539265D01*
X117703089Y-77059265D02*
X117703089Y-73775265D01*
X117703089Y-82823265D02*
X117703089Y-79539265D01*
X117743089Y-77059265D02*
X117743089Y-73755265D01*
X117743089Y-82843265D02*
X117743089Y-79539265D01*
X117783089Y-77059265D02*
X117783089Y-73735265D01*
X117783089Y-82863265D02*
X117783089Y-79539265D01*
X117823089Y-77059265D02*
X117823089Y-73716265D01*
X117823089Y-82882265D02*
X117823089Y-79539265D01*
X117863089Y-77059265D02*
X117863089Y-73697265D01*
X117863089Y-82901265D02*
X117863089Y-79539265D01*
X117903089Y-77059265D02*
X117903089Y-73679265D01*
X117903089Y-82919265D02*
X117903089Y-79539265D01*
X117943089Y-77059265D02*
X117943089Y-73661265D01*
X117943089Y-82937265D02*
X117943089Y-79539265D01*
X117983089Y-77059265D02*
X117983089Y-73643265D01*
X117983089Y-82955265D02*
X117983089Y-79539265D01*
X118023089Y-77059265D02*
X118023089Y-73626265D01*
X118023089Y-82972265D02*
X118023089Y-79539265D01*
X118063089Y-77059265D02*
X118063089Y-73609265D01*
X118063089Y-82989265D02*
X118063089Y-79539265D01*
X118103089Y-77059265D02*
X118103089Y-73593265D01*
X118103089Y-83005265D02*
X118103089Y-79539265D01*
X118143089Y-77059265D02*
X118143089Y-73577265D01*
X118143089Y-83021265D02*
X118143089Y-79539265D01*
X118183089Y-77059265D02*
X118183089Y-73561265D01*
X118183089Y-83037265D02*
X118183089Y-79539265D01*
X118223089Y-77059265D02*
X118223089Y-73546265D01*
X118223089Y-83052265D02*
X118223089Y-79539265D01*
X118263089Y-77059265D02*
X118263089Y-73531265D01*
X118263089Y-83067265D02*
X118263089Y-79539265D01*
X118303089Y-77059265D02*
X118303089Y-73517265D01*
X118303089Y-83081265D02*
X118303089Y-79539265D01*
X118343089Y-77059265D02*
X118343089Y-73502265D01*
X118343089Y-83096265D02*
X118343089Y-79539265D01*
X118383089Y-77059265D02*
X118383089Y-73489265D01*
X118383089Y-83109265D02*
X118383089Y-79539265D01*
X118423089Y-77059265D02*
X118423089Y-73475265D01*
X118423089Y-83123265D02*
X118423089Y-79539265D01*
X118463089Y-77059265D02*
X118463089Y-73462265D01*
X118463089Y-83136265D02*
X118463089Y-79539265D01*
X118503089Y-77059265D02*
X118503089Y-73450265D01*
X118503089Y-83148265D02*
X118503089Y-79539265D01*
X118543089Y-77059265D02*
X118543089Y-73438265D01*
X118543089Y-83160265D02*
X118543089Y-79539265D01*
X118583089Y-77059265D02*
X118583089Y-73426265D01*
X118583089Y-83172265D02*
X118583089Y-79539265D01*
X118623089Y-77059265D02*
X118623089Y-73414265D01*
X118623089Y-83184265D02*
X118623089Y-79539265D01*
X118663089Y-77059265D02*
X118663089Y-73403265D01*
X118663089Y-83195265D02*
X118663089Y-79539265D01*
X118703089Y-77059265D02*
X118703089Y-73392265D01*
X118703089Y-83206265D02*
X118703089Y-79539265D01*
X118743089Y-77059265D02*
X118743089Y-73382265D01*
X118743089Y-83216265D02*
X118743089Y-79539265D01*
X118783089Y-83227265D02*
X118783089Y-73371265D01*
X118823089Y-83236265D02*
X118823089Y-73362265D01*
X118863089Y-83246265D02*
X118863089Y-73352265D01*
X118903089Y-83255265D02*
X118903089Y-73343265D01*
X118943089Y-83264265D02*
X118943089Y-73334265D01*
X118983089Y-83272265D02*
X118983089Y-73326265D01*
X119023089Y-83280265D02*
X119023089Y-73318265D01*
X119063089Y-83288265D02*
X119063089Y-73310265D01*
X119103089Y-83296265D02*
X119103089Y-73302265D01*
X119143089Y-83303265D02*
X119143089Y-73295265D01*
X119183089Y-83310265D02*
X119183089Y-73288265D01*
X119223089Y-83316265D02*
X119223089Y-73282265D01*
X119263089Y-83322265D02*
X119263089Y-73276265D01*
X119303089Y-83328265D02*
X119303089Y-73270265D01*
X119343089Y-83334265D02*
X119343089Y-73264265D01*
X119383089Y-83339265D02*
X119383089Y-73259265D01*
X119423089Y-83344265D02*
X119423089Y-73254265D01*
X119463089Y-83348265D02*
X119463089Y-73250265D01*
X119503089Y-83353265D02*
X119503089Y-73245265D01*
X119543089Y-83356265D02*
X119543089Y-73242265D01*
X119583089Y-83360265D02*
X119583089Y-73238265D01*
X119623089Y-83363265D02*
X119623089Y-73235265D01*
X119663089Y-83366265D02*
X119663089Y-73232265D01*
X119703089Y-83369265D02*
X119703089Y-73229265D01*
X119743089Y-83371265D02*
X119743089Y-73227265D01*
X119783089Y-83373265D02*
X119783089Y-73225265D01*
X119823089Y-83375265D02*
X119823089Y-73223265D01*
X119863089Y-83376265D02*
X119863089Y-73222265D01*
X119903089Y-83378265D02*
X119903089Y-73220265D01*
X119943089Y-83378265D02*
X119943089Y-73220265D01*
X119983089Y-83379265D02*
X119983089Y-73219265D01*
X120023089Y-83379265D02*
X120023089Y-73219265D01*
X125002735Y-81674265D02*
X125002735Y-80674265D01*
X125502735Y-81174265D02*
X124502735Y-81174265D01*
X125143089Y-78299265D02*
G75*
G02*
X114903089Y-78299265I-5120000J0D01*
G01*
X114903089Y-78299265D02*
G75*
G02*
X125143089Y-78299265I5120000J0D01*
G01*
%TO.C,R4*%
X134869448Y-100419265D02*
X135176730Y-100419265D01*
X134869448Y-101179265D02*
X135176730Y-101179265D01*
%TO.C,D1*%
X157123089Y-75509265D02*
X157123089Y-72849265D01*
X157123089Y-75509265D02*
X158823089Y-75509265D01*
X158823089Y-75509265D02*
X158823089Y-72849265D01*
%TO.C,R16*%
X123750589Y-72386523D02*
X123750589Y-71912007D01*
X124795589Y-72386523D02*
X124795589Y-71912007D01*
%TO.C,C9*%
X138730925Y-105539265D02*
X138515253Y-105539265D01*
X138730925Y-106259265D02*
X138515253Y-106259265D01*
D10*
%TO.C,ANTENNE*%
X116793089Y-119109265D02*
X125393089Y-119109265D01*
D13*
X116993089Y-118709265D02*
X116993089Y-110509265D01*
X124693089Y-114609265D02*
X125193089Y-115109265D01*
X125193089Y-110509265D02*
X116993089Y-110509265D01*
X125193089Y-114109265D02*
X124693089Y-114609265D01*
X125193089Y-118709265D02*
X116993089Y-118709265D01*
X125193089Y-118709265D02*
X125193089Y-110509265D01*
%TO.C,C7*%
X137415253Y-103539265D02*
X137630925Y-103539265D01*
X137415253Y-104259265D02*
X137630925Y-104259265D01*
%TO.C,C5*%
X151285253Y-101339265D02*
X151500925Y-101339265D01*
X151285253Y-102059265D02*
X151500925Y-102059265D01*
%TO.C,C1*%
X141065253Y-91639265D02*
X141280925Y-91639265D01*
X141065253Y-92359265D02*
X141280925Y-92359265D01*
%TO.C,C3*%
X158713089Y-100961429D02*
X158713089Y-101177101D01*
X159433089Y-100961429D02*
X159433089Y-101177101D01*
D14*
%TO.C,L4*%
X149773089Y-77599265D02*
X156873089Y-77599265D01*
X149773089Y-79749265D02*
X149773089Y-77599265D01*
X149773089Y-82549265D02*
X149773089Y-84699265D01*
X149773089Y-84699265D02*
X156873089Y-84699265D01*
X156873089Y-77599265D02*
X156873089Y-79749265D01*
X156873089Y-84699265D02*
X156873089Y-82549265D01*
D13*
%TO.C,R14*%
X117776730Y-88989265D02*
X117469448Y-88989265D01*
X117776730Y-89749265D02*
X117469448Y-89749265D01*
%TO.C,J10*%
X133338089Y-108584265D02*
X133338089Y-107839265D01*
X134073089Y-108584265D02*
X133338089Y-108584265D01*
X134808089Y-107094265D02*
X136683089Y-107094265D01*
X134808089Y-107153700D02*
X134808089Y-107094265D01*
X134808089Y-108584265D02*
X134808089Y-108524830D01*
X134808089Y-108584265D02*
X136683089Y-108584265D01*
X136683089Y-107429235D02*
X136683089Y-107094265D01*
X136683089Y-108584265D02*
X136683089Y-108249295D01*
%TO.C,R12*%
X117469448Y-92239265D02*
X117776730Y-92239265D01*
X117469448Y-92999265D02*
X117776730Y-92999265D01*
%TO.C,C13*%
X143313089Y-108841429D02*
X143313089Y-109057101D01*
X144033089Y-108841429D02*
X144033089Y-109057101D01*
%TO.C,C12*%
X138813089Y-107241429D02*
X138813089Y-107457101D01*
X139533089Y-107241429D02*
X139533089Y-107457101D01*
%TO.C,ESC4*%
X167098089Y-106334265D02*
X167843089Y-106334265D01*
X167098089Y-107069265D02*
X167098089Y-106334265D01*
X167098089Y-107804265D02*
X167098089Y-109679265D01*
X167098089Y-107804265D02*
X167157524Y-107804265D01*
X167098089Y-109679265D02*
X167433059Y-109679265D01*
X168253119Y-109679265D02*
X168588089Y-109679265D01*
X168528654Y-107804265D02*
X168588089Y-107804265D01*
X168588089Y-107804265D02*
X168588089Y-109679265D01*
D15*
%TO.C,U2*%
X129873089Y-90899265D02*
X130363589Y-90899265D01*
X129873089Y-91326265D02*
X129873089Y-90899265D01*
X130363589Y-95289765D02*
X129682589Y-94608765D01*
X134073089Y-90899265D02*
X133646089Y-90899265D01*
X134073089Y-91326265D02*
X134073089Y-90899265D01*
X134073089Y-94672265D02*
X134073089Y-95099265D01*
X134073089Y-95099265D02*
X133646089Y-95099265D01*
D16*
X129875589Y-95223765D02*
G75*
G02*
X129621589Y-95223765I-127000J0D01*
G01*
X129621589Y-95223765D02*
G75*
G02*
X129875589Y-95223765I127000J0D01*
G01*
D13*
%TO.C,ESC2*%
X167098089Y-98334265D02*
X167843089Y-98334265D01*
X167098089Y-99069265D02*
X167098089Y-98334265D01*
X167098089Y-99804265D02*
X167098089Y-101679265D01*
X167098089Y-99804265D02*
X167157524Y-99804265D01*
X167098089Y-101679265D02*
X167433059Y-101679265D01*
X168253119Y-101679265D02*
X168588089Y-101679265D01*
X168528654Y-99804265D02*
X168588089Y-99804265D01*
X168588089Y-99804265D02*
X168588089Y-101679265D01*
%TO.C,R7*%
X135743089Y-71895624D02*
X135743089Y-72202906D01*
X136503089Y-71895624D02*
X136503089Y-72202906D01*
D10*
%TO.C,D4*%
X145413089Y-91999265D02*
G75*
G02*
X145313089Y-91999265I-50000J0D01*
G01*
X145313089Y-91999265D02*
G75*
G02*
X145413089Y-91999265I50000J0D01*
G01*
D13*
%TO.C,C6*%
X138230925Y-104589265D02*
X138015253Y-104589265D01*
X138230925Y-105309265D02*
X138015253Y-105309265D01*
%TO.C,R5*%
X158426730Y-71369265D02*
X158119448Y-71369265D01*
X158426730Y-72129265D02*
X158119448Y-72129265D01*
%TO.C,C20*%
X125960589Y-106477429D02*
X125960589Y-106693101D01*
X126680589Y-106477429D02*
X126680589Y-106693101D01*
%TO.C,C2*%
X151315253Y-95789265D02*
X151530925Y-95789265D01*
X151315253Y-96509265D02*
X151530925Y-96509265D01*
D11*
%TO.C,U5*%
X155198089Y-71974265D02*
X151048089Y-71974265D01*
X155198089Y-77124265D02*
X151048089Y-77124265D01*
D13*
X155863089Y-77379265D02*
X155383089Y-77379265D01*
X155623089Y-77049265D01*
X155863089Y-77379265D01*
G36*
X155863089Y-77379265D02*
G01*
X155383089Y-77379265D01*
X155623089Y-77049265D01*
X155863089Y-77379265D01*
G37*
%TO.C,C15*%
X127923089Y-91069845D02*
X127923089Y-90788685D01*
X128943089Y-91069845D02*
X128943089Y-90788685D01*
%TO.C,C19*%
X126098089Y-102124601D02*
X126098089Y-101908929D01*
X126818089Y-102124601D02*
X126818089Y-101908929D01*
%TO.C,C18*%
X127980925Y-100236765D02*
X127765253Y-100236765D01*
X127980925Y-100956765D02*
X127765253Y-100956765D01*
%TO.C,C21*%
X148065253Y-79989265D02*
X148280925Y-79989265D01*
X148065253Y-80709265D02*
X148280925Y-80709265D01*
%TO.C,R9*%
X126126730Y-74169265D02*
X125819448Y-74169265D01*
X126126730Y-74929265D02*
X125819448Y-74929265D01*
%TO.C,U1*%
X138663089Y-94089265D02*
X139613089Y-94089265D01*
X138663089Y-95039265D02*
X138663089Y-94089265D01*
X138663089Y-103359265D02*
X138663089Y-104309265D01*
X138663089Y-104309265D02*
X139613089Y-104309265D01*
X148883089Y-94089265D02*
X147933089Y-94089265D01*
X148883089Y-95039265D02*
X148883089Y-94089265D01*
X148883089Y-103359265D02*
X148883089Y-104309265D01*
X148883089Y-104309265D02*
X147933089Y-104309265D01*
X139613089Y-104924265D02*
X139143089Y-105264265D01*
X139143089Y-104584265D01*
X139613089Y-104924265D01*
G36*
X139613089Y-104924265D02*
G01*
X139143089Y-105264265D01*
X139143089Y-104584265D01*
X139613089Y-104924265D01*
G37*
%TO.C,R8*%
X136743089Y-71895624D02*
X136743089Y-72202906D01*
X137503089Y-71895624D02*
X137503089Y-72202906D01*
%TO.C,R6*%
X157310347Y-69926765D02*
X156835831Y-69926765D01*
X157310347Y-70971765D02*
X156835831Y-70971765D01*
%TO.C,POWER*%
X167098089Y-87184265D02*
X167843089Y-87184265D01*
X167098089Y-87919265D02*
X167098089Y-87184265D01*
X167098089Y-88654265D02*
X167098089Y-90529265D01*
X167098089Y-88654265D02*
X167157524Y-88654265D01*
X167098089Y-90529265D02*
X167433059Y-90529265D01*
X168253119Y-90529265D02*
X168588089Y-90529265D01*
X168528654Y-88654265D02*
X168588089Y-88654265D01*
X168588089Y-88654265D02*
X168588089Y-90529265D01*
%TO.C,J7*%
X109528089Y-84864265D02*
X109528089Y-80989265D01*
X109587524Y-84864265D02*
X109528089Y-84864265D01*
X109863059Y-80989265D02*
X109528089Y-80989265D01*
X111018089Y-80989265D02*
X110683119Y-80989265D01*
X111018089Y-84864265D02*
X110958654Y-84864265D01*
X111018089Y-84864265D02*
X111018089Y-80989265D01*
X111018089Y-85599265D02*
X111018089Y-86334265D01*
X111018089Y-86334265D02*
X110273089Y-86334265D01*
D14*
%TO.C,L5*%
X126023089Y-76099265D02*
X126023089Y-83199265D01*
X126023089Y-83199265D02*
X128173089Y-83199265D01*
X128173089Y-76099265D02*
X126023089Y-76099265D01*
X130973089Y-76099265D02*
X133123089Y-76099265D01*
X133123089Y-76099265D02*
X133123089Y-83199265D01*
X133123089Y-83199265D02*
X130973089Y-83199265D01*
D13*
%TO.C,U4*%
X126945589Y-110471765D02*
X126945589Y-109971765D01*
X127245589Y-105271765D02*
X127995589Y-105271765D01*
X127445589Y-110471765D02*
X126945589Y-110471765D01*
X129745589Y-105271765D02*
X130245589Y-105271765D01*
X130245589Y-105271765D02*
X130245589Y-105771765D01*
X130245589Y-109971765D02*
X130245589Y-110471765D01*
X130245589Y-110471765D02*
X129745589Y-110471765D01*
X127045589Y-105271765D02*
X126685589Y-105271765D01*
X127045589Y-104911765D01*
X127045589Y-105271765D01*
G36*
X127045589Y-105271765D02*
G01*
X126685589Y-105271765D01*
X127045589Y-104911765D01*
X127045589Y-105271765D01*
G37*
%TO.C,C16*%
X132340925Y-89419265D02*
X132125253Y-89419265D01*
X132340925Y-90139265D02*
X132125253Y-90139265D01*
%TO.C,C4*%
X151285253Y-94839265D02*
X151500925Y-94839265D01*
X151285253Y-95559265D02*
X151500925Y-95559265D01*
%TO.C,R19*%
X152310347Y-70476765D02*
X151835831Y-70476765D01*
X152310347Y-71521765D02*
X151835831Y-71521765D01*
%TO.C,ESC1*%
X167098089Y-94284265D02*
X167843089Y-94284265D01*
X167098089Y-95019265D02*
X167098089Y-94284265D01*
X167098089Y-95754265D02*
X167098089Y-97629265D01*
X167098089Y-95754265D02*
X167157524Y-95754265D01*
X167098089Y-97629265D02*
X167433059Y-97629265D01*
X168253119Y-97629265D02*
X168588089Y-97629265D01*
X168528654Y-95754265D02*
X168588089Y-95754265D01*
X168588089Y-95754265D02*
X168588089Y-97629265D01*
%TO.C,C14*%
X135965253Y-92289265D02*
X136180925Y-92289265D01*
X135965253Y-93009265D02*
X136180925Y-93009265D01*
%TO.C,Y1*%
X139713089Y-106189265D02*
X139713089Y-110309265D01*
X143133089Y-106189265D02*
X139713089Y-106189265D01*
%TO.C,FC*%
X167058089Y-92244265D02*
X167058089Y-91369265D01*
X167117524Y-92244265D02*
X167058089Y-92244265D01*
X167393059Y-91369265D02*
X167058089Y-91369265D01*
X168548089Y-91369265D02*
X168213119Y-91369265D01*
X168548089Y-92244265D02*
X168488654Y-92244265D01*
X168548089Y-92244265D02*
X168548089Y-91369265D01*
X168548089Y-92979265D02*
X168548089Y-93714265D01*
X168548089Y-93714265D02*
X167803089Y-93714265D01*
%TO.C,R18*%
X154419448Y-70769265D02*
X154726730Y-70769265D01*
X154419448Y-71529265D02*
X154726730Y-71529265D01*
%TO.C,R13*%
X117469448Y-91289265D02*
X117776730Y-91289265D01*
X117469448Y-92049265D02*
X117776730Y-92049265D01*
%TO.C,D3*%
X136188089Y-78360517D02*
X136188089Y-77838013D01*
X137658089Y-78360517D02*
X137658089Y-77838013D01*
%TO.C,ESC3*%
X167098089Y-102334265D02*
X167843089Y-102334265D01*
X167098089Y-103069265D02*
X167098089Y-102334265D01*
X167098089Y-103804265D02*
X167098089Y-105679265D01*
X167098089Y-103804265D02*
X167157524Y-103804265D01*
X167098089Y-105679265D02*
X167433059Y-105679265D01*
X168253119Y-105679265D02*
X168588089Y-105679265D01*
X168528654Y-103804265D02*
X168588089Y-103804265D01*
X168588089Y-103804265D02*
X168588089Y-105679265D01*
%TO.C,SW1*%
X153473089Y-100899265D02*
X153473089Y-100799265D01*
X153473089Y-102399265D02*
X157873089Y-102399265D01*
X154523089Y-99299265D02*
X153473089Y-99299265D01*
X157873089Y-99299265D02*
X156823089Y-99299265D01*
X157873089Y-100899265D02*
X157873089Y-100799265D01*
%TO.C,R2*%
X143293089Y-106945624D02*
X143293089Y-107252906D01*
X144053089Y-106945624D02*
X144053089Y-107252906D01*
%TO.C,C30*%
X145313089Y-107091429D02*
X145313089Y-107307101D01*
X146033089Y-107091429D02*
X146033089Y-107307101D01*
%TO.C,J13*%
X138453089Y-69406765D02*
X145773089Y-69406765D01*
X138453089Y-79446765D02*
X138453089Y-69406765D01*
X146373089Y-69406765D02*
X148693089Y-69406765D01*
X148693089Y-69406765D02*
X148693089Y-79446765D01*
X148693089Y-70026765D02*
X138453089Y-70026765D01*
X148693089Y-71526765D02*
X138453089Y-71526765D01*
X148693089Y-76426765D02*
X138453089Y-76426765D01*
X148693089Y-79446765D02*
X138453089Y-79446765D01*
X146073089Y-69406765D02*
X145633089Y-68796765D01*
X146513089Y-68796765D01*
X146073089Y-69406765D01*
G36*
X146073089Y-69406765D02*
G01*
X145633089Y-68796765D01*
X146513089Y-68796765D01*
X146073089Y-69406765D01*
G37*
D17*
%TO.C,U3*%
X127173089Y-101346765D02*
X127473089Y-101346765D01*
X127173089Y-101646765D02*
X127173089Y-101346765D01*
X127173089Y-104346765D02*
X127173089Y-104046765D01*
X127473089Y-104346765D02*
X127173089Y-104346765D01*
X129873089Y-101346765D02*
X130173089Y-101346765D01*
X130173089Y-101346765D02*
X130173089Y-101646765D01*
X130173089Y-104046765D02*
X130173089Y-104346765D01*
X130173089Y-104346765D02*
X129873089Y-104346765D01*
D14*
X131143089Y-103596765D02*
G75*
G02*
X130943089Y-103596765I-100000J0D01*
G01*
X130943089Y-103596765D02*
G75*
G02*
X131143089Y-103596765I100000J0D01*
G01*
D13*
%TO.C,R11*%
X117469448Y-89939265D02*
X117776730Y-89939265D01*
X117469448Y-90699265D02*
X117776730Y-90699265D01*
%TO.C,D2*%
X135673089Y-76359265D02*
X135673089Y-73699265D01*
X135673089Y-76359265D02*
X137373089Y-76359265D01*
X137373089Y-76359265D02*
X137373089Y-73699265D01*
%TO.C,C8*%
X139430925Y-91639265D02*
X139215253Y-91639265D01*
X139430925Y-92359265D02*
X139215253Y-92359265D01*
D17*
%TO.C,U6*%
X116803089Y-94019265D02*
X116803089Y-95019265D01*
X118743089Y-94019265D02*
X118743089Y-95019265D01*
D14*
X118373089Y-93519265D02*
G75*
G02*
X118173089Y-93519265I-100000J0D01*
G01*
X118173089Y-93519265D02*
G75*
G02*
X118373089Y-93519265I100000J0D01*
G01*
D13*
%TO.C,R10*%
X125819448Y-70619265D02*
X126126730Y-70619265D01*
X125819448Y-71379265D02*
X126126730Y-71379265D01*
%TO.C,C25*%
X134730925Y-75589265D02*
X134515253Y-75589265D01*
X134730925Y-76309265D02*
X134515253Y-76309265D01*
%TO.C,R3*%
X134869448Y-99419265D02*
X135176730Y-99419265D01*
X134869448Y-100179265D02*
X135176730Y-100179265D01*
%TO.C,C31*%
X147313089Y-107541429D02*
X147313089Y-107757101D01*
X148033089Y-107541429D02*
X148033089Y-107757101D01*
%TO.C,J2*%
X110433089Y-88759265D02*
X110833089Y-88759265D01*
X110833089Y-96279265D02*
X110433089Y-96279265D01*
X112803089Y-88759265D02*
X114783089Y-88759265D01*
X112803089Y-96279265D02*
X114783089Y-96279265D01*
X114783089Y-88759265D02*
X114783089Y-89179265D01*
X114783089Y-96279265D02*
X114783089Y-95859265D01*
X115013089Y-90759265D02*
X115463089Y-90759265D01*
X115463089Y-91209265D02*
X115463089Y-90759265D01*
%TO.C,C22*%
X158180925Y-75939265D02*
X157965253Y-75939265D01*
X158180925Y-76659265D02*
X157965253Y-76659265D01*
%TO.C,U9*%
X112163089Y-98616765D02*
X112163089Y-98766765D01*
X112163089Y-98616765D02*
X122083089Y-98616765D01*
X112163089Y-108786765D02*
X112163089Y-108936765D01*
X112163089Y-108936765D02*
X122083089Y-108936765D01*
X122083089Y-98616765D02*
X122083089Y-98766765D01*
X122083089Y-108786765D02*
X122083089Y-108936765D01*
X111693089Y-98766765D02*
X111453089Y-98436765D01*
X111933089Y-98436765D01*
X111693089Y-98766765D01*
G36*
X111693089Y-98766765D02*
G01*
X111453089Y-98436765D01*
X111933089Y-98436765D01*
X111693089Y-98766765D01*
G37*
%TO.C,C23*%
X157695766Y-79684265D02*
X158695766Y-79684265D01*
X158195766Y-79184265D02*
X158195766Y-80184265D01*
X163175412Y-77479265D02*
X163175412Y-87639265D01*
X163215412Y-77479265D02*
X163215412Y-87639265D01*
X163255412Y-77480265D02*
X163255412Y-87638265D01*
X163295412Y-77480265D02*
X163295412Y-87638265D01*
X163335412Y-77482265D02*
X163335412Y-87636265D01*
X163375412Y-77483265D02*
X163375412Y-87635265D01*
X163415412Y-77485265D02*
X163415412Y-87633265D01*
X163455412Y-77487265D02*
X163455412Y-87631265D01*
X163495412Y-77489265D02*
X163495412Y-87629265D01*
X163535412Y-77492265D02*
X163535412Y-87626265D01*
X163575412Y-77495265D02*
X163575412Y-87623265D01*
X163615412Y-77498265D02*
X163615412Y-87620265D01*
X163655412Y-77502265D02*
X163655412Y-87616265D01*
X163695412Y-77505265D02*
X163695412Y-87613265D01*
X163735412Y-77510265D02*
X163735412Y-87608265D01*
X163775412Y-77514265D02*
X163775412Y-87604265D01*
X163815412Y-77519265D02*
X163815412Y-87599265D01*
X163855412Y-77524265D02*
X163855412Y-87594265D01*
X163895412Y-77530265D02*
X163895412Y-87588265D01*
X163935412Y-77536265D02*
X163935412Y-87582265D01*
X163975412Y-77542265D02*
X163975412Y-87576265D01*
X164015412Y-77548265D02*
X164015412Y-87570265D01*
X164055412Y-77555265D02*
X164055412Y-87563265D01*
X164095412Y-77562265D02*
X164095412Y-87556265D01*
X164135412Y-77570265D02*
X164135412Y-87548265D01*
X164175412Y-77578265D02*
X164175412Y-87540265D01*
X164215412Y-77586265D02*
X164215412Y-87532265D01*
X164255412Y-77594265D02*
X164255412Y-87524265D01*
X164295412Y-77603265D02*
X164295412Y-87515265D01*
X164335412Y-77612265D02*
X164335412Y-87506265D01*
X164375412Y-77622265D02*
X164375412Y-87496265D01*
X164415412Y-77631265D02*
X164415412Y-87487265D01*
X164455412Y-77642265D02*
X164455412Y-81319265D01*
X164455412Y-83799265D02*
X164455412Y-87476265D01*
X164495412Y-77652265D02*
X164495412Y-81319265D01*
X164495412Y-83799265D02*
X164495412Y-87466265D01*
X164535412Y-77663265D02*
X164535412Y-81319265D01*
X164535412Y-83799265D02*
X164535412Y-87455265D01*
X164575412Y-77674265D02*
X164575412Y-81319265D01*
X164575412Y-83799265D02*
X164575412Y-87444265D01*
X164615412Y-77686265D02*
X164615412Y-81319265D01*
X164615412Y-83799265D02*
X164615412Y-87432265D01*
X164655412Y-77698265D02*
X164655412Y-81319265D01*
X164655412Y-83799265D02*
X164655412Y-87420265D01*
X164695412Y-77710265D02*
X164695412Y-81319265D01*
X164695412Y-83799265D02*
X164695412Y-87408265D01*
X164735412Y-77722265D02*
X164735412Y-81319265D01*
X164735412Y-83799265D02*
X164735412Y-87396265D01*
X164775412Y-77735265D02*
X164775412Y-81319265D01*
X164775412Y-83799265D02*
X164775412Y-87383265D01*
X164815412Y-77749265D02*
X164815412Y-81319265D01*
X164815412Y-83799265D02*
X164815412Y-87369265D01*
X164855412Y-77762265D02*
X164855412Y-81319265D01*
X164855412Y-83799265D02*
X164855412Y-87356265D01*
X164895412Y-77777265D02*
X164895412Y-81319265D01*
X164895412Y-83799265D02*
X164895412Y-87341265D01*
X164935412Y-77791265D02*
X164935412Y-81319265D01*
X164935412Y-83799265D02*
X164935412Y-87327265D01*
X164975412Y-77806265D02*
X164975412Y-81319265D01*
X164975412Y-83799265D02*
X164975412Y-87312265D01*
X165015412Y-77821265D02*
X165015412Y-81319265D01*
X165015412Y-83799265D02*
X165015412Y-87297265D01*
X165055412Y-77837265D02*
X165055412Y-81319265D01*
X165055412Y-83799265D02*
X165055412Y-87281265D01*
X165095412Y-77853265D02*
X165095412Y-81319265D01*
X165095412Y-83799265D02*
X165095412Y-87265265D01*
X165135412Y-77869265D02*
X165135412Y-81319265D01*
X165135412Y-83799265D02*
X165135412Y-87249265D01*
X165175412Y-77886265D02*
X165175412Y-81319265D01*
X165175412Y-83799265D02*
X165175412Y-87232265D01*
X165215412Y-77903265D02*
X165215412Y-81319265D01*
X165215412Y-83799265D02*
X165215412Y-87215265D01*
X165255412Y-77921265D02*
X165255412Y-81319265D01*
X165255412Y-83799265D02*
X165255412Y-87197265D01*
X165295412Y-77939265D02*
X165295412Y-81319265D01*
X165295412Y-83799265D02*
X165295412Y-87179265D01*
X165335412Y-77957265D02*
X165335412Y-81319265D01*
X165335412Y-83799265D02*
X165335412Y-87161265D01*
X165375412Y-77976265D02*
X165375412Y-81319265D01*
X165375412Y-83799265D02*
X165375412Y-87142265D01*
X165415412Y-77995265D02*
X165415412Y-81319265D01*
X165415412Y-83799265D02*
X165415412Y-87123265D01*
X165455412Y-78015265D02*
X165455412Y-81319265D01*
X165455412Y-83799265D02*
X165455412Y-87103265D01*
X165495412Y-78035265D02*
X165495412Y-81319265D01*
X165495412Y-83799265D02*
X165495412Y-87083265D01*
X165535412Y-78055265D02*
X165535412Y-81319265D01*
X165535412Y-83799265D02*
X165535412Y-87063265D01*
X165575412Y-78076265D02*
X165575412Y-81319265D01*
X165575412Y-83799265D02*
X165575412Y-87042265D01*
X165615412Y-78098265D02*
X165615412Y-81319265D01*
X165615412Y-83799265D02*
X165615412Y-87020265D01*
X165655412Y-78120265D02*
X165655412Y-81319265D01*
X165655412Y-83799265D02*
X165655412Y-86998265D01*
X165695412Y-78142265D02*
X165695412Y-81319265D01*
X165695412Y-83799265D02*
X165695412Y-86976265D01*
X165735412Y-78165265D02*
X165735412Y-81319265D01*
X165735412Y-83799265D02*
X165735412Y-86953265D01*
X165775412Y-78188265D02*
X165775412Y-81319265D01*
X165775412Y-83799265D02*
X165775412Y-86930265D01*
X165815412Y-78212265D02*
X165815412Y-81319265D01*
X165815412Y-83799265D02*
X165815412Y-86906265D01*
X165855412Y-78236265D02*
X165855412Y-81319265D01*
X165855412Y-83799265D02*
X165855412Y-86882265D01*
X165895412Y-78261265D02*
X165895412Y-81319265D01*
X165895412Y-83799265D02*
X165895412Y-86857265D01*
X165935412Y-78287265D02*
X165935412Y-81319265D01*
X165935412Y-83799265D02*
X165935412Y-86831265D01*
X165975412Y-78312265D02*
X165975412Y-81319265D01*
X165975412Y-83799265D02*
X165975412Y-86806265D01*
X166015412Y-78339265D02*
X166015412Y-81319265D01*
X166015412Y-83799265D02*
X166015412Y-86779265D01*
X166055412Y-78366265D02*
X166055412Y-81319265D01*
X166055412Y-83799265D02*
X166055412Y-86752265D01*
X166095412Y-78393265D02*
X166095412Y-81319265D01*
X166095412Y-83799265D02*
X166095412Y-86725265D01*
X166135412Y-78421265D02*
X166135412Y-81319265D01*
X166135412Y-83799265D02*
X166135412Y-86697265D01*
X166175412Y-78450265D02*
X166175412Y-81319265D01*
X166175412Y-83799265D02*
X166175412Y-86668265D01*
X166215412Y-78479265D02*
X166215412Y-81319265D01*
X166215412Y-83799265D02*
X166215412Y-86639265D01*
X166255412Y-78509265D02*
X166255412Y-81319265D01*
X166255412Y-83799265D02*
X166255412Y-86609265D01*
X166295412Y-78539265D02*
X166295412Y-81319265D01*
X166295412Y-83799265D02*
X166295412Y-86579265D01*
X166335412Y-78571265D02*
X166335412Y-81319265D01*
X166335412Y-83799265D02*
X166335412Y-86547265D01*
X166375412Y-78602265D02*
X166375412Y-81319265D01*
X166375412Y-83799265D02*
X166375412Y-86516265D01*
X166415412Y-78635265D02*
X166415412Y-81319265D01*
X166415412Y-83799265D02*
X166415412Y-86483265D01*
X166455412Y-78668265D02*
X166455412Y-81319265D01*
X166455412Y-83799265D02*
X166455412Y-86450265D01*
X166495412Y-78701265D02*
X166495412Y-81319265D01*
X166495412Y-83799265D02*
X166495412Y-86417265D01*
X166535412Y-78736265D02*
X166535412Y-81319265D01*
X166535412Y-83799265D02*
X166535412Y-86382265D01*
X166575412Y-78771265D02*
X166575412Y-81319265D01*
X166575412Y-83799265D02*
X166575412Y-86347265D01*
X166615412Y-78807265D02*
X166615412Y-81319265D01*
X166615412Y-83799265D02*
X166615412Y-86311265D01*
X166655412Y-78843265D02*
X166655412Y-81319265D01*
X166655412Y-83799265D02*
X166655412Y-86275265D01*
X166695412Y-78881265D02*
X166695412Y-81319265D01*
X166695412Y-83799265D02*
X166695412Y-86237265D01*
X166735412Y-78919265D02*
X166735412Y-81319265D01*
X166735412Y-83799265D02*
X166735412Y-86199265D01*
X166775412Y-78958265D02*
X166775412Y-81319265D01*
X166775412Y-83799265D02*
X166775412Y-86160265D01*
X166815412Y-78998265D02*
X166815412Y-81319265D01*
X166815412Y-83799265D02*
X166815412Y-86120265D01*
X166855412Y-79039265D02*
X166855412Y-81319265D01*
X166855412Y-83799265D02*
X166855412Y-86079265D01*
X166895412Y-79081265D02*
X166895412Y-81319265D01*
X166895412Y-83799265D02*
X166895412Y-86037265D01*
X166935412Y-79124265D02*
X166935412Y-85994265D01*
X166975412Y-79168265D02*
X166975412Y-85950265D01*
X167015412Y-79212265D02*
X167015412Y-85906265D01*
X167055412Y-79258265D02*
X167055412Y-85860265D01*
X167095412Y-79305265D02*
X167095412Y-85813265D01*
X167135412Y-79354265D02*
X167135412Y-85764265D01*
X167175412Y-79403265D02*
X167175412Y-85715265D01*
X167215412Y-79454265D02*
X167215412Y-85664265D01*
X167255412Y-79506265D02*
X167255412Y-85612265D01*
X167295412Y-79559265D02*
X167295412Y-85559265D01*
X167335412Y-79614265D02*
X167335412Y-85504265D01*
X167375412Y-79671265D02*
X167375412Y-85447265D01*
X167415412Y-79729265D02*
X167415412Y-85389265D01*
X167455412Y-79789265D02*
X167455412Y-85329265D01*
X167495412Y-79851265D02*
X167495412Y-85267265D01*
X167535412Y-79915265D02*
X167535412Y-85203265D01*
X167575412Y-79981265D02*
X167575412Y-85137265D01*
X167615412Y-80049265D02*
X167615412Y-85069265D01*
X167655412Y-80120265D02*
X167655412Y-84998265D01*
X167695412Y-80194265D02*
X167695412Y-84924265D01*
X167735412Y-80271265D02*
X167735412Y-84847265D01*
X167775412Y-80351265D02*
X167775412Y-84767265D01*
X167815412Y-80435265D02*
X167815412Y-84683265D01*
X167855412Y-80522265D02*
X167855412Y-84596265D01*
X167895412Y-80615265D02*
X167895412Y-84503265D01*
X167935412Y-80713265D02*
X167935412Y-84405265D01*
X167975412Y-80817265D02*
X167975412Y-84301265D01*
X168015412Y-80929265D02*
X168015412Y-84189265D01*
X168055412Y-81050265D02*
X168055412Y-84068265D01*
X168095412Y-81182265D02*
X168095412Y-83936265D01*
X168135412Y-81329265D02*
X168135412Y-83789265D01*
X168175412Y-81497265D02*
X168175412Y-83621265D01*
X168215412Y-81697265D02*
X168215412Y-83421265D01*
X168255412Y-81960265D02*
X168255412Y-83158265D01*
X168295412Y-82559265D02*
G75*
G02*
X158055412Y-82559265I-5120000J0D01*
G01*
X158055412Y-82559265D02*
G75*
G02*
X168295412Y-82559265I5120000J0D01*
G01*
%TO.C,R17*%
X146293089Y-107802906D02*
X146293089Y-107495624D01*
X147053089Y-107802906D02*
X147053089Y-107495624D01*
%TO.C,R15*%
X161066730Y-92599265D02*
X160759448Y-92599265D01*
X161066730Y-93359265D02*
X160759448Y-93359265D01*
%TO.C,R1*%
X134643089Y-105535624D02*
X134643089Y-105842906D01*
X135403089Y-105535624D02*
X135403089Y-105842906D01*
%TO.C,C17*%
X129865925Y-100256765D02*
X129650253Y-100256765D01*
X129865925Y-100976765D02*
X129650253Y-100976765D01*
%TO.C,C24*%
X127230925Y-72789265D02*
X127015253Y-72789265D01*
X127230925Y-73509265D02*
X127015253Y-73509265D01*
%TD*%
M02*
