%TF.GenerationSoftware,KiCad,Pcbnew,9.0.4*%
%TF.CreationDate,2026-03-05T12:42:53+01:00*%
%TF.ProjectId,flightcontrolerPCB,666c6967-6874-4636-9f6e-74726f6c6572,rev?*%
%TF.SameCoordinates,Original*%
%TF.FileFunction,Copper,L2,Inr*%
%TF.FilePolarity,Positive*%
%FSLAX46Y46*%
G04 Gerber Fmt 4.6, Leading zero omitted, Abs format (unit mm)*
G04 Created by KiCad (PCBNEW 9.0.4) date 2026-03-05 12:42:53*
%MOMM*%
%LPD*%
G01*
G04 APERTURE LIST*
G04 Aperture macros list*
%AMRoundRect*
0 Rectangle with rounded corners*
0 $1 Rounding radius*
0 $2 $3 $4 $5 $6 $7 $8 $9 X,Y pos of 4 corners*
0 Add a 4 corners polygon primitive as box body*
4,1,4,$2,$3,$4,$5,$6,$7,$8,$9,$2,$3,0*
0 Add four circle primitives for the rounded corners*
1,1,$1+$1,$2,$3*
1,1,$1+$1,$4,$5*
1,1,$1+$1,$6,$7*
1,1,$1+$1,$8,$9*
0 Add four rect primitives between the rounded corners*
20,1,$1+$1,$2,$3,$4,$5,0*
20,1,$1+$1,$4,$5,$6,$7,0*
20,1,$1+$1,$6,$7,$8,$9,0*
20,1,$1+$1,$8,$9,$2,$3,0*%
G04 Aperture macros list end*
%TA.AperFunction,ComponentPad*%
%ADD10C,0.600000*%
%TD*%
%TA.AperFunction,ComponentPad*%
%ADD11RoundRect,0.250000X0.750000X0.750000X-0.750000X0.750000X-0.750000X-0.750000X0.750000X-0.750000X0*%
%TD*%
%TA.AperFunction,ComponentPad*%
%ADD12C,2.000000*%
%TD*%
%TA.AperFunction,ComponentPad*%
%ADD13C,2.500000*%
%TD*%
%TA.AperFunction,ComponentPad*%
%ADD14C,0.800000*%
%TD*%
%TA.AperFunction,ComponentPad*%
%ADD15C,6.000000*%
%TD*%
%TA.AperFunction,ComponentPad*%
%ADD16R,0.850000X0.850000*%
%TD*%
%TA.AperFunction,ComponentPad*%
%ADD17C,0.850000*%
%TD*%
%TA.AperFunction,ComponentPad*%
%ADD18RoundRect,0.250000X1.050000X1.050000X-1.050000X1.050000X-1.050000X-1.050000X1.050000X-1.050000X0*%
%TD*%
%TA.AperFunction,ComponentPad*%
%ADD19C,2.600000*%
%TD*%
%TA.AperFunction,HeatsinkPad*%
%ADD20O,1.550000X0.890000*%
%TD*%
%TA.AperFunction,HeatsinkPad*%
%ADD21O,0.950000X1.250000*%
%TD*%
%TA.AperFunction,ComponentPad*%
%ADD22RoundRect,0.250000X-0.750000X-0.750000X0.750000X-0.750000X0.750000X0.750000X-0.750000X0.750000X0*%
%TD*%
%TA.AperFunction,ViaPad*%
%ADD23C,0.600000*%
%TD*%
%TA.AperFunction,ViaPad*%
%ADD24C,0.500000*%
%TD*%
%TA.AperFunction,ViaPad*%
%ADD25C,0.300000*%
%TD*%
%TA.AperFunction,Conductor*%
%ADD26C,0.300000*%
%TD*%
%TA.AperFunction,Conductor*%
%ADD27C,0.700000*%
%TD*%
G04 APERTURE END LIST*
D10*
%TO.N,GND*%
%TO.C,U7*%
X132423089Y-74349265D03*
X132423089Y-73149265D03*
X132423089Y-71849265D03*
X132423089Y-70749265D03*
X131223089Y-74349265D03*
X131223089Y-73149265D03*
X131223089Y-71849265D03*
X131223089Y-70749265D03*
%TD*%
D11*
%TO.N,VOUT_3.3V*%
%TO.C,C10*%
X122523089Y-78299265D03*
D12*
%TO.N,GND*%
X117523089Y-78299265D03*
%TD*%
D13*
%TO.N,GND*%
%TO.C,ANTENNE*%
X123633089Y-117149265D03*
X123633089Y-112069265D03*
X118553089Y-117149265D03*
X118553089Y-112069265D03*
%TD*%
D14*
%TO.N,GND*%
%TO.C,H3*%
X162923089Y-73049265D03*
X163582099Y-71458275D03*
X163582099Y-74640255D03*
X165173089Y-70799265D03*
D15*
X165173089Y-73049265D03*
D14*
X165173089Y-75299265D03*
X166764079Y-71458275D03*
X166764079Y-74640255D03*
X167423089Y-73049265D03*
%TD*%
%TO.N,GND*%
%TO.C,H1*%
X110523089Y-115449265D03*
X111182099Y-113858275D03*
X111182099Y-117040255D03*
X112773089Y-113199265D03*
D15*
X112773089Y-115449265D03*
D14*
X112773089Y-117699265D03*
X114364079Y-113858275D03*
X114364079Y-117040255D03*
X115023089Y-115449265D03*
%TD*%
D16*
%TO.N,VOUT_3.3V*%
%TO.C,J10*%
X134073089Y-107839265D03*
D17*
%TO.N,Net-(J10-Pin_2)*%
X135073089Y-107839265D03*
%TO.N,GND*%
X136073089Y-107839265D03*
%TD*%
D16*
%TO.N,GND*%
%TO.C,ESC4*%
X167843089Y-107069265D03*
D17*
%TO.N,VOUT_5V*%
X167843089Y-108069265D03*
%TO.N,Signal ESC4*%
X167843089Y-109069265D03*
%TD*%
D16*
%TO.N,GND*%
%TO.C,ESC2*%
X167843089Y-99069265D03*
D17*
%TO.N,VOUT_5V*%
X167843089Y-100069265D03*
%TO.N,Signal ESC2*%
X167843089Y-101069265D03*
%TD*%
D10*
%TO.N,GND*%
%TO.C,U5*%
X153723089Y-76349265D03*
X153723089Y-75149265D03*
X153723089Y-73849265D03*
X153723089Y-72749265D03*
X152523089Y-76349265D03*
X152523089Y-75149265D03*
X152523089Y-73849265D03*
X152523089Y-72749265D03*
%TD*%
D16*
%TO.N,GND*%
%TO.C,POWER*%
X167843089Y-87919265D03*
D17*
%TO.N,VOUT_3.3V*%
X167843089Y-88919265D03*
%TO.N,VOUT_5V*%
X167843089Y-89919265D03*
%TD*%
D16*
%TO.N,SWDCLK*%
%TO.C,J7*%
X110273089Y-85599265D03*
D17*
%TO.N,SWDIO*%
X110273089Y-84599265D03*
%TO.N,NRST*%
X110273089Y-83599265D03*
%TO.N,GND*%
X110273089Y-82599265D03*
%TO.N,VOUT_3.3V*%
X110273089Y-81599265D03*
%TD*%
D16*
%TO.N,GND*%
%TO.C,ESC1*%
X167843089Y-95019265D03*
D17*
%TO.N,VOUT_5V*%
X167843089Y-96019265D03*
%TO.N,Signal ESC1*%
X167843089Y-97019265D03*
%TD*%
D16*
%TO.N,IBUS_RX_MCU*%
%TO.C,FC*%
X167803089Y-92979265D03*
D17*
%TO.N,MSP_TX_MCU*%
X167803089Y-91979265D03*
%TD*%
D16*
%TO.N,GND*%
%TO.C,ESC3*%
X167843089Y-103069265D03*
D17*
%TO.N,VOUT_5V*%
X167843089Y-104069265D03*
%TO.N,Signal ESC3*%
X167843089Y-105069265D03*
%TD*%
D18*
%TO.N,GND*%
%TO.C,J13*%
X146073089Y-74126765D03*
D19*
%TO.N,Net-(D3-A)*%
X141073089Y-74126765D03*
%TD*%
D14*
%TO.N,GND*%
%TO.C,H2*%
X163173089Y-115534165D03*
X163832099Y-113943175D03*
X163832099Y-117125155D03*
X165423089Y-113284165D03*
D15*
X165423089Y-115534165D03*
D14*
X165423089Y-117784165D03*
X167014079Y-113943175D03*
X167014079Y-117125155D03*
X167673089Y-115534165D03*
%TD*%
%TO.N,GND*%
%TO.C,H4*%
X110573089Y-72949265D03*
X111232099Y-71358275D03*
X111232099Y-74540255D03*
X112823089Y-70699265D03*
D15*
X112823089Y-72949265D03*
D14*
X112823089Y-75199265D03*
X114414079Y-71358275D03*
X114414079Y-74540255D03*
X115073089Y-72949265D03*
%TD*%
D20*
%TO.N,GND*%
%TO.C,J2*%
X111823089Y-89019265D03*
D21*
X114523089Y-90019265D03*
X114523089Y-95019265D03*
D20*
X111823089Y-96019265D03*
%TD*%
D22*
%TO.N,VOUT_5V*%
%TO.C,C23*%
X160675412Y-82559265D03*
D12*
%TO.N,GND*%
X165675412Y-82559265D03*
%TD*%
D23*
%TO.N,GND*%
X126320589Y-107149265D03*
X138143089Y-105899265D03*
X153623089Y-100049265D03*
X134882486Y-92121766D03*
X137123089Y-72559265D03*
X114523089Y-93819265D03*
X128016627Y-102246764D03*
X130646489Y-94749265D03*
X144758089Y-91999265D03*
D24*
X121873089Y-108176765D03*
D23*
X140573089Y-109349265D03*
X138843089Y-91999265D03*
X151248089Y-70999265D03*
X151873089Y-95199265D03*
X158862589Y-89116265D03*
X139173089Y-107829265D03*
X136523089Y-73699265D03*
X147673089Y-108129265D03*
X145604981Y-103775289D03*
X127520589Y-109746765D03*
X111823089Y-91519265D03*
X142273089Y-109349265D03*
X153123089Y-74549265D03*
X157723089Y-100049265D03*
X117307805Y-95319266D03*
X126483089Y-70999265D03*
X138003089Y-103899265D03*
X111823089Y-95544265D03*
X136413089Y-92529265D03*
X143673089Y-109429265D03*
D24*
X112373089Y-99376765D03*
D23*
X159073089Y-100589265D03*
X131823089Y-72549265D03*
X130573089Y-90099265D03*
X131753089Y-89779265D03*
X139723089Y-101999265D03*
X129278089Y-100616765D03*
X129123089Y-71914265D03*
X151873089Y-101699265D03*
X137643089Y-104949265D03*
X150423089Y-73914265D03*
X126643089Y-73149265D03*
X127520589Y-108496765D03*
X111823089Y-89494265D03*
X148223089Y-101998938D03*
X151903089Y-96099265D03*
X145673089Y-107679265D03*
X129670589Y-109746765D03*
X126458089Y-101536765D03*
X157973089Y-72849265D03*
X141653089Y-91999265D03*
X111823089Y-93519265D03*
X148653089Y-80349265D03*
X128433089Y-90154265D03*
X127931033Y-103060958D03*
X117113089Y-89369265D03*
D24*
X121873089Y-105976765D03*
D23*
%TO.N,NRST*%
X153673089Y-101649265D03*
X143383089Y-101499265D03*
X121793064Y-90819240D03*
%TO.N,VOUT_5V*%
X159873089Y-72149265D03*
X155873089Y-81149265D03*
X119023089Y-93569265D03*
X121923089Y-89699265D03*
X117113089Y-90319265D03*
X126873089Y-86349265D03*
%TO.N,VOUT_3.3V*%
X132728089Y-89794265D03*
X127520589Y-105996765D03*
X137043089Y-103899265D03*
X151687589Y-91656265D03*
X127823089Y-104140302D03*
X127520589Y-107246765D03*
X144723089Y-107684265D03*
X139813089Y-92009265D03*
X130238089Y-100649265D03*
X129670589Y-108496765D03*
D24*
X162353089Y-91079265D03*
D23*
X151687589Y-92926265D03*
X150913089Y-95199265D03*
X134513089Y-100799265D03*
D24*
X112373089Y-107076765D03*
D23*
X150913089Y-101699265D03*
X139103089Y-105899265D03*
X158862589Y-90386265D03*
X136123089Y-72559265D03*
D24*
X161423089Y-92979265D03*
D23*
X134073089Y-99850265D03*
D24*
X112373089Y-104876765D03*
X112373089Y-105976765D03*
D23*
X129323089Y-103049265D03*
X129573089Y-82199265D03*
D25*
%TO.N,ID*%
X132273089Y-98799265D03*
D23*
X141673089Y-98049265D03*
%TO.N,Net-(J2-D-)*%
X117113089Y-91669265D03*
X117118824Y-93473530D03*
%TO.N,SWDCLK*%
X111823089Y-85999265D03*
X136823089Y-94499265D03*
%TO.N,SWDIO*%
X112173089Y-85149265D03*
X140661197Y-94938844D03*
%TO.N,Niveaux_Battrie*%
X145573089Y-99549265D03*
X138173089Y-90499265D03*
%TO.N,VBUS_SEN*%
X124923089Y-94549265D03*
X141373089Y-99199265D03*
%TO.N,D+*%
X134673089Y-97799265D03*
X141223089Y-97199265D03*
%TO.N,D-*%
X141823089Y-95573530D03*
X134373089Y-96549265D03*
D24*
%TO.N,GPS_RX*%
X146793089Y-106299265D03*
D25*
X114163089Y-102289265D03*
D23*
%TO.N,SPI3_SCK*%
X136723089Y-96199265D03*
X128923089Y-93349265D03*
D24*
%TO.N,GPS_TX*%
X115936589Y-100935765D03*
D25*
X145833089Y-102879265D03*
D23*
%TO.N,SPI3_MOSI*%
X136247354Y-97425000D03*
X129023089Y-94249265D03*
%TD*%
D26*
%TO.N,GND*%
X166643089Y-99069265D02*
X166193089Y-99519265D01*
X111073089Y-82599265D02*
X111423089Y-82249265D01*
X167843089Y-107069265D02*
X166243089Y-107069265D01*
D27*
X167843089Y-87919265D02*
X163803089Y-87919265D01*
D26*
X110273089Y-82599265D02*
X111073089Y-82599265D01*
X167843089Y-95019265D02*
X167043089Y-95019265D01*
X167843089Y-99069265D02*
X166643089Y-99069265D01*
X167843089Y-103069265D02*
X166543089Y-103069265D01*
X167043089Y-95019265D02*
X166243089Y-95819265D01*
D27*
X163803089Y-87919265D02*
X162823089Y-88899265D01*
%TD*%
%TA.AperFunction,Conductor*%
%TO.N,GND*%
G36*
X130989243Y-69769450D02*
G01*
X131034998Y-69822254D01*
X131044942Y-69891412D01*
X131015917Y-69954968D01*
X130969657Y-69988326D01*
X130860794Y-70033418D01*
X131223089Y-70395711D01*
X131223090Y-70395711D01*
X131585382Y-70033418D01*
X131476521Y-69988326D01*
X131422118Y-69944485D01*
X131400053Y-69878191D01*
X131417332Y-69810491D01*
X131468470Y-69762881D01*
X131523974Y-69749765D01*
X132122204Y-69749765D01*
X132189243Y-69769450D01*
X132234998Y-69822254D01*
X132244942Y-69891412D01*
X132215917Y-69954968D01*
X132169657Y-69988326D01*
X132060794Y-70033418D01*
X132423089Y-70395711D01*
X132423090Y-70395711D01*
X132785382Y-70033418D01*
X132676521Y-69988326D01*
X132622118Y-69944485D01*
X132600053Y-69878191D01*
X132617332Y-69810491D01*
X132668470Y-69762881D01*
X132723974Y-69749765D01*
X165107198Y-69749765D01*
X165169845Y-69749765D01*
X165176333Y-69749934D01*
X165511497Y-69767499D01*
X165524405Y-69768856D01*
X165852686Y-69820849D01*
X165865362Y-69823542D01*
X166186429Y-69909571D01*
X166198756Y-69913576D01*
X166500360Y-70029350D01*
X166509061Y-70032690D01*
X166520917Y-70037969D01*
X166817055Y-70188857D01*
X166828295Y-70195346D01*
X167107055Y-70376372D01*
X167117556Y-70384001D01*
X167375854Y-70593164D01*
X167385500Y-70601849D01*
X167620525Y-70836871D01*
X167629210Y-70846517D01*
X167838376Y-71104812D01*
X167846005Y-71115312D01*
X167965466Y-71299264D01*
X168027032Y-71394065D01*
X168033521Y-71405306D01*
X168184411Y-71701440D01*
X168189691Y-71713296D01*
X168308810Y-72023604D01*
X168312820Y-72035948D01*
X168398844Y-72356981D01*
X168401543Y-72369677D01*
X168453540Y-72697955D01*
X168454897Y-72710863D01*
X168472419Y-73045148D01*
X168472589Y-73051596D01*
X168472589Y-73115162D01*
X168472610Y-73115243D01*
X168472613Y-73123254D01*
X168472614Y-73123255D01*
X168477493Y-86873546D01*
X168457832Y-86940592D01*
X168405044Y-86986366D01*
X168340237Y-86996879D01*
X168315933Y-86994265D01*
X168093089Y-86994265D01*
X168093089Y-87795265D01*
X168080327Y-87838726D01*
X168055029Y-87777651D01*
X167984703Y-87707325D01*
X167892817Y-87669265D01*
X167793361Y-87669265D01*
X167701475Y-87707325D01*
X167631149Y-87777651D01*
X167593089Y-87869537D01*
X167593089Y-87968993D01*
X167614659Y-88021070D01*
X167573136Y-88029330D01*
X167573126Y-88029333D01*
X167404702Y-88099096D01*
X167387517Y-88110579D01*
X167330962Y-88148367D01*
X167264286Y-88169245D01*
X167262073Y-88169265D01*
X166918089Y-88169265D01*
X166918089Y-88392109D01*
X166924490Y-88451637D01*
X166924492Y-88451645D01*
X166959816Y-88546354D01*
X166964800Y-88616046D01*
X166958198Y-88637132D01*
X166953157Y-88649302D01*
X166953154Y-88649313D01*
X166917589Y-88828108D01*
X166917589Y-88828111D01*
X166917589Y-89010419D01*
X166917589Y-89010421D01*
X166917588Y-89010421D01*
X166953154Y-89189217D01*
X166953156Y-89189223D01*
X167022924Y-89357659D01*
X167024614Y-89360821D01*
X167024997Y-89362664D01*
X167025253Y-89363281D01*
X167025136Y-89363329D01*
X167038850Y-89429225D01*
X167024614Y-89477709D01*
X167022924Y-89480870D01*
X166953156Y-89649306D01*
X166953154Y-89649312D01*
X166917589Y-89828108D01*
X166917589Y-89828111D01*
X166917589Y-90010419D01*
X166917589Y-90010421D01*
X166917588Y-90010421D01*
X166953154Y-90189217D01*
X166953157Y-90189227D01*
X167022920Y-90357652D01*
X167022922Y-90357656D01*
X167124202Y-90509232D01*
X167124208Y-90509240D01*
X167253113Y-90638145D01*
X167253121Y-90638151D01*
X167404697Y-90739431D01*
X167404701Y-90739433D01*
X167573126Y-90809196D01*
X167573131Y-90809198D01*
X167637609Y-90822023D01*
X167645880Y-90823669D01*
X167707791Y-90856054D01*
X167742365Y-90916769D01*
X167738626Y-90986539D01*
X167697760Y-91043211D01*
X167645882Y-91066903D01*
X167533135Y-91089331D01*
X167533126Y-91089333D01*
X167364701Y-91159096D01*
X167364697Y-91159098D01*
X167213121Y-91260378D01*
X167213113Y-91260384D01*
X167084208Y-91389289D01*
X167084202Y-91389297D01*
X166982922Y-91540873D01*
X166982920Y-91540877D01*
X166913157Y-91709302D01*
X166913154Y-91709312D01*
X166877589Y-91888108D01*
X166877589Y-91888111D01*
X166877589Y-92070419D01*
X166877589Y-92070421D01*
X166877588Y-92070421D01*
X166913154Y-92249217D01*
X166913157Y-92249227D01*
X166917915Y-92260713D01*
X166925384Y-92330182D01*
X166919536Y-92351498D01*
X166883997Y-92446782D01*
X166877590Y-92506381D01*
X166877589Y-92506400D01*
X166877589Y-93452135D01*
X166877590Y-93452141D01*
X166883997Y-93511748D01*
X166934291Y-93646593D01*
X166934295Y-93646600D01*
X167020541Y-93761809D01*
X167020544Y-93761812D01*
X167135753Y-93848058D01*
X167135760Y-93848062D01*
X167250370Y-93890809D01*
X167306304Y-93932680D01*
X167330721Y-93998144D01*
X167315869Y-94066417D01*
X167266464Y-94115823D01*
X167250371Y-94123173D01*
X167176000Y-94150911D01*
X167175995Y-94150914D01*
X167060901Y-94237074D01*
X167060898Y-94237077D01*
X166974738Y-94352171D01*
X166974734Y-94352178D01*
X166924492Y-94486885D01*
X166924490Y-94486892D01*
X166918089Y-94546420D01*
X166918089Y-94769265D01*
X167719089Y-94769265D01*
X167727774Y-94771815D01*
X167736736Y-94770527D01*
X167760776Y-94781505D01*
X167762551Y-94782026D01*
X167701475Y-94807325D01*
X167631149Y-94877651D01*
X167593089Y-94969537D01*
X167593089Y-95068993D01*
X167614659Y-95121070D01*
X167573136Y-95129330D01*
X167573126Y-95129333D01*
X167404702Y-95199096D01*
X167390389Y-95208660D01*
X167330962Y-95248367D01*
X167264286Y-95269245D01*
X167262073Y-95269265D01*
X166918089Y-95269265D01*
X166918089Y-95492109D01*
X166924490Y-95551637D01*
X166924492Y-95551645D01*
X166959816Y-95646354D01*
X166964800Y-95716046D01*
X166958198Y-95737132D01*
X166953157Y-95749302D01*
X166953154Y-95749313D01*
X166917589Y-95928108D01*
X166917589Y-95928111D01*
X166917589Y-96110419D01*
X166917589Y-96110421D01*
X166917588Y-96110421D01*
X166953154Y-96289217D01*
X166953156Y-96289223D01*
X167022924Y-96457659D01*
X167024614Y-96460821D01*
X167024997Y-96462664D01*
X167025253Y-96463281D01*
X167025136Y-96463329D01*
X167038850Y-96529225D01*
X167024614Y-96577709D01*
X167022924Y-96580870D01*
X166953156Y-96749306D01*
X166953154Y-96749312D01*
X166917589Y-96928108D01*
X166917589Y-96928111D01*
X166917589Y-97110419D01*
X166917589Y-97110421D01*
X166917588Y-97110421D01*
X166953154Y-97289217D01*
X166953157Y-97289227D01*
X167022920Y-97457652D01*
X167022922Y-97457656D01*
X167124202Y-97609232D01*
X167124208Y-97609240D01*
X167253113Y-97738145D01*
X167253121Y-97738151D01*
X167404697Y-97839431D01*
X167404701Y-97839433D01*
X167564695Y-97905704D01*
X167619099Y-97949545D01*
X167641164Y-98015839D01*
X167623885Y-98083538D01*
X167572748Y-98131149D01*
X167517243Y-98144265D01*
X167370244Y-98144265D01*
X167310716Y-98150666D01*
X167310709Y-98150668D01*
X167176002Y-98200910D01*
X167175995Y-98200914D01*
X167060901Y-98287074D01*
X167060898Y-98287077D01*
X166974738Y-98402171D01*
X166974734Y-98402178D01*
X166924492Y-98536885D01*
X166924490Y-98536892D01*
X166918089Y-98596420D01*
X166918089Y-98819265D01*
X167719089Y-98819265D01*
X167727774Y-98821815D01*
X167736736Y-98820527D01*
X167760776Y-98831505D01*
X167762551Y-98832026D01*
X167701475Y-98857325D01*
X167631149Y-98927651D01*
X167593089Y-99019537D01*
X167593089Y-99118993D01*
X167614659Y-99171070D01*
X167573136Y-99179330D01*
X167573126Y-99179333D01*
X167404702Y-99249096D01*
X167361285Y-99278107D01*
X167330962Y-99298367D01*
X167264286Y-99319245D01*
X167262073Y-99319265D01*
X166918089Y-99319265D01*
X166918089Y-99542109D01*
X166924490Y-99601637D01*
X166924492Y-99601645D01*
X166959816Y-99696354D01*
X166964800Y-99766046D01*
X166958198Y-99787132D01*
X166953157Y-99799302D01*
X166953154Y-99799313D01*
X166917589Y-99978108D01*
X166917589Y-99978111D01*
X166917589Y-100160419D01*
X166917589Y-100160421D01*
X166917588Y-100160421D01*
X166953154Y-100339217D01*
X166953156Y-100339223D01*
X167022924Y-100507659D01*
X167024614Y-100510821D01*
X167024997Y-100512664D01*
X167025253Y-100513281D01*
X167025136Y-100513329D01*
X167038850Y-100579225D01*
X167024614Y-100627709D01*
X167022924Y-100630870D01*
X166953156Y-100799306D01*
X166953154Y-100799312D01*
X166917589Y-100978108D01*
X166917589Y-100978111D01*
X166917589Y-101160419D01*
X166917589Y-101160421D01*
X166917588Y-101160421D01*
X166953154Y-101339217D01*
X166953157Y-101339227D01*
X167022920Y-101507652D01*
X167022922Y-101507656D01*
X167124202Y-101659232D01*
X167124208Y-101659240D01*
X167253113Y-101788145D01*
X167253121Y-101788151D01*
X167404697Y-101889431D01*
X167404701Y-101889433D01*
X167443983Y-101905704D01*
X167498387Y-101949545D01*
X167520452Y-102015839D01*
X167503173Y-102083538D01*
X167452036Y-102131149D01*
X167396531Y-102144265D01*
X167370244Y-102144265D01*
X167310716Y-102150666D01*
X167310709Y-102150668D01*
X167176002Y-102200910D01*
X167175995Y-102200914D01*
X167060901Y-102287074D01*
X167060898Y-102287077D01*
X166974738Y-102402171D01*
X166974734Y-102402178D01*
X166924492Y-102536885D01*
X166924490Y-102536892D01*
X166918089Y-102596420D01*
X166918089Y-102819265D01*
X167719089Y-102819265D01*
X167727774Y-102821815D01*
X167736736Y-102820527D01*
X167760776Y-102831505D01*
X167762551Y-102832026D01*
X167701475Y-102857325D01*
X167631149Y-102927651D01*
X167593089Y-103019537D01*
X167593089Y-103118993D01*
X167614659Y-103171070D01*
X167573136Y-103179330D01*
X167573126Y-103179333D01*
X167404702Y-103249096D01*
X167362231Y-103277475D01*
X167330962Y-103298367D01*
X167264286Y-103319245D01*
X167262073Y-103319265D01*
X166918089Y-103319265D01*
X166918089Y-103542109D01*
X166924490Y-103601637D01*
X166924492Y-103601645D01*
X166959816Y-103696354D01*
X166964800Y-103766046D01*
X166958198Y-103787132D01*
X166953157Y-103799302D01*
X166953154Y-103799313D01*
X166917589Y-103978108D01*
X166917589Y-103978109D01*
X166917589Y-103978111D01*
X166917589Y-104160419D01*
X166917589Y-104160421D01*
X166917588Y-104160421D01*
X166953154Y-104339217D01*
X166953156Y-104339223D01*
X167022924Y-104507659D01*
X167024614Y-104510821D01*
X167024997Y-104512664D01*
X167025253Y-104513281D01*
X167025136Y-104513329D01*
X167038850Y-104579225D01*
X167024614Y-104627709D01*
X167022924Y-104630870D01*
X166953156Y-104799306D01*
X166953154Y-104799312D01*
X166917589Y-104978108D01*
X166917589Y-104978111D01*
X166917589Y-105160419D01*
X166917589Y-105160421D01*
X166917588Y-105160421D01*
X166953154Y-105339217D01*
X166953157Y-105339227D01*
X167022920Y-105507652D01*
X167022922Y-105507656D01*
X167124202Y-105659232D01*
X167124208Y-105659240D01*
X167253113Y-105788145D01*
X167253121Y-105788151D01*
X167404697Y-105889431D01*
X167404701Y-105889433D01*
X167443983Y-105905704D01*
X167498387Y-105949545D01*
X167520452Y-106015839D01*
X167503173Y-106083538D01*
X167452036Y-106131149D01*
X167396531Y-106144265D01*
X167370244Y-106144265D01*
X167310716Y-106150666D01*
X167310709Y-106150668D01*
X167176002Y-106200910D01*
X167175995Y-106200914D01*
X167060901Y-106287074D01*
X167060898Y-106287077D01*
X166974738Y-106402171D01*
X166974734Y-106402178D01*
X166924492Y-106536885D01*
X166924490Y-106536892D01*
X166918089Y-106596420D01*
X166918089Y-106819265D01*
X167719089Y-106819265D01*
X167727774Y-106821815D01*
X167736736Y-106820527D01*
X167760776Y-106831505D01*
X167762551Y-106832026D01*
X167701475Y-106857325D01*
X167631149Y-106927651D01*
X167593089Y-107019537D01*
X167593089Y-107118993D01*
X167614659Y-107171070D01*
X167573136Y-107179330D01*
X167573126Y-107179333D01*
X167404702Y-107249096D01*
X167360123Y-107278882D01*
X167330962Y-107298367D01*
X167264286Y-107319245D01*
X167262073Y-107319265D01*
X166918089Y-107319265D01*
X166918089Y-107542109D01*
X166924490Y-107601637D01*
X166924492Y-107601645D01*
X166959816Y-107696354D01*
X166964800Y-107766046D01*
X166958198Y-107787132D01*
X166953157Y-107799302D01*
X166953154Y-107799313D01*
X166917589Y-107978108D01*
X166917589Y-107978111D01*
X166917589Y-108160419D01*
X166917589Y-108160421D01*
X166917588Y-108160421D01*
X166953154Y-108339217D01*
X166953156Y-108339223D01*
X167022924Y-108507659D01*
X167024614Y-108510821D01*
X167024997Y-108512664D01*
X167025253Y-108513281D01*
X167025136Y-108513329D01*
X167038850Y-108579225D01*
X167024614Y-108627709D01*
X167022924Y-108630870D01*
X166953156Y-108799306D01*
X166953154Y-108799312D01*
X166917589Y-108978108D01*
X166917589Y-108978111D01*
X166917589Y-109160419D01*
X166917589Y-109160421D01*
X166917588Y-109160421D01*
X166953154Y-109339217D01*
X166953157Y-109339227D01*
X167022920Y-109507652D01*
X167022922Y-109507656D01*
X167124202Y-109659232D01*
X167124208Y-109659240D01*
X167253113Y-109788145D01*
X167253121Y-109788151D01*
X167404697Y-109889431D01*
X167404701Y-109889433D01*
X167573126Y-109959196D01*
X167573131Y-109959198D01*
X167573135Y-109959198D01*
X167573136Y-109959199D01*
X167751932Y-109994765D01*
X167751935Y-109994765D01*
X167934245Y-109994765D01*
X168054534Y-109970837D01*
X168113047Y-109959198D01*
X168281478Y-109889432D01*
X168292803Y-109881864D01*
X168359475Y-109860985D01*
X168426856Y-109879466D01*
X168473549Y-109931443D01*
X168485695Y-109984921D01*
X168487664Y-115530923D01*
X168487494Y-115537456D01*
X168471218Y-115848037D01*
X168469861Y-115860945D01*
X168421716Y-116164929D01*
X168419018Y-116177625D01*
X168339358Y-116474921D01*
X168335347Y-116487265D01*
X168225052Y-116774595D01*
X168219773Y-116786453D01*
X168080041Y-117060694D01*
X168073551Y-117071934D01*
X167905928Y-117330051D01*
X167898299Y-117340552D01*
X167704603Y-117579747D01*
X167695918Y-117589392D01*
X167478288Y-117807023D01*
X167468642Y-117815708D01*
X167229457Y-118009395D01*
X167218957Y-118017024D01*
X166960835Y-118184650D01*
X166949595Y-118191140D01*
X166675353Y-118330873D01*
X166663496Y-118336152D01*
X166376167Y-118446447D01*
X166363822Y-118450458D01*
X166066525Y-118530118D01*
X166053829Y-118532816D01*
X165749846Y-118580961D01*
X165736939Y-118582318D01*
X165442683Y-118597739D01*
X165426352Y-118598595D01*
X165419865Y-118598765D01*
X124780398Y-118598765D01*
X124713359Y-118579080D01*
X124692717Y-118562446D01*
X124033650Y-117903379D01*
X124035715Y-117902525D01*
X124174933Y-117809503D01*
X124293327Y-117691109D01*
X124386349Y-117551891D01*
X124387203Y-117549826D01*
X125034706Y-118197329D01*
X125091281Y-118123599D01*
X125091286Y-118123592D01*
X125205982Y-117924933D01*
X125205986Y-117924924D01*
X125293770Y-117712995D01*
X125353146Y-117491402D01*
X125383087Y-117263975D01*
X125383089Y-117263959D01*
X125383089Y-117034570D01*
X125383087Y-117034554D01*
X125353146Y-116807127D01*
X125293770Y-116585534D01*
X125205986Y-116373605D01*
X125205982Y-116373595D01*
X125091283Y-116174931D01*
X125034707Y-116101199D01*
X125034706Y-116101199D01*
X124387203Y-116748702D01*
X124386349Y-116746639D01*
X124293327Y-116607421D01*
X124174933Y-116489027D01*
X124035715Y-116396005D01*
X124033649Y-116395149D01*
X124681153Y-115747646D01*
X124681153Y-115747645D01*
X124607420Y-115691070D01*
X124607413Y-115691064D01*
X124408758Y-115576371D01*
X124408748Y-115576367D01*
X124196819Y-115488583D01*
X123975226Y-115429207D01*
X123747799Y-115399266D01*
X123747783Y-115399265D01*
X123518395Y-115399265D01*
X123518378Y-115399266D01*
X123290951Y-115429207D01*
X123069358Y-115488583D01*
X122857429Y-115576367D01*
X122857419Y-115576371D01*
X122658762Y-115691066D01*
X122658748Y-115691075D01*
X122585023Y-115747645D01*
X123232527Y-116395149D01*
X123230463Y-116396005D01*
X123091245Y-116489027D01*
X122972851Y-116607421D01*
X122879829Y-116746639D01*
X122878974Y-116748703D01*
X122231470Y-116101199D01*
X122231469Y-116101199D01*
X122174899Y-116174924D01*
X122174890Y-116174938D01*
X122060195Y-116373595D01*
X122060191Y-116373605D01*
X121972407Y-116585534D01*
X121913031Y-116807127D01*
X121883090Y-117034554D01*
X121883089Y-117034570D01*
X121883089Y-117263959D01*
X121883090Y-117263975D01*
X121913031Y-117491402D01*
X121972407Y-117712995D01*
X122060191Y-117924924D01*
X122060195Y-117924934D01*
X122174888Y-118123589D01*
X122174894Y-118123596D01*
X122231470Y-118197329D01*
X122878973Y-117549825D01*
X122879829Y-117551891D01*
X122972851Y-117691109D01*
X123091245Y-117809503D01*
X123230463Y-117902525D01*
X123232526Y-117903379D01*
X122573460Y-118562446D01*
X122512137Y-118595931D01*
X122485779Y-118598765D01*
X119700398Y-118598765D01*
X119633359Y-118579080D01*
X119612717Y-118562446D01*
X118953650Y-117903379D01*
X118955715Y-117902525D01*
X119094933Y-117809503D01*
X119213327Y-117691109D01*
X119306349Y-117551891D01*
X119307203Y-117549826D01*
X119954706Y-118197329D01*
X120011281Y-118123599D01*
X120011286Y-118123592D01*
X120125982Y-117924933D01*
X120125986Y-117924924D01*
X120213770Y-117712995D01*
X120273146Y-117491402D01*
X120303087Y-117263975D01*
X120303089Y-117263959D01*
X120303089Y-117034570D01*
X120303087Y-117034554D01*
X120273146Y-116807127D01*
X120213770Y-116585534D01*
X120125986Y-116373605D01*
X120125982Y-116373595D01*
X120011283Y-116174931D01*
X119954707Y-116101199D01*
X119954706Y-116101199D01*
X119307203Y-116748702D01*
X119306349Y-116746639D01*
X119213327Y-116607421D01*
X119094933Y-116489027D01*
X118955715Y-116396005D01*
X118953649Y-116395149D01*
X119601153Y-115747646D01*
X119601153Y-115747645D01*
X119527420Y-115691070D01*
X119527413Y-115691064D01*
X119328758Y-115576371D01*
X119328748Y-115576367D01*
X119116819Y-115488583D01*
X118895226Y-115429207D01*
X118667799Y-115399266D01*
X118667783Y-115399265D01*
X118438395Y-115399265D01*
X118438378Y-115399266D01*
X118210951Y-115429207D01*
X117989358Y-115488583D01*
X117777429Y-115576367D01*
X117777419Y-115576371D01*
X117578762Y-115691066D01*
X117578748Y-115691075D01*
X117505023Y-115747645D01*
X118152527Y-116395149D01*
X118150463Y-116396005D01*
X118011245Y-116489027D01*
X117892851Y-116607421D01*
X117799829Y-116746639D01*
X117798973Y-116748703D01*
X117151469Y-116101199D01*
X117094899Y-116174924D01*
X117094890Y-116174938D01*
X116980195Y-116373595D01*
X116980191Y-116373605D01*
X116892407Y-116585534D01*
X116833031Y-116807127D01*
X116803090Y-117034554D01*
X116803089Y-117034570D01*
X116803089Y-117263959D01*
X116803090Y-117263975D01*
X116833031Y-117491402D01*
X116892407Y-117712995D01*
X116980191Y-117924924D01*
X116980195Y-117924934D01*
X117094888Y-118123589D01*
X117094894Y-118123596D01*
X117151470Y-118197329D01*
X117798973Y-117549825D01*
X117799829Y-117551891D01*
X117892851Y-117691109D01*
X118011245Y-117809503D01*
X118150463Y-117902525D01*
X118152526Y-117903379D01*
X117493460Y-118562446D01*
X117432137Y-118595931D01*
X117405779Y-118598765D01*
X112776337Y-118598765D01*
X112769847Y-118598595D01*
X112450367Y-118581850D01*
X112437459Y-118580493D01*
X112124701Y-118530956D01*
X112112005Y-118528258D01*
X111806124Y-118446296D01*
X111793780Y-118442285D01*
X111517297Y-118336152D01*
X111498148Y-118328801D01*
X111486293Y-118323523D01*
X111204144Y-118179759D01*
X111192903Y-118173269D01*
X110927325Y-118000798D01*
X110916825Y-117993169D01*
X110670729Y-117793883D01*
X110661083Y-117785197D01*
X110437176Y-117561286D01*
X110428491Y-117551641D01*
X110229204Y-117305539D01*
X110221575Y-117295038D01*
X110093645Y-117098039D01*
X110093644Y-117098038D01*
X110049110Y-117029460D01*
X110042620Y-117018219D01*
X109898861Y-116736070D01*
X109893582Y-116724213D01*
X109840349Y-116585534D01*
X109780098Y-116428571D01*
X109776091Y-116416237D01*
X109764668Y-116373605D01*
X109694136Y-116110364D01*
X109691438Y-116097669D01*
X109646669Y-115814997D01*
X109641901Y-115784893D01*
X109640545Y-115771993D01*
X109623758Y-115451630D01*
X109623589Y-115445152D01*
X109623589Y-115423911D01*
X109623590Y-115383378D01*
X109623589Y-115383374D01*
X109623589Y-114510842D01*
X119842589Y-114510842D01*
X119842589Y-114707687D01*
X119873379Y-114902091D01*
X119934206Y-115089294D01*
X120023565Y-115264670D01*
X120139261Y-115423911D01*
X120278443Y-115563093D01*
X120437684Y-115678789D01*
X120461797Y-115691075D01*
X120613059Y-115768147D01*
X120613061Y-115768147D01*
X120613064Y-115768149D01*
X120713406Y-115800752D01*
X120800262Y-115828974D01*
X120994667Y-115859765D01*
X120994672Y-115859765D01*
X121191511Y-115859765D01*
X121385915Y-115828974D01*
X121573114Y-115768149D01*
X121748494Y-115678789D01*
X121907735Y-115563093D01*
X122046917Y-115423911D01*
X122162613Y-115264670D01*
X122251973Y-115089290D01*
X122312798Y-114902091D01*
X122343589Y-114707687D01*
X122343589Y-114510842D01*
X122312798Y-114316438D01*
X122251971Y-114129235D01*
X122162612Y-113953859D01*
X122046917Y-113794619D01*
X121907735Y-113655437D01*
X121828114Y-113597589D01*
X121748492Y-113539739D01*
X121736079Y-113533415D01*
X121736078Y-113533415D01*
X121573118Y-113450382D01*
X121385915Y-113389555D01*
X121191511Y-113358765D01*
X121191506Y-113358765D01*
X120994672Y-113358765D01*
X120994667Y-113358765D01*
X120800262Y-113389555D01*
X120613059Y-113450382D01*
X120437683Y-113539741D01*
X120346830Y-113605750D01*
X120278443Y-113655437D01*
X120278441Y-113655439D01*
X120278440Y-113655439D01*
X120139263Y-113794616D01*
X120139263Y-113794617D01*
X120139261Y-113794619D01*
X120121356Y-113819263D01*
X120023565Y-113953859D01*
X119934206Y-114129235D01*
X119873379Y-114316438D01*
X119842589Y-114510842D01*
X109623589Y-114510842D01*
X109623589Y-111954570D01*
X116803089Y-111954570D01*
X116803089Y-112183959D01*
X116803090Y-112183975D01*
X116833031Y-112411402D01*
X116892407Y-112632995D01*
X116980191Y-112844924D01*
X116980195Y-112844934D01*
X117094888Y-113043589D01*
X117094894Y-113043596D01*
X117151470Y-113117329D01*
X117798973Y-112469825D01*
X117799829Y-112471891D01*
X117892851Y-112611109D01*
X118011245Y-112729503D01*
X118150463Y-112822525D01*
X118152526Y-112823379D01*
X117505023Y-113470882D01*
X117505023Y-113470883D01*
X117578755Y-113527459D01*
X117777419Y-113642158D01*
X117777429Y-113642162D01*
X117989358Y-113729946D01*
X118210951Y-113789322D01*
X118438378Y-113819263D01*
X118438395Y-113819265D01*
X118667783Y-113819265D01*
X118667799Y-113819263D01*
X118895226Y-113789322D01*
X119116819Y-113729946D01*
X119328748Y-113642162D01*
X119328757Y-113642158D01*
X119527416Y-113527462D01*
X119527423Y-113527457D01*
X119601153Y-113470882D01*
X118953650Y-112823379D01*
X118955715Y-112822525D01*
X119094933Y-112729503D01*
X119213327Y-112611109D01*
X119306349Y-112471891D01*
X119307203Y-112469826D01*
X119954706Y-113117329D01*
X120011281Y-113043599D01*
X120011286Y-113043592D01*
X120125982Y-112844933D01*
X120125986Y-112844924D01*
X120213770Y-112632995D01*
X120273146Y-112411402D01*
X120303087Y-112183975D01*
X120303089Y-112183959D01*
X120303089Y-111954570D01*
X121883089Y-111954570D01*
X121883089Y-112183959D01*
X121883090Y-112183975D01*
X121913031Y-112411402D01*
X121972407Y-112632995D01*
X122060191Y-112844924D01*
X122060195Y-112844934D01*
X122174888Y-113043589D01*
X122174894Y-113043596D01*
X122231470Y-113117329D01*
X122878973Y-112469825D01*
X122879829Y-112471891D01*
X122972851Y-112611109D01*
X123091245Y-112729503D01*
X123230463Y-112822525D01*
X123232526Y-112823379D01*
X122585023Y-113470882D01*
X122585023Y-113470883D01*
X122658755Y-113527459D01*
X122857419Y-113642158D01*
X122857429Y-113642162D01*
X123069358Y-113729946D01*
X123290951Y-113789322D01*
X123518378Y-113819263D01*
X123518395Y-113819265D01*
X123747783Y-113819265D01*
X123747799Y-113819263D01*
X123975226Y-113789322D01*
X124196819Y-113729946D01*
X124408748Y-113642162D01*
X124408757Y-113642158D01*
X124607416Y-113527462D01*
X124607423Y-113527457D01*
X124681153Y-113470882D01*
X124033650Y-112823379D01*
X124035715Y-112822525D01*
X124174933Y-112729503D01*
X124293327Y-112611109D01*
X124386349Y-112471891D01*
X124387203Y-112469826D01*
X125034706Y-113117329D01*
X125091281Y-113043599D01*
X125091286Y-113043592D01*
X125205982Y-112844933D01*
X125205986Y-112844924D01*
X125293770Y-112632995D01*
X125353146Y-112411402D01*
X125383087Y-112183975D01*
X125383089Y-112183959D01*
X125383089Y-111954570D01*
X125383087Y-111954554D01*
X125353146Y-111727127D01*
X125293770Y-111505534D01*
X125205986Y-111293605D01*
X125205982Y-111293595D01*
X125091283Y-111094931D01*
X125034707Y-111021199D01*
X125034706Y-111021199D01*
X124387203Y-111668702D01*
X124386349Y-111666639D01*
X124293327Y-111527421D01*
X124174933Y-111409027D01*
X124035715Y-111316005D01*
X124033649Y-111315149D01*
X124681153Y-110667646D01*
X124681153Y-110667645D01*
X124607420Y-110611070D01*
X124607413Y-110611064D01*
X124408758Y-110496371D01*
X124408748Y-110496367D01*
X124196819Y-110408583D01*
X123975226Y-110349207D01*
X123747799Y-110319266D01*
X123747783Y-110319265D01*
X123518395Y-110319265D01*
X123518378Y-110319266D01*
X123290951Y-110349207D01*
X123069358Y-110408583D01*
X122857429Y-110496367D01*
X122857419Y-110496371D01*
X122658762Y-110611066D01*
X122658748Y-110611075D01*
X122585023Y-110667645D01*
X123232527Y-111315149D01*
X123230463Y-111316005D01*
X123091245Y-111409027D01*
X122972851Y-111527421D01*
X122879829Y-111666639D01*
X122878974Y-111668703D01*
X122231470Y-111021199D01*
X122231469Y-111021199D01*
X122174899Y-111094924D01*
X122174890Y-111094938D01*
X122060195Y-111293595D01*
X122060191Y-111293605D01*
X121972407Y-111505534D01*
X121913031Y-111727127D01*
X121883090Y-111954554D01*
X121883089Y-111954570D01*
X120303089Y-111954570D01*
X120303087Y-111954554D01*
X120273146Y-111727127D01*
X120213770Y-111505534D01*
X120125986Y-111293605D01*
X120125982Y-111293595D01*
X120011283Y-111094931D01*
X119954707Y-111021199D01*
X119954706Y-111021199D01*
X119307203Y-111668702D01*
X119306349Y-111666639D01*
X119213327Y-111527421D01*
X119094933Y-111409027D01*
X118955715Y-111316005D01*
X118953649Y-111315149D01*
X119601153Y-110667646D01*
X119601153Y-110667645D01*
X119527420Y-110611070D01*
X119527413Y-110611064D01*
X119328758Y-110496371D01*
X119328748Y-110496367D01*
X119116819Y-110408583D01*
X118895226Y-110349207D01*
X118667799Y-110319266D01*
X118667783Y-110319265D01*
X118438395Y-110319265D01*
X118438378Y-110319266D01*
X118210951Y-110349207D01*
X117989358Y-110408583D01*
X117777429Y-110496367D01*
X117777419Y-110496371D01*
X117578762Y-110611066D01*
X117578748Y-110611075D01*
X117505023Y-110667645D01*
X118152527Y-111315149D01*
X118150463Y-111316005D01*
X118011245Y-111409027D01*
X117892851Y-111527421D01*
X117799829Y-111666639D01*
X117798973Y-111668703D01*
X117151469Y-111021199D01*
X117094899Y-111094924D01*
X117094890Y-111094938D01*
X116980195Y-111293595D01*
X116980191Y-111293605D01*
X116892407Y-111505534D01*
X116833031Y-111727127D01*
X116803090Y-111954554D01*
X116803089Y-111954570D01*
X109623589Y-111954570D01*
X109623589Y-108417918D01*
X128870089Y-108417918D01*
X128870089Y-108575611D01*
X128900850Y-108730254D01*
X128900853Y-108730266D01*
X128961191Y-108875937D01*
X128961198Y-108875950D01*
X129048799Y-109007053D01*
X129048802Y-109007057D01*
X129160296Y-109118551D01*
X129160300Y-109118554D01*
X129291403Y-109206155D01*
X129291416Y-109206162D01*
X129437087Y-109266500D01*
X129437092Y-109266502D01*
X129591742Y-109297264D01*
X129591745Y-109297265D01*
X129591747Y-109297265D01*
X129749433Y-109297265D01*
X129749434Y-109297264D01*
X129904086Y-109266502D01*
X130049768Y-109206159D01*
X130180878Y-109118554D01*
X130292378Y-109007054D01*
X130379983Y-108875944D01*
X130440326Y-108730262D01*
X130471089Y-108575607D01*
X130471089Y-108417923D01*
X130471089Y-108417920D01*
X130471088Y-108417918D01*
X130466263Y-108393662D01*
X130440326Y-108263268D01*
X130383900Y-108127042D01*
X130379986Y-108117592D01*
X130379979Y-108117579D01*
X130292378Y-107986476D01*
X130292375Y-107986472D01*
X130180881Y-107874978D01*
X130180877Y-107874975D01*
X130049774Y-107787374D01*
X130049761Y-107787367D01*
X129904090Y-107727029D01*
X129904078Y-107727026D01*
X129749434Y-107696265D01*
X129749431Y-107696265D01*
X129591747Y-107696265D01*
X129591744Y-107696265D01*
X129437099Y-107727026D01*
X129437087Y-107727029D01*
X129291416Y-107787367D01*
X129291403Y-107787374D01*
X129160300Y-107874975D01*
X129160296Y-107874978D01*
X129048802Y-107986472D01*
X129048799Y-107986476D01*
X128961198Y-108117579D01*
X128961191Y-108117592D01*
X128900853Y-108263263D01*
X128900850Y-108263275D01*
X128870089Y-108417918D01*
X109623589Y-108417918D01*
X109623589Y-104950685D01*
X111622588Y-104950685D01*
X111651429Y-105095672D01*
X111651432Y-105095682D01*
X111708001Y-105232253D01*
X111708008Y-105232266D01*
X111791937Y-105357874D01*
X111812815Y-105424552D01*
X111794330Y-105491932D01*
X111791937Y-105495656D01*
X111708008Y-105621263D01*
X111708001Y-105621276D01*
X111651432Y-105757847D01*
X111651429Y-105757857D01*
X111622589Y-105902844D01*
X111622589Y-105902847D01*
X111622589Y-106050683D01*
X111622589Y-106050685D01*
X111622588Y-106050685D01*
X111651429Y-106195672D01*
X111651432Y-106195682D01*
X111708001Y-106332253D01*
X111708008Y-106332266D01*
X111791937Y-106457874D01*
X111812815Y-106524552D01*
X111794330Y-106591932D01*
X111791937Y-106595656D01*
X111708008Y-106721263D01*
X111708001Y-106721276D01*
X111651432Y-106857847D01*
X111651429Y-106857857D01*
X111622589Y-107002844D01*
X111622589Y-107002847D01*
X111622589Y-107150683D01*
X111622589Y-107150685D01*
X111622588Y-107150685D01*
X111651429Y-107295672D01*
X111651432Y-107295682D01*
X111708001Y-107432253D01*
X111708008Y-107432266D01*
X111790137Y-107555180D01*
X111790140Y-107555184D01*
X111894669Y-107659713D01*
X111894673Y-107659716D01*
X112017587Y-107741845D01*
X112017600Y-107741852D01*
X112126917Y-107787132D01*
X112154176Y-107798423D01*
X112154180Y-107798423D01*
X112154181Y-107798424D01*
X112299168Y-107827265D01*
X112299171Y-107827265D01*
X112447009Y-107827265D01*
X112544551Y-107807861D01*
X112592002Y-107798423D01*
X112728584Y-107741849D01*
X112851505Y-107659716D01*
X112956040Y-107555181D01*
X113038173Y-107432260D01*
X113094747Y-107295678D01*
X113117890Y-107179333D01*
X113123589Y-107150685D01*
X113123589Y-107002844D01*
X113094748Y-106857857D01*
X113094747Y-106857856D01*
X113094747Y-106857852D01*
X113078764Y-106819265D01*
X113038176Y-106721276D01*
X113038174Y-106721272D01*
X113038173Y-106721270D01*
X112956040Y-106598349D01*
X112956038Y-106598347D01*
X112954240Y-106595656D01*
X112933362Y-106528979D01*
X112951846Y-106461599D01*
X112954240Y-106457874D01*
X112956038Y-106455182D01*
X112956040Y-106455181D01*
X113038173Y-106332260D01*
X113094747Y-106195678D01*
X113117054Y-106083538D01*
X113123589Y-106050685D01*
X113123589Y-105917918D01*
X126720089Y-105917918D01*
X126720089Y-106075611D01*
X126750850Y-106230254D01*
X126750853Y-106230266D01*
X126811191Y-106375937D01*
X126811198Y-106375950D01*
X126898799Y-106507053D01*
X126898802Y-106507057D01*
X126925829Y-106534084D01*
X126959314Y-106595407D01*
X126954330Y-106665099D01*
X126925829Y-106709446D01*
X126898802Y-106736472D01*
X126898799Y-106736476D01*
X126811198Y-106867579D01*
X126811191Y-106867592D01*
X126750853Y-107013263D01*
X126750850Y-107013275D01*
X126720089Y-107167918D01*
X126720089Y-107325611D01*
X126750850Y-107480254D01*
X126750853Y-107480266D01*
X126811191Y-107625937D01*
X126811198Y-107625950D01*
X126898799Y-107757053D01*
X126898802Y-107757057D01*
X127010296Y-107868551D01*
X127010300Y-107868554D01*
X127141403Y-107956155D01*
X127141416Y-107956162D01*
X127214602Y-107986476D01*
X127287092Y-108016502D01*
X127441742Y-108047264D01*
X127441745Y-108047265D01*
X127441747Y-108047265D01*
X127599433Y-108047265D01*
X127599434Y-108047264D01*
X127754086Y-108016502D01*
X127899768Y-107956159D01*
X128030878Y-107868554D01*
X128142378Y-107757054D01*
X128229983Y-107625944D01*
X128290326Y-107480262D01*
X128312975Y-107366400D01*
X133147589Y-107366400D01*
X133147589Y-108312135D01*
X133147590Y-108312141D01*
X133153997Y-108371748D01*
X133204291Y-108506593D01*
X133204295Y-108506600D01*
X133290541Y-108621809D01*
X133290544Y-108621812D01*
X133405753Y-108708058D01*
X133405760Y-108708062D01*
X133540606Y-108758356D01*
X133540605Y-108758356D01*
X133547533Y-108759100D01*
X133600216Y-108764765D01*
X134545961Y-108764764D01*
X134605572Y-108758356D01*
X134700857Y-108722816D01*
X134770546Y-108717833D01*
X134791640Y-108724438D01*
X134803131Y-108729198D01*
X134803133Y-108729198D01*
X134803135Y-108729199D01*
X134981932Y-108764765D01*
X134981935Y-108764765D01*
X135164245Y-108764765D01*
X135284534Y-108740837D01*
X135343047Y-108729198D01*
X135511478Y-108659432D01*
X135511488Y-108659425D01*
X135515150Y-108657468D01*
X135583551Y-108643215D01*
X135632081Y-108657463D01*
X135634943Y-108658993D01*
X135803271Y-108728716D01*
X135803283Y-108728719D01*
X135981979Y-108764264D01*
X135981983Y-108764265D01*
X136164195Y-108764265D01*
X136164198Y-108764264D01*
X136342894Y-108728719D01*
X136342902Y-108728717D01*
X136511240Y-108658989D01*
X136511241Y-108658989D01*
X136528037Y-108647765D01*
X136014280Y-108134010D01*
X136010475Y-108127042D01*
X136004035Y-108122398D01*
X135993968Y-108096812D01*
X135980795Y-108072687D01*
X135980785Y-108071629D01*
X136023361Y-108089265D01*
X136122817Y-108089265D01*
X136214703Y-108051205D01*
X136285029Y-107980879D01*
X136323089Y-107888993D01*
X136323089Y-107839264D01*
X136426642Y-107839264D01*
X136426642Y-107839266D01*
X136881589Y-108294213D01*
X136881589Y-108294212D01*
X136892812Y-108277419D01*
X136892813Y-108277416D01*
X136962541Y-108109078D01*
X136962543Y-108109070D01*
X136998088Y-107930374D01*
X136998089Y-107930371D01*
X136998089Y-107748159D01*
X136998088Y-107748155D01*
X136973298Y-107623522D01*
X136969697Y-107605418D01*
X143922589Y-107605418D01*
X143922589Y-107763111D01*
X143953350Y-107917754D01*
X143953353Y-107917766D01*
X144013691Y-108063437D01*
X144013698Y-108063450D01*
X144101299Y-108194553D01*
X144101302Y-108194557D01*
X144212796Y-108306051D01*
X144212800Y-108306054D01*
X144343903Y-108393655D01*
X144343916Y-108393662D01*
X144489587Y-108454000D01*
X144489592Y-108454002D01*
X144644242Y-108484764D01*
X144644245Y-108484765D01*
X144644247Y-108484765D01*
X144801933Y-108484765D01*
X144801934Y-108484764D01*
X144956586Y-108454002D01*
X145102268Y-108393659D01*
X145233378Y-108306054D01*
X145344878Y-108194554D01*
X145432483Y-108063444D01*
X145492826Y-107917762D01*
X145523589Y-107763107D01*
X145523589Y-107605423D01*
X145523589Y-107605420D01*
X145523588Y-107605418D01*
X145492826Y-107450768D01*
X145472667Y-107402100D01*
X145432486Y-107305092D01*
X145432479Y-107305079D01*
X145344878Y-107173976D01*
X145344875Y-107173972D01*
X145233381Y-107062478D01*
X145233377Y-107062475D01*
X145102274Y-106974874D01*
X145102261Y-106974867D01*
X144956590Y-106914529D01*
X144956578Y-106914526D01*
X144801934Y-106883765D01*
X144801931Y-106883765D01*
X144644247Y-106883765D01*
X144644244Y-106883765D01*
X144489599Y-106914526D01*
X144489587Y-106914529D01*
X144343916Y-106974867D01*
X144343903Y-106974874D01*
X144212800Y-107062475D01*
X144212796Y-107062478D01*
X144101302Y-107173972D01*
X144101299Y-107173976D01*
X144013698Y-107305079D01*
X144013691Y-107305092D01*
X143953353Y-107450763D01*
X143953350Y-107450775D01*
X143922589Y-107605418D01*
X136969697Y-107605418D01*
X136962543Y-107569457D01*
X136962540Y-107569447D01*
X136892817Y-107401120D01*
X136892814Y-107401114D01*
X136881589Y-107384315D01*
X136426642Y-107839264D01*
X136323089Y-107839264D01*
X136323089Y-107789537D01*
X136285029Y-107697651D01*
X136214703Y-107627325D01*
X136122817Y-107589265D01*
X136023361Y-107589265D01*
X135984925Y-107605185D01*
X135986571Y-107586800D01*
X136014280Y-107544518D01*
X136528036Y-107030763D01*
X136511234Y-107019536D01*
X136342906Y-106949813D01*
X136342894Y-106949810D01*
X136164198Y-106914265D01*
X135981979Y-106914265D01*
X135803283Y-106949810D01*
X135803275Y-106949812D01*
X135634928Y-107019543D01*
X135632061Y-107021076D01*
X135630389Y-107021423D01*
X135629310Y-107021871D01*
X135629225Y-107021666D01*
X135563657Y-107035310D01*
X135515175Y-107021073D01*
X135511479Y-107019098D01*
X135343051Y-106949333D01*
X135343041Y-106949330D01*
X135164245Y-106913765D01*
X135164243Y-106913765D01*
X134981935Y-106913765D01*
X134981933Y-106913765D01*
X134803136Y-106949330D01*
X134803123Y-106949334D01*
X134791634Y-106954093D01*
X134722165Y-106961559D01*
X134700854Y-106955712D01*
X134696513Y-106954093D01*
X134625619Y-106927651D01*
X134605570Y-106920173D01*
X134605572Y-106920173D01*
X134545972Y-106913766D01*
X134545970Y-106913765D01*
X134545962Y-106913765D01*
X134545953Y-106913765D01*
X133600218Y-106913765D01*
X133600212Y-106913766D01*
X133540605Y-106920173D01*
X133405760Y-106970467D01*
X133405753Y-106970471D01*
X133290544Y-107056717D01*
X133290541Y-107056720D01*
X133204295Y-107171929D01*
X133204291Y-107171936D01*
X133153997Y-107306782D01*
X133147590Y-107366381D01*
X133147589Y-107366400D01*
X128312975Y-107366400D01*
X128321089Y-107325607D01*
X128321089Y-107167923D01*
X128321089Y-107167920D01*
X128321088Y-107167918D01*
X128305769Y-107090907D01*
X128290326Y-107013268D01*
X128274420Y-106974867D01*
X128229986Y-106867592D01*
X128229979Y-106867579D01*
X128142378Y-106736476D01*
X128142375Y-106736472D01*
X128115349Y-106709446D01*
X128081864Y-106648123D01*
X128086848Y-106578431D01*
X128115349Y-106534084D01*
X128142375Y-106507057D01*
X128142378Y-106507054D01*
X128229983Y-106375944D01*
X128290326Y-106230262D01*
X128321089Y-106075607D01*
X128321089Y-105917923D01*
X128321089Y-105917920D01*
X128321088Y-105917918D01*
X128305296Y-105838522D01*
X128301695Y-105820418D01*
X138302589Y-105820418D01*
X138302589Y-105978111D01*
X138333350Y-106132754D01*
X138333353Y-106132766D01*
X138393691Y-106278437D01*
X138393698Y-106278450D01*
X138481299Y-106409553D01*
X138481302Y-106409557D01*
X138592796Y-106521051D01*
X138592800Y-106521054D01*
X138723903Y-106608655D01*
X138723916Y-106608662D01*
X138835223Y-106654766D01*
X138869592Y-106669002D01*
X139024242Y-106699764D01*
X139024245Y-106699765D01*
X139024247Y-106699765D01*
X139181933Y-106699765D01*
X139181934Y-106699764D01*
X139336586Y-106669002D01*
X139482268Y-106608659D01*
X139613378Y-106521054D01*
X139724878Y-106409554D01*
X139749179Y-106373185D01*
X146042588Y-106373185D01*
X146071429Y-106518172D01*
X146071432Y-106518182D01*
X146128001Y-106654753D01*
X146128008Y-106654766D01*
X146210137Y-106777680D01*
X146210140Y-106777684D01*
X146314669Y-106882213D01*
X146314673Y-106882216D01*
X146437587Y-106964345D01*
X146437600Y-106964352D01*
X146555683Y-107013263D01*
X146574176Y-107020923D01*
X146574180Y-107020923D01*
X146574181Y-107020924D01*
X146719168Y-107049765D01*
X146719171Y-107049765D01*
X146867009Y-107049765D01*
X146964551Y-107030361D01*
X147012002Y-107020923D01*
X147148584Y-106964349D01*
X147271505Y-106882216D01*
X147376040Y-106777681D01*
X147458173Y-106654760D01*
X147514747Y-106518178D01*
X147536354Y-106409554D01*
X147543589Y-106373185D01*
X147543589Y-106225344D01*
X147514748Y-106080357D01*
X147514747Y-106080356D01*
X147514747Y-106080352D01*
X147479296Y-105994765D01*
X147458176Y-105943776D01*
X147458169Y-105943763D01*
X147376040Y-105820849D01*
X147376037Y-105820845D01*
X147271508Y-105716316D01*
X147271504Y-105716313D01*
X147148590Y-105634184D01*
X147148577Y-105634177D01*
X147012006Y-105577608D01*
X147011996Y-105577605D01*
X146867009Y-105548765D01*
X146867007Y-105548765D01*
X146719171Y-105548765D01*
X146719169Y-105548765D01*
X146574181Y-105577605D01*
X146574171Y-105577608D01*
X146437600Y-105634177D01*
X146437587Y-105634184D01*
X146314673Y-105716313D01*
X146314669Y-105716316D01*
X146210140Y-105820845D01*
X146210137Y-105820849D01*
X146128008Y-105943763D01*
X146128001Y-105943776D01*
X146071432Y-106080347D01*
X146071429Y-106080357D01*
X146042589Y-106225344D01*
X146042589Y-106225347D01*
X146042589Y-106373183D01*
X146042589Y-106373185D01*
X146042588Y-106373185D01*
X139749179Y-106373185D01*
X139812483Y-106278444D01*
X139832439Y-106230266D01*
X139856655Y-106171803D01*
X139856655Y-106171802D01*
X139865409Y-106150668D01*
X139872826Y-106132762D01*
X139903589Y-105978107D01*
X139903589Y-105820423D01*
X139903589Y-105820420D01*
X139903588Y-105820418D01*
X139886999Y-105737020D01*
X139872826Y-105665768D01*
X139859744Y-105634184D01*
X139812486Y-105520092D01*
X139812479Y-105520079D01*
X139724878Y-105388976D01*
X139724875Y-105388972D01*
X139613381Y-105277478D01*
X139613377Y-105277475D01*
X139482274Y-105189874D01*
X139482261Y-105189867D01*
X139336590Y-105129529D01*
X139336578Y-105129526D01*
X139181934Y-105098765D01*
X139181931Y-105098765D01*
X139024247Y-105098765D01*
X139024244Y-105098765D01*
X138869599Y-105129526D01*
X138869587Y-105129529D01*
X138723916Y-105189867D01*
X138723903Y-105189874D01*
X138592800Y-105277475D01*
X138592796Y-105277478D01*
X138481302Y-105388972D01*
X138481299Y-105388976D01*
X138393698Y-105520079D01*
X138393691Y-105520092D01*
X138333353Y-105665763D01*
X138333350Y-105665775D01*
X138302589Y-105820418D01*
X128301695Y-105820418D01*
X128290327Y-105763273D01*
X128290326Y-105763272D01*
X128290326Y-105763268D01*
X128270877Y-105716313D01*
X128229986Y-105617592D01*
X128229979Y-105617579D01*
X128142378Y-105486476D01*
X128142375Y-105486472D01*
X128030881Y-105374978D01*
X128030877Y-105374975D01*
X127899774Y-105287374D01*
X127899761Y-105287367D01*
X127754090Y-105227029D01*
X127754078Y-105227026D01*
X127599434Y-105196265D01*
X127599431Y-105196265D01*
X127441747Y-105196265D01*
X127441744Y-105196265D01*
X127287099Y-105227026D01*
X127287087Y-105227029D01*
X127141416Y-105287367D01*
X127141403Y-105287374D01*
X127010300Y-105374975D01*
X127010296Y-105374978D01*
X126898802Y-105486472D01*
X126898799Y-105486476D01*
X126811198Y-105617579D01*
X126811191Y-105617592D01*
X126750853Y-105763263D01*
X126750850Y-105763275D01*
X126720089Y-105917918D01*
X113123589Y-105917918D01*
X113123589Y-105902844D01*
X113094748Y-105757857D01*
X113094747Y-105757856D01*
X113094747Y-105757852D01*
X113077542Y-105716316D01*
X113038176Y-105621276D01*
X113038174Y-105621272D01*
X113038173Y-105621270D01*
X112956040Y-105498349D01*
X112956038Y-105498347D01*
X112954240Y-105495656D01*
X112933362Y-105428979D01*
X112951846Y-105361599D01*
X112954240Y-105357874D01*
X112956038Y-105355182D01*
X112956040Y-105355181D01*
X113038173Y-105232260D01*
X113094747Y-105095678D01*
X113123589Y-104950683D01*
X113123589Y-104802847D01*
X113123589Y-104802844D01*
X113094748Y-104657857D01*
X113094747Y-104657856D01*
X113094747Y-104657852D01*
X113083571Y-104630870D01*
X113038176Y-104521276D01*
X113038169Y-104521263D01*
X112956040Y-104398349D01*
X112956037Y-104398345D01*
X112851508Y-104293816D01*
X112851504Y-104293813D01*
X112728590Y-104211684D01*
X112728577Y-104211677D01*
X112627786Y-104169929D01*
X112592002Y-104155107D01*
X112591996Y-104155105D01*
X112447009Y-104126265D01*
X112447007Y-104126265D01*
X112299171Y-104126265D01*
X112299169Y-104126265D01*
X112154181Y-104155105D01*
X112154171Y-104155108D01*
X112017600Y-104211677D01*
X112017587Y-104211684D01*
X111894673Y-104293813D01*
X111894669Y-104293816D01*
X111790140Y-104398345D01*
X111790137Y-104398349D01*
X111708008Y-104521263D01*
X111708001Y-104521276D01*
X111651432Y-104657847D01*
X111651429Y-104657857D01*
X111622589Y-104802844D01*
X111622589Y-104802847D01*
X111622589Y-104950683D01*
X111622589Y-104950685D01*
X111622588Y-104950685D01*
X109623589Y-104950685D01*
X109623589Y-104061455D01*
X127022589Y-104061455D01*
X127022589Y-104219148D01*
X127053350Y-104373791D01*
X127053353Y-104373803D01*
X127113691Y-104519474D01*
X127113698Y-104519487D01*
X127201299Y-104650590D01*
X127201302Y-104650594D01*
X127312796Y-104762088D01*
X127312800Y-104762091D01*
X127443903Y-104849692D01*
X127443916Y-104849699D01*
X127589587Y-104910037D01*
X127589592Y-104910039D01*
X127744242Y-104940801D01*
X127744245Y-104940802D01*
X127744247Y-104940802D01*
X127901933Y-104940802D01*
X127901934Y-104940801D01*
X128056586Y-104910039D01*
X128202268Y-104849696D01*
X128333378Y-104762091D01*
X128444878Y-104650591D01*
X128532483Y-104519481D01*
X128592826Y-104373799D01*
X128623589Y-104219144D01*
X128623589Y-104061460D01*
X128623589Y-104061457D01*
X128623588Y-104061455D01*
X128592827Y-103906812D01*
X128592826Y-103906805D01*
X128592824Y-103906800D01*
X128532486Y-103761129D01*
X128532479Y-103761116D01*
X128444878Y-103630013D01*
X128444875Y-103630009D01*
X128333381Y-103518515D01*
X128333377Y-103518512D01*
X128202274Y-103430911D01*
X128202261Y-103430904D01*
X128056590Y-103370566D01*
X128056578Y-103370563D01*
X127901934Y-103339802D01*
X127901931Y-103339802D01*
X127744247Y-103339802D01*
X127744244Y-103339802D01*
X127589599Y-103370563D01*
X127589587Y-103370566D01*
X127443916Y-103430904D01*
X127443903Y-103430911D01*
X127312800Y-103518512D01*
X127312796Y-103518515D01*
X127201302Y-103630009D01*
X127201299Y-103630013D01*
X127113698Y-103761116D01*
X127113691Y-103761129D01*
X127053353Y-103906800D01*
X127053350Y-103906812D01*
X127022589Y-104061455D01*
X109623589Y-104061455D01*
X109623589Y-102970418D01*
X128522589Y-102970418D01*
X128522589Y-103128111D01*
X128553350Y-103282754D01*
X128553353Y-103282766D01*
X128613691Y-103428437D01*
X128613698Y-103428450D01*
X128701299Y-103559553D01*
X128701302Y-103559557D01*
X128812796Y-103671051D01*
X128812800Y-103671054D01*
X128943903Y-103758655D01*
X128943916Y-103758662D01*
X129042058Y-103799313D01*
X129089592Y-103819002D01*
X129244242Y-103849764D01*
X129244245Y-103849765D01*
X129244247Y-103849765D01*
X129401933Y-103849765D01*
X129401934Y-103849764D01*
X129549467Y-103820418D01*
X136242589Y-103820418D01*
X136242589Y-103978111D01*
X136273350Y-104132754D01*
X136273353Y-104132766D01*
X136333691Y-104278437D01*
X136333698Y-104278450D01*
X136421299Y-104409553D01*
X136421302Y-104409557D01*
X136532796Y-104521051D01*
X136532800Y-104521054D01*
X136663903Y-104608655D01*
X136663916Y-104608662D01*
X136782661Y-104657847D01*
X136809592Y-104669002D01*
X136964242Y-104699764D01*
X136964245Y-104699765D01*
X136964247Y-104699765D01*
X137121933Y-104699765D01*
X137121934Y-104699764D01*
X137276586Y-104669002D01*
X137422268Y-104608659D01*
X137553378Y-104521054D01*
X137664878Y-104409554D01*
X137752483Y-104278444D01*
X137812826Y-104132762D01*
X137843589Y-103978107D01*
X137843589Y-103820423D01*
X137843589Y-103820420D01*
X137843588Y-103820418D01*
X137832773Y-103766046D01*
X137812826Y-103665768D01*
X137812824Y-103665763D01*
X137752486Y-103520092D01*
X137752479Y-103520079D01*
X137664878Y-103388976D01*
X137664875Y-103388972D01*
X137553381Y-103277478D01*
X137553377Y-103277475D01*
X137422274Y-103189874D01*
X137422261Y-103189867D01*
X137276590Y-103129529D01*
X137276578Y-103129526D01*
X137121934Y-103098765D01*
X137121931Y-103098765D01*
X136964247Y-103098765D01*
X136964244Y-103098765D01*
X136809599Y-103129526D01*
X136809587Y-103129529D01*
X136663916Y-103189867D01*
X136663903Y-103189874D01*
X136532800Y-103277475D01*
X136532796Y-103277478D01*
X136421302Y-103388972D01*
X136421299Y-103388976D01*
X136333698Y-103520079D01*
X136333691Y-103520092D01*
X136273353Y-103665763D01*
X136273350Y-103665775D01*
X136242589Y-103820418D01*
X129549467Y-103820418D01*
X129556586Y-103819002D01*
X129696305Y-103761129D01*
X129702261Y-103758662D01*
X129702261Y-103758661D01*
X129702268Y-103758659D01*
X129702274Y-103758655D01*
X129773253Y-103711229D01*
X129804313Y-103690474D01*
X129833378Y-103671054D01*
X129944878Y-103559554D01*
X130032483Y-103428444D01*
X130092826Y-103282762D01*
X130123589Y-103128107D01*
X130123589Y-102970423D01*
X130123589Y-102970420D01*
X130123588Y-102970418D01*
X130118201Y-102943336D01*
X145182588Y-102943336D01*
X145207586Y-103069003D01*
X145207588Y-103069009D01*
X145256622Y-103187389D01*
X145256627Y-103187398D01*
X145327812Y-103293933D01*
X145327815Y-103293937D01*
X145418416Y-103384538D01*
X145418420Y-103384541D01*
X145524955Y-103455726D01*
X145524961Y-103455729D01*
X145524962Y-103455730D01*
X145643345Y-103504766D01*
X145643349Y-103504766D01*
X145643350Y-103504767D01*
X145769017Y-103529765D01*
X145769020Y-103529765D01*
X145897160Y-103529765D01*
X145981704Y-103512947D01*
X146022833Y-103504766D01*
X146141216Y-103455730D01*
X146247758Y-103384541D01*
X146338365Y-103293934D01*
X146409554Y-103187392D01*
X146458590Y-103069009D01*
X146483589Y-102943334D01*
X146483589Y-102815196D01*
X146483589Y-102815193D01*
X146458591Y-102689526D01*
X146458590Y-102689525D01*
X146458590Y-102689521D01*
X146409554Y-102571138D01*
X146409553Y-102571137D01*
X146409550Y-102571131D01*
X146338365Y-102464596D01*
X146338362Y-102464592D01*
X146247761Y-102373991D01*
X146247757Y-102373988D01*
X146141222Y-102302803D01*
X146141213Y-102302798D01*
X146022833Y-102253764D01*
X146022827Y-102253762D01*
X145897160Y-102228765D01*
X145897158Y-102228765D01*
X145769020Y-102228765D01*
X145769018Y-102228765D01*
X145643350Y-102253762D01*
X145643344Y-102253764D01*
X145524964Y-102302798D01*
X145524955Y-102302803D01*
X145418420Y-102373988D01*
X145418416Y-102373991D01*
X145327815Y-102464592D01*
X145327812Y-102464596D01*
X145256627Y-102571131D01*
X145256622Y-102571140D01*
X145207588Y-102689520D01*
X145207586Y-102689526D01*
X145182589Y-102815193D01*
X145182589Y-102815196D01*
X145182589Y-102943334D01*
X145182589Y-102943336D01*
X145182588Y-102943336D01*
X130118201Y-102943336D01*
X130096313Y-102833295D01*
X130092827Y-102815773D01*
X130092826Y-102815772D01*
X130092826Y-102815768D01*
X130084032Y-102794538D01*
X130032486Y-102670092D01*
X130032479Y-102670079D01*
X129944878Y-102538976D01*
X129944875Y-102538972D01*
X129833381Y-102427478D01*
X129833377Y-102427475D01*
X129702274Y-102339874D01*
X129702261Y-102339867D01*
X129556590Y-102279529D01*
X129556578Y-102279526D01*
X129401934Y-102248765D01*
X129401931Y-102248765D01*
X129244247Y-102248765D01*
X129244244Y-102248765D01*
X129089599Y-102279526D01*
X129089587Y-102279529D01*
X128943916Y-102339867D01*
X128943903Y-102339874D01*
X128812800Y-102427475D01*
X128812796Y-102427478D01*
X128701302Y-102538972D01*
X128701299Y-102538976D01*
X128613698Y-102670079D01*
X128613691Y-102670092D01*
X128553353Y-102815763D01*
X128553350Y-102815775D01*
X128522589Y-102970418D01*
X109623589Y-102970418D01*
X109623589Y-102353336D01*
X113512588Y-102353336D01*
X113537586Y-102479003D01*
X113537588Y-102479009D01*
X113586622Y-102597389D01*
X113586627Y-102597398D01*
X113657812Y-102703933D01*
X113657815Y-102703937D01*
X113748416Y-102794538D01*
X113748420Y-102794541D01*
X113854955Y-102865726D01*
X113854961Y-102865729D01*
X113854962Y-102865730D01*
X113973345Y-102914766D01*
X113973349Y-102914766D01*
X113973350Y-102914767D01*
X114099017Y-102939765D01*
X114099020Y-102939765D01*
X114227160Y-102939765D01*
X114311704Y-102922947D01*
X114352833Y-102914766D01*
X114471216Y-102865730D01*
X114577758Y-102794541D01*
X114668365Y-102703934D01*
X114739554Y-102597392D01*
X114788590Y-102479009D01*
X114800526Y-102419003D01*
X114813589Y-102353336D01*
X114813589Y-102225193D01*
X114788591Y-102099526D01*
X114788590Y-102099525D01*
X114788590Y-102099521D01*
X114739554Y-101981138D01*
X114739553Y-101981137D01*
X114739550Y-101981131D01*
X114668365Y-101874596D01*
X114668362Y-101874592D01*
X114577761Y-101783991D01*
X114577757Y-101783988D01*
X114471222Y-101712803D01*
X114471213Y-101712798D01*
X114352833Y-101663764D01*
X114352827Y-101663762D01*
X114227160Y-101638765D01*
X114227158Y-101638765D01*
X114099020Y-101638765D01*
X114099018Y-101638765D01*
X113973350Y-101663762D01*
X113973344Y-101663764D01*
X113854964Y-101712798D01*
X113854955Y-101712803D01*
X113748420Y-101783988D01*
X113748416Y-101783991D01*
X113657815Y-101874592D01*
X113657812Y-101874596D01*
X113586627Y-101981131D01*
X113586622Y-101981140D01*
X113537588Y-102099520D01*
X113537586Y-102099526D01*
X113512589Y-102225193D01*
X113512589Y-102225196D01*
X113512589Y-102353334D01*
X113512589Y-102353336D01*
X113512588Y-102353336D01*
X109623589Y-102353336D01*
X109623589Y-101009685D01*
X115186088Y-101009685D01*
X115214929Y-101154672D01*
X115214932Y-101154682D01*
X115271501Y-101291253D01*
X115271508Y-101291266D01*
X115353637Y-101414180D01*
X115353640Y-101414184D01*
X115458169Y-101518713D01*
X115458173Y-101518716D01*
X115581087Y-101600845D01*
X115581100Y-101600852D01*
X115717671Y-101657421D01*
X115717676Y-101657423D01*
X115717680Y-101657423D01*
X115717681Y-101657424D01*
X115862668Y-101686265D01*
X115862671Y-101686265D01*
X116010509Y-101686265D01*
X116123634Y-101663762D01*
X116155502Y-101657423D01*
X116292084Y-101600849D01*
X116415005Y-101518716D01*
X116519540Y-101414181D01*
X116601673Y-101291260D01*
X116658247Y-101154678D01*
X116667685Y-101107227D01*
X116687089Y-101009685D01*
X116687089Y-100861844D01*
X116658248Y-100716857D01*
X116658247Y-100716856D01*
X116658247Y-100716852D01*
X116622635Y-100630876D01*
X116614727Y-100611783D01*
X116601674Y-100580273D01*
X116601673Y-100580270D01*
X116601671Y-100580267D01*
X116601669Y-100580263D01*
X116595091Y-100570418D01*
X129437589Y-100570418D01*
X129437589Y-100728111D01*
X129468350Y-100882754D01*
X129468353Y-100882766D01*
X129528691Y-101028437D01*
X129528698Y-101028450D01*
X129616299Y-101159553D01*
X129616302Y-101159557D01*
X129727796Y-101271051D01*
X129727800Y-101271054D01*
X129858903Y-101358655D01*
X129858916Y-101358662D01*
X129992953Y-101414181D01*
X130004592Y-101419002D01*
X130159242Y-101449764D01*
X130159245Y-101449765D01*
X130159247Y-101449765D01*
X130316933Y-101449765D01*
X130316934Y-101449764D01*
X130471586Y-101419002D01*
X130617268Y-101358659D01*
X130748378Y-101271054D01*
X130859878Y-101159554D01*
X130947483Y-101028444D01*
X131007826Y-100882762D01*
X131038589Y-100728107D01*
X131038589Y-100570423D01*
X131038589Y-100570420D01*
X131038588Y-100570418D01*
X131019022Y-100472054D01*
X131007826Y-100415768D01*
X130984956Y-100360554D01*
X130947486Y-100270092D01*
X130947479Y-100270079D01*
X130859878Y-100138976D01*
X130859875Y-100138972D01*
X130748381Y-100027478D01*
X130748377Y-100027475D01*
X130617274Y-99939874D01*
X130617261Y-99939867D01*
X130472465Y-99879892D01*
X130472464Y-99879891D01*
X130472462Y-99879891D01*
X130471587Y-99879528D01*
X130471578Y-99879526D01*
X130316934Y-99848765D01*
X130316931Y-99848765D01*
X130159247Y-99848765D01*
X130159244Y-99848765D01*
X130004599Y-99879526D01*
X130004587Y-99879529D01*
X129858916Y-99939867D01*
X129858903Y-99939874D01*
X129727800Y-100027475D01*
X129727796Y-100027478D01*
X129616302Y-100138972D01*
X129616299Y-100138976D01*
X129528698Y-100270079D01*
X129528691Y-100270092D01*
X129468353Y-100415763D01*
X129468350Y-100415775D01*
X129437589Y-100570418D01*
X116595091Y-100570418D01*
X116519540Y-100457349D01*
X116519537Y-100457345D01*
X116415008Y-100352816D01*
X116415004Y-100352813D01*
X116292090Y-100270684D01*
X116292077Y-100270677D01*
X116155506Y-100214108D01*
X116155496Y-100214105D01*
X116010509Y-100185265D01*
X116010507Y-100185265D01*
X115862671Y-100185265D01*
X115862669Y-100185265D01*
X115717681Y-100214105D01*
X115717671Y-100214108D01*
X115581100Y-100270677D01*
X115581087Y-100270684D01*
X115458173Y-100352813D01*
X115458169Y-100352816D01*
X115353640Y-100457345D01*
X115353637Y-100457349D01*
X115271508Y-100580263D01*
X115271501Y-100580276D01*
X115214932Y-100716847D01*
X115214929Y-100716857D01*
X115186089Y-100861844D01*
X115186089Y-100861847D01*
X115186089Y-101009683D01*
X115186089Y-101009685D01*
X115186088Y-101009685D01*
X109623589Y-101009685D01*
X109623589Y-99771418D01*
X133272589Y-99771418D01*
X133272589Y-99929111D01*
X133303350Y-100083754D01*
X133303353Y-100083766D01*
X133363691Y-100229437D01*
X133363698Y-100229450D01*
X133451299Y-100360553D01*
X133451302Y-100360557D01*
X133562797Y-100472052D01*
X133562800Y-100472054D01*
X133669733Y-100543504D01*
X133714538Y-100597116D01*
X133723245Y-100666440D01*
X133722460Y-100670796D01*
X133712589Y-100720423D01*
X133712589Y-100878111D01*
X133743350Y-101032754D01*
X133743353Y-101032766D01*
X133803691Y-101178437D01*
X133803698Y-101178450D01*
X133891299Y-101309553D01*
X133891302Y-101309557D01*
X134002796Y-101421051D01*
X134002800Y-101421054D01*
X134133903Y-101508655D01*
X134133916Y-101508662D01*
X134279587Y-101569000D01*
X134279592Y-101569002D01*
X134434242Y-101599764D01*
X134434245Y-101599765D01*
X134434247Y-101599765D01*
X134591933Y-101599765D01*
X134591934Y-101599764D01*
X134746586Y-101569002D01*
X134892268Y-101508659D01*
X135023378Y-101421054D01*
X135024014Y-101420418D01*
X142582589Y-101420418D01*
X142582589Y-101578111D01*
X142613350Y-101732754D01*
X142613353Y-101732766D01*
X142673691Y-101878437D01*
X142673698Y-101878450D01*
X142761299Y-102009553D01*
X142761302Y-102009557D01*
X142872796Y-102121051D01*
X142872800Y-102121054D01*
X143003903Y-102208655D01*
X143003916Y-102208662D01*
X143149587Y-102269000D01*
X143149592Y-102269002D01*
X143240461Y-102287077D01*
X143304242Y-102299764D01*
X143304245Y-102299765D01*
X143304247Y-102299765D01*
X143461933Y-102299765D01*
X143461934Y-102299764D01*
X143616586Y-102269002D01*
X143762268Y-102208659D01*
X143893378Y-102121054D01*
X144004878Y-102009554D01*
X144092483Y-101878444D01*
X144152826Y-101732762D01*
X144175172Y-101620423D01*
X144175173Y-101620418D01*
X150112589Y-101620418D01*
X150112589Y-101778111D01*
X150143350Y-101932754D01*
X150143353Y-101932766D01*
X150203691Y-102078437D01*
X150203698Y-102078450D01*
X150291299Y-102209553D01*
X150291302Y-102209557D01*
X150402796Y-102321051D01*
X150402800Y-102321054D01*
X150533903Y-102408655D01*
X150533916Y-102408662D01*
X150633149Y-102449765D01*
X150679592Y-102469002D01*
X150834242Y-102499764D01*
X150834245Y-102499765D01*
X150834247Y-102499765D01*
X150991933Y-102499765D01*
X150991934Y-102499764D01*
X151146586Y-102469002D01*
X151292268Y-102408659D01*
X151423378Y-102321054D01*
X151534878Y-102209554D01*
X151622483Y-102078444D01*
X151682826Y-101932762D01*
X151713589Y-101778107D01*
X151713589Y-101620423D01*
X151713589Y-101620420D01*
X151707244Y-101588523D01*
X151707244Y-101588522D01*
X151703643Y-101570418D01*
X152872589Y-101570418D01*
X152872589Y-101728111D01*
X152903350Y-101882754D01*
X152903353Y-101882766D01*
X152963691Y-102028437D01*
X152963698Y-102028450D01*
X153051299Y-102159553D01*
X153051302Y-102159557D01*
X153162796Y-102271051D01*
X153162800Y-102271054D01*
X153293903Y-102358655D01*
X153293916Y-102358662D01*
X153439587Y-102419000D01*
X153439592Y-102419002D01*
X153594242Y-102449764D01*
X153594245Y-102449765D01*
X153594247Y-102449765D01*
X153751933Y-102449765D01*
X153751934Y-102449764D01*
X153906586Y-102419002D01*
X154052268Y-102358659D01*
X154183378Y-102271054D01*
X154294878Y-102159554D01*
X154382483Y-102028444D01*
X154442826Y-101882762D01*
X154473589Y-101728107D01*
X154473589Y-101570423D01*
X154473589Y-101570420D01*
X154473588Y-101570418D01*
X154452773Y-101465775D01*
X154442826Y-101415768D01*
X154411122Y-101339227D01*
X154382486Y-101270092D01*
X154382479Y-101270079D01*
X154294878Y-101138976D01*
X154294875Y-101138972D01*
X154183381Y-101027478D01*
X154183377Y-101027475D01*
X154052274Y-100939874D01*
X154052261Y-100939867D01*
X153906590Y-100879529D01*
X153906578Y-100879526D01*
X153751934Y-100848765D01*
X153751931Y-100848765D01*
X153594247Y-100848765D01*
X153594244Y-100848765D01*
X153439599Y-100879526D01*
X153439587Y-100879529D01*
X153293916Y-100939867D01*
X153293903Y-100939874D01*
X153162800Y-101027475D01*
X153162796Y-101027478D01*
X153051302Y-101138972D01*
X153051299Y-101138976D01*
X152963698Y-101270079D01*
X152963691Y-101270092D01*
X152903353Y-101415763D01*
X152903350Y-101415775D01*
X152872589Y-101570418D01*
X151703643Y-101570418D01*
X151682827Y-101465775D01*
X151682826Y-101465768D01*
X151682824Y-101465763D01*
X151622486Y-101320092D01*
X151622479Y-101320079D01*
X151534878Y-101188976D01*
X151534875Y-101188972D01*
X151423381Y-101077478D01*
X151423377Y-101077475D01*
X151292274Y-100989874D01*
X151292261Y-100989867D01*
X151146590Y-100929529D01*
X151146578Y-100929526D01*
X150991934Y-100898765D01*
X150991931Y-100898765D01*
X150834247Y-100898765D01*
X150834244Y-100898765D01*
X150679599Y-100929526D01*
X150679587Y-100929529D01*
X150533916Y-100989867D01*
X150533903Y-100989874D01*
X150402800Y-101077475D01*
X150402796Y-101077478D01*
X150291302Y-101188972D01*
X150291299Y-101188976D01*
X150203698Y-101320079D01*
X150203691Y-101320092D01*
X150143353Y-101465763D01*
X150143350Y-101465775D01*
X150112589Y-101620418D01*
X144175173Y-101620418D01*
X144181196Y-101590140D01*
X144181196Y-101590139D01*
X144183589Y-101578109D01*
X144183589Y-101420420D01*
X144183588Y-101420418D01*
X144163632Y-101320092D01*
X144152826Y-101265768D01*
X144121018Y-101188976D01*
X144092486Y-101120092D01*
X144092479Y-101120079D01*
X144004878Y-100988976D01*
X144004875Y-100988972D01*
X143893381Y-100877478D01*
X143893377Y-100877475D01*
X143762274Y-100789874D01*
X143762261Y-100789867D01*
X143616590Y-100729529D01*
X143616578Y-100729526D01*
X143461934Y-100698765D01*
X143461931Y-100698765D01*
X143304247Y-100698765D01*
X143304244Y-100698765D01*
X143149599Y-100729526D01*
X143149587Y-100729529D01*
X143003916Y-100789867D01*
X143003903Y-100789874D01*
X142872800Y-100877475D01*
X142872796Y-100877478D01*
X142761302Y-100988972D01*
X142761299Y-100988976D01*
X142673698Y-101120079D01*
X142673691Y-101120092D01*
X142613353Y-101265763D01*
X142613350Y-101265775D01*
X142582589Y-101420418D01*
X135024014Y-101420418D01*
X135030252Y-101414180D01*
X135117783Y-101326650D01*
X135134875Y-101309557D01*
X135134878Y-101309554D01*
X135222483Y-101178444D01*
X135282826Y-101032762D01*
X135313589Y-100878107D01*
X135313589Y-100720423D01*
X135313589Y-100720420D01*
X135313588Y-100720418D01*
X135309281Y-100698765D01*
X135282826Y-100565768D01*
X135261105Y-100513329D01*
X135222486Y-100420092D01*
X135222479Y-100420079D01*
X135134878Y-100288976D01*
X135134875Y-100288972D01*
X135023381Y-100177478D01*
X135023377Y-100177475D01*
X134916444Y-100106024D01*
X134871639Y-100052412D01*
X134862932Y-99983087D01*
X134863718Y-99978729D01*
X134873589Y-99929108D01*
X134873589Y-99771420D01*
X134873588Y-99771418D01*
X134842827Y-99616775D01*
X134842826Y-99616768D01*
X134826949Y-99578437D01*
X134782486Y-99471092D01*
X134782479Y-99471079D01*
X134694878Y-99339976D01*
X134694875Y-99339972D01*
X134583381Y-99228478D01*
X134583377Y-99228475D01*
X134452274Y-99140874D01*
X134452261Y-99140867D01*
X134306590Y-99080529D01*
X134306578Y-99080526D01*
X134151934Y-99049765D01*
X134151931Y-99049765D01*
X133994247Y-99049765D01*
X133994244Y-99049765D01*
X133839599Y-99080526D01*
X133839587Y-99080529D01*
X133693916Y-99140867D01*
X133693903Y-99140874D01*
X133562800Y-99228475D01*
X133562796Y-99228478D01*
X133451302Y-99339972D01*
X133451299Y-99339976D01*
X133363698Y-99471079D01*
X133363691Y-99471092D01*
X133303353Y-99616763D01*
X133303350Y-99616775D01*
X133272589Y-99771418D01*
X109623589Y-99771418D01*
X109623589Y-98863336D01*
X131622588Y-98863336D01*
X131647586Y-98989003D01*
X131647588Y-98989009D01*
X131696622Y-99107389D01*
X131696627Y-99107398D01*
X131767812Y-99213933D01*
X131767815Y-99213937D01*
X131858416Y-99304538D01*
X131858420Y-99304541D01*
X131964955Y-99375726D01*
X131964961Y-99375729D01*
X131964962Y-99375730D01*
X132083345Y-99424766D01*
X132083349Y-99424766D01*
X132083350Y-99424767D01*
X132209017Y-99449765D01*
X132209020Y-99449765D01*
X132337160Y-99449765D01*
X132422615Y-99432766D01*
X132462833Y-99424766D01*
X132581216Y-99375730D01*
X132687758Y-99304541D01*
X132778365Y-99213934D01*
X132849554Y-99107392D01*
X132898590Y-98989009D01*
X132910830Y-98927475D01*
X132923589Y-98863336D01*
X132923589Y-98735193D01*
X132898591Y-98609526D01*
X132898590Y-98609525D01*
X132898590Y-98609521D01*
X132856813Y-98508662D01*
X132849555Y-98491140D01*
X132849550Y-98491131D01*
X132778365Y-98384596D01*
X132778362Y-98384592D01*
X132687761Y-98293991D01*
X132687757Y-98293988D01*
X132581222Y-98222803D01*
X132581213Y-98222798D01*
X132462833Y-98173764D01*
X132462827Y-98173762D01*
X132337160Y-98148765D01*
X132337158Y-98148765D01*
X132209020Y-98148765D01*
X132209018Y-98148765D01*
X132083350Y-98173762D01*
X132083344Y-98173764D01*
X131964964Y-98222798D01*
X131964955Y-98222803D01*
X131858420Y-98293988D01*
X131858416Y-98293991D01*
X131767815Y-98384592D01*
X131767812Y-98384596D01*
X131696627Y-98491131D01*
X131696622Y-98491140D01*
X131647588Y-98609520D01*
X131647586Y-98609526D01*
X131622589Y-98735193D01*
X131622589Y-98735196D01*
X131622589Y-98863334D01*
X131622589Y-98863336D01*
X131622588Y-98863336D01*
X109623589Y-98863336D01*
X109623589Y-95769265D01*
X110579305Y-95769265D01*
X111448361Y-95769265D01*
X111356475Y-95807325D01*
X111286149Y-95877651D01*
X111248089Y-95969537D01*
X111248089Y-96068993D01*
X111286149Y-96160879D01*
X111356475Y-96231205D01*
X111448361Y-96269265D01*
X110579305Y-96269265D01*
X110584405Y-96294909D01*
X110584406Y-96294914D01*
X110655637Y-96466883D01*
X110655644Y-96466896D01*
X110759059Y-96621666D01*
X110759062Y-96621670D01*
X110890683Y-96753291D01*
X110890687Y-96753294D01*
X111045457Y-96856709D01*
X111045466Y-96856714D01*
X111217442Y-96927948D01*
X111217450Y-96927950D01*
X111400010Y-96964264D01*
X111400013Y-96964265D01*
X111573089Y-96964265D01*
X111573089Y-96269265D01*
X112073089Y-96269265D01*
X112073089Y-96964265D01*
X112246165Y-96964265D01*
X112246167Y-96964264D01*
X112428727Y-96927950D01*
X112428735Y-96927948D01*
X112600711Y-96856714D01*
X112600720Y-96856709D01*
X112755490Y-96753294D01*
X112755494Y-96753291D01*
X112887115Y-96621670D01*
X112887118Y-96621666D01*
X112988180Y-96470418D01*
X133572589Y-96470418D01*
X133572589Y-96628111D01*
X133603350Y-96782754D01*
X133603353Y-96782766D01*
X133663691Y-96928437D01*
X133663698Y-96928450D01*
X133751299Y-97059553D01*
X133751302Y-97059557D01*
X133862797Y-97171052D01*
X133862800Y-97171054D01*
X133944488Y-97225636D01*
X133989293Y-97279248D01*
X133998000Y-97348572D01*
X133978700Y-97397627D01*
X133963700Y-97420076D01*
X133963691Y-97420092D01*
X133903353Y-97565763D01*
X133903350Y-97565775D01*
X133872589Y-97720418D01*
X133872589Y-97878111D01*
X133903350Y-98032754D01*
X133903353Y-98032766D01*
X133963691Y-98178437D01*
X133963698Y-98178450D01*
X134051299Y-98309553D01*
X134051302Y-98309557D01*
X134162796Y-98421051D01*
X134162800Y-98421054D01*
X134293903Y-98508655D01*
X134293916Y-98508662D01*
X134439587Y-98569000D01*
X134439592Y-98569002D01*
X134577431Y-98596420D01*
X134594242Y-98599764D01*
X134594245Y-98599765D01*
X134594247Y-98599765D01*
X134751933Y-98599765D01*
X134751934Y-98599764D01*
X134906586Y-98569002D01*
X135052268Y-98508659D01*
X135183378Y-98421054D01*
X135294878Y-98309554D01*
X135382483Y-98178444D01*
X135403332Y-98128111D01*
X135442824Y-98032767D01*
X135442824Y-98032766D01*
X135442826Y-98032762D01*
X135444056Y-98026576D01*
X135476434Y-97964667D01*
X135537146Y-97930087D01*
X135606916Y-97933820D01*
X135653355Y-97963080D01*
X135737061Y-98046786D01*
X135737065Y-98046789D01*
X135868168Y-98134390D01*
X135868181Y-98134397D01*
X135974536Y-98178450D01*
X136013857Y-98194737D01*
X136168507Y-98225499D01*
X136168510Y-98225500D01*
X136168512Y-98225500D01*
X136326198Y-98225500D01*
X136326199Y-98225499D01*
X136480851Y-98194737D01*
X136626533Y-98134394D01*
X136757643Y-98046789D01*
X136869143Y-97935289D01*
X136956748Y-97804179D01*
X137017091Y-97658497D01*
X137047854Y-97503842D01*
X137047854Y-97346158D01*
X137047854Y-97346155D01*
X137047853Y-97346153D01*
X137037515Y-97294180D01*
X137017091Y-97191503D01*
X136977016Y-97094754D01*
X136969548Y-97025286D01*
X137000823Y-96962807D01*
X137044124Y-96932742D01*
X137102268Y-96908659D01*
X137233378Y-96821054D01*
X137344878Y-96709554D01*
X137432483Y-96578444D01*
X137432788Y-96577709D01*
X137452870Y-96529225D01*
X137492826Y-96432762D01*
X137523589Y-96278107D01*
X137523589Y-96120423D01*
X137523589Y-96120420D01*
X137523588Y-96120418D01*
X137520878Y-96106795D01*
X137492826Y-95965768D01*
X137456327Y-95877651D01*
X137432486Y-95820092D01*
X137432479Y-95820079D01*
X137344878Y-95688976D01*
X137344875Y-95688972D01*
X137233381Y-95577478D01*
X137233377Y-95577475D01*
X137102274Y-95489874D01*
X137102268Y-95489871D01*
X137089388Y-95484536D01*
X137034985Y-95440694D01*
X137012921Y-95374400D01*
X137030201Y-95306701D01*
X137081338Y-95259091D01*
X137089384Y-95255416D01*
X137147837Y-95231205D01*
X137202262Y-95208662D01*
X137202265Y-95208660D01*
X137202268Y-95208659D01*
X137333378Y-95121054D01*
X137444878Y-95009554D01*
X137532483Y-94878444D01*
X137540124Y-94859997D01*
X139860697Y-94859997D01*
X139860697Y-95017690D01*
X139891458Y-95172333D01*
X139891461Y-95172345D01*
X139951799Y-95318016D01*
X139951806Y-95318029D01*
X140039407Y-95449132D01*
X140039410Y-95449136D01*
X140150904Y-95560630D01*
X140150908Y-95560633D01*
X140282011Y-95648234D01*
X140282024Y-95648241D01*
X140424832Y-95707393D01*
X140427700Y-95708581D01*
X140571235Y-95737132D01*
X140582350Y-95739343D01*
X140582353Y-95739344D01*
X140582355Y-95739344D01*
X140740041Y-95739344D01*
X140740042Y-95739343D01*
X140894694Y-95708581D01*
X140894705Y-95708576D01*
X140894916Y-95708513D01*
X140895044Y-95708511D01*
X140900669Y-95707393D01*
X140900881Y-95708458D01*
X140964783Y-95707879D01*
X141023901Y-95745118D01*
X141052547Y-95802978D01*
X141053352Y-95807027D01*
X141053353Y-95807031D01*
X141113691Y-95952702D01*
X141113698Y-95952715D01*
X141201299Y-96083818D01*
X141201302Y-96083822D01*
X141304564Y-96187084D01*
X141338049Y-96248407D01*
X141333065Y-96318099D01*
X141291193Y-96374032D01*
X141225729Y-96398449D01*
X141216883Y-96398765D01*
X141144244Y-96398765D01*
X140989599Y-96429526D01*
X140989587Y-96429529D01*
X140843916Y-96489867D01*
X140843903Y-96489874D01*
X140712800Y-96577475D01*
X140712796Y-96577478D01*
X140601302Y-96688972D01*
X140601299Y-96688976D01*
X140513698Y-96820079D01*
X140513691Y-96820092D01*
X140453353Y-96965763D01*
X140453350Y-96965775D01*
X140422589Y-97120418D01*
X140422589Y-97278111D01*
X140453350Y-97432754D01*
X140453353Y-97432766D01*
X140513691Y-97578437D01*
X140513698Y-97578450D01*
X140601299Y-97709553D01*
X140601302Y-97709557D01*
X140712799Y-97821054D01*
X140817480Y-97890999D01*
X140862285Y-97944611D01*
X140872589Y-97994101D01*
X140872589Y-98128111D01*
X140903350Y-98282754D01*
X140903353Y-98282766D01*
X140951229Y-98398350D01*
X140958698Y-98467819D01*
X140927422Y-98530298D01*
X140905560Y-98548903D01*
X140862802Y-98577473D01*
X140862796Y-98577478D01*
X140751302Y-98688972D01*
X140751299Y-98688976D01*
X140663698Y-98820079D01*
X140663691Y-98820092D01*
X140603353Y-98965763D01*
X140603350Y-98965775D01*
X140572589Y-99120418D01*
X140572589Y-99278111D01*
X140603350Y-99432754D01*
X140603353Y-99432766D01*
X140663691Y-99578437D01*
X140663698Y-99578450D01*
X140751299Y-99709553D01*
X140751302Y-99709557D01*
X140862796Y-99821051D01*
X140862800Y-99821054D01*
X140993903Y-99908655D01*
X140993916Y-99908662D01*
X141069270Y-99939874D01*
X141139592Y-99969002D01*
X141294242Y-99999764D01*
X141294245Y-99999765D01*
X141294247Y-99999765D01*
X141451933Y-99999765D01*
X141451934Y-99999764D01*
X141606586Y-99969002D01*
X141752268Y-99908659D01*
X141883378Y-99821054D01*
X141994878Y-99709554D01*
X142082483Y-99578444D01*
X142127228Y-99470418D01*
X144772589Y-99470418D01*
X144772589Y-99628111D01*
X144803350Y-99782754D01*
X144803353Y-99782766D01*
X144863691Y-99928437D01*
X144863698Y-99928450D01*
X144951299Y-100059553D01*
X144951302Y-100059557D01*
X145062796Y-100171051D01*
X145062800Y-100171054D01*
X145193903Y-100258655D01*
X145193916Y-100258662D01*
X145267102Y-100288976D01*
X145339592Y-100319002D01*
X145494242Y-100349764D01*
X145494245Y-100349765D01*
X145494247Y-100349765D01*
X145651933Y-100349765D01*
X145651934Y-100349764D01*
X145806586Y-100319002D01*
X145924681Y-100270086D01*
X145952261Y-100258662D01*
X145952261Y-100258661D01*
X145952268Y-100258659D01*
X146083378Y-100171054D01*
X146194878Y-100059554D01*
X146282483Y-99928444D01*
X146342826Y-99782762D01*
X146373589Y-99628107D01*
X146373589Y-99470423D01*
X146373589Y-99470420D01*
X146373588Y-99470418D01*
X146369480Y-99449765D01*
X146342826Y-99315768D01*
X146338176Y-99304541D01*
X146282486Y-99170092D01*
X146282479Y-99170079D01*
X146194878Y-99038976D01*
X146194875Y-99038972D01*
X146083381Y-98927478D01*
X146083377Y-98927475D01*
X145952274Y-98839874D01*
X145952261Y-98839867D01*
X145806590Y-98779529D01*
X145806578Y-98779526D01*
X145651934Y-98748765D01*
X145651931Y-98748765D01*
X145494247Y-98748765D01*
X145494244Y-98748765D01*
X145339599Y-98779526D01*
X145339587Y-98779529D01*
X145193916Y-98839867D01*
X145193903Y-98839874D01*
X145062800Y-98927475D01*
X145062796Y-98927478D01*
X144951302Y-99038972D01*
X144951299Y-99038976D01*
X144863698Y-99170079D01*
X144863691Y-99170092D01*
X144803353Y-99315763D01*
X144803350Y-99315775D01*
X144772589Y-99470418D01*
X142127228Y-99470418D01*
X142142826Y-99432762D01*
X142173589Y-99278107D01*
X142173589Y-99120423D01*
X142173589Y-99120420D01*
X142173588Y-99120418D01*
X142167718Y-99090907D01*
X142142826Y-98965768D01*
X142094948Y-98850179D01*
X142087479Y-98780710D01*
X142118754Y-98718231D01*
X142140615Y-98699627D01*
X142183378Y-98671054D01*
X142294878Y-98559554D01*
X142382483Y-98428444D01*
X142442826Y-98282762D01*
X142473589Y-98128107D01*
X142473589Y-97970423D01*
X142473589Y-97970420D01*
X142473588Y-97970418D01*
X142464421Y-97924335D01*
X142442826Y-97815768D01*
X142438023Y-97804172D01*
X142382486Y-97670092D01*
X142382479Y-97670079D01*
X142294878Y-97538976D01*
X142294875Y-97538972D01*
X142183378Y-97427475D01*
X142078698Y-97357531D01*
X142033893Y-97303919D01*
X142023589Y-97254429D01*
X142023589Y-97120420D01*
X142023588Y-97120418D01*
X142008751Y-97045827D01*
X141992826Y-96965768D01*
X141992824Y-96965763D01*
X141932486Y-96820092D01*
X141932479Y-96820079D01*
X141844878Y-96688976D01*
X141844875Y-96688972D01*
X141741614Y-96585711D01*
X141708129Y-96524388D01*
X141713113Y-96454696D01*
X141754985Y-96398763D01*
X141820449Y-96374346D01*
X141829295Y-96374030D01*
X141901933Y-96374030D01*
X141901934Y-96374029D01*
X142056586Y-96343267D01*
X142202268Y-96282924D01*
X142333378Y-96195319D01*
X142444878Y-96083819D01*
X142532483Y-95952709D01*
X142592826Y-95807027D01*
X142623589Y-95652372D01*
X142623589Y-95494688D01*
X142623589Y-95494685D01*
X142623588Y-95494683D01*
X142610581Y-95429293D01*
X142592826Y-95340033D01*
X142576147Y-95299765D01*
X142532486Y-95194357D01*
X142532481Y-95194348D01*
X142525048Y-95183224D01*
X142525047Y-95183222D01*
X142483083Y-95120418D01*
X150112589Y-95120418D01*
X150112589Y-95278111D01*
X150143350Y-95432754D01*
X150143353Y-95432766D01*
X150203691Y-95578437D01*
X150203698Y-95578450D01*
X150291299Y-95709553D01*
X150291302Y-95709557D01*
X150402796Y-95821051D01*
X150402800Y-95821054D01*
X150533903Y-95908655D01*
X150533916Y-95908662D01*
X150640271Y-95952715D01*
X150679592Y-95969002D01*
X150834242Y-95999764D01*
X150834245Y-95999765D01*
X150834247Y-95999765D01*
X150991933Y-95999765D01*
X150991934Y-95999764D01*
X151146586Y-95969002D01*
X151292268Y-95908659D01*
X151423378Y-95821054D01*
X151534878Y-95709554D01*
X151622483Y-95578444D01*
X151682826Y-95432762D01*
X151713589Y-95278107D01*
X151713589Y-95120423D01*
X151713589Y-95120420D01*
X151713588Y-95120418D01*
X151706873Y-95086662D01*
X151682826Y-94965768D01*
X151677016Y-94951741D01*
X151622486Y-94820092D01*
X151622479Y-94820079D01*
X151534878Y-94688976D01*
X151534875Y-94688972D01*
X151423381Y-94577478D01*
X151423377Y-94577475D01*
X151292274Y-94489874D01*
X151292261Y-94489867D01*
X151146590Y-94429529D01*
X151146578Y-94429526D01*
X150991934Y-94398765D01*
X150991931Y-94398765D01*
X150834247Y-94398765D01*
X150834244Y-94398765D01*
X150679599Y-94429526D01*
X150679587Y-94429529D01*
X150533916Y-94489867D01*
X150533903Y-94489874D01*
X150402800Y-94577475D01*
X150402796Y-94577478D01*
X150291302Y-94688972D01*
X150291299Y-94688976D01*
X150203698Y-94820079D01*
X150203691Y-94820092D01*
X150143353Y-94965763D01*
X150143350Y-94965775D01*
X150112589Y-95120418D01*
X142483083Y-95120418D01*
X142444878Y-95063241D01*
X142444875Y-95063237D01*
X142333381Y-94951743D01*
X142333377Y-94951740D01*
X142202274Y-94864139D01*
X142202261Y-94864132D01*
X142056590Y-94803794D01*
X142056578Y-94803791D01*
X141901934Y-94773030D01*
X141901931Y-94773030D01*
X141744247Y-94773030D01*
X141744244Y-94773030D01*
X141589587Y-94803793D01*
X141589328Y-94803872D01*
X141589186Y-94803873D01*
X141583617Y-94804981D01*
X141583406Y-94803923D01*
X141519461Y-94804481D01*
X141460355Y-94767221D01*
X141431737Y-94709389D01*
X141430934Y-94705347D01*
X141402264Y-94636131D01*
X141370594Y-94559671D01*
X141370587Y-94559658D01*
X141282986Y-94428555D01*
X141282983Y-94428551D01*
X141171489Y-94317057D01*
X141171485Y-94317054D01*
X141040382Y-94229453D01*
X141040369Y-94229446D01*
X140894698Y-94169108D01*
X140894686Y-94169105D01*
X140740042Y-94138344D01*
X140740039Y-94138344D01*
X140582355Y-94138344D01*
X140582352Y-94138344D01*
X140427707Y-94169105D01*
X140427695Y-94169108D01*
X140282024Y-94229446D01*
X140282011Y-94229453D01*
X140150908Y-94317054D01*
X140150904Y-94317057D01*
X140039410Y-94428551D01*
X140039407Y-94428555D01*
X139951806Y-94559658D01*
X139951799Y-94559671D01*
X139891461Y-94705342D01*
X139891458Y-94705354D01*
X139860697Y-94859997D01*
X137540124Y-94859997D01*
X137556653Y-94820092D01*
X137562301Y-94806457D01*
X137562301Y-94806456D01*
X137592826Y-94732762D01*
X137623589Y-94578107D01*
X137623589Y-94420423D01*
X137623589Y-94420420D01*
X137623588Y-94420418D01*
X137610013Y-94352171D01*
X137592826Y-94265768D01*
X137561879Y-94191054D01*
X137532486Y-94120092D01*
X137532479Y-94120079D01*
X137444878Y-93988976D01*
X137444875Y-93988972D01*
X137333381Y-93877478D01*
X137333377Y-93877475D01*
X137202274Y-93789874D01*
X137202261Y-93789867D01*
X137056590Y-93729529D01*
X137056578Y-93729526D01*
X136901934Y-93698765D01*
X136901931Y-93698765D01*
X136744247Y-93698765D01*
X136744244Y-93698765D01*
X136589599Y-93729526D01*
X136589587Y-93729529D01*
X136443916Y-93789867D01*
X136443903Y-93789874D01*
X136312800Y-93877475D01*
X136312796Y-93877478D01*
X136201302Y-93988972D01*
X136201299Y-93988976D01*
X136113698Y-94120079D01*
X136113691Y-94120092D01*
X136053353Y-94265763D01*
X136053350Y-94265775D01*
X136022589Y-94420418D01*
X136022589Y-94578111D01*
X136053350Y-94732754D01*
X136053353Y-94732766D01*
X136113691Y-94878437D01*
X136113698Y-94878450D01*
X136201299Y-95009553D01*
X136201302Y-95009557D01*
X136312796Y-95121051D01*
X136312800Y-95121054D01*
X136443903Y-95208655D01*
X136443907Y-95208657D01*
X136443910Y-95208659D01*
X136454922Y-95213220D01*
X136456785Y-95213992D01*
X136511190Y-95257832D01*
X136533256Y-95324126D01*
X136515978Y-95391825D01*
X136464842Y-95439437D01*
X136456788Y-95443115D01*
X136343913Y-95489869D01*
X136343903Y-95489874D01*
X136212800Y-95577475D01*
X136212796Y-95577478D01*
X136101302Y-95688972D01*
X136101299Y-95688976D01*
X136013698Y-95820079D01*
X136013691Y-95820092D01*
X135953353Y-95965763D01*
X135953350Y-95965775D01*
X135922589Y-96120418D01*
X135922589Y-96278111D01*
X135953350Y-96432754D01*
X135953353Y-96432766D01*
X135993425Y-96529509D01*
X136000894Y-96598978D01*
X135969618Y-96661457D01*
X135926318Y-96691522D01*
X135868174Y-96715606D01*
X135868168Y-96715609D01*
X135737065Y-96803210D01*
X135737061Y-96803213D01*
X135625567Y-96914707D01*
X135625564Y-96914711D01*
X135537963Y-97045814D01*
X135537956Y-97045827D01*
X135477618Y-97191498D01*
X135477615Y-97191508D01*
X135476385Y-97197695D01*
X135474289Y-97201701D01*
X135474373Y-97206225D01*
X135458239Y-97232383D01*
X135444000Y-97259605D01*
X135440070Y-97261842D01*
X135437695Y-97265694D01*
X135409984Y-97278975D01*
X135383284Y-97294180D01*
X135378766Y-97293937D01*
X135374689Y-97295892D01*
X135344210Y-97292085D01*
X135313515Y-97290440D01*
X135308587Y-97287636D01*
X135305358Y-97287233D01*
X135292514Y-97278490D01*
X135275317Y-97268706D01*
X135271032Y-97265130D01*
X135183378Y-97177476D01*
X135096197Y-97119223D01*
X135091129Y-97114994D01*
X135075222Y-97091223D01*
X135056884Y-97069281D01*
X135056039Y-97062558D01*
X135052271Y-97056927D01*
X135051740Y-97028328D01*
X135048177Y-96999956D01*
X135051077Y-96992584D01*
X135050975Y-96987069D01*
X135057252Y-96976890D01*
X135067480Y-96950898D01*
X135082477Y-96928453D01*
X135082479Y-96928450D01*
X135082483Y-96928444D01*
X135082689Y-96927948D01*
X135126966Y-96821051D01*
X135142826Y-96782762D01*
X135173589Y-96628107D01*
X135173589Y-96470423D01*
X135173589Y-96470420D01*
X135173588Y-96470418D01*
X135170461Y-96454696D01*
X135142826Y-96315768D01*
X135127227Y-96278109D01*
X135082486Y-96170092D01*
X135082479Y-96170079D01*
X134994878Y-96038976D01*
X134994875Y-96038972D01*
X134883381Y-95927478D01*
X134883377Y-95927475D01*
X134752274Y-95839874D01*
X134752261Y-95839867D01*
X134606590Y-95779529D01*
X134606578Y-95779526D01*
X134451934Y-95748765D01*
X134451931Y-95748765D01*
X134294247Y-95748765D01*
X134294244Y-95748765D01*
X134139599Y-95779526D01*
X134139587Y-95779529D01*
X133993916Y-95839867D01*
X133993903Y-95839874D01*
X133862800Y-95927475D01*
X133862796Y-95927478D01*
X133751302Y-96038972D01*
X133751299Y-96038976D01*
X133663698Y-96170079D01*
X133663691Y-96170092D01*
X133603353Y-96315763D01*
X133603350Y-96315775D01*
X133572589Y-96470418D01*
X112988180Y-96470418D01*
X112990533Y-96466896D01*
X112990538Y-96466886D01*
X113011253Y-96416878D01*
X113011253Y-96416876D01*
X113061771Y-96294914D01*
X113061772Y-96294909D01*
X113066873Y-96269265D01*
X112197817Y-96269265D01*
X112289703Y-96231205D01*
X112360029Y-96160879D01*
X112398089Y-96068993D01*
X112398089Y-95969537D01*
X112360029Y-95877651D01*
X112289703Y-95807325D01*
X112197817Y-95769265D01*
X113066873Y-95769265D01*
X113061772Y-95743620D01*
X113061771Y-95743615D01*
X112990540Y-95571646D01*
X112990533Y-95571633D01*
X112887118Y-95416863D01*
X112887115Y-95416859D01*
X112755494Y-95285238D01*
X112755490Y-95285235D01*
X112600720Y-95181820D01*
X112600711Y-95181815D01*
X112428735Y-95110581D01*
X112428727Y-95110579D01*
X112246166Y-95074265D01*
X112073089Y-95074265D01*
X112073089Y-95769265D01*
X111573089Y-95769265D01*
X111573089Y-95074265D01*
X111400012Y-95074265D01*
X111217450Y-95110579D01*
X111217442Y-95110581D01*
X111045466Y-95181815D01*
X111045457Y-95181820D01*
X110890687Y-95285235D01*
X110890683Y-95285238D01*
X110759062Y-95416859D01*
X110759059Y-95416863D01*
X110655644Y-95571633D01*
X110655637Y-95571646D01*
X110584406Y-95743615D01*
X110584405Y-95743620D01*
X110579305Y-95769265D01*
X109623589Y-95769265D01*
X109623589Y-94769264D01*
X113548878Y-94769264D01*
X113548879Y-94769265D01*
X114266852Y-94769265D01*
X114248089Y-94814564D01*
X114248089Y-95223966D01*
X114266852Y-95269265D01*
X113548878Y-95269265D01*
X113585555Y-95453654D01*
X113585557Y-95453662D01*
X113659053Y-95631098D01*
X113659058Y-95631107D01*
X113765756Y-95790791D01*
X113765759Y-95790795D01*
X113901560Y-95926596D01*
X114061246Y-96033295D01*
X114061256Y-96033300D01*
X114238688Y-96106795D01*
X114238695Y-96106798D01*
X114273089Y-96113638D01*
X114273089Y-95284321D01*
X114289955Y-95325040D01*
X114367314Y-95402399D01*
X114468388Y-95444265D01*
X114577790Y-95444265D01*
X114678864Y-95402399D01*
X114756223Y-95325040D01*
X114773089Y-95284321D01*
X114773089Y-96113637D01*
X114807482Y-96106798D01*
X114807489Y-96106795D01*
X114984921Y-96033300D01*
X114984931Y-96033295D01*
X115144618Y-95926596D01*
X115144619Y-95926594D01*
X115280418Y-95790795D01*
X115280421Y-95790791D01*
X115387119Y-95631107D01*
X115387124Y-95631098D01*
X115460620Y-95453662D01*
X115460622Y-95453654D01*
X115497299Y-95269265D01*
X114779326Y-95269265D01*
X114798089Y-95223966D01*
X114798089Y-94814564D01*
X114779326Y-94769265D01*
X115497299Y-94769265D01*
X115497299Y-94769264D01*
X115460622Y-94584875D01*
X115460620Y-94584867D01*
X115413214Y-94470418D01*
X124122589Y-94470418D01*
X124122589Y-94628111D01*
X124153350Y-94782754D01*
X124153353Y-94782766D01*
X124213691Y-94928437D01*
X124213698Y-94928450D01*
X124301299Y-95059553D01*
X124301302Y-95059557D01*
X124412796Y-95171051D01*
X124412800Y-95171054D01*
X124543903Y-95258655D01*
X124543916Y-95258662D01*
X124687228Y-95318023D01*
X124689592Y-95319002D01*
X124834484Y-95347823D01*
X124844242Y-95349764D01*
X124844245Y-95349765D01*
X124844247Y-95349765D01*
X125001933Y-95349765D01*
X125001934Y-95349764D01*
X125156586Y-95319002D01*
X125302268Y-95258659D01*
X125433378Y-95171054D01*
X125544878Y-95059554D01*
X125632483Y-94928444D01*
X125692826Y-94782762D01*
X125723589Y-94628107D01*
X125723589Y-94470423D01*
X125723589Y-94470420D01*
X125723588Y-94470418D01*
X125709335Y-94398765D01*
X125692826Y-94315768D01*
X125677455Y-94278659D01*
X125632486Y-94170092D01*
X125632479Y-94170079D01*
X125544878Y-94038976D01*
X125544875Y-94038972D01*
X125433381Y-93927478D01*
X125433377Y-93927475D01*
X125302274Y-93839874D01*
X125302261Y-93839867D01*
X125156590Y-93779529D01*
X125156578Y-93779526D01*
X125001934Y-93748765D01*
X125001931Y-93748765D01*
X124844247Y-93748765D01*
X124844244Y-93748765D01*
X124689599Y-93779526D01*
X124689587Y-93779529D01*
X124543916Y-93839867D01*
X124543903Y-93839874D01*
X124412800Y-93927475D01*
X124412796Y-93927478D01*
X124301302Y-94038972D01*
X124301299Y-94038976D01*
X124213698Y-94170079D01*
X124213691Y-94170092D01*
X124153353Y-94315763D01*
X124153350Y-94315775D01*
X124122589Y-94470418D01*
X115413214Y-94470418D01*
X115387124Y-94407431D01*
X115387119Y-94407422D01*
X115280421Y-94247738D01*
X115280418Y-94247734D01*
X115144619Y-94111935D01*
X115144615Y-94111932D01*
X114984931Y-94005234D01*
X114984922Y-94005229D01*
X114807486Y-93931733D01*
X114807478Y-93931731D01*
X114773089Y-93924890D01*
X114773089Y-94754208D01*
X114756223Y-94713490D01*
X114678864Y-94636131D01*
X114577790Y-94594265D01*
X114468388Y-94594265D01*
X114367314Y-94636131D01*
X114289955Y-94713490D01*
X114273089Y-94754208D01*
X114273089Y-93924890D01*
X114238699Y-93931731D01*
X114238691Y-93931733D01*
X114061255Y-94005229D01*
X114061246Y-94005234D01*
X113901562Y-94111932D01*
X113901558Y-94111935D01*
X113765759Y-94247734D01*
X113765756Y-94247738D01*
X113659058Y-94407422D01*
X113659053Y-94407431D01*
X113585557Y-94584867D01*
X113585555Y-94584875D01*
X113548878Y-94769264D01*
X109623589Y-94769264D01*
X109623589Y-88769265D01*
X110579305Y-88769265D01*
X111448361Y-88769265D01*
X111356475Y-88807325D01*
X111286149Y-88877651D01*
X111248089Y-88969537D01*
X111248089Y-89068993D01*
X111286149Y-89160879D01*
X111356475Y-89231205D01*
X111448361Y-89269265D01*
X110579305Y-89269265D01*
X110584405Y-89294909D01*
X110584406Y-89294914D01*
X110655637Y-89466883D01*
X110655644Y-89466896D01*
X110759059Y-89621666D01*
X110759062Y-89621670D01*
X110890683Y-89753291D01*
X110890687Y-89753294D01*
X111045457Y-89856709D01*
X111045466Y-89856714D01*
X111217442Y-89927948D01*
X111217450Y-89927950D01*
X111400010Y-89964264D01*
X111400013Y-89964265D01*
X111573089Y-89964265D01*
X111573089Y-89269265D01*
X112073089Y-89269265D01*
X112073089Y-89964265D01*
X112246165Y-89964265D01*
X112246167Y-89964264D01*
X112428727Y-89927950D01*
X112428735Y-89927948D01*
X112600711Y-89856714D01*
X112600720Y-89856709D01*
X112731589Y-89769264D01*
X113548878Y-89769264D01*
X113548879Y-89769265D01*
X114266852Y-89769265D01*
X114248089Y-89814564D01*
X114248089Y-90223966D01*
X114266852Y-90269265D01*
X113548878Y-90269265D01*
X113585555Y-90453654D01*
X113585557Y-90453662D01*
X113659053Y-90631098D01*
X113659058Y-90631107D01*
X113765756Y-90790791D01*
X113765759Y-90790795D01*
X113901558Y-90926594D01*
X113901562Y-90926597D01*
X114061246Y-91033295D01*
X114061256Y-91033300D01*
X114238688Y-91106795D01*
X114238695Y-91106798D01*
X114273089Y-91113638D01*
X114273089Y-90284321D01*
X114289955Y-90325040D01*
X114367314Y-90402399D01*
X114468388Y-90444265D01*
X114577790Y-90444265D01*
X114678864Y-90402399D01*
X114756223Y-90325040D01*
X114773089Y-90284321D01*
X114773089Y-91113637D01*
X114807482Y-91106798D01*
X114807489Y-91106795D01*
X114984921Y-91033300D01*
X114984931Y-91033295D01*
X115144615Y-90926597D01*
X115144619Y-90926594D01*
X115280418Y-90790795D01*
X115280421Y-90790791D01*
X115387119Y-90631107D01*
X115387124Y-90631098D01*
X115460620Y-90453662D01*
X115460622Y-90453654D01*
X115497299Y-90269266D01*
X115497298Y-90269265D01*
X114779326Y-90269265D01*
X114791275Y-90240418D01*
X116312589Y-90240418D01*
X116312589Y-90398111D01*
X116343350Y-90552754D01*
X116343353Y-90552766D01*
X116403691Y-90698437D01*
X116403698Y-90698450D01*
X116491299Y-90829553D01*
X116491302Y-90829557D01*
X116568329Y-90906584D01*
X116601814Y-90967907D01*
X116596830Y-91037599D01*
X116568329Y-91081946D01*
X116491302Y-91158972D01*
X116491299Y-91158976D01*
X116403698Y-91290079D01*
X116403691Y-91290092D01*
X116343353Y-91435763D01*
X116343350Y-91435775D01*
X116312589Y-91590418D01*
X116312589Y-91748111D01*
X116343350Y-91902754D01*
X116343353Y-91902766D01*
X116403691Y-92048437D01*
X116403698Y-92048450D01*
X116491299Y-92179553D01*
X116491302Y-92179557D01*
X116602796Y-92291051D01*
X116602800Y-92291054D01*
X116733903Y-92378655D01*
X116733916Y-92378662D01*
X116879587Y-92439000D01*
X116879592Y-92439002D01*
X116936645Y-92450350D01*
X116998553Y-92482734D01*
X117033128Y-92543449D01*
X117029389Y-92613219D01*
X116988523Y-92669891D01*
X116936645Y-92693584D01*
X116885331Y-92703791D01*
X116885322Y-92703794D01*
X116739651Y-92764132D01*
X116739638Y-92764139D01*
X116608535Y-92851740D01*
X116608531Y-92851743D01*
X116497037Y-92963237D01*
X116497034Y-92963241D01*
X116409433Y-93094344D01*
X116409426Y-93094357D01*
X116349088Y-93240028D01*
X116349085Y-93240040D01*
X116318324Y-93394683D01*
X116318324Y-93552376D01*
X116349085Y-93707019D01*
X116349088Y-93707031D01*
X116409426Y-93852702D01*
X116409433Y-93852715D01*
X116497034Y-93983818D01*
X116497037Y-93983822D01*
X116608531Y-94095316D01*
X116608535Y-94095319D01*
X116739638Y-94182920D01*
X116739651Y-94182927D01*
X116870383Y-94237077D01*
X116885327Y-94243267D01*
X116998482Y-94265775D01*
X117039977Y-94274029D01*
X117039980Y-94274030D01*
X117039982Y-94274030D01*
X117197668Y-94274030D01*
X117197669Y-94274029D01*
X117352321Y-94243267D01*
X117498003Y-94182924D01*
X117629113Y-94095319D01*
X117740613Y-93983819D01*
X117828218Y-93852709D01*
X117830145Y-93848058D01*
X117865870Y-93761809D01*
X117888561Y-93707027D01*
X117919324Y-93552372D01*
X117919324Y-93490418D01*
X118222589Y-93490418D01*
X118222589Y-93648111D01*
X118253350Y-93802754D01*
X118253353Y-93802766D01*
X118313691Y-93948437D01*
X118313698Y-93948450D01*
X118401299Y-94079553D01*
X118401302Y-94079557D01*
X118512796Y-94191051D01*
X118512800Y-94191054D01*
X118643903Y-94278655D01*
X118643916Y-94278662D01*
X118789587Y-94339000D01*
X118789592Y-94339002D01*
X118944242Y-94369764D01*
X118944245Y-94369765D01*
X118944247Y-94369765D01*
X119101933Y-94369765D01*
X119237926Y-94342714D01*
X119237926Y-94342713D01*
X119256586Y-94339002D01*
X119402268Y-94278659D01*
X119533378Y-94191054D01*
X119644878Y-94079554D01*
X119732483Y-93948444D01*
X119792826Y-93802762D01*
X119823589Y-93648107D01*
X119823589Y-93490423D01*
X119823589Y-93490420D01*
X119823588Y-93490418D01*
X119812874Y-93436554D01*
X119792826Y-93335768D01*
X119765757Y-93270418D01*
X128122589Y-93270418D01*
X128122589Y-93428111D01*
X128153350Y-93582754D01*
X128153353Y-93582766D01*
X128213691Y-93728437D01*
X128213701Y-93728455D01*
X128274821Y-93819928D01*
X128295699Y-93886605D01*
X128286280Y-93936269D01*
X128257718Y-94005229D01*
X128253351Y-94015771D01*
X128253349Y-94015776D01*
X128222589Y-94170418D01*
X128222589Y-94328111D01*
X128253350Y-94482754D01*
X128253353Y-94482766D01*
X128313691Y-94628437D01*
X128313698Y-94628450D01*
X128401299Y-94759553D01*
X128401302Y-94759557D01*
X128512796Y-94871051D01*
X128512800Y-94871054D01*
X128643903Y-94958655D01*
X128643916Y-94958662D01*
X128789587Y-95019000D01*
X128789592Y-95019002D01*
X128944242Y-95049764D01*
X128944245Y-95049765D01*
X128944247Y-95049765D01*
X129101933Y-95049765D01*
X129101934Y-95049764D01*
X129256586Y-95019002D01*
X129402268Y-94958659D01*
X129533378Y-94871054D01*
X129644878Y-94759554D01*
X129732483Y-94628444D01*
X129792826Y-94482762D01*
X129823589Y-94328107D01*
X129823589Y-94170423D01*
X129823589Y-94170420D01*
X129823588Y-94170418D01*
X129808649Y-94095316D01*
X129792826Y-94015768D01*
X129785526Y-93998144D01*
X129732486Y-93870092D01*
X129732479Y-93870079D01*
X129671356Y-93778602D01*
X129650478Y-93711924D01*
X129659897Y-93662258D01*
X129665758Y-93648109D01*
X129692826Y-93582762D01*
X129723589Y-93428107D01*
X129723589Y-93270423D01*
X129723589Y-93270420D01*
X129723588Y-93270418D01*
X129692827Y-93115775D01*
X129692826Y-93115768D01*
X129669301Y-93058972D01*
X129632486Y-92970092D01*
X129632479Y-92970079D01*
X129544878Y-92838976D01*
X129544875Y-92838972D01*
X129433381Y-92727478D01*
X129433377Y-92727475D01*
X129302274Y-92639874D01*
X129302261Y-92639867D01*
X129156590Y-92579529D01*
X129156578Y-92579526D01*
X129001934Y-92548765D01*
X129001931Y-92548765D01*
X128844247Y-92548765D01*
X128844244Y-92548765D01*
X128689599Y-92579526D01*
X128689587Y-92579529D01*
X128543916Y-92639867D01*
X128543903Y-92639874D01*
X128412800Y-92727475D01*
X128412796Y-92727478D01*
X128301302Y-92838972D01*
X128301299Y-92838976D01*
X128213698Y-92970079D01*
X128213691Y-92970092D01*
X128153353Y-93115763D01*
X128153350Y-93115775D01*
X128122589Y-93270418D01*
X119765757Y-93270418D01*
X119760386Y-93257451D01*
X119732486Y-93190091D01*
X119732479Y-93190079D01*
X119644878Y-93058976D01*
X119644875Y-93058972D01*
X119533381Y-92947478D01*
X119533377Y-92947475D01*
X119402274Y-92859874D01*
X119402261Y-92859867D01*
X119256590Y-92799529D01*
X119256578Y-92799526D01*
X119101934Y-92768765D01*
X119101931Y-92768765D01*
X118944247Y-92768765D01*
X118944244Y-92768765D01*
X118789599Y-92799526D01*
X118789587Y-92799529D01*
X118643916Y-92859867D01*
X118643903Y-92859874D01*
X118512800Y-92947475D01*
X118512796Y-92947478D01*
X118401302Y-93058972D01*
X118401299Y-93058976D01*
X118313698Y-93190079D01*
X118313691Y-93190092D01*
X118253353Y-93335763D01*
X118253350Y-93335775D01*
X118222589Y-93490418D01*
X117919324Y-93490418D01*
X117919324Y-93394688D01*
X117919324Y-93394685D01*
X117919323Y-93394683D01*
X117907605Y-93335775D01*
X117888561Y-93240033D01*
X117867875Y-93190091D01*
X117828221Y-93094357D01*
X117828214Y-93094344D01*
X117740613Y-92963241D01*
X117740610Y-92963237D01*
X117629116Y-92851743D01*
X117629112Y-92851740D01*
X117498009Y-92764139D01*
X117497996Y-92764132D01*
X117352325Y-92703794D01*
X117352313Y-92703791D01*
X117295269Y-92692444D01*
X117233358Y-92660059D01*
X117198783Y-92599343D01*
X117202523Y-92529574D01*
X117243390Y-92472902D01*
X117295269Y-92449210D01*
X117314177Y-92445448D01*
X117346586Y-92439002D01*
X117492268Y-92378659D01*
X117623378Y-92291054D01*
X117734878Y-92179554D01*
X117822483Y-92048444D01*
X117871371Y-91930418D01*
X139012589Y-91930418D01*
X139012589Y-92088111D01*
X139043350Y-92242754D01*
X139043353Y-92242766D01*
X139103691Y-92388437D01*
X139103698Y-92388450D01*
X139191299Y-92519553D01*
X139191302Y-92519557D01*
X139302796Y-92631051D01*
X139302800Y-92631054D01*
X139433903Y-92718655D01*
X139433916Y-92718662D01*
X139579587Y-92779000D01*
X139579592Y-92779002D01*
X139682788Y-92799529D01*
X139734242Y-92809764D01*
X139734245Y-92809765D01*
X139734247Y-92809765D01*
X139891933Y-92809765D01*
X139891934Y-92809764D01*
X140046586Y-92779002D01*
X140192268Y-92718659D01*
X140323378Y-92631054D01*
X140434878Y-92519554D01*
X140522483Y-92388444D01*
X140582826Y-92242762D01*
X140613589Y-92088107D01*
X140613589Y-91930423D01*
X140613589Y-91930420D01*
X140613588Y-91930418D01*
X140605499Y-91889754D01*
X140582826Y-91775768D01*
X140571370Y-91748111D01*
X140522486Y-91630092D01*
X140522479Y-91630079D01*
X140487292Y-91577418D01*
X150887089Y-91577418D01*
X150887089Y-91735111D01*
X150917850Y-91889754D01*
X150917853Y-91889766D01*
X150978191Y-92035437D01*
X150978198Y-92035450D01*
X151065799Y-92166553D01*
X151065802Y-92166557D01*
X151102829Y-92203584D01*
X151136314Y-92264907D01*
X151131330Y-92334599D01*
X151102829Y-92378946D01*
X151065802Y-92415972D01*
X151065799Y-92415976D01*
X150978198Y-92547079D01*
X150978191Y-92547092D01*
X150917853Y-92692763D01*
X150917850Y-92692775D01*
X150887089Y-92847418D01*
X150887089Y-93005111D01*
X150917850Y-93159754D01*
X150917853Y-93159766D01*
X150978191Y-93305437D01*
X150978198Y-93305450D01*
X151065799Y-93436553D01*
X151065802Y-93436557D01*
X151177296Y-93548051D01*
X151177300Y-93548054D01*
X151308403Y-93635655D01*
X151308416Y-93635662D01*
X151454087Y-93696000D01*
X151454092Y-93696002D01*
X151608742Y-93726764D01*
X151608745Y-93726765D01*
X151608747Y-93726765D01*
X151766433Y-93726765D01*
X151766434Y-93726764D01*
X151921086Y-93696002D01*
X152066768Y-93635659D01*
X152197878Y-93548054D01*
X152309378Y-93436554D01*
X152396983Y-93305444D01*
X152457326Y-93159762D01*
X152478526Y-93053185D01*
X160672588Y-93053185D01*
X160701429Y-93198172D01*
X160701432Y-93198182D01*
X160758001Y-93334753D01*
X160758008Y-93334766D01*
X160840137Y-93457680D01*
X160840140Y-93457684D01*
X160944669Y-93562213D01*
X160944673Y-93562216D01*
X161067587Y-93644345D01*
X161067600Y-93644352D01*
X161192298Y-93696003D01*
X161204176Y-93700923D01*
X161204180Y-93700923D01*
X161204181Y-93700924D01*
X161349168Y-93729765D01*
X161349171Y-93729765D01*
X161497009Y-93729765D01*
X161594551Y-93710361D01*
X161642002Y-93700923D01*
X161769507Y-93648109D01*
X161778577Y-93644352D01*
X161778577Y-93644351D01*
X161778584Y-93644349D01*
X161901505Y-93562216D01*
X162006040Y-93457681D01*
X162088173Y-93334760D01*
X162144747Y-93198178D01*
X162154185Y-93150727D01*
X162173589Y-93053185D01*
X162173589Y-92905344D01*
X162144748Y-92760357D01*
X162144747Y-92760356D01*
X162144747Y-92760352D01*
X162131130Y-92727478D01*
X162088176Y-92623776D01*
X162088169Y-92623763D01*
X162006040Y-92500849D01*
X162006037Y-92500845D01*
X161901508Y-92396316D01*
X161901504Y-92396313D01*
X161778590Y-92314184D01*
X161778577Y-92314177D01*
X161642006Y-92257608D01*
X161641996Y-92257605D01*
X161497009Y-92228765D01*
X161497007Y-92228765D01*
X161349171Y-92228765D01*
X161349169Y-92228765D01*
X161204181Y-92257605D01*
X161204171Y-92257608D01*
X161067600Y-92314177D01*
X161067587Y-92314184D01*
X160944673Y-92396313D01*
X160944669Y-92396316D01*
X160840140Y-92500845D01*
X160840137Y-92500849D01*
X160758008Y-92623763D01*
X160758001Y-92623776D01*
X160701432Y-92760347D01*
X160701429Y-92760357D01*
X160672589Y-92905344D01*
X160672589Y-92905347D01*
X160672589Y-93053183D01*
X160672589Y-93053185D01*
X160672588Y-93053185D01*
X152478526Y-93053185D01*
X152488089Y-93005107D01*
X152488089Y-92847423D01*
X152488089Y-92847420D01*
X152488088Y-92847418D01*
X152472443Y-92768765D01*
X152457326Y-92692768D01*
X152435414Y-92639867D01*
X152396986Y-92547092D01*
X152396979Y-92547079D01*
X152309378Y-92415976D01*
X152309375Y-92415972D01*
X152272349Y-92378946D01*
X152238864Y-92317623D01*
X152243848Y-92247931D01*
X152272349Y-92203584D01*
X152309375Y-92166557D01*
X152309378Y-92166554D01*
X152396983Y-92035444D01*
X152457326Y-91889762D01*
X152488089Y-91735107D01*
X152488089Y-91577423D01*
X152488089Y-91577420D01*
X152488088Y-91577418D01*
X152460958Y-91441029D01*
X152457326Y-91422768D01*
X152418707Y-91329532D01*
X152396986Y-91277092D01*
X152396979Y-91277079D01*
X152309378Y-91145976D01*
X152309375Y-91145972D01*
X152197881Y-91034478D01*
X152197877Y-91034475D01*
X152066774Y-90946874D01*
X152066761Y-90946867D01*
X151921090Y-90886529D01*
X151921078Y-90886526D01*
X151766434Y-90855765D01*
X151766431Y-90855765D01*
X151608747Y-90855765D01*
X151608744Y-90855765D01*
X151454099Y-90886526D01*
X151454087Y-90886529D01*
X151308416Y-90946867D01*
X151308403Y-90946874D01*
X151177300Y-91034475D01*
X151177296Y-91034478D01*
X151065802Y-91145972D01*
X151065799Y-91145976D01*
X150978198Y-91277079D01*
X150978191Y-91277092D01*
X150917853Y-91422763D01*
X150917850Y-91422775D01*
X150887089Y-91577418D01*
X140487292Y-91577418D01*
X140434878Y-91498976D01*
X140434875Y-91498972D01*
X140323381Y-91387478D01*
X140323377Y-91387475D01*
X140192274Y-91299874D01*
X140192261Y-91299867D01*
X140046590Y-91239529D01*
X140046578Y-91239526D01*
X139891934Y-91208765D01*
X139891931Y-91208765D01*
X139734247Y-91208765D01*
X139734244Y-91208765D01*
X139579599Y-91239526D01*
X139579587Y-91239529D01*
X139433916Y-91299867D01*
X139433903Y-91299874D01*
X139302800Y-91387475D01*
X139302796Y-91387478D01*
X139191302Y-91498972D01*
X139191299Y-91498976D01*
X139103698Y-91630079D01*
X139103691Y-91630092D01*
X139043353Y-91775763D01*
X139043350Y-91775775D01*
X139012589Y-91930418D01*
X117871371Y-91930418D01*
X117882826Y-91902762D01*
X117903084Y-91800921D01*
X117913589Y-91748109D01*
X117913589Y-91590420D01*
X117913588Y-91590418D01*
X117911003Y-91577423D01*
X117882826Y-91435768D01*
X117882411Y-91434766D01*
X117822486Y-91290092D01*
X117822479Y-91290079D01*
X117734878Y-91158976D01*
X117734875Y-91158972D01*
X117657849Y-91081946D01*
X117624364Y-91020623D01*
X117629348Y-90950931D01*
X117657849Y-90906584D01*
X117734875Y-90829557D01*
X117734878Y-90829554D01*
X117794454Y-90740393D01*
X120992564Y-90740393D01*
X120992564Y-90898086D01*
X121023325Y-91052729D01*
X121023328Y-91052741D01*
X121083666Y-91198412D01*
X121083673Y-91198425D01*
X121171274Y-91329528D01*
X121171277Y-91329532D01*
X121282771Y-91441026D01*
X121282775Y-91441029D01*
X121413878Y-91528630D01*
X121413891Y-91528637D01*
X121531673Y-91577423D01*
X121559567Y-91588977D01*
X121714217Y-91619739D01*
X121714220Y-91619740D01*
X121714222Y-91619740D01*
X121871908Y-91619740D01*
X121871909Y-91619739D01*
X122026561Y-91588977D01*
X122172243Y-91528634D01*
X122303353Y-91441029D01*
X122414853Y-91329529D01*
X122502458Y-91198419D01*
X122562801Y-91052737D01*
X122593564Y-90898082D01*
X122593564Y-90740398D01*
X122593564Y-90740395D01*
X122593563Y-90740393D01*
X122592045Y-90732762D01*
X122562801Y-90585743D01*
X122531113Y-90509240D01*
X122502461Y-90440067D01*
X122502453Y-90440053D01*
X122483659Y-90411926D01*
X122462780Y-90345249D01*
X122481264Y-90277869D01*
X122499080Y-90255352D01*
X122544875Y-90209557D01*
X122544878Y-90209554D01*
X122632483Y-90078444D01*
X122692826Y-89932762D01*
X122723589Y-89778107D01*
X122723589Y-89715418D01*
X131927589Y-89715418D01*
X131927589Y-89873111D01*
X131958350Y-90027754D01*
X131958353Y-90027766D01*
X132018691Y-90173437D01*
X132018698Y-90173450D01*
X132106299Y-90304553D01*
X132106302Y-90304557D01*
X132217796Y-90416051D01*
X132217800Y-90416054D01*
X132348903Y-90503655D01*
X132348916Y-90503662D01*
X132494587Y-90564000D01*
X132494592Y-90564002D01*
X132603866Y-90585738D01*
X132649242Y-90594764D01*
X132649245Y-90594765D01*
X132649247Y-90594765D01*
X132806933Y-90594765D01*
X132806934Y-90594764D01*
X132961586Y-90564002D01*
X133093794Y-90509240D01*
X133107261Y-90503662D01*
X133107261Y-90503661D01*
X133107268Y-90503659D01*
X133231847Y-90420418D01*
X137372589Y-90420418D01*
X137372589Y-90578111D01*
X137403350Y-90732754D01*
X137403353Y-90732766D01*
X137463691Y-90878437D01*
X137463698Y-90878450D01*
X137551299Y-91009553D01*
X137551302Y-91009557D01*
X137662796Y-91121051D01*
X137662800Y-91121054D01*
X137793903Y-91208655D01*
X137793916Y-91208662D01*
X137918781Y-91260382D01*
X137939592Y-91269002D01*
X138086239Y-91298172D01*
X138094242Y-91299764D01*
X138094245Y-91299765D01*
X138094247Y-91299765D01*
X138251933Y-91299765D01*
X138251934Y-91299764D01*
X138406586Y-91269002D01*
X138552268Y-91208659D01*
X138683378Y-91121054D01*
X138794878Y-91009554D01*
X138882483Y-90878444D01*
X138942826Y-90732762D01*
X138973589Y-90578107D01*
X138973589Y-90420423D01*
X138973589Y-90420420D01*
X138954712Y-90325523D01*
X138954712Y-90325522D01*
X138951111Y-90307418D01*
X158062089Y-90307418D01*
X158062089Y-90465111D01*
X158092850Y-90619754D01*
X158092853Y-90619766D01*
X158153191Y-90765437D01*
X158153198Y-90765450D01*
X158240799Y-90896553D01*
X158240802Y-90896557D01*
X158352296Y-91008051D01*
X158352300Y-91008054D01*
X158483403Y-91095655D01*
X158483416Y-91095662D01*
X158622286Y-91153183D01*
X158629092Y-91156002D01*
X158783742Y-91186764D01*
X158783745Y-91186765D01*
X158783747Y-91186765D01*
X158941433Y-91186765D01*
X158941434Y-91186764D01*
X159096086Y-91156002D01*
X159102887Y-91153185D01*
X161602588Y-91153185D01*
X161631429Y-91298172D01*
X161631432Y-91298182D01*
X161688001Y-91434753D01*
X161688008Y-91434766D01*
X161770137Y-91557680D01*
X161770140Y-91557684D01*
X161874669Y-91662213D01*
X161874673Y-91662216D01*
X161997587Y-91744345D01*
X161997600Y-91744352D01*
X162073434Y-91775763D01*
X162134176Y-91800923D01*
X162134180Y-91800923D01*
X162134181Y-91800924D01*
X162279168Y-91829765D01*
X162279171Y-91829765D01*
X162427009Y-91829765D01*
X162524551Y-91810361D01*
X162572002Y-91800923D01*
X162699507Y-91748109D01*
X162708577Y-91744352D01*
X162708577Y-91744351D01*
X162708584Y-91744349D01*
X162831505Y-91662216D01*
X162936040Y-91557681D01*
X163018173Y-91434760D01*
X163074747Y-91298178D01*
X163086413Y-91239529D01*
X163103589Y-91153185D01*
X163103589Y-91005344D01*
X163074748Y-90860357D01*
X163074747Y-90860356D01*
X163074747Y-90860352D01*
X163072847Y-90855765D01*
X163018176Y-90723776D01*
X163018169Y-90723763D01*
X162936040Y-90600849D01*
X162936037Y-90600845D01*
X162831508Y-90496316D01*
X162831504Y-90496313D01*
X162708590Y-90414184D01*
X162708577Y-90414177D01*
X162572006Y-90357608D01*
X162571996Y-90357605D01*
X162427009Y-90328765D01*
X162427007Y-90328765D01*
X162279171Y-90328765D01*
X162279169Y-90328765D01*
X162134181Y-90357605D01*
X162134171Y-90357608D01*
X161997600Y-90414177D01*
X161997587Y-90414184D01*
X161874673Y-90496313D01*
X161874669Y-90496316D01*
X161770140Y-90600845D01*
X161770137Y-90600849D01*
X161688008Y-90723763D01*
X161688001Y-90723776D01*
X161631432Y-90860347D01*
X161631429Y-90860357D01*
X161602589Y-91005344D01*
X161602589Y-91005347D01*
X161602589Y-91153183D01*
X161602589Y-91153185D01*
X161602588Y-91153185D01*
X159102887Y-91153185D01*
X159241768Y-91095659D01*
X159372878Y-91008054D01*
X159413025Y-90967907D01*
X159469359Y-90911574D01*
X159484375Y-90896557D01*
X159484378Y-90896554D01*
X159571983Y-90765444D01*
X159632326Y-90619762D01*
X159663089Y-90465107D01*
X159663089Y-90307423D01*
X159663089Y-90307420D01*
X159663088Y-90307418D01*
X159643622Y-90209557D01*
X159632326Y-90152768D01*
X159601543Y-90078450D01*
X159571986Y-90007092D01*
X159571979Y-90007079D01*
X159484378Y-89875976D01*
X159484375Y-89875972D01*
X159372881Y-89764478D01*
X159372877Y-89764475D01*
X159241774Y-89676874D01*
X159241761Y-89676867D01*
X159096090Y-89616529D01*
X159096078Y-89616526D01*
X158941434Y-89585765D01*
X158941431Y-89585765D01*
X158783747Y-89585765D01*
X158783744Y-89585765D01*
X158629099Y-89616526D01*
X158629087Y-89616529D01*
X158483416Y-89676867D01*
X158483403Y-89676874D01*
X158352300Y-89764475D01*
X158352296Y-89764478D01*
X158240802Y-89875972D01*
X158240799Y-89875976D01*
X158153198Y-90007079D01*
X158153191Y-90007092D01*
X158092853Y-90152763D01*
X158092850Y-90152775D01*
X158062089Y-90307418D01*
X138951111Y-90307418D01*
X138945233Y-90277869D01*
X138942826Y-90265768D01*
X138919541Y-90209553D01*
X138882486Y-90120092D01*
X138882479Y-90120079D01*
X138794878Y-89988976D01*
X138794875Y-89988972D01*
X138683381Y-89877478D01*
X138683377Y-89877475D01*
X138552274Y-89789874D01*
X138552261Y-89789867D01*
X138406590Y-89729529D01*
X138406578Y-89729526D01*
X138251934Y-89698765D01*
X138251931Y-89698765D01*
X138094247Y-89698765D01*
X138094244Y-89698765D01*
X137939599Y-89729526D01*
X137939587Y-89729529D01*
X137793916Y-89789867D01*
X137793903Y-89789874D01*
X137662800Y-89877475D01*
X137662796Y-89877478D01*
X137551302Y-89988972D01*
X137551299Y-89988976D01*
X137463698Y-90120079D01*
X137463691Y-90120092D01*
X137403353Y-90265763D01*
X137403350Y-90265775D01*
X137372589Y-90420418D01*
X133231847Y-90420418D01*
X133238378Y-90416054D01*
X133256325Y-90398107D01*
X133327783Y-90326650D01*
X133349875Y-90304557D01*
X133349878Y-90304554D01*
X133437483Y-90173444D01*
X133497826Y-90027762D01*
X133528589Y-89873107D01*
X133528589Y-89715423D01*
X133528589Y-89715420D01*
X133528588Y-89715418D01*
X133520920Y-89676867D01*
X133497826Y-89560768D01*
X133493170Y-89549528D01*
X133437486Y-89415092D01*
X133437479Y-89415079D01*
X133349878Y-89283976D01*
X133349875Y-89283972D01*
X133238381Y-89172478D01*
X133238377Y-89172475D01*
X133107274Y-89084874D01*
X133107261Y-89084867D01*
X132961590Y-89024529D01*
X132961578Y-89024526D01*
X132806934Y-88993765D01*
X132806931Y-88993765D01*
X132649247Y-88993765D01*
X132649244Y-88993765D01*
X132494599Y-89024526D01*
X132494587Y-89024529D01*
X132348916Y-89084867D01*
X132348903Y-89084874D01*
X132217800Y-89172475D01*
X132217796Y-89172478D01*
X132106302Y-89283972D01*
X132106299Y-89283976D01*
X132018698Y-89415079D01*
X132018691Y-89415092D01*
X131958353Y-89560763D01*
X131958350Y-89560775D01*
X131927589Y-89715418D01*
X122723589Y-89715418D01*
X122723589Y-89620423D01*
X122723589Y-89620420D01*
X122723588Y-89620418D01*
X122709487Y-89549528D01*
X122692826Y-89465768D01*
X122673564Y-89419265D01*
X122632486Y-89320092D01*
X122632479Y-89320079D01*
X122544878Y-89188976D01*
X122544875Y-89188972D01*
X122433381Y-89077478D01*
X122433377Y-89077475D01*
X122302274Y-88989874D01*
X122302261Y-88989867D01*
X122156590Y-88929529D01*
X122156578Y-88929526D01*
X122001934Y-88898765D01*
X122001931Y-88898765D01*
X121844247Y-88898765D01*
X121844244Y-88898765D01*
X121689599Y-88929526D01*
X121689587Y-88929529D01*
X121543916Y-88989867D01*
X121543903Y-88989874D01*
X121412800Y-89077475D01*
X121412796Y-89077478D01*
X121301302Y-89188972D01*
X121301299Y-89188976D01*
X121213698Y-89320079D01*
X121213691Y-89320092D01*
X121153353Y-89465763D01*
X121153350Y-89465775D01*
X121122589Y-89620418D01*
X121122589Y-89778111D01*
X121153350Y-89932754D01*
X121153353Y-89932766D01*
X121213691Y-90078437D01*
X121213695Y-90078444D01*
X121218593Y-90085775D01*
X121232494Y-90106578D01*
X121253372Y-90173256D01*
X121234888Y-90240636D01*
X121217074Y-90263150D01*
X121171278Y-90308946D01*
X121171274Y-90308951D01*
X121083673Y-90440054D01*
X121083666Y-90440067D01*
X121023328Y-90585738D01*
X121023325Y-90585750D01*
X120992564Y-90740393D01*
X117794454Y-90740393D01*
X117822483Y-90698444D01*
X117882826Y-90552762D01*
X117913589Y-90398107D01*
X117913589Y-90240423D01*
X117913589Y-90240420D01*
X117913588Y-90240418D01*
X117907449Y-90209554D01*
X117882826Y-90085768D01*
X117879792Y-90078444D01*
X117822486Y-89940092D01*
X117822479Y-89940079D01*
X117734878Y-89808976D01*
X117734875Y-89808972D01*
X117623381Y-89697478D01*
X117623377Y-89697475D01*
X117492274Y-89609874D01*
X117492261Y-89609867D01*
X117346590Y-89549529D01*
X117346578Y-89549526D01*
X117191934Y-89518765D01*
X117191931Y-89518765D01*
X117034247Y-89518765D01*
X117034244Y-89518765D01*
X116879599Y-89549526D01*
X116879587Y-89549529D01*
X116733916Y-89609867D01*
X116733903Y-89609874D01*
X116602800Y-89697475D01*
X116602796Y-89697478D01*
X116491302Y-89808972D01*
X116491299Y-89808976D01*
X116403698Y-89940079D01*
X116403691Y-89940092D01*
X116343353Y-90085763D01*
X116343350Y-90085775D01*
X116312589Y-90240418D01*
X114791275Y-90240418D01*
X114798089Y-90223966D01*
X114798089Y-89814564D01*
X114779326Y-89769265D01*
X115497299Y-89769265D01*
X115497299Y-89769264D01*
X115460622Y-89584875D01*
X115460620Y-89584867D01*
X115387124Y-89407431D01*
X115387119Y-89407422D01*
X115280421Y-89247738D01*
X115280418Y-89247734D01*
X115144618Y-89111934D01*
X115144615Y-89111932D01*
X114984931Y-89005234D01*
X114984922Y-89005229D01*
X114807486Y-88931733D01*
X114807478Y-88931731D01*
X114773089Y-88924890D01*
X114773089Y-89754208D01*
X114756223Y-89713490D01*
X114678864Y-89636131D01*
X114577790Y-89594265D01*
X114468388Y-89594265D01*
X114367314Y-89636131D01*
X114289955Y-89713490D01*
X114273089Y-89754208D01*
X114273089Y-88924890D01*
X114238699Y-88931731D01*
X114238691Y-88931733D01*
X114061255Y-89005229D01*
X114061246Y-89005234D01*
X113901562Y-89111932D01*
X113901560Y-89111934D01*
X113765759Y-89247734D01*
X113765756Y-89247738D01*
X113659058Y-89407422D01*
X113659053Y-89407431D01*
X113585557Y-89584867D01*
X113585555Y-89584875D01*
X113548878Y-89769264D01*
X112731589Y-89769264D01*
X112755490Y-89753294D01*
X112755494Y-89753291D01*
X112793872Y-89714914D01*
X112887115Y-89621670D01*
X112887118Y-89621666D01*
X112990533Y-89466896D01*
X112990540Y-89466883D01*
X113061771Y-89294914D01*
X113061772Y-89294909D01*
X113066873Y-89269265D01*
X112197817Y-89269265D01*
X112289703Y-89231205D01*
X112360029Y-89160879D01*
X112398089Y-89068993D01*
X112398089Y-88969537D01*
X112360029Y-88877651D01*
X112289703Y-88807325D01*
X112197817Y-88769265D01*
X113066873Y-88769265D01*
X113061772Y-88743620D01*
X113061771Y-88743615D01*
X112990540Y-88571646D01*
X112990533Y-88571633D01*
X112887118Y-88416863D01*
X112887115Y-88416859D01*
X112755494Y-88285238D01*
X112755490Y-88285235D01*
X112600720Y-88181820D01*
X112600711Y-88181815D01*
X112428735Y-88110581D01*
X112428727Y-88110579D01*
X112246166Y-88074265D01*
X112073089Y-88074265D01*
X112073089Y-88769265D01*
X111573089Y-88769265D01*
X111573089Y-88074265D01*
X111400012Y-88074265D01*
X111217450Y-88110579D01*
X111217442Y-88110581D01*
X111045466Y-88181815D01*
X111045457Y-88181820D01*
X110890687Y-88285235D01*
X110890683Y-88285238D01*
X110759062Y-88416859D01*
X110759059Y-88416863D01*
X110655644Y-88571633D01*
X110655637Y-88571646D01*
X110584406Y-88743615D01*
X110584405Y-88743620D01*
X110579305Y-88769265D01*
X109623589Y-88769265D01*
X109623589Y-87446420D01*
X166918089Y-87446420D01*
X166918089Y-87669265D01*
X167593089Y-87669265D01*
X167593089Y-86994265D01*
X167370244Y-86994265D01*
X167310716Y-87000666D01*
X167310709Y-87000668D01*
X167176002Y-87050910D01*
X167175995Y-87050914D01*
X167060901Y-87137074D01*
X167060898Y-87137077D01*
X166974738Y-87252171D01*
X166974734Y-87252178D01*
X166924492Y-87386885D01*
X166924490Y-87386892D01*
X166918089Y-87446420D01*
X109623589Y-87446420D01*
X109623589Y-86643821D01*
X109643274Y-86576782D01*
X109696078Y-86531027D01*
X109760845Y-86520532D01*
X109800216Y-86524765D01*
X110745961Y-86524764D01*
X110805572Y-86518356D01*
X110940420Y-86468061D01*
X110991106Y-86430117D01*
X111056568Y-86405700D01*
X111124841Y-86420551D01*
X111168518Y-86460493D01*
X111201299Y-86509553D01*
X111201302Y-86509557D01*
X111312796Y-86621051D01*
X111312800Y-86621054D01*
X111443903Y-86708655D01*
X111443916Y-86708662D01*
X111589587Y-86769000D01*
X111589592Y-86769002D01*
X111744242Y-86799764D01*
X111744245Y-86799765D01*
X111744247Y-86799765D01*
X111901933Y-86799765D01*
X111901934Y-86799764D01*
X112056586Y-86769002D01*
X112202268Y-86708659D01*
X112333378Y-86621054D01*
X112444878Y-86509554D01*
X112532483Y-86378444D01*
X112577228Y-86270418D01*
X126072589Y-86270418D01*
X126072589Y-86428111D01*
X126103350Y-86582754D01*
X126103353Y-86582766D01*
X126163691Y-86728437D01*
X126163698Y-86728450D01*
X126251299Y-86859553D01*
X126251302Y-86859557D01*
X126362796Y-86971051D01*
X126362800Y-86971054D01*
X126493903Y-87058655D01*
X126493916Y-87058662D01*
X126639587Y-87119000D01*
X126639592Y-87119002D01*
X126730461Y-87137077D01*
X126794242Y-87149764D01*
X126794245Y-87149765D01*
X126794247Y-87149765D01*
X126951933Y-87149765D01*
X126951934Y-87149764D01*
X127106586Y-87119002D01*
X127252268Y-87058659D01*
X127383378Y-86971054D01*
X127494878Y-86859554D01*
X127582483Y-86728444D01*
X127642826Y-86582762D01*
X127673589Y-86428107D01*
X127673589Y-86270423D01*
X127673589Y-86270420D01*
X127673588Y-86270418D01*
X127642826Y-86115768D01*
X127627227Y-86078109D01*
X127582486Y-85970092D01*
X127582479Y-85970079D01*
X127494878Y-85838976D01*
X127494875Y-85838972D01*
X127383381Y-85727478D01*
X127383377Y-85727475D01*
X127252274Y-85639874D01*
X127252261Y-85639867D01*
X127106590Y-85579529D01*
X127106578Y-85579526D01*
X126951934Y-85548765D01*
X126951931Y-85548765D01*
X126794247Y-85548765D01*
X126794244Y-85548765D01*
X126639599Y-85579526D01*
X126639587Y-85579529D01*
X126493916Y-85639867D01*
X126493903Y-85639874D01*
X126362800Y-85727475D01*
X126362796Y-85727478D01*
X126251302Y-85838972D01*
X126251299Y-85838976D01*
X126163698Y-85970079D01*
X126163691Y-85970092D01*
X126103353Y-86115763D01*
X126103350Y-86115775D01*
X126072589Y-86270418D01*
X112577228Y-86270418D01*
X112592826Y-86232762D01*
X112623589Y-86078107D01*
X112623589Y-85920423D01*
X112623589Y-85920420D01*
X112620542Y-85905106D01*
X112626766Y-85835515D01*
X112669627Y-85780335D01*
X112673216Y-85777843D01*
X112683378Y-85771054D01*
X112794878Y-85659554D01*
X112882483Y-85528444D01*
X112942826Y-85382762D01*
X112973589Y-85228107D01*
X112973589Y-85070423D01*
X112973589Y-85070420D01*
X112973588Y-85070418D01*
X112952870Y-84966263D01*
X112942826Y-84915768D01*
X112923547Y-84869223D01*
X112882486Y-84770092D01*
X112882479Y-84770079D01*
X112794878Y-84638976D01*
X112794875Y-84638972D01*
X112683381Y-84527478D01*
X112683377Y-84527475D01*
X112552274Y-84439874D01*
X112552261Y-84439867D01*
X112406590Y-84379529D01*
X112406578Y-84379526D01*
X112251934Y-84348765D01*
X112251931Y-84348765D01*
X112094247Y-84348765D01*
X112094244Y-84348765D01*
X111939599Y-84379526D01*
X111939587Y-84379529D01*
X111793916Y-84439867D01*
X111793903Y-84439874D01*
X111662800Y-84527475D01*
X111662796Y-84527478D01*
X111551302Y-84638972D01*
X111551299Y-84638976D01*
X111463698Y-84770079D01*
X111463693Y-84770089D01*
X111404970Y-84911860D01*
X111361129Y-84966263D01*
X111294835Y-84988328D01*
X111227135Y-84971049D01*
X111179525Y-84919911D01*
X111167119Y-84851152D01*
X111168792Y-84840215D01*
X111198589Y-84690421D01*
X111198589Y-84508108D01*
X111163023Y-84329312D01*
X111163022Y-84329311D01*
X111163022Y-84329307D01*
X111093256Y-84160876D01*
X111093255Y-84160874D01*
X111091571Y-84157724D01*
X111091186Y-84155878D01*
X111090925Y-84155247D01*
X111091044Y-84155197D01*
X111077325Y-84089322D01*
X111091571Y-84040806D01*
X111093252Y-84037659D01*
X111093256Y-84037654D01*
X111163022Y-83869223D01*
X111181183Y-83777922D01*
X111198589Y-83690421D01*
X111198589Y-83508108D01*
X111163023Y-83329312D01*
X111163022Y-83329311D01*
X111163022Y-83329307D01*
X111163020Y-83329302D01*
X111093259Y-83160882D01*
X111091282Y-83157183D01*
X111077042Y-83088780D01*
X111091288Y-83040270D01*
X111092819Y-83037405D01*
X111162540Y-82869082D01*
X111162543Y-82869070D01*
X111198088Y-82690374D01*
X111198089Y-82690371D01*
X111198089Y-82508159D01*
X111198088Y-82508155D01*
X111162543Y-82329459D01*
X111162540Y-82329447D01*
X111094440Y-82165038D01*
X111088958Y-82153674D01*
X111083660Y-82121639D01*
X111083406Y-82120418D01*
X128772589Y-82120418D01*
X128772589Y-82278111D01*
X128803350Y-82432754D01*
X128803353Y-82432766D01*
X128863691Y-82578437D01*
X128863698Y-82578450D01*
X128951299Y-82709553D01*
X128951302Y-82709557D01*
X129062796Y-82821051D01*
X129062800Y-82821054D01*
X129193903Y-82908655D01*
X129193916Y-82908662D01*
X129339587Y-82969000D01*
X129339592Y-82969002D01*
X129494242Y-82999764D01*
X129494245Y-82999765D01*
X129494247Y-82999765D01*
X129651933Y-82999765D01*
X129651934Y-82999764D01*
X129806586Y-82969002D01*
X129942225Y-82912819D01*
X129952261Y-82908662D01*
X129952261Y-82908661D01*
X129952268Y-82908659D01*
X130083378Y-82821054D01*
X130194878Y-82709554D01*
X130282483Y-82578444D01*
X130342826Y-82432762D01*
X130373589Y-82278107D01*
X130373589Y-82120423D01*
X130373589Y-82120420D01*
X130373588Y-82120418D01*
X130361424Y-82059265D01*
X130342826Y-81965768D01*
X130342824Y-81965763D01*
X130282486Y-81820092D01*
X130282479Y-81820079D01*
X130194878Y-81688976D01*
X130194875Y-81688972D01*
X130083381Y-81577478D01*
X130083377Y-81577475D01*
X129952274Y-81489874D01*
X129952261Y-81489867D01*
X129806590Y-81429529D01*
X129806578Y-81429526D01*
X129651934Y-81398765D01*
X129651931Y-81398765D01*
X129494247Y-81398765D01*
X129494244Y-81398765D01*
X129339599Y-81429526D01*
X129339587Y-81429529D01*
X129193916Y-81489867D01*
X129193903Y-81489874D01*
X129062800Y-81577475D01*
X129062796Y-81577478D01*
X128951302Y-81688972D01*
X128951299Y-81688976D01*
X128863698Y-81820079D01*
X128863691Y-81820092D01*
X128803353Y-81965763D01*
X128803350Y-81965775D01*
X128772589Y-82120418D01*
X111083406Y-82120418D01*
X111077040Y-82089855D01*
X111077912Y-82086884D01*
X111077558Y-82084741D01*
X111080639Y-82077599D01*
X111091292Y-82041326D01*
X111093249Y-82037664D01*
X111093256Y-82037654D01*
X111163022Y-81869223D01*
X111174661Y-81810710D01*
X111198589Y-81690421D01*
X111198589Y-81508108D01*
X111163023Y-81329312D01*
X111163022Y-81329311D01*
X111163022Y-81329307D01*
X111163020Y-81329302D01*
X111093257Y-81160878D01*
X111074778Y-81133222D01*
X111032814Y-81070418D01*
X155072589Y-81070418D01*
X155072589Y-81228111D01*
X155103350Y-81382754D01*
X155103353Y-81382766D01*
X155163691Y-81528437D01*
X155163698Y-81528450D01*
X155251299Y-81659553D01*
X155251302Y-81659557D01*
X155362796Y-81771051D01*
X155362800Y-81771054D01*
X155493903Y-81858655D01*
X155493916Y-81858662D01*
X155639587Y-81919000D01*
X155639592Y-81919002D01*
X155794242Y-81949764D01*
X155794245Y-81949765D01*
X155794247Y-81949765D01*
X155951933Y-81949765D01*
X155951934Y-81949764D01*
X156106586Y-81919002D01*
X156252268Y-81858659D01*
X156383378Y-81771054D01*
X156395184Y-81759248D01*
X159174912Y-81759248D01*
X159174912Y-83359266D01*
X159174913Y-83359283D01*
X159185412Y-83462061D01*
X159185413Y-83462064D01*
X159200671Y-83508108D01*
X159240598Y-83628599D01*
X159332700Y-83777921D01*
X159456756Y-83901977D01*
X159606078Y-83994079D01*
X159772615Y-84049264D01*
X159875403Y-84059765D01*
X161475420Y-84059764D01*
X161578209Y-84049264D01*
X161744746Y-83994079D01*
X161894068Y-83901977D01*
X162018124Y-83777921D01*
X162110226Y-83628599D01*
X162165411Y-83462062D01*
X162175912Y-83359274D01*
X162175911Y-82441212D01*
X164175412Y-82441212D01*
X164175412Y-82677317D01*
X164212346Y-82910512D01*
X164285309Y-83135067D01*
X164392499Y-83345439D01*
X164452750Y-83428369D01*
X164452752Y-83428370D01*
X165192449Y-82688673D01*
X165209487Y-82752258D01*
X165275313Y-82866272D01*
X165368405Y-82959364D01*
X165482419Y-83025190D01*
X165546002Y-83042227D01*
X164806305Y-83781923D01*
X164889240Y-83842179D01*
X165099609Y-83949367D01*
X165324164Y-84022330D01*
X165324163Y-84022330D01*
X165557360Y-84059265D01*
X165793464Y-84059265D01*
X166026659Y-84022330D01*
X166251214Y-83949367D01*
X166461575Y-83842183D01*
X166461581Y-83842179D01*
X166544516Y-83781923D01*
X166544517Y-83781923D01*
X165804820Y-83042227D01*
X165868405Y-83025190D01*
X165982419Y-82959364D01*
X166075511Y-82866272D01*
X166141337Y-82752258D01*
X166158374Y-82688673D01*
X166898070Y-83428370D01*
X166898070Y-83428369D01*
X166958326Y-83345434D01*
X166958330Y-83345428D01*
X167065514Y-83135067D01*
X167138477Y-82910512D01*
X167175412Y-82677317D01*
X167175412Y-82441212D01*
X167138477Y-82208017D01*
X167065514Y-81983462D01*
X166958326Y-81773093D01*
X166898070Y-81690159D01*
X166898070Y-81690158D01*
X166158374Y-82429855D01*
X166141337Y-82366272D01*
X166075511Y-82252258D01*
X165982419Y-82159166D01*
X165868405Y-82093340D01*
X165804821Y-82076302D01*
X166544517Y-81336605D01*
X166544516Y-81336603D01*
X166461586Y-81276352D01*
X166251214Y-81169162D01*
X166026659Y-81096199D01*
X166026660Y-81096199D01*
X165793464Y-81059265D01*
X165557360Y-81059265D01*
X165324164Y-81096199D01*
X165099609Y-81169162D01*
X164889242Y-81276349D01*
X164806306Y-81336605D01*
X165546003Y-82076302D01*
X165482419Y-82093340D01*
X165368405Y-82159166D01*
X165275313Y-82252258D01*
X165209487Y-82366272D01*
X165192449Y-82429856D01*
X164452752Y-81690159D01*
X164392496Y-81773095D01*
X164285309Y-81983462D01*
X164212346Y-82208017D01*
X164175412Y-82441212D01*
X162175911Y-82441212D01*
X162175911Y-81759257D01*
X162168852Y-81690158D01*
X162165411Y-81656468D01*
X162165410Y-81656465D01*
X162139236Y-81577478D01*
X162110226Y-81489931D01*
X162018124Y-81340609D01*
X161894068Y-81216553D01*
X161744746Y-81124451D01*
X161578209Y-81069266D01*
X161578207Y-81069265D01*
X161475422Y-81058765D01*
X159875410Y-81058765D01*
X159875393Y-81058766D01*
X159772615Y-81069265D01*
X159772612Y-81069266D01*
X159606080Y-81124450D01*
X159606075Y-81124452D01*
X159456754Y-81216554D01*
X159332701Y-81340607D01*
X159240599Y-81489928D01*
X159240597Y-81489933D01*
X159227838Y-81528437D01*
X159185413Y-81656468D01*
X159185413Y-81656469D01*
X159185412Y-81656469D01*
X159174912Y-81759248D01*
X156395184Y-81759248D01*
X156395186Y-81759246D01*
X156486015Y-81668418D01*
X156494875Y-81659557D01*
X156494878Y-81659554D01*
X156582483Y-81528444D01*
X156642826Y-81382762D01*
X156673589Y-81228107D01*
X156673589Y-81070423D01*
X156673589Y-81070420D01*
X156673588Y-81070418D01*
X156673359Y-81069265D01*
X156642826Y-80915768D01*
X156628167Y-80880378D01*
X156582486Y-80770092D01*
X156582479Y-80770079D01*
X156494878Y-80638976D01*
X156494875Y-80638972D01*
X156383381Y-80527478D01*
X156383377Y-80527475D01*
X156252274Y-80439874D01*
X156252261Y-80439867D01*
X156106590Y-80379529D01*
X156106578Y-80379526D01*
X155951934Y-80348765D01*
X155951931Y-80348765D01*
X155794247Y-80348765D01*
X155794244Y-80348765D01*
X155639599Y-80379526D01*
X155639587Y-80379529D01*
X155493916Y-80439867D01*
X155493903Y-80439874D01*
X155362800Y-80527475D01*
X155362796Y-80527478D01*
X155251302Y-80638972D01*
X155251299Y-80638976D01*
X155163698Y-80770079D01*
X155163691Y-80770092D01*
X155103353Y-80915763D01*
X155103350Y-80915775D01*
X155072589Y-81070418D01*
X111032814Y-81070418D01*
X110991972Y-81009293D01*
X110991970Y-81009290D01*
X110863064Y-80880384D01*
X110863056Y-80880378D01*
X110711480Y-80779098D01*
X110711476Y-80779096D01*
X110543051Y-80709333D01*
X110543041Y-80709330D01*
X110364245Y-80673765D01*
X110364243Y-80673765D01*
X110181935Y-80673765D01*
X110181933Y-80673765D01*
X110003136Y-80709330D01*
X110003126Y-80709333D01*
X109834703Y-80779096D01*
X109816479Y-80791273D01*
X109749802Y-80812150D01*
X109682421Y-80793665D01*
X109635732Y-80741686D01*
X109623589Y-80688170D01*
X109623589Y-78181212D01*
X116023089Y-78181212D01*
X116023089Y-78417317D01*
X116060023Y-78650512D01*
X116132986Y-78875067D01*
X116240176Y-79085439D01*
X116300427Y-79168369D01*
X116300429Y-79168370D01*
X117040126Y-78428673D01*
X117057164Y-78492258D01*
X117122990Y-78606272D01*
X117216082Y-78699364D01*
X117330096Y-78765190D01*
X117393679Y-78782227D01*
X116653982Y-79521923D01*
X116736917Y-79582179D01*
X116947286Y-79689367D01*
X117171841Y-79762330D01*
X117171840Y-79762330D01*
X117405037Y-79799265D01*
X117641141Y-79799265D01*
X117874336Y-79762330D01*
X118098891Y-79689367D01*
X118309252Y-79582183D01*
X118309258Y-79582179D01*
X118392193Y-79521923D01*
X118392194Y-79521923D01*
X117652497Y-78782227D01*
X117716082Y-78765190D01*
X117830096Y-78699364D01*
X117923188Y-78606272D01*
X117989014Y-78492258D01*
X118006051Y-78428673D01*
X118745747Y-79168370D01*
X118745747Y-79168369D01*
X118806003Y-79085434D01*
X118806007Y-79085428D01*
X118913191Y-78875067D01*
X118986154Y-78650512D01*
X119023089Y-78417317D01*
X119023089Y-78181212D01*
X118986154Y-77948017D01*
X118913191Y-77723462D01*
X118826028Y-77552394D01*
X118826027Y-77552392D01*
X118806005Y-77513095D01*
X118795944Y-77499248D01*
X121022589Y-77499248D01*
X121022589Y-79099266D01*
X121022590Y-79099283D01*
X121033089Y-79202061D01*
X121033090Y-79202064D01*
X121088274Y-79368596D01*
X121088275Y-79368599D01*
X121180377Y-79517921D01*
X121304433Y-79641977D01*
X121453755Y-79734079D01*
X121620292Y-79789264D01*
X121723080Y-79799765D01*
X123323097Y-79799764D01*
X123425886Y-79789264D01*
X123592423Y-79734079D01*
X123741745Y-79641977D01*
X123865801Y-79517921D01*
X123957903Y-79368599D01*
X124013088Y-79202062D01*
X124023589Y-79099274D01*
X124023588Y-77499257D01*
X124016529Y-77430158D01*
X124013088Y-77396468D01*
X124013087Y-77396465D01*
X123957903Y-77229931D01*
X123865801Y-77080609D01*
X123850302Y-77065110D01*
X152160795Y-77065110D01*
X152289741Y-77118522D01*
X152289745Y-77118523D01*
X152444291Y-77149264D01*
X152444295Y-77149265D01*
X152601883Y-77149265D01*
X152601886Y-77149264D01*
X152756432Y-77118523D01*
X152756436Y-77118522D01*
X152885382Y-77065110D01*
X153360795Y-77065110D01*
X153489741Y-77118522D01*
X153489745Y-77118523D01*
X153644291Y-77149264D01*
X153644295Y-77149265D01*
X153801883Y-77149265D01*
X153801886Y-77149264D01*
X153956432Y-77118523D01*
X153956436Y-77118522D01*
X154085382Y-77065110D01*
X153723090Y-76702818D01*
X153723089Y-76702818D01*
X153360795Y-77065110D01*
X152885382Y-77065110D01*
X152523090Y-76702818D01*
X152523089Y-76702818D01*
X152160795Y-77065110D01*
X123850302Y-77065110D01*
X123741745Y-76956553D01*
X123592423Y-76864451D01*
X123425886Y-76809266D01*
X123425884Y-76809265D01*
X123323099Y-76798765D01*
X121723087Y-76798765D01*
X121723070Y-76798766D01*
X121620292Y-76809265D01*
X121620289Y-76809266D01*
X121453757Y-76864450D01*
X121453752Y-76864452D01*
X121304431Y-76956554D01*
X121180378Y-77080607D01*
X121088276Y-77229928D01*
X121088275Y-77229931D01*
X121033090Y-77396468D01*
X121033090Y-77396469D01*
X121033089Y-77396469D01*
X121022589Y-77499248D01*
X118795944Y-77499248D01*
X118745747Y-77430159D01*
X118745747Y-77430158D01*
X118006051Y-78169855D01*
X117989014Y-78106272D01*
X117923188Y-77992258D01*
X117830096Y-77899166D01*
X117716082Y-77833340D01*
X117652498Y-77816302D01*
X118392194Y-77076605D01*
X118392193Y-77076603D01*
X118309263Y-77016352D01*
X118098891Y-76909162D01*
X117874336Y-76836199D01*
X117874337Y-76836199D01*
X117641141Y-76799265D01*
X117405037Y-76799265D01*
X117171841Y-76836199D01*
X116947286Y-76909162D01*
X116736919Y-77016349D01*
X116653983Y-77076605D01*
X117393680Y-77816302D01*
X117330096Y-77833340D01*
X117216082Y-77899166D01*
X117122990Y-77992258D01*
X117057164Y-78106272D01*
X117040126Y-78169856D01*
X116300429Y-77430159D01*
X116240173Y-77513095D01*
X116132986Y-77723462D01*
X116060023Y-77948017D01*
X116023089Y-78181212D01*
X109623589Y-78181212D01*
X109623589Y-76270467D01*
X151723089Y-76270467D01*
X151723089Y-76428062D01*
X151753830Y-76582608D01*
X151753832Y-76582616D01*
X151807242Y-76711558D01*
X152169535Y-76349266D01*
X152169535Y-76349264D01*
X152139699Y-76319428D01*
X152373089Y-76319428D01*
X152373089Y-76379102D01*
X152395925Y-76434233D01*
X152438121Y-76476429D01*
X152493252Y-76499265D01*
X152552926Y-76499265D01*
X152608057Y-76476429D01*
X152650253Y-76434233D01*
X152673089Y-76379102D01*
X152673089Y-76349264D01*
X152876642Y-76349264D01*
X153123089Y-76595711D01*
X153369535Y-76349266D01*
X153369535Y-76349265D01*
X153339698Y-76319428D01*
X153573089Y-76319428D01*
X153573089Y-76379102D01*
X153595925Y-76434233D01*
X153638121Y-76476429D01*
X153693252Y-76499265D01*
X153752926Y-76499265D01*
X153808057Y-76476429D01*
X153850253Y-76434233D01*
X153873089Y-76379102D01*
X153873089Y-76349264D01*
X154076642Y-76349264D01*
X154076642Y-76349266D01*
X154438934Y-76711558D01*
X154492346Y-76582612D01*
X154492347Y-76582608D01*
X154523088Y-76428062D01*
X154523089Y-76428059D01*
X154523089Y-76270471D01*
X154523088Y-76270467D01*
X154492347Y-76115921D01*
X154492346Y-76115917D01*
X154438934Y-75986971D01*
X154076642Y-76349264D01*
X153873089Y-76349264D01*
X153873089Y-76319428D01*
X153850253Y-76264297D01*
X153808057Y-76222101D01*
X153752926Y-76199265D01*
X153693252Y-76199265D01*
X153638121Y-76222101D01*
X153595925Y-76264297D01*
X153573089Y-76319428D01*
X153339698Y-76319428D01*
X153123089Y-76102818D01*
X152876642Y-76349264D01*
X152673089Y-76349264D01*
X152673089Y-76319428D01*
X152650253Y-76264297D01*
X152608057Y-76222101D01*
X152552926Y-76199265D01*
X152493252Y-76199265D01*
X152438121Y-76222101D01*
X152395925Y-76264297D01*
X152373089Y-76319428D01*
X152139699Y-76319428D01*
X151807242Y-75986970D01*
X151753832Y-76115913D01*
X151753830Y-76115921D01*
X151723089Y-76270467D01*
X109623589Y-76270467D01*
X109623589Y-75065110D01*
X130860795Y-75065110D01*
X130989741Y-75118522D01*
X130989745Y-75118523D01*
X131144291Y-75149264D01*
X131144295Y-75149265D01*
X131301883Y-75149265D01*
X131301886Y-75149264D01*
X131456432Y-75118523D01*
X131456436Y-75118522D01*
X131585382Y-75065110D01*
X132060795Y-75065110D01*
X132189741Y-75118522D01*
X132189745Y-75118523D01*
X132344291Y-75149264D01*
X132344295Y-75149265D01*
X132501883Y-75149265D01*
X132501886Y-75149264D01*
X132656432Y-75118523D01*
X132656436Y-75118522D01*
X132785382Y-75065110D01*
X132423090Y-74702818D01*
X132423089Y-74702818D01*
X132060795Y-75065110D01*
X131585382Y-75065110D01*
X131223090Y-74702818D01*
X131223089Y-74702818D01*
X130860795Y-75065110D01*
X109623589Y-75065110D01*
X109623589Y-74270467D01*
X130423089Y-74270467D01*
X130423089Y-74428062D01*
X130453830Y-74582608D01*
X130453832Y-74582616D01*
X130507242Y-74711558D01*
X130869535Y-74349266D01*
X130869535Y-74349264D01*
X130839699Y-74319428D01*
X131073089Y-74319428D01*
X131073089Y-74379102D01*
X131095925Y-74434233D01*
X131138121Y-74476429D01*
X131193252Y-74499265D01*
X131252926Y-74499265D01*
X131308057Y-74476429D01*
X131350253Y-74434233D01*
X131373089Y-74379102D01*
X131373089Y-74349264D01*
X131576642Y-74349264D01*
X131823089Y-74595711D01*
X132069535Y-74349266D01*
X132069535Y-74349265D01*
X132039698Y-74319428D01*
X132273089Y-74319428D01*
X132273089Y-74379102D01*
X132295925Y-74434233D01*
X132338121Y-74476429D01*
X132393252Y-74499265D01*
X132452926Y-74499265D01*
X132508057Y-74476429D01*
X132550253Y-74434233D01*
X132573089Y-74379102D01*
X132573089Y-74349264D01*
X132776642Y-74349264D01*
X132776642Y-74349266D01*
X133138934Y-74711558D01*
X133192346Y-74582612D01*
X133192347Y-74582608D01*
X133223088Y-74428062D01*
X133223089Y-74428059D01*
X133223089Y-74270471D01*
X133223088Y-74270467D01*
X133192347Y-74115921D01*
X133192344Y-74115908D01*
X133165944Y-74052175D01*
X133165932Y-74052148D01*
X133147960Y-74008760D01*
X139272589Y-74008760D01*
X139272589Y-74244769D01*
X139272590Y-74244785D01*
X139303086Y-74476429D01*
X139303396Y-74478779D01*
X139320099Y-74541116D01*
X139364483Y-74706758D01*
X139454803Y-74924810D01*
X139454808Y-74924821D01*
X139525766Y-75047722D01*
X139572816Y-75129215D01*
X139572818Y-75129218D01*
X139572819Y-75129219D01*
X139716495Y-75316462D01*
X139716501Y-75316469D01*
X139883384Y-75483352D01*
X139883391Y-75483358D01*
X139899722Y-75495889D01*
X140070639Y-75627038D01*
X140202007Y-75702883D01*
X140275032Y-75745045D01*
X140275037Y-75745047D01*
X140275040Y-75745049D01*
X140493096Y-75835371D01*
X140721075Y-75896458D01*
X140955078Y-75927265D01*
X140955085Y-75927265D01*
X141191093Y-75927265D01*
X141191100Y-75927265D01*
X141425103Y-75896458D01*
X141653082Y-75835371D01*
X141871138Y-75745049D01*
X142075539Y-75627038D01*
X142262788Y-75483357D01*
X142429681Y-75316464D01*
X142573362Y-75129215D01*
X142691373Y-74924814D01*
X142781695Y-74706758D01*
X142842782Y-74478779D01*
X142873589Y-74244776D01*
X142873589Y-74008754D01*
X142842782Y-73774751D01*
X142781695Y-73546772D01*
X142691373Y-73328716D01*
X142691371Y-73328713D01*
X142691369Y-73328708D01*
X142606120Y-73181054D01*
X142573362Y-73124315D01*
X142531345Y-73069557D01*
X142498520Y-73026778D01*
X144273089Y-73026778D01*
X144273089Y-73876765D01*
X145473088Y-73876765D01*
X145448068Y-73937167D01*
X145423089Y-74062746D01*
X145423089Y-74190784D01*
X145448068Y-74316363D01*
X145473088Y-74376765D01*
X144273090Y-74376765D01*
X144273090Y-75226751D01*
X144283583Y-75329462D01*
X144338730Y-75495884D01*
X144338732Y-75495889D01*
X144430773Y-75645110D01*
X144554743Y-75769080D01*
X144703964Y-75861121D01*
X144703969Y-75861123D01*
X144870391Y-75916270D01*
X144870398Y-75916271D01*
X144973108Y-75926764D01*
X145823088Y-75926764D01*
X145823089Y-75926763D01*
X145823089Y-74726766D01*
X145883491Y-74751786D01*
X146009070Y-74776765D01*
X146137108Y-74776765D01*
X146262687Y-74751786D01*
X146323089Y-74726766D01*
X146323089Y-75926764D01*
X147173061Y-75926764D01*
X147173075Y-75926763D01*
X147275786Y-75916270D01*
X147442208Y-75861123D01*
X147442213Y-75861121D01*
X147591434Y-75769080D01*
X147611250Y-75749264D01*
X152276642Y-75749264D01*
X152523089Y-75995711D01*
X152769535Y-75749266D01*
X152769535Y-75749265D01*
X152769534Y-75749264D01*
X153476642Y-75749264D01*
X153723089Y-75995711D01*
X153969535Y-75749266D01*
X153969535Y-75749265D01*
X153723089Y-75502818D01*
X153476642Y-75749264D01*
X152769534Y-75749264D01*
X152523089Y-75502818D01*
X152276642Y-75749264D01*
X147611250Y-75749264D01*
X147715404Y-75645110D01*
X147722994Y-75632806D01*
X147807445Y-75495889D01*
X147807447Y-75495884D01*
X147862594Y-75329462D01*
X147862595Y-75329455D01*
X147873088Y-75226751D01*
X147873089Y-75226738D01*
X147873089Y-75070467D01*
X151723089Y-75070467D01*
X151723089Y-75228062D01*
X151753830Y-75382608D01*
X151753832Y-75382616D01*
X151807242Y-75511558D01*
X152169535Y-75149266D01*
X152169535Y-75149264D01*
X152139699Y-75119428D01*
X152373089Y-75119428D01*
X152373089Y-75179102D01*
X152395925Y-75234233D01*
X152438121Y-75276429D01*
X152493252Y-75299265D01*
X152552926Y-75299265D01*
X152608057Y-75276429D01*
X152650253Y-75234233D01*
X152673089Y-75179102D01*
X152673089Y-75149264D01*
X152876642Y-75149264D01*
X153123089Y-75395711D01*
X153369535Y-75149266D01*
X153369535Y-75149265D01*
X153339698Y-75119428D01*
X153573089Y-75119428D01*
X153573089Y-75179102D01*
X153595925Y-75234233D01*
X153638121Y-75276429D01*
X153693252Y-75299265D01*
X153752926Y-75299265D01*
X153808057Y-75276429D01*
X153850253Y-75234233D01*
X153873089Y-75179102D01*
X153873089Y-75149264D01*
X154076642Y-75149264D01*
X154076642Y-75149266D01*
X154438934Y-75511558D01*
X154492346Y-75382612D01*
X154492347Y-75382608D01*
X154523088Y-75228062D01*
X154523089Y-75228059D01*
X154523089Y-75070471D01*
X154523088Y-75070467D01*
X154492347Y-74915921D01*
X154492346Y-74915917D01*
X154438934Y-74786971D01*
X154076642Y-75149264D01*
X153873089Y-75149264D01*
X153873089Y-75119428D01*
X153850253Y-75064297D01*
X153808057Y-75022101D01*
X153752926Y-74999265D01*
X153693252Y-74999265D01*
X153638121Y-75022101D01*
X153595925Y-75064297D01*
X153573089Y-75119428D01*
X153339698Y-75119428D01*
X153123089Y-74902818D01*
X152876642Y-75149264D01*
X152673089Y-75149264D01*
X152673089Y-75119428D01*
X152650253Y-75064297D01*
X152608057Y-75022101D01*
X152552926Y-74999265D01*
X152493252Y-74999265D01*
X152438121Y-75022101D01*
X152395925Y-75064297D01*
X152373089Y-75119428D01*
X152139699Y-75119428D01*
X151807242Y-74786970D01*
X151753832Y-74915913D01*
X151753830Y-74915921D01*
X151723089Y-75070467D01*
X147873089Y-75070467D01*
X147873089Y-74499265D01*
X152226642Y-74499265D01*
X152523089Y-74795711D01*
X152523090Y-74795711D01*
X152819535Y-74499266D01*
X152819535Y-74499265D01*
X153426642Y-74499265D01*
X153723089Y-74795711D01*
X153723090Y-74795711D01*
X154019535Y-74499266D01*
X154019535Y-74499264D01*
X153723090Y-74202818D01*
X153723089Y-74202818D01*
X153426642Y-74499265D01*
X152819535Y-74499265D01*
X152819535Y-74499264D01*
X152523090Y-74202818D01*
X152523089Y-74202818D01*
X152226642Y-74499265D01*
X147873089Y-74499265D01*
X147873089Y-74376765D01*
X146673090Y-74376765D01*
X146698110Y-74316363D01*
X146723089Y-74190784D01*
X146723089Y-74062746D01*
X146698110Y-73937167D01*
X146673090Y-73876765D01*
X147873088Y-73876765D01*
X147873088Y-73770467D01*
X151723089Y-73770467D01*
X151723089Y-73928062D01*
X151753830Y-74082608D01*
X151753832Y-74082616D01*
X151807242Y-74211558D01*
X152169535Y-73849266D01*
X152169535Y-73849264D01*
X152139699Y-73819428D01*
X152373089Y-73819428D01*
X152373089Y-73879102D01*
X152395925Y-73934233D01*
X152438121Y-73976429D01*
X152493252Y-73999265D01*
X152552926Y-73999265D01*
X152608057Y-73976429D01*
X152650253Y-73934233D01*
X152673089Y-73879102D01*
X152673089Y-73849264D01*
X152876642Y-73849264D01*
X153123089Y-74095711D01*
X153369535Y-73849266D01*
X153369535Y-73849265D01*
X153339698Y-73819428D01*
X153573089Y-73819428D01*
X153573089Y-73879102D01*
X153595925Y-73934233D01*
X153638121Y-73976429D01*
X153693252Y-73999265D01*
X153752926Y-73999265D01*
X153808057Y-73976429D01*
X153850253Y-73934233D01*
X153873089Y-73879102D01*
X153873089Y-73849264D01*
X154076642Y-73849264D01*
X154076642Y-73849266D01*
X154438934Y-74211558D01*
X154492346Y-74082612D01*
X154492347Y-74082608D01*
X154523088Y-73928062D01*
X154523089Y-73928059D01*
X154523089Y-73770471D01*
X154523088Y-73770467D01*
X154492347Y-73615921D01*
X154492346Y-73615917D01*
X154438934Y-73486971D01*
X154076642Y-73849264D01*
X153873089Y-73849264D01*
X153873089Y-73819428D01*
X153850253Y-73764297D01*
X153808057Y-73722101D01*
X153752926Y-73699265D01*
X153693252Y-73699265D01*
X153638121Y-73722101D01*
X153595925Y-73764297D01*
X153573089Y-73819428D01*
X153339698Y-73819428D01*
X153123089Y-73602818D01*
X152876642Y-73849264D01*
X152673089Y-73849264D01*
X152673089Y-73819428D01*
X152650253Y-73764297D01*
X152608057Y-73722101D01*
X152552926Y-73699265D01*
X152493252Y-73699265D01*
X152438121Y-73722101D01*
X152395925Y-73764297D01*
X152373089Y-73819428D01*
X152139699Y-73819428D01*
X151807242Y-73486970D01*
X151753832Y-73615913D01*
X151753830Y-73615921D01*
X151723089Y-73770467D01*
X147873088Y-73770467D01*
X147873088Y-73299264D01*
X152326642Y-73299264D01*
X152523089Y-73495711D01*
X152719535Y-73299266D01*
X152719535Y-73299265D01*
X152719534Y-73299264D01*
X153526642Y-73299264D01*
X153723089Y-73495711D01*
X153919535Y-73299266D01*
X153919535Y-73299265D01*
X153723089Y-73102818D01*
X153526642Y-73299264D01*
X152719534Y-73299264D01*
X152523089Y-73102818D01*
X152326642Y-73299264D01*
X147873088Y-73299264D01*
X147873088Y-73026793D01*
X147873087Y-73026778D01*
X147862594Y-72924067D01*
X147807447Y-72757645D01*
X147807442Y-72757636D01*
X147790074Y-72729476D01*
X147790073Y-72729474D01*
X147753677Y-72670467D01*
X151723089Y-72670467D01*
X151723089Y-72828062D01*
X151753830Y-72982608D01*
X151753832Y-72982616D01*
X151807242Y-73111558D01*
X152169535Y-72749266D01*
X152169535Y-72749264D01*
X152139699Y-72719428D01*
X152373089Y-72719428D01*
X152373089Y-72779102D01*
X152395925Y-72834233D01*
X152438121Y-72876429D01*
X152493252Y-72899265D01*
X152552926Y-72899265D01*
X152608057Y-72876429D01*
X152650253Y-72834233D01*
X152673089Y-72779102D01*
X152673089Y-72749264D01*
X152876642Y-72749264D01*
X153123089Y-72995711D01*
X153369535Y-72749266D01*
X153369535Y-72749265D01*
X153339698Y-72719428D01*
X153573089Y-72719428D01*
X153573089Y-72779102D01*
X153595925Y-72834233D01*
X153638121Y-72876429D01*
X153693252Y-72899265D01*
X153752926Y-72899265D01*
X153808057Y-72876429D01*
X153850253Y-72834233D01*
X153873089Y-72779102D01*
X153873089Y-72749264D01*
X154076642Y-72749264D01*
X154076642Y-72749266D01*
X154438934Y-73111558D01*
X154492346Y-72982612D01*
X154492347Y-72982608D01*
X154523088Y-72828062D01*
X154523089Y-72828059D01*
X154523089Y-72670471D01*
X154523088Y-72670467D01*
X154492347Y-72515921D01*
X154492346Y-72515917D01*
X154438934Y-72386971D01*
X154076642Y-72749264D01*
X153873089Y-72749264D01*
X153873089Y-72719428D01*
X153850253Y-72664297D01*
X153808057Y-72622101D01*
X153752926Y-72599265D01*
X153693252Y-72599265D01*
X153638121Y-72622101D01*
X153595925Y-72664297D01*
X153573089Y-72719428D01*
X153339698Y-72719428D01*
X153123089Y-72502818D01*
X152876642Y-72749264D01*
X152673089Y-72749264D01*
X152673089Y-72719428D01*
X152650253Y-72664297D01*
X152608057Y-72622101D01*
X152552926Y-72599265D01*
X152493252Y-72599265D01*
X152438121Y-72622101D01*
X152395925Y-72664297D01*
X152373089Y-72719428D01*
X152139699Y-72719428D01*
X151807242Y-72386970D01*
X151753832Y-72515913D01*
X151753830Y-72515921D01*
X151723089Y-72670467D01*
X147753677Y-72670467D01*
X147715408Y-72608424D01*
X147715405Y-72608420D01*
X147591434Y-72484449D01*
X147442213Y-72392408D01*
X147442208Y-72392406D01*
X147275786Y-72337259D01*
X147275779Y-72337258D01*
X147173075Y-72326765D01*
X146323089Y-72326765D01*
X146323089Y-73526763D01*
X146262687Y-73501744D01*
X146137108Y-73476765D01*
X146009070Y-73476765D01*
X145883491Y-73501744D01*
X145823089Y-73526763D01*
X145823089Y-72326765D01*
X144973117Y-72326765D01*
X144973101Y-72326766D01*
X144870391Y-72337259D01*
X144703969Y-72392406D01*
X144703964Y-72392408D01*
X144554743Y-72484449D01*
X144430773Y-72608419D01*
X144338732Y-72757640D01*
X144338730Y-72757645D01*
X144283583Y-72924067D01*
X144283582Y-72924074D01*
X144273089Y-73026778D01*
X142498520Y-73026778D01*
X142429682Y-72937067D01*
X142429676Y-72937060D01*
X142262793Y-72770177D01*
X142262786Y-72770171D01*
X142075543Y-72626495D01*
X142075542Y-72626494D01*
X142075539Y-72626492D01*
X141994046Y-72579442D01*
X141871145Y-72508484D01*
X141871134Y-72508479D01*
X141653082Y-72418159D01*
X141467073Y-72368318D01*
X141425103Y-72357072D01*
X141425102Y-72357071D01*
X141425099Y-72357071D01*
X141191109Y-72326266D01*
X141191106Y-72326265D01*
X141191100Y-72326265D01*
X140955078Y-72326265D01*
X140955072Y-72326265D01*
X140955068Y-72326266D01*
X140721078Y-72357071D01*
X140493095Y-72418159D01*
X140275043Y-72508479D01*
X140275032Y-72508484D01*
X140090833Y-72614833D01*
X140078245Y-72622101D01*
X140070634Y-72626495D01*
X139883391Y-72770171D01*
X139883384Y-72770177D01*
X139716501Y-72937060D01*
X139716495Y-72937067D01*
X139572819Y-73124310D01*
X139454808Y-73328708D01*
X139454803Y-73328719D01*
X139364483Y-73546771D01*
X139303395Y-73774754D01*
X139272590Y-74008744D01*
X139272589Y-74008760D01*
X133147960Y-74008760D01*
X133138934Y-73986970D01*
X132776642Y-74349264D01*
X132573089Y-74349264D01*
X132573089Y-74319428D01*
X132550253Y-74264297D01*
X132508057Y-74222101D01*
X132452926Y-74199265D01*
X132393252Y-74199265D01*
X132338121Y-74222101D01*
X132295925Y-74264297D01*
X132273089Y-74319428D01*
X132039698Y-74319428D01*
X131823089Y-74102818D01*
X131576642Y-74349264D01*
X131373089Y-74349264D01*
X131373089Y-74319428D01*
X131350253Y-74264297D01*
X131308057Y-74222101D01*
X131252926Y-74199265D01*
X131193252Y-74199265D01*
X131138121Y-74222101D01*
X131095925Y-74264297D01*
X131073089Y-74319428D01*
X130839699Y-74319428D01*
X130507242Y-73986970D01*
X130453832Y-74115913D01*
X130453830Y-74115921D01*
X130423089Y-74270467D01*
X109623589Y-74270467D01*
X109623589Y-73749264D01*
X130976642Y-73749264D01*
X131223089Y-73995711D01*
X131469535Y-73749266D01*
X131469535Y-73749265D01*
X131469534Y-73749264D01*
X132176642Y-73749264D01*
X132423089Y-73995711D01*
X132669535Y-73749266D01*
X132669535Y-73749265D01*
X132423089Y-73502818D01*
X132176642Y-73749264D01*
X131469534Y-73749264D01*
X131223089Y-73502818D01*
X130976642Y-73749264D01*
X109623589Y-73749264D01*
X109623589Y-73070467D01*
X130423089Y-73070467D01*
X130423089Y-73228062D01*
X130453830Y-73382608D01*
X130453832Y-73382616D01*
X130507242Y-73511558D01*
X130869535Y-73149266D01*
X130869535Y-73149264D01*
X130839699Y-73119428D01*
X131073089Y-73119428D01*
X131073089Y-73179102D01*
X131095925Y-73234233D01*
X131138121Y-73276429D01*
X131193252Y-73299265D01*
X131252926Y-73299265D01*
X131308057Y-73276429D01*
X131350253Y-73234233D01*
X131373089Y-73179102D01*
X131373089Y-73149264D01*
X131576642Y-73149264D01*
X131823089Y-73395711D01*
X132069535Y-73149266D01*
X132069535Y-73149265D01*
X132039698Y-73119428D01*
X132273089Y-73119428D01*
X132273089Y-73179102D01*
X132295925Y-73234233D01*
X132338121Y-73276429D01*
X132393252Y-73299265D01*
X132452926Y-73299265D01*
X132508057Y-73276429D01*
X132550253Y-73234233D01*
X132573089Y-73179102D01*
X132573089Y-73149264D01*
X132776642Y-73149264D01*
X132776642Y-73149266D01*
X133138934Y-73511558D01*
X133192346Y-73382612D01*
X133192347Y-73382608D01*
X133223088Y-73228062D01*
X133223089Y-73228059D01*
X133223089Y-73070471D01*
X133223088Y-73070467D01*
X133192347Y-72915921D01*
X133192346Y-72915917D01*
X133138934Y-72786971D01*
X132776642Y-73149264D01*
X132573089Y-73149264D01*
X132573089Y-73119428D01*
X132550253Y-73064297D01*
X132508057Y-73022101D01*
X132452926Y-72999265D01*
X132393252Y-72999265D01*
X132338121Y-73022101D01*
X132295925Y-73064297D01*
X132273089Y-73119428D01*
X132039698Y-73119428D01*
X131823089Y-72902818D01*
X131576642Y-73149264D01*
X131373089Y-73149264D01*
X131373089Y-73119428D01*
X131350253Y-73064297D01*
X131308057Y-73022101D01*
X131252926Y-72999265D01*
X131193252Y-72999265D01*
X131138121Y-73022101D01*
X131095925Y-73064297D01*
X131073089Y-73119428D01*
X130839699Y-73119428D01*
X130507242Y-72786970D01*
X130453832Y-72915913D01*
X130453830Y-72915921D01*
X130423089Y-73070467D01*
X109623589Y-73070467D01*
X109623589Y-72952517D01*
X109623759Y-72946027D01*
X109625175Y-72919003D01*
X109640779Y-72621303D01*
X109642134Y-72608424D01*
X109659424Y-72499265D01*
X130926642Y-72499265D01*
X131223089Y-72795711D01*
X131223090Y-72795711D01*
X131519535Y-72499266D01*
X131519535Y-72499265D01*
X132126642Y-72499265D01*
X132423089Y-72795711D01*
X132423090Y-72795711D01*
X132719535Y-72499266D01*
X132719535Y-72499264D01*
X132700689Y-72480418D01*
X135322589Y-72480418D01*
X135322589Y-72638111D01*
X135353350Y-72792754D01*
X135353353Y-72792766D01*
X135413691Y-72938437D01*
X135413698Y-72938450D01*
X135501299Y-73069553D01*
X135501302Y-73069557D01*
X135612796Y-73181051D01*
X135612800Y-73181054D01*
X135743903Y-73268655D01*
X135743916Y-73268662D01*
X135888909Y-73328719D01*
X135889592Y-73329002D01*
X136044242Y-73359764D01*
X136044245Y-73359765D01*
X136044247Y-73359765D01*
X136201933Y-73359765D01*
X136201934Y-73359764D01*
X136356586Y-73329002D01*
X136469255Y-73282332D01*
X136502261Y-73268662D01*
X136502261Y-73268661D01*
X136502268Y-73268659D01*
X136633378Y-73181054D01*
X136744878Y-73069554D01*
X136832483Y-72938444D01*
X136892826Y-72792762D01*
X136923589Y-72638107D01*
X136923589Y-72480423D01*
X136923589Y-72480420D01*
X136923588Y-72480418D01*
X136918429Y-72454482D01*
X136892826Y-72325768D01*
X136892824Y-72325763D01*
X136832486Y-72180092D01*
X136832484Y-72180088D01*
X136832483Y-72180086D01*
X136744878Y-72048976D01*
X136744875Y-72048972D01*
X136729321Y-72033418D01*
X152160794Y-72033418D01*
X152523089Y-72395711D01*
X152523090Y-72395711D01*
X152885382Y-72033418D01*
X153360794Y-72033418D01*
X153723089Y-72395711D01*
X153723090Y-72395711D01*
X154048382Y-72070418D01*
X159072589Y-72070418D01*
X159072589Y-72228111D01*
X159103350Y-72382754D01*
X159103353Y-72382766D01*
X159163691Y-72528437D01*
X159163698Y-72528450D01*
X159251299Y-72659553D01*
X159251302Y-72659557D01*
X159362796Y-72771051D01*
X159362800Y-72771054D01*
X159493903Y-72858655D01*
X159493916Y-72858662D01*
X159553575Y-72883373D01*
X159639592Y-72919002D01*
X159794242Y-72949764D01*
X159794245Y-72949765D01*
X159794247Y-72949765D01*
X159951933Y-72949765D01*
X159951934Y-72949764D01*
X160106586Y-72919002D01*
X160252268Y-72858659D01*
X160383378Y-72771054D01*
X160494878Y-72659554D01*
X160582483Y-72528444D01*
X160587674Y-72515913D01*
X160637462Y-72395711D01*
X160642826Y-72382762D01*
X160673589Y-72228107D01*
X160673589Y-72070423D01*
X160673589Y-72070420D01*
X160673588Y-72070418D01*
X160654892Y-71976429D01*
X160642826Y-71915768D01*
X160615280Y-71849265D01*
X160582486Y-71770092D01*
X160582479Y-71770079D01*
X160494878Y-71638976D01*
X160494875Y-71638972D01*
X160383381Y-71527478D01*
X160383377Y-71527475D01*
X160252274Y-71439874D01*
X160252261Y-71439867D01*
X160106590Y-71379529D01*
X160106578Y-71379526D01*
X159951934Y-71348765D01*
X159951931Y-71348765D01*
X159794247Y-71348765D01*
X159794244Y-71348765D01*
X159639599Y-71379526D01*
X159639587Y-71379529D01*
X159493916Y-71439867D01*
X159493903Y-71439874D01*
X159362800Y-71527475D01*
X159362796Y-71527478D01*
X159251302Y-71638972D01*
X159251299Y-71638976D01*
X159163698Y-71770079D01*
X159163691Y-71770092D01*
X159103353Y-71915763D01*
X159103350Y-71915775D01*
X159072589Y-72070418D01*
X154048382Y-72070418D01*
X154085382Y-72033418D01*
X153956440Y-71980008D01*
X153956432Y-71980006D01*
X153801886Y-71949265D01*
X153644291Y-71949265D01*
X153489745Y-71980006D01*
X153489737Y-71980008D01*
X153360794Y-72033418D01*
X152885382Y-72033418D01*
X152756440Y-71980008D01*
X152756432Y-71980006D01*
X152601886Y-71949265D01*
X152444291Y-71949265D01*
X152289745Y-71980006D01*
X152289737Y-71980008D01*
X152160794Y-72033418D01*
X136729321Y-72033418D01*
X136633381Y-71937478D01*
X136633377Y-71937475D01*
X136502274Y-71849874D01*
X136502261Y-71849867D01*
X136356590Y-71789529D01*
X136356578Y-71789526D01*
X136201934Y-71758765D01*
X136201931Y-71758765D01*
X136044247Y-71758765D01*
X136044244Y-71758765D01*
X135889599Y-71789526D01*
X135889587Y-71789529D01*
X135743916Y-71849867D01*
X135743903Y-71849874D01*
X135612800Y-71937475D01*
X135612796Y-71937478D01*
X135501302Y-72048972D01*
X135501299Y-72048976D01*
X135413698Y-72180079D01*
X135413691Y-72180092D01*
X135353353Y-72325763D01*
X135353350Y-72325775D01*
X135322589Y-72480418D01*
X132700689Y-72480418D01*
X132423090Y-72202818D01*
X132423089Y-72202818D01*
X132126642Y-72499265D01*
X131519535Y-72499265D01*
X131519535Y-72499264D01*
X131223090Y-72202818D01*
X131223089Y-72202818D01*
X130926642Y-72499265D01*
X109659424Y-72499265D01*
X109692494Y-72290478D01*
X109695191Y-72277790D01*
X109721373Y-72180080D01*
X109778510Y-71966847D01*
X109782521Y-71954505D01*
X109784533Y-71949265D01*
X109853168Y-71770467D01*
X130423089Y-71770467D01*
X130423089Y-71928062D01*
X130453830Y-72082608D01*
X130453832Y-72082616D01*
X130507242Y-72211558D01*
X130869535Y-71849266D01*
X130869535Y-71849264D01*
X130839699Y-71819428D01*
X131073089Y-71819428D01*
X131073089Y-71879102D01*
X131095925Y-71934233D01*
X131138121Y-71976429D01*
X131193252Y-71999265D01*
X131252926Y-71999265D01*
X131308057Y-71976429D01*
X131350253Y-71934233D01*
X131373089Y-71879102D01*
X131373089Y-71849264D01*
X131576642Y-71849264D01*
X131823089Y-72095711D01*
X132069535Y-71849266D01*
X132069535Y-71849265D01*
X132039698Y-71819428D01*
X132273089Y-71819428D01*
X132273089Y-71879102D01*
X132295925Y-71934233D01*
X132338121Y-71976429D01*
X132393252Y-71999265D01*
X132452926Y-71999265D01*
X132508057Y-71976429D01*
X132550253Y-71934233D01*
X132573089Y-71879102D01*
X132573089Y-71849264D01*
X132776642Y-71849264D01*
X132776642Y-71849266D01*
X133138934Y-72211558D01*
X133192346Y-72082612D01*
X133192347Y-72082608D01*
X133223088Y-71928062D01*
X133223089Y-71928059D01*
X133223089Y-71770471D01*
X133223088Y-71770467D01*
X133192347Y-71615921D01*
X133192346Y-71615917D01*
X133138934Y-71486971D01*
X132776642Y-71849264D01*
X132573089Y-71849264D01*
X132573089Y-71819428D01*
X132550253Y-71764297D01*
X132508057Y-71722101D01*
X132452926Y-71699265D01*
X132393252Y-71699265D01*
X132338121Y-71722101D01*
X132295925Y-71764297D01*
X132273089Y-71819428D01*
X132039698Y-71819428D01*
X131823089Y-71602818D01*
X131576642Y-71849264D01*
X131373089Y-71849264D01*
X131373089Y-71819428D01*
X131350253Y-71764297D01*
X131308057Y-71722101D01*
X131252926Y-71699265D01*
X131193252Y-71699265D01*
X131138121Y-71722101D01*
X131095925Y-71764297D01*
X131073089Y-71819428D01*
X130839699Y-71819428D01*
X130507242Y-71486970D01*
X130453832Y-71615913D01*
X130453830Y-71615921D01*
X130423089Y-71770467D01*
X109853168Y-71770467D01*
X109897885Y-71653977D01*
X109903154Y-71642142D01*
X110049311Y-71355298D01*
X110055776Y-71344101D01*
X110084894Y-71299264D01*
X131026642Y-71299264D01*
X131223089Y-71495711D01*
X131419535Y-71299266D01*
X131419535Y-71299265D01*
X131419534Y-71299264D01*
X132226642Y-71299264D01*
X132423089Y-71495711D01*
X132619535Y-71299266D01*
X132619535Y-71299265D01*
X132423089Y-71102818D01*
X132226642Y-71299264D01*
X131419534Y-71299264D01*
X131223089Y-71102818D01*
X131026642Y-71299264D01*
X110084894Y-71299264D01*
X110231120Y-71074098D01*
X110238730Y-71063623D01*
X110441329Y-70813437D01*
X110449995Y-70803813D01*
X110583342Y-70670467D01*
X130423089Y-70670467D01*
X130423089Y-70828062D01*
X130453830Y-70982608D01*
X130453832Y-70982616D01*
X130507242Y-71111558D01*
X130869535Y-70749266D01*
X130869535Y-70749264D01*
X130839699Y-70719428D01*
X131073089Y-70719428D01*
X131073089Y-70779102D01*
X131095925Y-70834233D01*
X131138121Y-70876429D01*
X131193252Y-70899265D01*
X131252926Y-70899265D01*
X131308057Y-70876429D01*
X131350253Y-70834233D01*
X131373089Y-70779102D01*
X131373089Y-70749264D01*
X131576642Y-70749264D01*
X131823089Y-70995711D01*
X132069535Y-70749266D01*
X132069535Y-70749265D01*
X132039698Y-70719428D01*
X132273089Y-70719428D01*
X132273089Y-70779102D01*
X132295925Y-70834233D01*
X132338121Y-70876429D01*
X132393252Y-70899265D01*
X132452926Y-70899265D01*
X132508057Y-70876429D01*
X132550253Y-70834233D01*
X132573089Y-70779102D01*
X132573089Y-70749264D01*
X132776642Y-70749264D01*
X132776642Y-70749266D01*
X133138934Y-71111558D01*
X133192346Y-70982612D01*
X133192347Y-70982608D01*
X133223088Y-70828062D01*
X133223089Y-70828059D01*
X133223089Y-70670471D01*
X133223088Y-70670467D01*
X133192347Y-70515921D01*
X133192346Y-70515917D01*
X133138934Y-70386971D01*
X132776642Y-70749264D01*
X132573089Y-70749264D01*
X132573089Y-70719428D01*
X132550253Y-70664297D01*
X132508057Y-70622101D01*
X132452926Y-70599265D01*
X132393252Y-70599265D01*
X132338121Y-70622101D01*
X132295925Y-70664297D01*
X132273089Y-70719428D01*
X132039698Y-70719428D01*
X131823089Y-70502818D01*
X131576642Y-70749264D01*
X131373089Y-70749264D01*
X131373089Y-70719428D01*
X131350253Y-70664297D01*
X131308057Y-70622101D01*
X131252926Y-70599265D01*
X131193252Y-70599265D01*
X131138121Y-70622101D01*
X131095925Y-70664297D01*
X131073089Y-70719428D01*
X130839699Y-70719428D01*
X130507242Y-70386970D01*
X130453832Y-70515913D01*
X130453830Y-70515921D01*
X130423089Y-70670467D01*
X110583342Y-70670467D01*
X110677626Y-70576183D01*
X110687252Y-70567515D01*
X110937450Y-70364910D01*
X110947913Y-70357308D01*
X111217899Y-70181977D01*
X111229126Y-70175495D01*
X111515970Y-70029342D01*
X111527792Y-70024078D01*
X111828337Y-69908710D01*
X111840659Y-69904706D01*
X112151618Y-69821384D01*
X112164294Y-69818691D01*
X112482233Y-69768333D01*
X112495137Y-69766977D01*
X112577376Y-69762666D01*
X112820308Y-69749935D01*
X112826798Y-69749765D01*
X112888983Y-69749765D01*
X130922204Y-69749765D01*
X130989243Y-69769450D01*
G37*
%TD.AperFunction*%
%TD*%
M02*
